<svg xmlns="http://www.w3.org/2000/svg" xmlns:xlink="http://www.w3.org/1999/xlink" width="168.55" height="69.391" viewBox="0 0 168.55 69.391">
  <defs>
    <clipPath id="clip-path">
      <rect id="Rectangle_25" data-name="Rectangle 25" width="168.55" height="69.391" fill="none"/>
    </clipPath>
  </defs>
  <g id="Bandland_Logo" data-name="Bandland Logo" transform="translate(168.55 69.391) rotate(180)">
    <g id="Group_90" data-name="Group 90" clip-path="url(#clip-path)">
      <path id="Path_5085" data-name="Path 5085" d="M67.592,6.035l.077.015-.054.162.077.015-.054.162.077.015-.054.162.077.015-.054.163.077.015-.054.162.077.015-.054.162.077.015-.054.163.077.015-.054.162.077.015-.054.162.077.015-.054.163.077.015-.054.162L67.924,8l-.054.162.077.015-.054.162.077.015-.054.163.077.015L67.94,8.7l.077.015-.054.162.077.015-.054.163.077.015-.054.162.077.015-.054.162.077.015-.054.163.077.015-.054.162.077.015-.054.162.077.015-.054.163.077.015-.054.162.077.015-.054.162.077.015-.054.162.077.015-.054.163.077.015L68.241,11l.077.015-.054.162.077.015-.054.163.077.015-.054.162.077.015-.054.162.077.015-.054.163.077.015-.054.162.077.015-.054.162.077.015-.054.162.077.015-.054.163.077.015-.054.162.077.015-.054.162.077.015-.054.163.077.015-.054.162.077.015-.054.162.077.015-.054.163.077.015-.054.162.077.015-.054.162.077.015-.054.162.077.015-.054.163.077.015-.054.162.077.015-.054.162.077.015-.054.163.077.015-.054.162.077.015-.054.162.077.015-.054.163.077.015-.054.162.077.015-.054.162.077.015-.054.163.077.015-.054.162.077.015-.054.162.077.015-.054.162.077.015-.054.163.077.015-.054.162.077.015-.054.162.077.015-.054.163.077.015-.054.162.077.015-.054.162.077.015-.054.163.077.015-.054.162.077.015-.054.162.077.015-.054.162.077.015-.054.163.077.015-.054.162.077.015-.054.162.077.015-.054.163.077.015c-.018.054-.036.108-.054.162l.077.015-.054.162.077.015-.054.163.077.015-.054.162.077.015-.054.162.077.015-.054.162.077.015-.054.162.077.015-.054.162.077.015-.054.162.077.015-.054.163.077.015-.054.162.077.015-.054.162.077.015-.054.163.077.015-.054.162.077.015-.054.162.077.015-.054.163.077.015-.054.162.077.015-.054.162.077.015-.054.162.077.015-.054.163.077.015-.054.162.077.015-.054.162.077.015-.054.163.077.015-.054.162.077.015-.054.162.077.015-.054.163.077.015-.054.162.077.015-.054.162.081.016v20.1c-.443.5-.887,1.006-1.33,1.508V20.314l-.026,0v-.187l-.026,0v-.187l-.026,0v-.187l-.026,0v-.187l-.026,0v-.187l-.026,0V19.2l-.026,0v-.187l-.026,0v-.187l-.026,0v-.187l-.026,0v-.187l-.026,0V18.28l-.026,0v-.187l-.026,0V17.91l-.026,0v-.187l-.026,0V17.54l-.026,0v-.187l-.026,0V17.17l-.026,0v-.187l-.026,0V16.8l-.026,0v-.187l-.026,0V16.43l-.026,0v-.187l-.026,0v-.187l-.026,0v-.187l-.026,0v-.187l-.026,0v-.187l-.026,0v-.187l-.026,0v-.187l-.026,0v-.187l-.026,0v-.187l-.026,0v-.187l-.026,0V14.4l-.026,0v-.187l-.026,0v-.187l-.026,0v-.187l-.026,0v-.187l-.026,0v-.187l-.026,0v-.187l-.026,0V13.1l-.026,0v-.187l-.026,0v-.187l-.026,0v-.187l-.026,0v-.187l-.026,0v-.187l-.026,0v-.187l-.026,0v-.187l-.026,0v-.187l-.026,0v-.187l-.026,0v-.187l-.026,0v-.187l-.026,0v-.187l-.025,0V10.7l-.026,0v-.187l-.026,0v-.187l-.026,0v-.187l-.026,0V9.958l-.026,0V9.773l-.026,0V9.589l-.026,0V9.4l-.026,0V9.219l-.026,0V9.034l-.026,0V8.849l-.026,0V8.664l-.026,0V8.479l-.026,0V8.294l-.026,0V8.109l-.026,0V7.924l-.026,0V7.74l-.026,0V7.555l-.026,0V7.37l-.026,0V7.185l-.026,0V7l-.026,0V6.815l-.026,0V6.63l-.026,0V6.445l-.026,0V6.26l-.026,0V6.075l-.026,0V5.89l-.026,0V5.706l-.026,0V5.521l-.026,0V5.336l-.026,0V5.151l-.026,0V4.966l-.026,0V4.781l-.026,0V4.6l-.026,0V4.411l-.026,0V4.226l-.026,0V4.041l-.026,0V3.856l-.026,0V3.672l-.026,0V3.487l-.026,0V3.3l-.026,0V3.117l-.026,0V2.932l-.026,0V2.747l-.026,0V2.562l-.026,0V2.377l-.026,0V2.192l-.026,0V2.007l-.026,0V1.822l-.026,0V1.638q-3.416.206-6.827.49.2,7.437.4,14.874.281,6.492.561,12.985l-.008-.035L60.2,29.9l-.022-.093-.016-.051-.022-.093-.015-.051L60.1,29.52l-.015-.051-.022-.092-.016-.051-.022-.093-.016-.051-.022-.093-.016-.051-.022-.093-.016-.051-.022-.092-.016-.051-.022-.093-.015-.051-.022-.093-.015-.051-.022-.093-.016-.051-.022-.093-.016-.051-.022-.092-.016-.051-.022-.093-.016-.051-.022-.093-.016-.051-.022-.093L59.6,27.6l-.022-.093-.015-.051-.022-.092-.015-.051-.022-.093-.016-.051-.022-.093-.016-.051-.022-.093-.016-.051-.022-.093-.016-.051c-.007-.031-.014-.062-.022-.092l-.016-.051-.022-.093-.015-.051-.022-.093-.015-.051-.022-.093-.016-.051-.022-.093-.016-.051-.022-.093q-3.52-11.643-7.034-23.2-3.125.488-6.243,1.041V18.231c-.019-.008-.04-.02-.062-.032v-.095c-.02-.008-.042-.021-.065-.034v-.094c-.02-.008-.042-.021-.065-.034v-.094c-.019-.008-.042-.021-.065-.034v-.094c-.019-.008-.042-.021-.065-.034v-.094a.643.643,0,0,1-.065-.034v-.094a.653.653,0,0,1-.065-.035v-.093a.631.631,0,0,1-.065-.035v-.093a.639.639,0,0,1-.065-.035v-.093a.584.584,0,0,1-.065-.035v-.093a.541.541,0,0,1-.065-.035v-.092a.528.528,0,0,1-.065-.036V16.7a.538.538,0,0,1-.065-.036v-.092a.5.5,0,0,1-.065-.036v-.092a.471.471,0,0,1-.065-.036v-.091a.462.462,0,0,1-.065-.037v-.091a.454.454,0,0,1-.065-.037v-.091a.465.465,0,0,1-.065-.037v-.091a.428.428,0,0,1-.065-.038V15.8a.414.414,0,0,1-.065-.038v-.09a.41.41,0,0,1-.065-.039v-.089a.413.413,0,0,1-.065-.04v-.088a.405.405,0,0,1-.065-.041v-.088a.367.367,0,0,1-.065-.041v-.087a.382.382,0,0,1-.065-.042v-.086a.385.385,0,0,1-.065-.043v-.085a.39.39,0,0,1-.065-.044v-.085a.352.352,0,0,1-.065-.044v-.084A.358.358,0,0,1,44,14.6v-.083a.376.376,0,0,1-.065-.046v-.082a.372.372,0,0,1-.065-.047v-.081a.381.381,0,0,1-.065-.048v-.08a.379.379,0,0,1-.065-.049v-.079a.363.363,0,0,1-.065-.05v-.078a.378.378,0,0,1-.065-.051v-.076a.394.394,0,0,1-.065-.052v-.076a.357.357,0,0,1-.065-.053V13.5a.379.379,0,0,1-.065-.055V13.37a.4.4,0,0,1-.065-.056v-.072a.413.413,0,0,1-.065-.058v-.07a.44.44,0,0,1-.065-.059v-.069a.431.431,0,0,1-.065-.06v-.068a.477.477,0,0,1-.065-.062V12.73a.509.509,0,0,1-.065-.063V12.6a.54.54,0,0,1-.065-.065v-.062a.706.706,0,0,1-.065-.067v-.061a.7.7,0,0,1-.065-.069v-.059a.912.912,0,0,1-.065-.071V12.09s-.027-.028-.065-.073v-.055s-.026-.029-.065-.075v-.053l-.065-.077v-.051L36.412,4.24q-5.827,4.282-11.624,8.794v3.255l-.012,0V16.15l-.1-.036v-.133l-.1-.036v-.133l-.1-.036v-.133l-.1-.036v-.133l-.1-.036V15.3l-.1-.036v-.133l-.1-.036v-.133l-.1-.036v-.133l-.1-.036v-.133l-.1-.036v-.133l-.1-.036v-.133l-.1-.036v-.133l-.1-.036v-.133l-.1-.036v-.133l-.1-.036v-.133l-.1-.036v-.133l-.1-.036v-.133l-.1-.036V13.1l-.1-.036v-.133l-.1-.036v-.133l-.1-.036v-.133l-.1-.036V12.42l-.1-.036V12.25l-.1-.036v-.133l-.1-.036v-.133l-.1-.036v-.133l-.1-.036v-.133l-.1-.036V11.4l-.1-.036v-.133l-.1-.036v-.133l-.1-.036v-.133l-.1-.036v-.133Q18.5,9.608,15.464,8.556q-1.906,1.552-3.807,3.132l-.076.02v-.2l-.119.031v-.2l-.119.031v-.2l-.119.031v-.2l-.119.031v-.2l-.119.031v-.2l-.119.031v-.2l-.119.031v-.2l-.119.031v-.2q-3.334.838-6.653,1.753V54.609Q1.984,57.364,0,60.147l.2.006-.058.081.2.006-.058.081.2.005-.058.081.195.006-.058.081.2.006-.058.081.195.006-.058.081.2.006-.058.081.2.005-.058.081.195.006-.058.081.2.006-.058.081.195.006-.058.081.2.005-.058.081.2.006-.058.081.2.006-.058.081.2.006-.058.081.195.006-.058.081.2.005-.058.081.195.006L2.47,61.7l.2.006-.058.081.2.006-.058.081.195.006-.058.081.2.005-.058.081.195.006-.058.081.2.006-.058.081.195.006L3.43,62.3l.2.005-.058.081.2.006-.058.081.195.006-.058.081.2.006-.058.081.195.006-.058.081.2.005-.058.081.2.006-.058.081.195.006-.058.081.2.006-.058.081.195.005-.058.081.2.006-.058.081.2.006-.058.081.2.006-.058.081.2.006-.058.081.195.005-.058.081.2.006-.058.081.195.006-.058.081.2.006-.058.081.2.005-.058.081.195.005-.058.081.2.006-.058.081.195.006-.058.081.2.006-.058.081.2.005-.058.081.2.006-.058.081.2.006L7,64.542l.195.006-.058.081.2.005-.058.081.195.005L7.41,64.8l.2.006-.058.081.2.006-.058.081.195.006-.058.081.2.005-.058.081.195.006-.058.081.2.006-.058.081.2.006-.058.081.195.005-.058.081.2.005-.058.081.195.006-.058.081.2.006-.058.081.195.006-.058.081.2.005-.058.081.2.006-.058.081.195.006-.058.081.2.006-.058.081.195.006-.058.081.2.005-.058.081.2.006-.058.081.195.006-.058.081.2.006-.058.081.195.005-.058.081.2.006-.058.081.195.006-.058.081.2.006-.058.081.2.006-.058.081.195.005-.058.081.2.006-.058.081.195.006-.058.081.2.006-.058.081.2.005-.058.081.195.006-.058.081.2.006-.058.081.195.006-.058.081.2.006-.058.081.2.005-.058.081.2.006-.058.081.2.006-.058.081.195.006-.058.081.2.005-.058.081.195.006-.058.081.2.006-.058.081.2.006-.058.081.195.006-.058.081.2.005-.058.081.195.006-.058.081.195.006-.057.08q4.17.1,8.371.344,4.223-3.554,8.473-6.956v.077l.1-.019v.111l.1-.019V62.5l.1-.019v.111l.1-.019v.111l.1-.019v.111l.1-.019v.111l.1-.019v.111l.1-.019v.111l.1-.019v.111l.1-.019v.111l.1-.019v.111l.1-.019v.111l.1-.019v.111l.1-.019v.111l.1-.019V63.7l.1-.019v.111l.1-.019v.111l.1-.019v.111l.1-.019v.111l.1-.019v.111l.1-.019v.111l.1-.019v.111l.1-.019v.111l.1-.019v.111l.1-.019v.111l.1-.019v.111l.1-.019v.111l.1-.019V64.9l.1-.019v.111l.1-.019v.111l.1-.019v.111l.1-.019v.111l.1-.019v.111l.1-.019v.111l.1-.019v.111l.1-.019v.111l.1-.019v.111l.1-.019v.111l.1-.019v.111q2.788-.56,5.586-1.056v-5.1h.007v.108l.077-.012v.107l.077-.012v.108l.077-.012v.107l.077-.012v.108l.077-.012v.107l.077-.012v.108l.077-.012v.107l.077-.012v.108l.077-.012v.107l.077-.012v.108l.077-.012v.107l.077-.012V61l.077-.012V61.1l.077-.012V61.2l.077-.012v.107l.077-.012v.108l.077-.012v.107l.077-.012v.108l.077-.012v.107l.077-.012v.108l.077-.012v.107l.077-.012v.108l.077-.012v.107l.077-.012v.108l.077-.012v.107l.077-.012v.108l.077-.012v.108l.077-.012v.108l.077-.012v.108l.077-.012v.107l.077-.012v.108l.077-.012v.107l.077-.012v.108L42.628,63v.107l.077-.012V63.2l.077-.012V63.3l.077-.012v.108l.077-.012v.107l.077-.012v.108l.077-.012v.107l.077-.012v.108l.077-.012v.107l.077-.012v.108l.077-.012v.107l.077-.012v.108l.077-.012v.107q2.8-.456,5.613-.848V58.423l.014,0v.105l.06-.007v.105l.06-.007v.105l.06-.007v.105l.06-.007v.105l.06-.007v.105l.06-.007v.105l.06-.007v.105l.06-.007v.105l.06-.007v.105l.06-.007v.105l.06-.007v.105l.06-.007V59.7l.06-.007V59.8l.06-.007V59.9l.06-.007V60l.06-.007v.105l.06-.007v.105l.06-.007v.105l.06-.007v.105l.06-.007v.105l.06-.007v.105l.06-.007v.105l.06-.007v.105l.06-.007v.105l.06-.007v.105l.06-.007v.105l.06-.007v.105l.06-.007v.105l.06-.007v.105l.06-.007v.105l.06-.007v.105l.06-.007v.105l.06-.007v.105l.06-.007v.105l.06-.007v.105l.06-.007v.105l.06-.007v.105l.06-.007v.105l.06-.007v.105l.06-.007v.105l.06-.007v.105l.06-.007v.105l.06-.007v.105l.06-.007v.105l.06-.007v.105l.06-.007v.105q2.737-.351,5.479-.641Q57.3,52.6,57.19,42.812q-.055-1.182-.109-2.363,1.657,5.629,3.314,11.274H60.4l.03.1h.006l.03.1h.006l.03.1h.006l.03.1h.006l.03.1h.006l.03.1h.006l.03.1h.006l.03.1h.006l.03.1h.006l.03.1h.006l.03.1h.006l.03.1h.006l.03.1h.006l.03.1h.006l.03.1h.006l.03.1h.006l.03.1H61l.03.1h.006l.03.1h.006l.03.1h.006l.03.1h.006l.03.1h.006l.03.1h.006l.03.1h.006l.03.1h.006l.03.1h.006l.03.1h.006l.03.1h.006l.03.1h.006l.03.1h.006l.03.1h.006l.03.1h.006l.03.1h.006l.03.1H61.6l.03.1h.006l.03.1h.006l.03.1h.006l.03.1h.006l.03.1h.006l.03.1h.006l.03.1h.006l.03.1h.006l.03.1h.006l.03.1h.006l.03.1h.006l.03.1h.006l.03.1h.006l.03.1H62.1l.03.1h.006l.03.1h.006l.03.1H62.2l.03.1h.006l.03.1h.006l.03.1h.006l.03.1h.006l.03.1h.006l.03.1h.006l.03.1h.006l.03.1h.006l.03.1h.006l.03.1h.006l.03.1h.006l.03.1h.006l.03.1h.006l.03.1H62.7l.03.1h.006l.03.1h.006l.03.1H62.8l.03.1h.006l.03.1h.006l.03.1h.006l.03.1h.006l.03.1h.006l.03.1h.006l.03.1h.006l.03.1h.006l.03.1h.006l.03.1h.006l.03.1h.006l.03.1h.006l.03.1h.006l.03.1H63.3l.03.1h.006l.03.1h.006l.03.1H63.4l.03.1h.006l.03.1h.006l.03.1h.006l.03.1h.006l.03.1h.006l.03.1h.006l.03.1h.006l.03.1h.006l.03.1h.006l.03.1h.006l.03.1h.006l.03.1h.006l.03.1h.006l.03.1H63.9l.03.1h.006l.03.1q2.36-.317,4.722-.59V59.4q4.227,1.035,8.46,2.211,4.847-2.914,9.7-5.641v-.106l.011-.006v-.106l.011-.007v-.106l.011-.006v-.106l.011-.006v-.106l.011-.007V55.3l.011-.007v-.106l.011-.006v-.106l.011-.006v-.106l.011-.007V54.85l.011-.006v-.106l.011-.006v-.106l.011-.007v-.106l.011-.007V54.4L87,54.394v-.106l.011-.007v-.106l.011-.007v-.106l.011-.006v-.106l.011-.006v-.106l.011-.007v-.106l.011-.007v-.106l.011-.006V53.5l.011-.007v-.106l.011-.007v-.106l.011-.006v-.106l.011-.006v-.106l.011-.007v-.106l.011-.007v-.106l.011-.006v-.106l.011-.007V52.6l.011-.007v-.106l.011-.006v-.106l.011-.007v-.106l.011-.007v-.106l.011-.006V52.04l.011-.006v-.106l.011-.007v-.106l.011-.007V51.7l.011-.006V51.59l.011-.007v-.106l.011-.007v-.106l.011-.006v-.106l.011-.006v-.106l.011-.007v-.106l.011-.007v-.106l.011-.006V50.8l.011-.007v-.106l.011-.007v-.106l.011-.006v-.106l.011-.007v-.106l.011-.007v-.106l.011-.006v-.106l.011-.006v-.106l.011-.007V49.9l.011-.007v-.106l.011-.006V49.68l.011-.007v-.106l.011-.007v-.106l.011-.006v-.106l.011-.006V49.23l.011-.007v-.106l.011-.007v-.106L87.534,49v-.106l.011-.007v-.106l.011-.007v-.106l.011-.006v-.106l.011-.006v-.106l.011-.007v-.106l.011-.006v-.106l.011-.006v-.106l.011-.007v-.106l.011-.007v-.106l.011-.006v-.106l.011-.007v-.106l.011-.007v-.106l.011-.006v-.106l.011-.006V47.32l.011-.007v-.106l.011-.007v-.106l.011-.006v-.106l.011-.007V46.87l.011-.007v-.106l.011-.006v-.106l.011-.006v-.106l.011-.007V46.42l.011-.006v-.106L87.8,46.3V46.2l.011-.007v-.106l.011-.007v-.106l.011-.006v-.106l.011-.006v-.106l.011-.007v-.106l.011-.006v-.106l.011-.006v-.106l.011-.007V45.3l.011-.007v-.106l.011-.006v-.106l.011-.007V44.96l.011-.007v-.106l.011-.006v-.106l.011-.006v-.106l.011-.007V4.032Q78.778,1.736,69.587,0q-1,3.014-2,6.035M81.148,46.519c-1.183-.345-2.367-.676-3.55-1.006V25.528q1.775.4,3.55.826V46.519" fill="#040504"/>
      <path id="Path_5086" data-name="Path 5086" d="M354.053,18.294q-8.918-4.774-17.947-8.989l-.071.2-.046-.022-.071.2-.046-.022-.071.2-.046-.022-.071.2-.046-.022-.071.2-.046-.022-.071.2-.047-.022-.071.2-.046-.022-.071.2-.046-.022-.071.2-.046-.022-.071.2-.046-.022-.071.2-.046-.022-.071.2-.047-.022-.07.2-.047-.022-.071.2-.046-.022-.071.2-.046-.022-.071.2-.046-.022-.071.2-.046-.022-.071.2L334,12.47l-.07.2-.047-.022-.071.2-.046-.022-.071.2L333.651,13l-.071.2-.046-.022-.071.2-.046-.022-.071.2-.046-.022-.071.2-.047-.022-.071.2-.046-.022-.071.2-.046-.022-.071.2-.046-.022-.071.2-.046-.022-.053.149V10q-3.363-.716-6.739-1.355c0,.066,0,.132.005.2l-.1-.021c0,.066,0,.131.005.2L325.724,9c0,.066,0,.131.005.2l-.1-.021c0,.066,0,.132.005.2l-.105-.021q0,.1.005.2l-.1-.021c0,.066,0,.131.005.2l-.1-.021c0,.066,0,.132.005.2l-.105-.021q0,.1.005.2l-.1-.02c0,.066,0,.131.005.2l-.1-.021c0,.066,0,.132.005.2l-.105-.021q0,.1.005.2l-.1-.02c0,.066,0,.131.005.2l-.1-.021c0,.066,0,.132.005.2l-.105-.021c0,.066,0,.131.005.2l-.1-.02q0,.1.005.2l-.105-.021c0,.066,0,.132.005.2l-.1-.021c0,.066,0,.132.005.2l-.1-.021q0,.1.005.2l-.105-.021c0,.066,0,.132.005.2l-.1-.021c0,.066,0,.131.005.2l-.1-.021q0,.1.005.2l-.105-.021c0,.066,0,.131.005.2l-.1-.021c0,.066,0,.131.005.2l-.105-.021q0,.1.005.2l-.1-.021c0,.066,0,.131.005.2l-.1-.021c0,.066,0,.131.005.2l-.105-.021q0,.1.005.2l-.1-.021c0,.066,0,.132.005.2l-.1-.021q0,.1.005.2l-.105-.021c0,.066,0,.132.005.2l-.1-.021q0,.1.005.2l-.105-.021c0,.066,0,.131.005.2l-.1-.021c0,.066,0,.132.005.2l-.1-.021c0,.066,0,.131.005.2l-.105-.02q0,.1.005.2l-.1-.021c0,.066,0,.132.005.2l-.1-.021q0,.1.005.2l-.105-.02q0,.1.005.2l-.1-.021c0,.066,0,.132.005.2l-.105-.021q0,.1.005.2l-.1-.021c0,.066,0,.132.005.2l-.1-.021q0,.1.005.2l-.105-.021c0,.066,0,.131.005.2l-.1-.021c0,.066,0,.132.005.2l-.1-.021q0,.1.005.2l-.1-.019q-1.295-4.655-2.591-9.3-3.106-.358-6.22-.651v.188l-.077-.007v.188l-.077-.007V7.2L312.4,7.2v.188l-.077-.007v.188l-.078-.007v.188l-.077-.007v.188l-.077-.007v.188l-.077-.008v.188l-.077-.008v.188l-.077-.008v.188l-.077-.008v.188l-.077-.008v.188L311.63,9v.188l-.077-.008v.188l-.077-.008v.188l-.077-.008v.188l-.077-.008v.188l-.077-.008v.188l-.077-.008v.188l-.077-.007v.188l-.077-.007v.188l-.078-.007v.188l-.077-.007v.188l-.077-.007v.188l-.077-.007v.188l-.077-.007v.188l-.077-.007v.188l-.077-.007v.188l-.077-.007v.188l-.077-.007v.188l-.077-.007v.188l-.077-.008v.188l-.077-.008v.188l-.078-.008v.188l-.077-.008v.188l-.077-.008v.188l-.077-.008v.188l-.077-.008V13.7l-.077-.008v.188l-.077-.008v.188l-.077-.008v.188l-.077-.008v.188l-.077-.008V14.6H309.3V8.837q-3.078-2.169-6.162-4.274-5.856,2.7-11.729,5.622v.154l-.041.021v.154l-.042.021v.154l-.041.021v.154l-.042.021v.154l-.041.021v.154l-.042.021v.154l-.041.021v.154l-.041.021v.154l-.042.021v.154l-.041.02v.154l-.042.021v.154l-.041.021v.154l-.042.021v.154l-.041.021v.154l-.042.021v.154l-.041.021v.154l-.042.021V13.3l-.041.021v.154l-.042.021v.154l-.041.021v.154l-.042.021V14l-.041.021v.154l-.041.021v.154l-.042.021v.154l-.041.021V14.7l-.042.021v.154l-.041.021v.154l-.042.021v.154l-.041.021v.154l-.042.021v.154l-.041.021v.154l-.042.021v.154l-.041.021v.154l-.042.021v.154l-.041.021v.154l-.041.021v.154l-.042.021v.154l-.041.021v.154l-.042.021v.154l-.041.021v.154l-.042.021v.154l-.041.021v.154l-.042.021v.154l-.041.021v.154l-.042.021v.154l-.041.021v.154l-.042.021v.154l-.041.021v.154l-.041.021v.154l-.042.021v.154l-.041.021v.154l-.042.021V19.4l-.041.021v.154l-.042.021v.154l-.041.021v.154l-.042.021V20.1l-.041.021v.154l-.042.021v.154l-.041.021v.154l-.042.021V20.8l-.041.021v.154l-.042.021v.154l-.041.021v.154l-.041.021V21.5l-.042.021v.154l-.041.021v.154l-.042.021v.154l-.041.021v.154l-.042.021v.154l-.041.021v.154l-.042.021v.154l-.041.021v.154l-.042.021v.154l-.041.021v.154l-.042.021v.154l-.041.021v.154l-.041.021v.154l-.042.021v.154l-.041.021v.154l-.042.021v.154l-.041.021v.154l-.042.021v.154l-.041.021v.154l-.042.021v.154l-.041.021v.154l-.042.021v.154l-.041.021v.154l-.042.021v.154l-.041.021v.154l-.041.021v.154l-.042.021V26.2l-.041.021v.154l-.042.021v.154l-.041.021v.154l-.042.021V26.9l-.041.02v.154l-.042.021v.154l-.041.021v.154l-.042.02V27.6l-.041.021v.154l-.042.021V47.6q-1.849-.628-3.7-1.234V3.629q-3.409-.155-6.821-.233v.186h-.017v.186h-.017v.186h-.017V4.14h-.017v.187h-.017v.187H276.6V4.7h-.017v.186h-.017v.186h-.017v.186h-.017V5.44h-.017v.187H276.5v.187h-.017V6h-.017v.186h-.017v.186h-.017v.186h-.017v.186H276.4v.187h-.017v.187h-.017V7.3h-.017v.186h-.017V7.67h-.017v.186H276.3v.186h-.017v.187h-.017v.187h-.017V8.6h-.017v.186h-.017v.186H276.2v.186h-.017v.186h-.017v.187h-.017v.187h-.017V9.9h-.017v.186H276.1v.186h-.017v.186h-.017v.186h-.017v.187h-.017v.187h-.017V11.2H276v.186h-.017v.186h-.017v.186h-.017v.186h-.017v.187h-.017v.187H275.9V12.5h-.017v.186h-.017v.186h-.017v.186h-.017v.186h-.017v.187H275.8v.187h-.017V13.8h-.017v.186h-.017v.186h-.017v.186h-.017v.186H275.7v.187h-.017v.187h-.017V15.1h-.017v.186h-.017v.186h-.017v.186H275.6v.186h-.017v.187h-.017v.187h-.017V16.4h-.017v.186h-.017v.186H275.5v.186h-.017v.186h-.017v.187h-.017v.187h-.017V17.7h-.017v.186H275.4v.186h-.017v.186h-.017v.186h-.017v.187h-.017v.187h-.017V19H275.3v.186h-.017v.186h-.017v.186h-.017v.186h-.017v.187h-.017v.187H275.2v.187h-.017v.186h-.017v.186h-.017v.186h-.017v.186h-.017v.187H275.1v.187h-.017v.186h-.017v.186h-.017v.186h-.017v.186h-.017V61.5q4.041,1.244,8.078,2.619,1.878-2.117,3.755-4.2l-.043-.015.084-.094-.043-.015.084-.094-.043-.015.084-.094-.043-.015.084-.094-.043-.015.084-.094-.043-.015.084-.094-.043-.015.084-.094-.043-.015.084-.094-.043-.015.084-.094-.043-.015.047-.053v5.075q2.825.2,5.646.47v-.1l.053,0v-.1l.053,0v-.1l.053,0V64l.053,0v-.1l.053,0v-.1l.053,0v-.1l.053,0v-.1l.053,0v-.1l.053,0v-.1l.053,0v-.1l.053,0v-.1l.053,0v-.1l.053,0V63l.053,0v-.1l.053,0v-.1l.053,0v-.1l.053,0v-.1l.053,0v-.1l.053,0v-.1l.053,0v-.1l.053,0v-.1l.053,0v-.1l.053,0v-.1l.053,0v-.1l.053,0v-.1l.053,0v-.1l.053,0v-.1l.053,0v-.1l.053,0v-.1l.053,0v-.1l.053,0v-.1l.053,0v-.1l.053,0v-.1l.053,0v-.1l.053,0v-.1l.053,0v-.1l.053,0v-.1l.053,0v-.1l.053,0v-.1l.053,0v-.1l.053,0v-.1l.053,0v-.1l.053,0v-.1l.053,0v-.1l.053,0v-.1l.053,0v-.1l.053,0v-.1l.053,0v-.1l.053,0v-.1l.053,0v-.1l.053,0v-.1l.053,0v-.1l.053,0v-.1l.053,0v-.1l.053,0v-.1l.053,0v-.1l.053,0v-.1l.053,0v-.1l.053,0v-.1l.053,0v-.1l.053,0v-.1l.053,0v-.1l.053,0v-.1l.053,0v-.1l.053,0v-.1l.053,0v-.1l.053,0v-.1h.017v7.158q2.818.307,5.63.678v-.107l.072.009v-.107l.072.009v-.107l.072.009v-.107l.072.009v-.107l.072.009v-.107l.072.009v-.107l.072.009v-.107l.072.009V64.56l.072.009v-.107l.072.009v-.107l.072.009v-.107l.072.009v-.107l.072.009v-.107l.072.009v-.107l.072.009v-.107l.072.009v-.107l.072.009V63.68l.072.009v-.107l.072.009v-.107l.072.009v-.107l.072.009v-.107l.072.009v-.107l.072.009v-.107l.072.009V63l.072.009V62.9l.072.009V62.8l.072.009V62.7l.072.009V62.6l.072.009v-.107l.072.009v-.107l.072.009v-.107l.072.009v-.107l.072.009v-.107l.072.009v-.107l.072.009V61.92l.072.009v-.107l.072.009v-.107l.072.009v-.107l.04.005v4.2q2.733.392,5.458.844v-.11l.09.014c0-.036,0-.073,0-.109l.09.014v-.11l.09.014c0-.036,0-.073,0-.11l.09.014c0-.036,0-.073,0-.11l.09.015c0-.037,0-.073,0-.11l.09.014c0-.036,0-.073,0-.11l.09.014V65.9l.09.014c0-.036,0-.073,0-.109l.09.014c0-.037,0-.073,0-.11l.09.014c0-.036,0-.073,0-.11l.09.014c0-.036,0-.073,0-.11l.09.015v-.11l.09.014c0-.036,0-.073,0-.11l.089.014v-.11l.09.015c0-.037,0-.073,0-.11l.09.014c0-.036,0-.073,0-.11l.09.014v-.11l.09.014c0-.036,0-.073,0-.109l.09.014v-.11l.09.014c0-.036,0-.073,0-.11l.09.014c0-.036,0-.073,0-.11l.09.015c0-.037,0-.073,0-.11l.09.014c0-.036,0-.073,0-.11l.09.014v-.11l.09.014c0-.036,0-.073,0-.109l.09.014c0-.037,0-.073,0-.11l.09.014c0-.036,0-.073,0-.11l.09.014c0-.036,0-.073,0-.11l.09.015V63.8l.09.014c0-.036,0-.073,0-.11l.09.014c0-.036,0-.073,0-.11l.09.014c0-.036,0-.073,0-.109l.09.014c0-.036,0-.073,0-.11l.09.014v-.11l.09.014c0-.036,0-.073,0-.109l.09.014c0-.037,0-.073,0-.11l.09.014c0-.036,0-.073,0-.11l.09.014c0-.036,0-.073,0-.11l.089.015v-.11l.09.014c0-.036,0-.073,0-.11l.09.014v-.11l.089.014c0-.036,0-.073,0-.109l.09.014c0-.037,0-.073,0-.11l.09.014v-.11l.09.014c0-.036,0-.073,0-.109l.09.014v-.11l.09.014c0-.036,0-.073,0-.11l.09.014c0-.036,0-.073,0-.11l.09.015c0-.037,0-.073,0-.11l.09.014c0-.036,0-.073,0-.11l.09.014V61.7l.09.014c0-.036,0-.073,0-.109l.09.014c0-.037,0-.073,0-.11l.09.014v-.009q.862,3.2,1.724,6.395,2.333.32,4.659.685v-.108l.111.017V68.4l.111.017v-.108l.111.017v-.108l.111.017v-.108l.111.017v-.108l.111.017v-.108l.111.017v-.108l.111.017V67.76l.111.017v-.108l.111.017v-.108l.111.017v-.108l.111.017v-.071q3.492,1.846,6.968,3.784,4.74-1.607,9.443-3.027v-.047l.147-.045V68.05l.147-.045v-.047l.147-.045v-.047l.147-.045v-.047l.147-.045v-.047l.147-.045v-.047l.147-.045V67.5l.147-.045V67.4l.147-.045v-.047l.147-.045V67.22l.147-.045v-.047l.147-.045v-.047l.147-.045v-.047l.147-.045v-.047l.147-.045v-.047l.147-.045v-.047l.147-.045v-.047l.147-.045v-.047l.147-.045v-.047l.147-.045V66.3l.147-.045v-.047l.147-.045v-.047l.147-.045v-.047l.147-.045v-.047l.147-.045v-.047l.147-.045v-.047l.147-.045v-.047l.147-.045v-.047l.147-.045v-.047l.147-.045v-.047l.147-.045v-.047l.147-.045v-.047l.147-.045V65.1l.147-.045v-.047l.147-.045v-.047l.147-.045v-.047l.147-.045v-.047l.147-.045v-.047l.147-.045v-.047l.147-.045v-.047l.147-.045v-.047l.147-.045V64.27l.147-.045v-.047l.147-.045v-.047l.147-.045v-.047l.147-.045V63.9l.147-.045v-.047l.147-.045v-.047l.147-.045v-.047l.147-.045v-.047l.147-.045V63.44l.147-.045v-.047l.147-.045v-.047l.147-.045v-.047l.147-.045v-.047l.147-.045V62.98l.147-.045v-.047l.147-.045V62.8l.147-.045V62.7l.147-.045v-.047l.147-.045v-.047l.147-.045v-.047l.147-.045v-.047l.147-.045v-.047l.147-.045V62.15l.147-.045v-.047l.147-.045v-.047l.147-.045v-.047l.147-.045v-.047l.147-.045v-.047l.147-.045V61.6l.147-.045V61.5l.147-.045v-.047l.147-.045V61.32l.147-.045v-.047l.147-.045v-.047l.147-.045v-.047l.147-.045v-.047l.147-.045v-.047l.147-.045v-.047l.147-.045v-.047l.147-.045v-.047l.147-.045v-.047l.147-.045V60.4l.147-.045v-.047l.147-.045v-.047l.147-.045v-.047l.147-.045V60.03l.147-.045v-.047l.147-.045v-.047l.147-.045v-.047l.147-.045v-.047l.147-.045v-.047l.147-.045v-.047l.147-.045v-.047l.147-.045v-.047l.147-.045V59.2l.147-.045v-.047l.147-.045v-.047l.147-.045v-.047l.147-.045ZM287.216,58.806l.006-.007v.009l-.006,0" transform="translate(-185.503 -2.291)" fill="#040504"/>
      <path id="Path_5087" data-name="Path 5087" d="M23.266,31.228v5.831q-2.7,2.2-5.4,4.461,2.7.945,5.4,1.941V70.965q-5.473,4.392-10.91,8.991-4.468-.245-8.908-.349Q5.187,77.17,6.93,74.753V32.418q2.708-.751,5.426-1.451v2.852Q15.075,31.535,17.8,29.3q2.728.936,5.464,1.925M7.054,74.719q5.354.165,10.748.532V47.872q-2.728-.937-5.446-1.822V67.979q-2.656,3.345-5.3,6.74M17.8,41.471V35.324q-2.728-.747-5.446-1.441v12.1Q15.075,43.7,17.8,41.471" transform="translate(-2.326 -19.765)" fill="#fff"/>
      <path id="Path_5088" data-name="Path 5088" d="M78.077,66.787V24.2q5.486-4.275,11-8.343l5.521,6.79V63.934q-2.763.4-5.521.847V42.406l-5.508-3.8q0,13.563,0,27.125-2.75.5-5.494,1.055" transform="translate(-52.664 -10.694)" fill="#fff"/>
      <path id="Path_5089" data-name="Path 5089" d="M142.9,57.68V9.514q2.577-.457,5.158-.869,3.441,11.312,6.888,22.7,1.181,5,2.363,10.007l.191-.015q-.415-9.6-.83-19.2-.191-7.115-.383-14.228,2.778-.229,5.558-.407V55.672q-2.3.274-4.6.583-3.672-12.511-7.339-24.93-1.116-4.858-2.231-9.709l-.255.029q.287,6.21.574,12.421l.255,22.978q-2.677.294-5.349.637" transform="translate(-96.389 -5.063)" fill="#fff"/>
      <path id="Path_5090" data-name="Path 5090" d="M209.6,46.2V11.347q2.111-1.3,4.223-2.575-3.232-.688-6.461-1.306.8-2.42,1.6-4.835,8.667,1.638,17.345,3.78V46.148q-5.569,3.148-11.138,6.5-4.576-1.267-9.148-2.394,1.79-2.038,3.581-4.054,5.565,1.421,11.136,3.049V10.34q-2.785-.672-5.569-1.291V40.483Q212.38,43.318,209.6,46.2" transform="translate(-138.96 -1.775)" fill="#fff"/>
      <path id="Path_5091" data-name="Path 5091" d="M287.675,5.9V48.491q3.486,1.132,6.97,2.346-1.822,2.033-3.644,4.089-4.444-1.508-8.893-2.884V5.714q2.784.068,5.567.188" transform="translate(-190.285 -3.854)" fill="#fff"/>
      <path id="Path_5092" data-name="Path 5092" d="M392.489,64.037V15.871q2.572.249,5.139.543Q401.051,28.668,404.463,41q1.169,5.321,2.336,10.652l.189.037q-.41-9.714-.821-19.427-.19-7.167-.379-14.333,2.747.529,5.486,1.11V67.208q-2.267-.354-4.539-.672-3.629-13.513-7.271-26.935-1.108-5.164-2.218-10.319l-.254-.041q.286,6.288.571,12.578.127,11.524.254,23.048-2.662-.438-5.329-.828" transform="translate(-264.738 -10.705)" fill="#fff"/>
      <path id="Path_5093" data-name="Path 5093" d="M458.558,68.288V33.431q2.072-.727,4.138-1.424-3.162-1.568-6.337-3.066.786-2.2,1.571-4.4,8.51,4,16.927,8.505V72.783q-5.4,1.631-10.846,3.469-4.474-2.513-8.972-4.887,1.762-1.55,3.519-3.078,5.462,2.938,10.886,6.083V35.458q-2.712-1.43-5.433-2.808V64.084q-2.722,2.076-5.453,4.2" transform="translate(-306.928 -16.553)" fill="#fff"/>
      <path id="Path_5094" data-name="Path 5094" d="M338.4,9.534q-5.543,2.551-11.1,5.31V57.432q2.779.206,5.555.462V38.747l5.548-7.412V58.461q2.772.308,5.539.67V13.373q-2.767-1.946-5.539-3.839m-5.177,22.008,2.29-7.192h-4.091l6.235-9.886-1.091,6.919h3.8Z" transform="translate(-220.768 -6.431)" fill="#fff"/>
      <path id="Path_5095" data-name="Path 5095" d="M89.035,35.511l-.383,5.963h-3.2l3.3,3.317L88.5,50,90.9,46.742l4.761,4.374-2.783-6.981,2.259-2.965H92.033Z" transform="translate(-57.641 -23.952)" fill="#040504"/>
      <path id="Path_5096" data-name="Path 5096" d="M312.685,172.635l.289-.031-.007-.134a1.306,1.306,0,0,0-.049-.325.916.916,0,0,0-.1-.231l-.051-.081q-.756-.156-1.513-.308a.568.568,0,0,0-.208.007,1.239,1.239,0,0,0-.226.064.8.8,0,0,0-.128.063,1.18,1.18,0,0,0-.147.042.8.8,0,0,0-.128.063,1.144,1.144,0,0,0-.147.042.8.8,0,0,0-.128.063,1.153,1.153,0,0,0-.147.042.8.8,0,0,0-.128.063l-.014,0v-.122a1.156,1.156,0,0,0-.045-.323,1.045,1.045,0,0,0-.091-.234l-.05-.085q-1.162-.226-2.326-.442a.531.531,0,0,0-.208.016,2.175,2.175,0,0,0-.223.062.541.541,0,0,0-.159.082c-.032.009-.064.016-.1.027a.535.535,0,0,0-.159.082c-.032.009-.064.016-.1.027a.533.533,0,0,0-.158.082c-.033.009-.064.016-.1.027a.524.524,0,0,0-.158.081c-.033.009-.064.016-.1.027a.521.521,0,0,0-.157.081l-.053.015a1.766,1.766,0,0,0-.148-.394l-.016-.029-.024-.023a2.241,2.241,0,0,0-.311-.239q-.2-.134-.418-.263a2.2,2.2,0,0,0-.418-.2q-1.623-.283-3.25-.546a.524.524,0,0,0-.209.021,2.106,2.106,0,0,0-.224.067.525.525,0,0,0-.18.1l-.043.013a.516.516,0,0,0-.179.1l-.044.013c-.012,0-.02.01-.032.014a1.169,1.169,0,0,0-.037-.2.9.9,0,0,0-.1-.226l-.051-.079q-.762-.12-1.523-.236a.564.564,0,0,0-.21.017,1.259,1.259,0,0,0-.227.075.749.749,0,0,0-.183.107c-.009,0-.018,0-.027.009a.737.737,0,0,0-.183.107c-.009,0-.018,0-.027.009a.728.728,0,0,0-.183.107l-.027.009a.734.734,0,0,0-.182.107h0c-.009,0-.018,0-.028.009a.725.725,0,0,0-.181.106h0l-.028.009a.726.726,0,0,0-.18.105h0c-.01,0-.019.005-.029.009a.72.72,0,0,0-.179.1l0,0c-.01,0-.02.005-.029.009a.721.721,0,0,0-.178.1l0,0c-.01,0-.02.005-.03.01l-.01,0c0-.058.006-.108.01-.146l.091-.014v-.082l.2-.032v-.082l.2-.032v-.082l.2-.032v-.126a1.121,1.121,0,0,0-.046-.321.947.947,0,0,0-.092-.229l-.05-.083q-1.169-.171-2.339-.331a.538.538,0,0,0-.21.025,2.293,2.293,0,0,0-.224.073.531.531,0,0,0-.2.12l-.005.006a.519.519,0,0,0-.184.113l-.005.006a.522.522,0,0,0-.183.112l-.006.006a.522.522,0,0,0-.183.112l-.006.006a.518.518,0,0,0-.183.112l-.006.007a.516.516,0,0,0-.183.112l-.006.007a.515.515,0,0,0-.183.112l-.007.007a.517.517,0,0,0-.182.111l-.007.007a.511.511,0,0,0-.182.111l-.007.007a.5.5,0,0,0-.182.111l-.007.008a.506.506,0,0,0-.182.111l-.007.008a.5.5,0,0,0-.181.11l-.007.008a.5.5,0,0,0-.181.11l-.008.008a.5.5,0,0,0-.181.11l-.008.008a.5.5,0,0,0-.181.11l-.008.009a.491.491,0,0,0-.181.11l-.008.009a.616.616,0,0,0-.059.028v-1.056c0-.053,0-.1,0-.139l.021,0,0-.086.183-.032,0-.085.182-.032c0-.028,0-.057,0-.085l.183-.032,0-.085.183-.032c0-.045-.006-.09-.008-.135a1.529,1.529,0,0,0-.048-.3.838.838,0,0,0-.1-.241l-.051-.078q-1.17-.147-2.34-.285a.561.561,0,0,0-.21.03,2.179,2.179,0,0,0-.225.077.531.531,0,0,0-.2.124l-.028.03a.474.474,0,0,0-.134.092l-.028.03a.466.466,0,0,0-.134.091l-.028.031a.462.462,0,0,0-.133.091l-.028.031a.468.468,0,0,0-.133.091l-.028.031a.461.461,0,0,0-.133.09l-.029.031a.464.464,0,0,0-.132.09l-.029.032a.463.463,0,0,0-.132.09l-.029.032a.464.464,0,0,0-.132.09l-.029.032a.455.455,0,0,0-.132.09l-.03.032a.448.448,0,0,0-.132.09l-.03.032a.455.455,0,0,0-.132.09l-.014.016-.315-1.449-.047-.042a2.357,2.357,0,0,0-.48-.331,4.384,4.384,0,0,0-.534-.243,1.8,1.8,0,0,0-.418-.116,1,1,0,0,0-.373.054,4.008,4.008,0,0,0-.441.161q-.229.1-.411.2a1.242,1.242,0,0,0-.278.191l-.026.027,0,.01a.752.752,0,0,0-.106.086l-.026.027,0,.01a.767.767,0,0,0-.106.086l-.026.027,0,.01a.738.738,0,0,0-.106.086l-.026.027,0,.01a.728.728,0,0,0-.107.086l-.026.026,0,.01a.725.725,0,0,0-.106.086l-.026.026,0,.01a.694.694,0,0,0-.107.087l-.026.026,0,.01a.728.728,0,0,0-.107.087l-.025.026,0,.01a.718.718,0,0,0-.107.086l-.025.026,0,.01a.715.715,0,0,0-.107.087l-.025.026,0,.011a.719.719,0,0,0-.107.086l-.025.026,0,.011a.721.721,0,0,0-.107.087l-.025.025,0,.011a.723.723,0,0,0-.107.086l-.025.025,0,.011a.721.721,0,0,0-.107.086l-.024.025,0,.011a.708.708,0,0,0-.108.086l-.024.025,0,.012a.706.706,0,0,0-.107.086l-.024.025,0,.012a.688.688,0,0,0-.107.086l-.024.025,0,.012a.712.712,0,0,0-.108.086l-.024.025,0,.012a.734.734,0,0,0-.108.086l-.024.025,0,.013a.71.71,0,0,0-.108.086l-.024.024,0,.013a.707.707,0,0,0-.085.068.77.77,0,0,1,.055-.151l.062-.1-.256-.315-.088,0c-.144,0-.329,0-.553,0l.007-.03.09.013c.009-.043.019-.085.029-.128l.09.013.029-.128.09.013.032-.139q.067-.3.144-.729a4.746,4.746,0,0,0,.061-.972c0-.024,0-.048,0-.072l-.053-.053a2.272,2.272,0,0,0-.623-.429,4.58,4.58,0,0,0-.761-.289,3.775,3.775,0,0,0-.706-.134,2.931,2.931,0,0,0-.612.036,7.035,7.035,0,0,0-.8.167,6.931,6.931,0,0,0-.809.269,2.458,2.458,0,0,0-.637.36l-.029.023-.015.035c0,.011-.01.027-.015.039l-.036.027-.029.023-.015.035-.015.04c-.011.009-.025.018-.036.027l-.029.023-.015.034c0,.012-.01.027-.015.04s-.025.018-.036.027l-.028.023-.015.034-.015.04-.036.027-.028.023-.015.034c-.005.012-.01.027-.015.04l-.037.027-.028.023-.015.034-.015.041-.037.027-.028.023-.015.034c0,.012-.01.027-.015.04l-.037.028-.028.023-.014.034c-.005.012-.01.027-.016.041l-.037.028-.028.023-.015.033-.015.041-.037.028-.028.022-.014.033c-.005.012-.01.028-.016.041s-.026.018-.037.028l-.027.022-.014.033c-.005.012-.011.028-.016.041l-.037.028-.027.022-.014.033c-.005.012-.01.028-.016.042l-.038.028-.027.022-.014.032c-.005.012-.011.028-.016.042l-.038.028-.027.022-.014.033c-.005.012-.011.028-.016.042s-.026.019-.038.029l-.027.022-.014.032c-.005.012-.01.028-.016.042l-.038.029-.027.022-.014.032c-.005.012-.011.028-.016.042s-.027.019-.038.029l-.027.021-.014.032c0,.009-.008.022-.012.032v-1.426l.031-.008v-.1l.091-.022v-.1l.09-.022v-.1l.09-.022v-.1l.091-.022v-.1l.09-.022v-.1l.091-.022v-.1l.09-.022v-.126a1.181,1.181,0,0,0-.039-.312.659.659,0,0,0-.109-.243l-.052-.064q-.822-.052-1.644-.1a.758.758,0,0,0-.211.029,1.439,1.439,0,0,0-.236.081.454.454,0,0,0-.2.148l-.029.041v.038a.314.314,0,0,0-.049.049l-.029.041v.038a.333.333,0,0,0-.049.049l-.028.041v.038a.3.3,0,0,0-.049.049l-.028.041v.038a.325.325,0,0,0-.049.05l-.028.04v.039a.309.309,0,0,0-.049.05l-.028.04v.038a.3.3,0,0,0-.049.05l-.028.04v.038a.313.313,0,0,0-.05.05l-.028.04v.039a.3.3,0,0,0-.05.05h0c-.265-.467-.529-.935-.794-1.4q-1-.05-2-.093a.556.556,0,0,0-.211.046,1.988,1.988,0,0,0-.226.093.57.57,0,0,0-.2.139l-.044.051c0,.021,0,.042,0,.063,0,.005-.013.01-.017.015l-.044.051c0,.021,0,.042,0,.063-.005.006-.013.01-.018.016l-.044.05c0,.021,0,.042,0,.063-.005.006-.013.01-.018.016l-.044.05,0,.064c-.005.005-.013.01-.018.016l-.043.05c0,.021,0,.043,0,.064-.006.006-.014.01-.019.016l-.043.049c0,.021,0,.043,0,.064-.006.006-.014.011-.019.016l-.043.049c0,.021,0,.043,0,.064-.006.006-.014.011-.019.017l-.043.049c0,.021,0,.043,0,.064-.006.006-.014.011-.019.017l-.043.049c0,.021,0,.043,0,.064a.249.249,0,0,0-.019.017l-.042.048c0,.021,0,.043,0,.064s-.014.011-.019.017l-.042.049c0,.021,0,.043,0,.064-.006.006-.015.011-.02.017l-.042.048c0,.021,0,.043,0,.064-.006.006-.015.011-.02.018l-.021.024c.015-.071.03-.146.045-.227a8.9,8.9,0,0,0,.129-1.028c0-.02,0-.04,0-.061l-.036-.051a1.42,1.42,0,0,0-.322-.324,2.237,2.237,0,0,0-.363-.228l-.033-.016q-2.039-.073-4.078-.116a.623.623,0,0,0-.2.043,1.425,1.425,0,0,0-.235.1.937.937,0,0,0-.186.132l-.056.055c0,.026,0,.052.006.078,0,.006,0,.011,0,.018l-.035.035c0,.026,0,.052.006.077,0,.006,0,.012,0,.018l-.036.035c0,.025,0,.051.006.077,0,.007,0,.012,0,.018l-.035.035c0,.025,0,.051.006.076,0,.007,0,.012,0,.019l-.036.035c0,.025,0,.051.006.076,0,.007,0,.012,0,.019l-.036.035c0,.025,0,.051.006.076,0,.007,0,.012,0,.019l-.035.035c0,.025,0,.05.006.076,0,.007,0,.013,0,.02l-.036.035.006.075c0,.007,0,.013,0,.02l-.036.035c0,.025,0,.05.006.075,0,.007,0,.013,0,.021l-.036.035.006.074c0,.007,0,.014,0,.021l-.036.035c0,.024,0,.049.006.074,0,.007,0,.014,0,.021l-.036.035.006.074c0,.007,0,.014,0,.021l-.036.035c0,.024,0,.048.006.073,0,.007,0,.014,0,.022l-.036.035c0,.024,0,.049.006.073,0,.008,0,.015,0,.022l-.036.035c0,.024,0,.049.006.073,0,.008,0,.015,0,.022l-.036.035c0,.024,0,.048.006.072,0,.008,0,.015,0,.023l-.036.035c0,.024,0,.048.006.072,0,.008,0,.015,0,.023l-.036.035c0,.024,0,.048.006.071,0,.008,0,.015,0,.024l-.036.035c0,.023,0,.047.006.071,0,.008,0,.016,0,.024l-.036.036c0,.023,0,.047.006.07s0,.016,0,.024l-.036.036c0,.023,0,.047.006.07s0,.016,0,.025l-.036.036c0,.023,0,.046.006.07s0,.016,0,.025l-.036.036c0,.023,0,.046.005.069s0,.017,0,.026l-.036.036c0,.023,0,.046.005.069s0,.017,0,.026h0a1.152,1.152,0,0,0-.048-.114l-.015-.03-.026-.022a1.276,1.276,0,0,0-.3-.177c0-.016,0-.034.007-.05s.011-.043.015-.067,0-.037.007-.055.011-.043.015-.067,0-.037.007-.055.011-.044.015-.067,0-.037.007-.055.01-.044.015-.067,0-.037.008-.055.01-.043.015-.067,0-.037.007-.055.011-.043.015-.067,0-.037.007-.055.011-.043.015-.067,0-.037.007-.055.011-.043.015-.067,0-.036.007-.054.011-.044.015-.068a3.379,3.379,0,0,0,.053-.611,2.514,2.514,0,0,0-.022-.357,1.644,1.644,0,0,0-.08-.347c0-.013-.009-.027-.014-.04l-.031-.03a2.052,2.052,0,0,0-.393-.269,4.681,4.681,0,0,0-.524-.25,1.883,1.883,0,0,0-.539-.14q-1.532-.015-3.065-.014a.622.622,0,0,0-.219.055,2.1,2.1,0,0,0-.225.1.654.654,0,0,0-.193.146l-.039.047v.062a.681.681,0,0,0,.005.068h0v.061c0,.024,0,.046.006.069h0v.061c0,.024,0,.046.006.069h0v.061c0,.024,0,.046.006.069h0v.06c0,.024,0,.046.006.07h0v.06c0,.024,0,.047.006.07h0v.06a.637.637,0,0,0,.006.07h0v.06c0,.024,0,.047.006.07h0v.059c0,.024,0,.047.006.071h0v.059c0,.024,0,.048.006.071h0v.059a.708.708,0,0,0,.006.071h0v.058a.639.639,0,0,0,.006.072h0v.058c0,.025,0,.048.006.072h0v.057c0,.025,0,.048.006.072h0v.057c0,.025,0,.049.006.073h0v.057c0,.025,0,.048.006.073h0v.057a.67.67,0,0,0,.006.073h0v.056a.675.675,0,0,0,.006.073h0v.056c0,.025,0,.049.006.074h0v.056c0,.025,0,.049.006.074h0v.055c0,.025,0,.049.006.074h0v.055a.616.616,0,0,0,.006.075h0v.055a.634.634,0,0,0,.006.075v.056a.622.622,0,0,0,.006.075h0v.054a.713.713,0,0,0,.006.075v.055a.7.7,0,0,0,.006.076h0v.053a.644.644,0,0,0,.006.076v.055a.65.65,0,0,0,.006.076h0v.053a.657.657,0,0,0,.006.077v.054a.743.743,0,0,0,.006.077h0v.052a.668.668,0,0,0,.006.077v.053a.666.666,0,0,0,.006.077v.053a.6.6,0,0,0,.006.077v.053a.61.61,0,0,0,.006.078v.052a.56.56,0,0,0,.006.078l0,0v.051a.62.62,0,0,0,.007.078l0,0v.05a.683.683,0,0,0,.006.079v.052a.682.682,0,0,0,.006.07l-.056.006-.042.083a.94.94,0,0,0-.055.164,1.056,1.056,0,0,0-.031.24v.149h0v.1h0v.1h0v.1h0v.1h0v.1h0v.1h0v.1h0v.1h0v.1h0v.1h0v.1h0v.1h0v.1h0v.1h0v.1h0v.1h0v.1h0v.1h0v.1h0v.1h0v.1h0v.1h0v.1h0v.1h0v.1h0v.1h0v.1h0v.1h0v.1h0v.1h0v.1h0v.1h0v.1h0v.1h0v.1h0v.1h0v.1h0v.1h0v.1h0v.1h0v.1h0v.1h0v.1h0v.1h0v.1h0v.1h0v.1h0v.1h0v.1h0v.1h0v.1l.11.014q.238.031.578.062c.225.021.46.04.707.057s.481.033.709.047.423.025.587.033.269.014.325.019h.026a.817.817,0,0,0,.306-.068,2.459,2.459,0,0,0,.343-.172,1.511,1.511,0,0,0,.269-.2l.017-.017.01-.022a1.665,1.665,0,0,0,.091-.3c0-.011,0-.023.005-.035s.013-.046.018-.072,0-.023.006-.035.013-.046.018-.071,0-.023.005-.035.013-.046.018-.072,0-.023.005-.034.013-.046.018-.072,0-.023.006-.034.013-.046.018-.072,0-.023.005-.034.013-.046.018-.072,0-.023.005-.035.013-.046.018-.071,0-.023.006-.035.013-.046.018-.072,0-.023.005-.035.013-.046.018-.071,0-.023.005-.035.013-.046.018-.071,0-.023.006-.035.012-.046.018-.071,0-.023.005-.035.013-.046.018-.072,0-.023.006-.035.013-.046.018-.071,0-.023.006-.034.012-.046.018-.072,0-.023.005-.035.013-.046.018-.071,0-.023.006-.035.013-.046.018-.072,0-.023.006-.035.012-.046.018-.071,0-.023.005-.035.013-.046.018-.072,0-.023.006-.035.013-.046.018-.071,0-.023.005-.035.013-.046.018-.072,0-.023.005-.034.013-.046.018-.072,0-.023.006-.035.013-.046.018-.071,0-.023.005-.035.013-.046.018-.072,0-.023.005-.035.013-.046.018-.071,0-.023.006-.035.013-.046.018-.071,0-.023.005-.035.013-.046.018-.071,0-.023.005-.035.013-.046.018-.072,0-.023.006-.034.012-.046.018-.071,0-.023.005-.035.013-.046.018-.072,0-.023.005-.034l.006-.024.264.006a1.392,1.392,0,0,0-.029.332v1.2l-.007.024c0,.007,0,.016,0,.023s-.015.048-.023.081c0,.007,0,.016,0,.023s-.015.048-.023.081c0,.008,0,.016,0,.023s-.015.048-.023.08c0,.008,0,.016,0,.024s-.015.048-.023.08c0,.007,0,.016,0,.024s-.015.048-.023.08c0,.008,0,.016,0,.024s-.015.047-.023.08c0,.008,0,.016,0,.024s-.015.047-.023.079c0,.008,0,.017,0,.024s-.015.047-.023.079c0,.008,0,.017,0,.025s-.015.047-.023.079c0,.008,0,.017,0,.025s-.015.047-.023.079c0,.008,0,.017,0,.025s-.015.046-.023.079c0,.008,0,.017,0,.025s-.015.046-.023.078c0,.008,0,.017,0,.025s-.015.046-.023.078c0,.008,0,.017,0,.026s-.015.046-.023.078c0,.008,0,.018,0,.026s-.015.046-.023.078c0,.008,0,.018,0,.026s-.015.045-.023.078c0,.008,0,.018,0,.026s-.015.045-.023.077c0,.008,0,.018,0,.027s-.015.045-.023.077a.7.7,0,0,0-.023.177c0,.035,0,.071,0,.107l.106.02c.1.019.245.039.43.06s.388.041.62.061.467.039.709.059l.692.055c.222.018.414.031.579.041s.281.016.349.018a.362.362,0,0,0,.182-.057,1.734,1.734,0,0,0,.177-.11.482.482,0,0,0,.143-.138l.01-.017,0-.02,0-.022a.368.368,0,0,0,.035-.043l.01-.017,0-.02c0-.007,0-.015,0-.022a.335.335,0,0,0,.035-.043l.01-.017,0-.02,0-.022a.292.292,0,0,0,.035-.043l.01-.018c0-.007,0-.013,0-.02l0-.022a.3.3,0,0,0,.035-.043l.01-.018c0-.007,0-.013,0-.02s0-.015,0-.022a.332.332,0,0,0,.035-.043l.01-.018,0-.02,0-.021a.335.335,0,0,0,.035-.043l.011-.018,0-.02,0-.021a.314.314,0,0,0,.035-.042l.011-.018c0-.007,0-.014,0-.021l0-.021a.311.311,0,0,0,.035-.042l.011-.018,0-.02,0-.021a.355.355,0,0,0,.034-.042l.011-.018c0-.007,0-.014,0-.021l0-.021a.358.358,0,0,0,.035-.042l.011-.018,0-.021,0-.021a.356.356,0,0,0,.034-.042l.011-.018,0-.021c0-.006,0-.014,0-.021a.355.355,0,0,0,.034-.042l.011-.019,0-.021,0-.021a.392.392,0,0,0,.034-.042l.011-.019c0-.007,0-.014,0-.021l0-.02a.383.383,0,0,0,.034-.042l.011-.019,0-.021c0-.006,0-.014,0-.02a.361.361,0,0,0,.034-.042l.011-.019,0-.021c0-.006,0-.014,0-.02a.359.359,0,0,0,.034-.042l.011-.019c0-.007,0-.014,0-.022s0-.014,0-.02a.362.362,0,0,0,.03-.037v.737a.347.347,0,0,0-.016.034h0l-.032.052a.3.3,0,0,0-.024.052h0l-.032.052a.326.326,0,0,0-.024.052h0l-.032.051a.32.32,0,0,0-.024.053h0l-.031.051a.3.3,0,0,0-.024.053h0l-.031.051a.291.291,0,0,0-.025.053h0l-.031.05a.3.3,0,0,0-.025.054h0l-.031.05a.457.457,0,0,0-.049.138.736.736,0,0,0-.019.159v.092l.089.031a2.751,2.751,0,0,0,.307.088c.118.029.239.054.363.079s.235.044.333.062a1.9,1.9,0,0,0,.219.03.931.931,0,0,0,.22-.021,1.572,1.572,0,0,0,.244-.069.817.817,0,0,0,.2-.1l.047-.035q0-.025,0-.051c.007,0,.017-.009.023-.014l.048-.036v-.05l.023-.014.048-.036v-.051l.022-.014.048-.036c0-.017,0-.034,0-.05s.016-.009.022-.014l.049-.036v-.05l.022-.013.049-.037c0-.017,0-.034,0-.05l.022-.013.049-.037v-.05l.021-.013.049-.037v-.05h0c.2.36.406.719.61,1.079l.073,0c.1.006.233.006.383,0a3.126,3.126,0,0,0,.45-.051.928.928,0,0,0,.37-.14l.077-.056-.014-.032c.007,0,.017-.007.023-.012l.078-.056-.013-.031c.007,0,.016-.007.023-.012l.078-.057-.013-.032c.007,0,.016-.007.022-.012l.079-.057-.014-.031c.006,0,.016-.007.022-.011l.079-.058-.013-.031c.006,0,.015-.007.021-.011l.08-.058-.013-.031c.006,0,.015-.007.021-.011l.08-.058-.013-.031c.006,0,.014-.006.02-.01l.081-.059-.013-.031c.006,0,.014-.006.019-.01l.081-.059-.013-.031c.006,0,.013-.006.019-.01l.082-.06-.013-.031c.006,0,.013-.006.019-.01l.062-.045a2.01,2.01,0,0,0,.2.611l.01.019.016.015c.029.028.1.084.2.168a4.325,4.325,0,0,0,.385.276,3.084,3.084,0,0,0,.524.271,2.045,2.045,0,0,0,.622.146,4.226,4.226,0,0,0,.536,0c.191-.01.383-.029.57-.055s.355-.057.5-.091a1.834,1.834,0,0,0,.353-.11l.065-.03v-.047c.018-.007.04-.014.056-.021l.065-.031v-.047c.018-.007.04-.014.055-.021l.066-.031v-.047c.018-.007.04-.013.055-.021l.066-.031v-.047c.017-.007.039-.014.054-.021l.067-.031v-.047c.017-.007.039-.013.054-.021l.067-.031v-.047c.017-.007.039-.013.054-.02l.068-.032v-.047c.017-.007.038-.013.053-.02l.068-.032v-.047c.017-.007.038-.013.053-.02l.068-.032v-.047c.016-.007.038-.013.052-.02l.069-.032v-.047c.016-.007.037-.013.052-.02l.07-.033v-.047c.016-.007.037-.013.051-.019l.07-.033v-.047l.03-.011c-.061.2-.117.367-.168.49a.217.217,0,0,0-.032.045l-.047.013-.015.01a.2.2,0,0,0-.063.077l-.047.013-.015.009a.2.2,0,0,0-.063.077l-.048.013-.015.009a.2.2,0,0,0-.063.077l-.048.013-.015.01a.2.2,0,0,0-.062.077l-.048.013-.015.009a.239.239,0,0,0-.089.138.645.645,0,0,0-.024.183v.1l.094.033c.064.023.158.05.277.083s.244.064.379.1.268.064.4.093.239.053.327.072.156.031.179.034a.84.84,0,0,0,.228-.017,1.55,1.55,0,0,0,.248-.069.519.519,0,0,0,.2-.114l.013-.013a.45.45,0,0,0,.128-.082l.012-.013a.45.45,0,0,0,.128-.082l.012-.013c.012-.006.028-.012.039-.018a.479.479,0,0,0-.026.15v.086l.079.04a1.414,1.414,0,0,0,.27.091c.124.034.267.069.427.107s.318.074.473.11l.4.09c.117.026.187.04.21.043a.809.809,0,0,0,.227-.014,1.484,1.484,0,0,0,.248-.066.548.548,0,0,0,.19-.106.536.536,0,0,0,.157-.091c0,.015-.005.03-.006.045v.105l.1.031c.117.034.283.075.506.122s.453.094.71.141.511.094.764.138.477.083.674.114.341.054.428.065a.329.329,0,0,0,.18-.04,1.384,1.384,0,0,0,.129-.069.55.55,0,0,0,.056-.02,1.343,1.343,0,0,0,.129-.07.548.548,0,0,0,.056-.02,1.385,1.385,0,0,0,.129-.069.583.583,0,0,0,.056-.02,1.459,1.459,0,0,0,.129-.069c.018-.007.035-.01.056-.02a1.389,1.389,0,0,0,.129-.07.586.586,0,0,0,.056-.02c.043-.019.086-.045.129-.069.018-.007.035-.01.056-.02s.044-.024.065-.035a1.133,1.133,0,0,0,.143.175,2.914,2.914,0,0,0,.458.369,4.158,4.158,0,0,0,.572.316,2.249,2.249,0,0,0,.593.182,2.482,2.482,0,0,0,.514.021,3.163,3.163,0,0,0,.51-.071,2.361,2.361,0,0,0,.449-.146c.012-.005.02-.012.032-.017.064-.022.126-.045.183-.07.012-.005.021-.011.032-.017.064-.022.126-.045.183-.07.012-.005.021-.012.032-.017.063-.021.126-.044.183-.07.012-.005.02-.012.032-.017.063-.022.126-.045.183-.07.012-.005.02-.012.032-.017.064-.022.126-.044.183-.07.012-.005.02-.012.032-.017.064-.022.126-.045.183-.07l.032-.017c.064-.022.126-.044.183-.07l.022-.012v.107a1.207,1.207,0,0,1-.027.272.5.5,0,0,1-.026.075l-.126,0-.031.048a.264.264,0,0,0-.022.044l-.17,0-.031.047a.394.394,0,0,0-.049.132.727.727,0,0,0-.019.157v.09l.086.043a1.687,1.687,0,0,0,.237.087c.107.034.232.072.376.114s.284.082.426.119l.364.1c.109.029.179.046.21.051a1.055,1.055,0,0,0,.335-.008.842.842,0,0,0,.287-.093.807.807,0,0,0,.237-.082,1.068,1.068,0,0,0,.143-.037,1.184,1.184,0,0,0,.2.241,1.426,1.426,0,0,0,.961.321,2.442,2.442,0,0,0,.323-.033,1.972,1.972,0,0,0,.307-.076l.067-.023v-.005a1.846,1.846,0,0,0,.186-.051l.068-.023v-.005a1.761,1.761,0,0,0,.185-.051l.068-.023v0a1.866,1.866,0,0,0,.185-.051l.064-.022c.011.013.021.026.034.039a3.119,3.119,0,0,0,.455.391,4.323,4.323,0,0,0,.568.343,2.306,2.306,0,0,0,.59.21,2.553,2.553,0,0,0,.51.045,3.027,3.027,0,0,0,.507-.047,38.747,38.747,0,0,0,.624-.165,202.124,202.124,0,0,0,.557-.15,2.328,2.328,0,0,0,.279-.075,263.283,263.283,0,0,0,.557-.15,1746.323,1746.323,0,0,1,.836-.225,2.5,2.5,0,0,0,.279-.075,638.4,638.4,0,0,1,.836-.225,743.876,743.876,0,0,1,.835-.225,2.661,2.661,0,0,0,.279-.075,2.6,2.6,0,0,0,.279-.075,2.576,2.576,0,0,0,.278-.075,2.67,2.67,0,0,0,.279-.075,2.6,2.6,0,0,0,.279-.075,2.766,2.766,0,0,0,.279-.075,2.676,2.676,0,0,0,.278-.075,2.767,2.767,0,0,0,.279-.075,2.687,2.687,0,0,0,.279-.075,2.631,2.631,0,0,0,.279-.075,2.824,2.824,0,0,0,.279-.075,2.693,2.693,0,0,0,.278-.075,75506.766,75506.766,0,0,1,.557-.15,351.175,351.175,0,0,1,.557-.15,2.821,2.821,0,0,0,.279-.075q.147-.032.279-.075a2.8,2.8,0,0,0,.278-.075c.1-.021.191-.046.279-.075s.191-.047.279-.075.19-.046.279-.075.19-.047.279-.075.19-.047.278-.075.19-.046.279-.075.19-.047.279-.075.19-.047.279-.075.19-.047.278-.075.19-.047.279-.075.19-.046.279-.075.19-.047.279-.075.19-.047.278-.075.19-.047.279-.075.19-.047.278-.075a2.952,2.952,0,0,0,.454-.134,1.336,1.336,0,0,0,.44-.269l.04-.04q0-1.9,0-3.807a1.746,1.746,0,0,1,.031-.384l.075-.008c0-.023,0-.046,0-.068l.289-.031c0-.023,0-.045,0-.068m-3.512-.412-.005,0c0-.009,0-.017.006-.024l.124-.014a1.146,1.146,0,0,0-.125.036m.275-.1a.778.778,0,0,0-.127.063h0v-.07l.249-.028a1.131,1.131,0,0,0-.117.033m.384-.135a1.068,1.068,0,0,0-.109.031.787.787,0,0,0-.127.063l-.009,0v-.069l.245-.027m-42.425-3.647,0,0,0-.013v.01" transform="translate(-172.683 -112.059)" fill="#040504"/>
      <path id="Path_5097" data-name="Path 5097" d="M224.257,175.06a.464.464,0,0,0-.015-.105,93.188,93.188,0,0,0-.044-.316.507.507,0,0,0-.014-.106.481.481,0,0,0-.015-.105.5.5,0,0,0-.014-.105.527.527,0,0,0-.015-.105.5.5,0,0,0-.015-.106.521.521,0,0,0-.014-.105,366.5,366.5,0,0,0-.029-.211,30.323,30.323,0,0,0-.029-.211.5.5,0,0,0-.015-.105,36.165,36.165,0,0,0-.029-.211.529.529,0,0,0-.015-.105.548.548,0,0,0-.014-.105.523.523,0,0,0-.015-.105,108.961,108.961,0,0,1-.058-.422,1038.259,1038.259,0,0,0-.029-.211.572.572,0,0,0-.014-.105.547.547,0,0,0-.015-.105.571.571,0,0,0-.014-.105.6.6,0,0,0-.015-.105,33.658,33.658,0,0,1-.029-.211,374.992,374.992,0,0,1-.029-.211.6.6,0,0,0-.014-.105,1038.493,1038.493,0,0,0-.029-.211,107.06,107.06,0,0,1-.058-.422.6.6,0,0,0-.015-.105.63.63,0,0,0-.014-.105.663.663,0,0,0-.015-.105.6.6,0,0,0-.015-.105,41.81,41.81,0,0,0-.029-.211,374.992,374.992,0,0,1-.029-.211.83.83,0,0,0-.08-.282,2.04,2.04,0,0,0-.2-.329,1.631,1.631,0,0,0-.254-.272.485.485,0,0,0-.313-.138.808.808,0,0,0-.32.091,2.681,2.681,0,0,0-.337.194.246.246,0,0,0-.017-.061c0-.007,0-.013,0-.019a.237.237,0,0,0-.026-.1c0-.006,0-.012,0-.019a.237.237,0,0,0-.026-.1c0-.006,0-.012,0-.018a.234.234,0,0,0-.026-.1c0-.006,0-.012,0-.018a.234.234,0,0,0-.026-.1c0-.006,0-.012,0-.018a.237.237,0,0,0-.026-.1c0-.006,0-.011,0-.017a.238.238,0,0,0-.026-.1c0-.006,0-.011,0-.017a.238.238,0,0,0-.026-.1c0-.006,0-.011,0-.017a.242.242,0,0,0-.026-.105c0-.005,0-.011,0-.016A.242.242,0,0,0,221.8,168c0-.005,0-.011,0-.016a.243.243,0,0,0-.026-.106c0-.005,0-.011,0-.016a.248.248,0,0,0-.025-.106c0-.005,0-.01,0-.016a.251.251,0,0,0-.025-.106s0-.01,0-.015a.253.253,0,0,0-.025-.107s0-.01,0-.015a.253.253,0,0,0-.025-.107s0-.01,0-.015a.251.251,0,0,0-.025-.107s0-.009,0-.014a.252.252,0,0,0-.025-.108s0-.009,0-.014a.253.253,0,0,0-.025-.108s0-.009,0-.014a.254.254,0,0,0-.025-.108s0-.009,0-.013a.257.257,0,0,0-.025-.109s0-.008,0-.013a.257.257,0,0,0-.025-.109s0-.008,0-.013a.409.409,0,0,0-.215-.311,2.445,2.445,0,0,0-.4-.213c-.154-.068-.322-.133-.5-.192s-.343-.107-.492-.141a1.649,1.649,0,0,0-.387-.05,3.008,3.008,0,0,0-.685.106,3.349,3.349,0,0,0-.705.276,2.02,2.02,0,0,0-.572.431l-.054.06c0,.026.007.052.01.078a3.225,3.225,0,0,0,.164.681c.012.033.024.06.036.09,0,.009.005.019.008.028.013.034.025.062.037.092,0,.008,0,.017.008.026.012.034.024.062.036.092,0,.008,0,.017.008.026.012.034.024.062.036.092,0,.008,0,.017.008.026.012.034.024.062.036.092,0,.008,0,.017.008.026.012.034.024.062.036.092,0,.008,0,.017.008.025.012.034.024.062.036.092,0,.008,0,.018.008.026.012.034.024.062.036.092,0,.008,0,.017.008.025.012.034.024.062.036.092,0,.008,0,.018.008.026.012.034.024.062.037.092,0,.008,0,.017.007.025.013.034.024.062.036.092,0,.008,0,.017.008.026.013.034.024.062.037.092,0,.008,0,.017.007.025.013.034.024.062.036.092,0,.008,0,.017.008.026.013.034.024.062.036.092,0,.008,0,.017.008.026.013.034.025.062.037.092,0,.008,0,.017.007.026l0,.008v.02c0-.007-.008-.015-.013-.022a86.068,86.068,0,0,0-.091-.243,3136.428,3136.428,0,0,0-.091-.243,43.918,43.918,0,0,1-.091-.243.261.261,0,0,0-.046-.121.265.265,0,0,0-.046-.121.261.261,0,0,0-.046-.121.271.271,0,0,0-.046-.122.265.265,0,0,0-.046-.121.268.268,0,0,0-.046-.121.271.271,0,0,0-.046-.122.275.275,0,0,0-.046-.121.269.269,0,0,0-.046-.121.276.276,0,0,0-.046-.121.279.279,0,0,0-.046-.122.274.274,0,0,0-.046-.121,110.34,110.34,0,0,0-.091-.242.422.422,0,0,0-.2-.275,2.359,2.359,0,0,0-.384-.208c-.149-.066-.314-.129-.487-.186a4.4,4.4,0,0,0-.5-.133,1.824,1.824,0,0,0-.419-.043,4.291,4.291,0,0,0-.82.121,4.883,4.883,0,0,0-.79.264.536.536,0,0,0-.047-.065.389.389,0,0,0-.07-.134.4.4,0,0,0-.07-.134,131.007,131.007,0,0,1-.139-.269,3510.853,3510.853,0,0,1-.139-.269.394.394,0,0,0-.07-.134.4.4,0,0,0-.07-.134,3510.853,3510.853,0,0,1-.139-.269.411.411,0,0,0-.069-.134,259898351381.861,259898351381.861,0,0,0-.139-.269,1632.706,1632.706,0,0,1-.139-.269.468.468,0,0,0-.117-.2,1.121,1.121,0,0,0-.251-.193.585.585,0,0,0-.321-.085.6.6,0,0,0-.391.243,3.368,3.368,0,0,0-.338.465c-.111.181-.217.372-.315.568s-.177.379-.239.541a1.235,1.235,0,0,0-.1.406.794.794,0,0,0,.087.33,1.837,1.837,0,0,0,.149.253c.024.041.051.082.079.123s.051.082.079.123.051.082.079.123.051.082.079.123.051.082.079.123.051.082.079.123.051.082.079.123.051.082.079.123.051.082.079.122.051.082.079.123.051.082.079.123.051.082.079.123.051.082.079.123.051.082.079.123.051.082.079.123.051.082.079.122.051.082.079.123.05.082.079.122.051.082.079.123.05.082.079.123.051.082.079.123.05.082.079.123.05.082.079.123.051.082.079.123.05.082.079.123.051.082.079.123.05.082.079.123.042.068.065.1l-.019.013-.092.052v.1a.792.792,0,0,0,.138.412c.019.03.039.055.059.083,0,.007,0,.012.009.019.019.03.039.056.059.084,0,.006,0,.012.009.018.019.03.039.056.059.084,0,.006,0,.012.009.018.019.03.039.056.059.084,0,.007,0,.012.009.018.019.03.039.056.059.084,0,.006,0,.011.009.018.019.03.039.056.059.084,0,.006,0,.012.009.018.019.03.039.056.059.084,0,.006,0,.012.009.018.019.03.039.056.059.084,0,.006,0,.012.009.018.019.03.039.056.059.084,0,.006,0,.012.008.018.019.03.039.056.059.084,0,.006,0,.012.009.018.019.03.039.056.059.084,0,.006,0,.012.008.018.019.03.039.056.059.084,0,.006,0,.012.009.018.019.03.039.056.059.084,0,.006,0,.012.008.018.019.03.039.056.059.084,0,.007,0,.012.009.018.019.03.039.056.059.084,0,.007,0,.012.008.018.019.03.039.056.059.084,0,.006,0,.012.009.018.019.03.039.056.059.084,0,.006,0,.012.008.018.019.03.039.056.059.084,0,.006,0,.012.009.018.019.03.039.056.059.084,0,.006,0,.012.008.018.019.03.039.056.059.084,0,.006,0,.012.009.018.019.03.039.056.059.084,0,.006,0,.012.008.018.019.03.039.056.059.084,0,.006,0,.012.009.018.019.03.039.056.059.084,0,.006,0,.011.008.018.019.03.039.056.059.084,0,.006,0,.011.009.018.019.03.039.056.059.084,0,.006,0,.012.008.018.019.03.039.056.059.084,0,.006,0,.012.009.018.019.03.039.056.059.084,0,.006,0,.012.008.018.019.03.039.056.059.084,0,.006,0,.012.009.018.019.03.039.056.059.084,0,.006,0,.012.009.018.019.03.039.056.059.084,0,.006,0,.012.009.018.019.03.039.056.059.084,0,.006,0,.012.009.018.019.03.039.056.059.084,0,.006,0,.011.009.018.019.03.039.056.059.084,0,.007,0,.012.009.018.019.03.039.056.059.084,0,.006,0,.011.009.018.019.03.039.056.059.084,0,.006,0,.012.009.018.019.03.039.056.059.084,0,.006,0,.012.009.018.019.03.039.056.059.084,0,.006,0,.012.009.018.019.03.039.056.059.084,0,.006,0,.012.008.018.019.03.039.056.059.084,0,.006,0,.012.009.018.019.03.039.056.059.084,0,.006,0,.012.008.018.019.03.039.056.059.084,0,.006,0,.012.009.018.019.03.039.056.059.084,0,.006,0,.011.008.018.019.03.039.056.059.084,0,.006,0,.011.009.018.019.03.039.056.059.084,0,.006,0,.012.008.018.019.03.039.056.059.084,0,.006,0,.012.009.018.019.03.039.056.059.084,0,.006,0,.012.008.018.019.03.039.056.059.084,0,.006,0,.012.009.018.019.03.039.056.059.084,0,.006,0,.012.008.018.019.03.039.056.059.084,0,.006,0,.012.009.018.019.03.039.056.059.084,0,.006,0,.012.008.018.019.03.039.056.059.084,0,.006,0,.012.009.018a1.4,1.4,0,0,0,.2.255c.1.1.163.133.234.13a.41.41,0,0,0,.192-.076c.059-.037.117-.077.177-.12.038-.027.067-.048.089-.061a1.258,1.258,0,0,1,.162.008c.1.01.213.025.339.044l.383.059c.128.02.24.036.339.049a1.321,1.321,0,0,0,.218.019.8.8,0,0,0,.276-.071,2.272,2.272,0,0,0,.281-.141,1.27,1.27,0,0,0,.181-.125c0,.013,0,.027,0,.04l.038.041.011.009c0,.016,0,.032,0,.049l.038.041.011.009c0,.016,0,.033,0,.049l.038.041.011.009c0,.016,0,.032,0,.048l.038.04.012.01c0,.016,0,.032,0,.048l.037.04.012.01c0,.016,0,.032,0,.048l.037.04a.9.9,0,0,0,.235.161,2.332,2.332,0,0,0,.322.138.875.875,0,0,0,.3.058,4.855,4.855,0,0,0,.634-.061,4.13,4.13,0,0,0,.6-.139,1.229,1.229,0,0,0,.428-.212.531.531,0,0,0,.078-.1.26.26,0,0,0,.024.077c0,.007,0,.013,0,.02a.269.269,0,0,0,.023.076c0,.007,0,.013,0,.02a.266.266,0,0,0,.024.076c0,.007,0,.013,0,.02a.258.258,0,0,0,.024.076l0,.02a.354.354,0,0,0,.1.2.812.812,0,0,0,.184.151.451.451,0,0,0,.238.071.461.461,0,0,0,.3-.164,2.771,2.771,0,0,0,.281-.332c.1-.129.185-.268.272-.41a4.232,4.232,0,0,0,.209-.393.774.774,0,0,0,.089-.3.461.461,0,0,0-.016-.116.471.471,0,0,0-.015-.106m-5.824-5.739h0l.011.027,0,.014v.032l0-.006a.238.238,0,0,0-.013-.067m.28.758h.006l.017.043v.02c0-.009-.01-.018-.016-.026a.209.209,0,0,0-.007-.038m.043.109h0a.1.1,0,0,0,0,.01c0,.012.009.022.014.034v.024c0-.006-.007-.012-.011-.018a.218.218,0,0,0-.01-.051m.043.109h0c0,.007,0,.013.006.02l.01.025v.028l-.006-.01a.227.227,0,0,0-.013-.064m.045.112c0,.008,0,.017.007.026l0,.005h0a.216.216,0,0,0-.011-.035h0l0,0m-.166-.437.017.043v.015a.269.269,0,0,0-.02-.034.212.212,0,0,0-.005-.025Zm-.04-.108.017.042v.011a.284.284,0,0,0-.025-.042s0-.008,0-.013l.011,0m-.041-.108.016.041v.006a.264.264,0,0,0-.03-.049l.014,0m-.041-.108.016.04v.011a.287.287,0,0,0-.027-.053Zm-.04-.108.016.04v.023a.241.241,0,0,0-.023-.063h.007m-.041-.108.015.037v.037a.233.233,0,0,0-.02-.075h0m-.081-.217.007.018c0,.008,0,.017.007.025v.024l-.008-.014a.231.231,0,0,0-.01-.054h0" transform="translate(-142.103 -110.414)" fill="#040504"/>
      <path id="Path_5098" data-name="Path 5098" d="M129.128,176.34c.108.008.247.01.416.007l.106,0,.023-.1q.051-.223.107-.562a3.682,3.682,0,0,0,.045-.719c0-.017,0-.035,0-.052l-.039-.033c-.014-.012-.034-.022-.049-.034a.053.053,0,0,0,0-.007c0-.018,0-.035,0-.053l-.039-.034c-.014-.012-.034-.022-.049-.034v-.007c0-.018,0-.035,0-.053l-.039-.034c-.014-.012-.034-.021-.049-.033a.04.04,0,0,1,0-.006c0-.018,0-.035,0-.053l-.04-.034c-.014-.012-.033-.021-.048-.033v-.006c0-.018,0-.036,0-.054l-.04-.034c-.014-.012-.033-.021-.048-.033v-.005c0-.018,0-.036,0-.054l-.04-.035c-.014-.012-.033-.021-.048-.033a.024.024,0,0,0,0,0c0-.018,0-.036,0-.055l-.04-.034c-.014-.012-.033-.021-.048-.033v0c0-.018,0-.037,0-.055l-.041-.035c-.014-.012-.032-.021-.047-.032a.019.019,0,0,1,0,0c0-.018,0-.037,0-.055l-.041-.035c-.014-.011-.033-.021-.047-.032v0c0-.019,0-.037,0-.056l-.041-.035c-.014-.012-.032-.021-.047-.032v0c0-.019,0-.037,0-.056l-.042-.035c-.013-.011-.032-.021-.046-.032a.011.011,0,0,0,0,0c0-.019,0-.037,0-.056l-.042-.036c-.013-.011-.032-.021-.046-.031v0c0-.019,0-.038,0-.057l-.042-.036c-.013-.011-.032-.021-.046-.031v0c0-.019,0-.038,0-.057l-.042-.036c-.013-.011-.031-.02-.045-.031v0c0-.019,0-.038,0-.058l-.043-.036c-.013-.011-.031-.02-.045-.031h0c0-.019,0-.039,0-.058l-.043-.036c-.013-.011-.031-.02-.045-.031h0c0-.019,0-.039,0-.058l-.043-.037c-.013-.011-.031-.02-.044-.031h0c0-.019,0-.039,0-.059l-.044-.037c-.013-.011-.03-.02-.044-.03h0c0-.02,0-.039,0-.059l-.044-.037c-.013-.011-.031-.02-.044-.03s0-.039,0-.059l-.044-.037c-.013-.011-.03-.02-.044-.03s0-.039,0-.059l-.044-.038c-.012-.011-.03-.019-.043-.03s0-.039,0-.059l-.045-.038c-.013-.01-.03-.019-.043-.029s0-.039,0-.059l-.045-.038c-.012-.011-.03-.019-.043-.029s0-.039,0-.059l-.045-.038c-.012-.01-.029-.019-.042-.029s0-.039,0-.059l-.045-.039c-.012-.01-.029-.019-.042-.029s0-.039,0-.059l-.046-.039c-.012-.01-.029-.019-.042-.029s0-.039,0-.059l-.046-.039c-.012-.01-.029-.019-.042-.029s0-.039,0-.059l-.046-.039c-.012-.01-.029-.018-.042-.028l0-.059-.047-.039c-.012-.01-.029-.018-.041-.028s0-.039,0-.059l-.047-.04c-.012-.01-.028-.018-.041-.028s0-.039,0-.059l-.047-.04c-.012-.01-.028-.018-.041-.028s0-.039,0-.059l-.047-.04c-.012-.01-.028-.018-.04-.028s0-.039,0-.059l-.048-.041c-.012-.01-.028-.018-.04-.028s0-.039,0-.058l-.048-.041c-.012-.01-.028-.018-.04-.027l0-.058-.048-.041c-.011-.01-.028-.018-.04-.027s0-.039,0-.058l-.048-.041c-.011-.01-.027-.018-.039-.027s0-.039,0-.058l-.048-.042c-.011-.01-.027-.017-.039-.027s0-.039,0-.058l-.049-.042c-.011-.01-.027-.017-.039-.027s0-.039,0-.058l-.049-.042c-.011-.01-.027-.017-.038-.026s0-.039,0-.058l-.049-.042c-.011-.009-.027-.017-.038-.026s0-.039,0-.058l-.049-.042c-.011-.009-.026-.017-.038-.026l0-.058-.05-.043c-.011-.009-.026-.017-.038-.026s0-.039,0-.058l-.05-.043c-.011-.009-.026-.017-.038-.026s0-.039,0-.058l-.05-.043c-.011-.009-.026-.016-.037-.025s0-.039,0-.058l-.051-.043c-.011-.009-.026-.017-.037-.025s0-.039,0-.058l-.051-.044c-.011-.009-.026-.016-.037-.025s0-.039,0-.058l-.051-.044c-.011-.009-.025-.016-.036-.025l0-.058-.052-.044c-.01-.009-.025-.016-.036-.025l0-.058-.052-.044c-.01-.009-.025-.016-.036-.025s0-.038,0-.058l-.052-.045c-.01-.009-.025-.016-.036-.024s0-.038,0-.058l-.052-.045c-.01-.009-.025-.016-.035-.024s0-.038,0-.058l-.052-.045a1.918,1.918,0,0,0-.591-.328,3.811,3.811,0,0,0-.72-.183,2.592,2.592,0,0,0-1.309.093,7.128,7.128,0,0,0-.8.287,8.359,8.359,0,0,0-.8.388,2.985,2.985,0,0,0-.636.455l-.029.028c0,.012-.01.024-.015.037a3.3,3.3,0,0,0-.143.52l-.022-.019a.967.967,0,0,0-.121-.125,462.948,462.948,0,0,0-.362-.376.987.987,0,0,0-.121-.125,111.974,111.974,0,0,0-.242-.251,1.223,1.223,0,0,0-.29-.252,1.805,1.805,0,0,0-.362-.182l-.033-.012q-2.033.179-4.065.388a.649.649,0,0,0-.2.069,1.623,1.623,0,0,0-.234.134,1.022,1.022,0,0,0-.186.155l-.055.062c0,.026,0,.051.006.077a.944.944,0,0,0,.046.235.776.776,0,0,0,.071.162l.05.078.072-.007c.009.018.018.036.026.05l.049.077.072-.007a.516.516,0,0,0,.026.051l.049.077.072-.007c.009.019.018.037.026.051l.049.076.072-.007v0c0,.014,0,.027,0,.042v.806c-.015-.008-.038-.019-.07-.033l-.022-.037-.017-.025-.026-.016a.631.631,0,0,0-.088-.044c-.008-.012-.014-.025-.022-.036l-.017-.025-.027-.016a.623.623,0,0,0-.088-.044c-.008-.012-.014-.024-.022-.036l-.017-.025-.027-.016a.623.623,0,0,0-.088-.044c-.008-.012-.014-.024-.022-.036l-.017-.025-.027-.016a.638.638,0,0,0-.088-.044c-.008-.012-.014-.024-.022-.036l-.017-.026-.027-.016a.629.629,0,0,0-.088-.044l-.022-.035-.017-.026-.027-.017a.65.65,0,0,0-.088-.044c-.008-.011-.014-.024-.021-.035l-.018-.026-.027-.017a.649.649,0,0,0-.088-.044c-.007-.011-.014-.023-.021-.035l-.018-.026-.027-.017a.656.656,0,0,0-.087-.044l-.021-.035-.018-.026-.027-.017a.706.706,0,0,0-.087-.044c-.007-.011-.014-.023-.021-.035l-.018-.026-.027-.017a.67.67,0,0,0-.087-.043c-.007-.011-.014-.023-.021-.034l-.018-.027-.028-.017a.6.6,0,0,0-.087-.044c-.007-.011-.013-.023-.021-.034l-.018-.027-.028-.017a1.551,1.551,0,0,0-.269-.115c-.126-.046-.265-.092-.42-.137s-.288-.083-.406-.115a.8.8,0,0,0-.279-.046q-1.66.19-3.32.4l-.026.012c-.037.017-.094.047-.169.09a2.509,2.509,0,0,0-.223.142.844.844,0,0,0-.187.172l-.045.061c0,.023,0,.047.007.07a1.229,1.229,0,0,0,.043.212.618.618,0,0,0,.072.179l.05.076.1-.013a.452.452,0,0,0,.027.053l.049.076.1-.013a.436.436,0,0,0,.027.054l.049.076.1-.013a.468.468,0,0,0,.028.054l.021.033c0,.026,0,.05,0,.077v1.833a.681.681,0,0,0-.12-.072l-.037-.016h0a.75.75,0,0,0-.151-.1l-.037-.016h0a.724.724,0,0,0-.151-.1l-.037-.016h0a.752.752,0,0,0-.151-.1l-.038-.016h0a.729.729,0,0,0-.152-.1l-.038-.017h0a.775.775,0,0,0-.152-.1l-.038-.017h0a.748.748,0,0,0-.151-.1l-.038-.017h0a.738.738,0,0,0-.152-.1l-.038-.017h0a.773.773,0,0,0-.152-.1l-.039-.017h0a.738.738,0,0,0-.152-.1l-.039-.017h0a.753.753,0,0,0-.152-.1l-.039-.017h0a.769.769,0,0,0-.152-.1l-.039-.017h0a.774.774,0,0,0-.152-.1l-.039-.017h0a.772.772,0,0,0-.152-.1l-.04-.018h0a.766.766,0,0,0-.152-.1l-.04-.017-.046.006a.9.9,0,0,0-.212.068l-.247.1c-.057.023-.092.038-.11.043-.059.008-.168.019-.325.034l-.549.045q-.312.023-.608.05l-.514.046c-.151.014-.242.022-.269.027l-.035.005-.033.019a1.454,1.454,0,0,0-.3.25c-.1.1-.192.208-.283.318a2.388,2.388,0,0,0-.2.274l-.023-.012a.493.493,0,0,0-.122-.036l.006-.023-.1-.05a.507.507,0,0,0-.121-.036l.005-.023-.1-.05a.485.485,0,0,0-.121-.036l.006-.023-.1-.05a.5.5,0,0,0-.12-.036l.006-.022-.1-.051a.681.681,0,0,0-.23-.054,2.143,2.143,0,0,0-.384,0l-.043,0-.039.023a7.709,7.709,0,0,1-.926.461c-.38.163-.762.316-1.133.454l-.075.028-.038.073a.838.838,0,0,0-.072.3,3.506,3.506,0,0,0-.018.385v.187l.231-.06v.159l.23-.06c0,.053,0,.106,0,.159l.231-.06c0,.053,0,.106,0,.159l.231-.06v.159l.187-.048v.169l-.013,0a1.154,1.154,0,0,0-.191-.091c-.019-.007-.038-.01-.057-.016a1.22,1.22,0,0,0-.192-.091c-.019-.007-.038-.01-.057-.016a1.214,1.214,0,0,0-.192-.091c-.018-.007-.038-.01-.056-.016a1.224,1.224,0,0,0-.193-.091c-.018-.007-.037-.009-.055-.016a1.232,1.232,0,0,0-.194-.091c-.018-.007-.037-.009-.055-.016a1.211,1.211,0,0,0-.194-.092c-.018-.007-.036-.009-.054-.016a1.274,1.274,0,0,0-.195-.092c-.018-.007-.036-.009-.054-.015a1.269,1.269,0,0,0-.2-.092c-.017-.007-.035-.009-.053-.015a1.258,1.258,0,0,0-.2-.092c-.017-.006-.035-.009-.052-.015a1.274,1.274,0,0,0-.2-.092c-.017-.006-.035-.009-.051-.015a1.282,1.282,0,0,0-.2-.093c-.017-.006-.034-.008-.051-.015a1.343,1.343,0,0,0-.2-.093l-.056-.019a1.339,1.339,0,0,0-.193-.089l-.056-.018a1.32,1.32,0,0,0-.193-.089l-.056-.019a1.349,1.349,0,0,0-.193-.089L95,172.623a1.374,1.374,0,0,0-.193-.089l-.056-.019a1.374,1.374,0,0,0-.193-.089l-.056-.018a1.335,1.335,0,0,0-.193-.089l-.056-.019a1.392,1.392,0,0,0-.193-.089,2.833,2.833,0,0,0-.433-.124,1.031,1.031,0,0,0-.377-.022,3.315,3.315,0,0,0-.444.112,3.071,3.071,0,0,0-.417.171,2.993,2.993,0,0,0-.384.229,2.418,2.418,0,0,0-.338.285,2.248,2.248,0,0,0-.307.4,4.505,4.505,0,0,0-.35.683c-.031.073-.057.158-.086.238l-.08-.037a.57.57,0,0,0-.176-.038l0-.016-.1-.046a.578.578,0,0,0-.175-.038c0-.005,0-.01,0-.015l-.1-.046a.578.578,0,0,0-.175-.038l0-.015-.1-.046a.577.577,0,0,0-.174-.038l0-.015-.1-.047a.651.651,0,0,0-.229-.045,2.226,2.226,0,0,0-.382.021l-.043.005-.039.025a8.14,8.14,0,0,1-.92.5c-.378.178-.758.347-1.127.5l-.075.031-.038.075a.835.835,0,0,0-.071.3c-.011.117-.017.246-.018.386v.187l.286-.086v.175l.286-.086v.175l.286-.086V176l.245-.074v1.235a2.348,2.348,0,0,1-.052.571.44.44,0,0,1-.1.215.546.546,0,0,1-.19.112l-.3.1-.042.061a.725.725,0,0,0-.092.22,1.122,1.122,0,0,0-.036.273c0,.043,0,.086,0,.128l.121.011c.027,0,.083,0,.163,0v.063l.121.011c.027,0,.083,0,.164,0V179l.12.01c.027,0,.084,0,.164,0v.064l.119.01c.027,0,.084,0,.165,0,0,.021,0,.043,0,.064l.119.01c.027,0,.084,0,.165,0,0,.021,0,.042,0,.064l.118.01c.027,0,.084,0,.166,0v.064l.118.01c.027,0,.084,0,.167,0v.064l.117.01c.027,0,.084,0,.167,0v.064l.117.01c.027,0,.085,0,.168,0v.064l.116.01c.027,0,.085,0,.168,0,0,.021,0,.043,0,.064l.116.01c.027,0,.085,0,.169,0,0,.021,0,.043,0,.064l.115.01c.027,0,.085,0,.17,0v.064l.114.01c.027,0,.085,0,.17,0v.065l.113.01c.028,0,.086,0,.171,0v.065l.113.01c.028,0,.086,0,.172,0v.064l.112.01c.028,0,.086,0,.172,0,0,.021,0,.043,0,.065l.112.01c.028,0,.086,0,.173,0,0,.021,0,.043,0,.065l.111.01c.028,0,.086,0,.173,0v.065l.11.01c.028,0,.086,0,.174,0v.065l.11.009c.028,0,.086,0,.175,0v.065l.109.009c.028,0,.086,0,.175,0v.065l.108.009c.028,0,.086,0,.176,0,0,.022,0,.044,0,.065l.108.009c.028,0,.087,0,.176,0,0,.022,0,.044,0,.065l.107.009c.028,0,.087,0,.177,0v.065l.107.009c.028,0,.087,0,.178,0v.066l.106.009c.028,0,.087,0,.178,0v.066l.105.009c.028,0,.087,0,.179,0v.066l.1.009c.028,0,.087,0,.18,0,0,.022,0,.044,0,.066l.1.009c.028,0,.088,0,.18,0,0,.022,0,.044,0,.066l.1.009c.028,0,.088,0,.181,0v.066l.1.009c.028,0,.088,0,.182,0v.066l.1.009c.028,0,.089,0,.182,0v.066l.1.009c.028,0,.089,0,.183,0v.066l.1.009c.028,0,.089,0,.183,0,0,.022,0,.045,0,.067l.1.009c.028,0,.089,0,.184,0,0,.022,0,.045,0,.067l.1.009c.028,0,.09,0,.185,0v.067l.1.009c.028,0,.09,0,.185,0v.067l.1.008c.027,0,.09,0,.186,0v.067l.1.008c.027,0,.09,0,.187,0v.067l.1.008c.027,0,.09,0,.187,0,0,.022,0,.045,0,.067l.1.008c.027,0,.09,0,.187,0,0,.022,0,.045,0,.067l.1.008c.028,0,.091,0,.188,0v.068l.1.008c.028,0,.091,0,.189,0v.068l.095.008c.028,0,.091,0,.19,0v.068l.094.008c.028,0,.092,0,.19,0v.068l.093.008c.028,0,.092,0,.191,0q0,.034,0,.068l.093.008c.027,0,.092,0,.191,0,0,.023,0,.046,0,.068l.092.008c.027,0,.092,0,.192,0v.069l.092.008c.027,0,.092,0,.193,0v.068l.091.008c.027,0,.093,0,.193,0v.069l.09.008c.027,0,.093,0,.194,0v.069l.09.008a2.388,2.388,0,0,0,.24-.005c.121-.006.265-.015.432-.025s.332-.022.5-.035.311-.024.432-.036.207-.021.237-.027a.715.715,0,0,0,.209-.083,1.341,1.341,0,0,0,.2-.142,1.2,1.2,0,0,0,.162-.16l.036-.044V182a.568.568,0,0,0-.027-.188c-.01-.032-.019-.055-.027-.075l.04.009a1.707,1.707,0,0,0,.26.077,289.1,289.1,0,0,1,.521.155,1.673,1.673,0,0,0,.335.094,1.262,1.262,0,0,0,.445,0,1.916,1.916,0,0,0,.622-.232,2.688,2.688,0,0,0,.494-.366,2.144,2.144,0,0,0,.313-.356l.01-.015.006-.017a1.957,1.957,0,0,0,.09-.343,2.28,2.28,0,0,0,.036-.42c0-.035-.006-.072-.008-.107h.06v.067l.1.012a1.325,1.325,0,0,0,.133,0c0,.022,0,.045,0,.067l.1.012a1.333,1.333,0,0,0,.133,0c0,.022,0,.045,0,.067l.1.012c.022,0,.068,0,.134,0v.067l.095.012c.022,0,.068,0,.134,0v.067l.094.012c.022,0,.068,0,.135,0v.067l.093.012c.022,0,.068,0,.136,0q0,.034,0,.067l.093.012c.022,0,.068,0,.136,0,0,.022,0,.045,0,.067l.092.012c.022,0,.069,0,.137,0v.067l.091.012c.022,0,.069,0,.138,0v.068l.091.011c.022,0,.069,0,.138,0v.068l.09.011c.032,0,.11.006.241,0s.268,0,.434-.008.334-.009.5-.015.311-.012.435-.019.208-.013.238-.018a.68.68,0,0,0,.21-.074c.033-.017.062-.041.092-.061l.044.014.028.015a1.768,1.768,0,0,0,.179.067c.01.005.017.01.029.015a1.724,1.724,0,0,0,.179.067c.01.005.017.01.029.015a1.655,1.655,0,0,0,.178.067l.029.016a1.624,1.624,0,0,0,.178.067l.029.016a1.844,1.844,0,0,0,.269.1c.1.028.2.051.3.071a1.735,1.735,0,0,0,.276.033h.028l.028-.012a.7.7,0,0,0,.233-.178,1.9,1.9,0,0,0,.152-.182l.04-.058-.02-.06a.833.833,0,0,1-.03-.122.869.869,0,0,1-.008-.12,2.276,2.276,0,0,1,.038-.388,3.355,3.355,0,0,1,.133-.49c.064-.189.154-.42.263-.685l.061-.146h.029l.06,0v.094l.12,0,.061,0v.094l.119,0,.062,0v.094l.119,0,.062,0v.094l.118,0,.063,0v.094l.117,0,.064,0v.094l.117,0,.064,0v.094l.116,0,.065,0v.094l.115,0,.066,0v.094l.114,0,.067,0v.094l.114,0,.067,0v.094l.113,0,.068,0v.095l.112,0c.038,0,.132,0,.282-.011q.594-.028,1.189-.052l.619-.021c.188-.006.333-.008.442-.008l.031,0a1.232,1.232,0,0,0,.253-.068,3.518,3.518,0,0,0,.379-.166q.2-.1.4-.227a1.744,1.744,0,0,0,.335-.268l.014-.015.009-.018a1.448,1.448,0,0,0,.078-.178h.062c0,.029,0,.058,0,.086l.108.007h.04v.086l.107.007h.041v.086l.106.007h.041c0,.029,0,.058,0,.086l.106.007h.042v.086l.1.007c.1.006.245.008.428.006s.389-.007.618-.016.465-.018.706-.029l.69-.031c.221-.01.413-.019.577-.031s.282-.019.348-.025a.4.4,0,0,0,.181-.079,2.158,2.158,0,0,0,.177-.132.57.57,0,0,0,.143-.156l.01-.019c0-.007,0-.013,0-.02.021-.1.042-.229.061-.377s.035-.3.047-.466c.007-.086.007-.171.01-.256l.01.016.016.012.081.059.007.013.011.017.015.012.081.059.007.014.011.016.016.012.081.06.007.013.011.016.015.012.081.06.007.014.01.016.015.012.081.06s0,.01.008.014l.01.016.015.011.082.06.007.014.01.016.015.011c.031.023.094.07.194.14a3.351,3.351,0,0,0,.379.227,2.591,2.591,0,0,0,.521.2,1.863,1.863,0,0,0,.623.056,2.906,2.906,0,0,0,.742-.151,3.583,3.583,0,0,0,.6-.263,1.6,1.6,0,0,0,.369-.262l.027-.029.007-.038c.017-.086.033-.2.048-.333s.029-.271.041-.418.022-.287.025-.418l0-.09-.085-.026-.008,0,0-.082-.086-.026-.007,0c0-.027,0-.055,0-.082l-.086-.027-.007,0c0-.027,0-.055,0-.082l-.087-.027-.006,0c0-.027,0-.055,0-.082l-.087-.027-.006,0c0-.027,0-.055,0-.082l-.088-.027h0c0-.027,0-.055,0-.082l-.088-.027h0c0-.027,0-.055,0-.082l-.089-.028h0c0-.023,0-.047,0-.07l.044,0m-25.293,5.319h0" transform="translate(-58.561 -113.218)" fill="#040504"/>
      <path id="Path_5099" data-name="Path 5099" d="M90.07,190.988c-.039.008-.142.02-.3.034s-.356.032-.581.048-.447.033-.672.047-.417.027-.58.034-.264.011-.3.007a.777.777,0,0,1,.029-.224.6.6,0,0,1,.062-.155l.232-.081a.745.745,0,0,0,.265-.159.671.671,0,0,0,.166-.319,2.555,2.555,0,0,0,.058-.619q0-.658,0-1.315a2.483,2.483,0,0,1,.024-.382,1.305,1.305,0,0,1,.05-.228l-.042-.034-1.136.341a3.637,3.637,0,0,1,.016-.367.754.754,0,0,1,.05-.233q.564-.232,1.137-.5a8.241,8.241,0,0,0,.946-.512,2.017,2.017,0,0,1,.353-.019.551.551,0,0,1,.178.032c-.017.071-.035.169-.054.3s-.036.271-.05.433-.02.341-.021.536v1.944a1.25,1.25,0,0,1-.063.4,1.077,1.077,0,0,1-.12.262l.938-.041a1.3,1.3,0,0,1,.046.126.6.6,0,0,1,.029.2,1.476,1.476,0,0,1-.191.187,1.613,1.613,0,0,1-.241.169.727.727,0,0,1-.224.09" transform="translate(-58.912 -125.694)" fill="#fff"/>
      <path id="Path_5100" data-name="Path 5100" d="M100.828,187.019a1.556,1.556,0,0,1-.545,0,2,2,0,0,1-.494-.146,3.132,3.132,0,0,1-.382-.2,1.533,1.533,0,0,1-.208-.149,1.509,1.509,0,0,1-.183-.593,6.353,6.353,0,0,1-.05-.8,5.621,5.621,0,0,1,.112-1.169,5,5,0,0,1,.279-.916,4.159,4.159,0,0,1,.332-.65,1.965,1.965,0,0,1,.586-.625,2.651,2.651,0,0,1,.357-.213,2.989,2.989,0,0,1,.391-.16,3.183,3.183,0,0,1,.42-.106.913.913,0,0,1,.316.022,2.553,2.553,0,0,1,.412.118.776.776,0,0,1,.287.162,1.548,1.548,0,0,1-.108.384c-.045.095-.07.147-.075.16-.1.023-.184.042-.27.057l-.262.048-.333.061c-.109.02-.224.045-.337.074s-.231.067-.353.112a1.856,1.856,0,0,0-.178.523,10.663,10.663,0,0,0-.2,1.121c.093-.074.19-.151.291-.234s.2-.158.287-.225a.609.609,0,0,1,.237-.118,1.258,1.258,0,0,1,.457,0,2.442,2.442,0,0,1,.462.131,3.232,3.232,0,0,1,.375.172.591.591,0,0,1,.187.138,1.416,1.416,0,0,1,.108.4,3.5,3.5,0,0,1,.034.459,3.1,3.1,0,0,1-.046.536,2.57,2.57,0,0,1-.112.431,2.738,2.738,0,0,1-.391.442,3.476,3.476,0,0,1-.628.465,2.4,2.4,0,0,1-.778.289m.291-.942a.239.239,0,0,0,.1-.043.71.71,0,0,0,.1-.094l.133-.142a3.059,3.059,0,0,0,.054-.316,2.117,2.117,0,0,0,.021-.268.606.606,0,0,0-.013-.136,1.111,1.111,0,0,0-.029-.125.781.781,0,0,0-.233-.171,1,1,0,0,0-.262-.086.669.669,0,0,0-.237,0,.27.27,0,0,0-.121.056l-.116.093a1.048,1.048,0,0,1-.162.1,1,1,0,0,0-.025.172c-.007.075-.007.161-.008.261a1.367,1.367,0,0,0,.017.2.8.8,0,0,0,.05.192.221.221,0,0,0,.066.1c.09.034.182.067.279.1s.183.059.258.078a.543.543,0,0,0,.129.026" transform="translate(-66.754 -122.28)" fill="#fff"/>
      <path id="Path_5101" data-name="Path 5101" d="M112.024,188.192a2.279,2.279,0,0,1,.029-.408.518.518,0,0,1,.07-.213q.607-.106.974-.19a6.251,6.251,0,0,0,.613-.167,3.762,3.762,0,0,0,.471-.2l.217.215a2.06,2.06,0,0,1-.025.314,1.085,1.085,0,0,1-.066.254q-1.141.19-2.282.391" transform="translate(-75.561 -126.145)" fill="#fff"/>
      <path id="Path_5102" data-name="Path 5102" d="M123.317,185.125c-.039.006-.142.013-.3.022s-.358.017-.584.025-.45.015-.675.02-.42.009-.584.01-.266,0-.3,0a.869.869,0,0,1,.029-.223.544.544,0,0,1,.063-.153l.233-.072a.718.718,0,0,0,.267-.148.623.623,0,0,0,.167-.312,2.5,2.5,0,0,0,.059-.617v-1.315a2.506,2.506,0,0,1,.025-.381,1.662,1.662,0,0,1,.05-.226l-.041-.035q-.572.146-1.143.3a3.608,3.608,0,0,1,.017-.367.715.715,0,0,1,.049-.231q.567-.21,1.143-.458a7.749,7.749,0,0,0,.951-.474,2.071,2.071,0,0,1,.354-.005.576.576,0,0,1,.179.039c-.016.07-.034.167-.054.293s-.036.269-.05.431-.021.339-.021.535v1.944a1.255,1.255,0,0,1-.063.4,1,1,0,0,1-.121.257l.943,0c.011.026.027.069.046.127a.638.638,0,0,1,.029.2,1.437,1.437,0,0,1-.192.18,1.525,1.525,0,0,1-.242.159.767.767,0,0,1-.226.081" transform="translate(-81.327 -121.73)" fill="#fff"/>
      <path id="Path_5103" data-name="Path 5103" d="M133.982,184.1a2.16,2.16,0,0,1-.347-.042c-.13-.026-.261-.057-.393-.093a2.422,2.422,0,0,1-.343-.121.567.567,0,0,1-.188-.119,1.342,1.342,0,0,1,.088-.42c.059-.173.136-.372.234-.6s.209-.461.338-.712.26-.5.4-.762.272-.507.409-.75.264-.47.384-.679.225-.39.313-.543q-.694.1-1.387.2-.1.422-.209.843a1.217,1.217,0,0,1-.2.076,2.273,2.273,0,0,1-.376.085,2.845,2.845,0,0,1-.209-.337,2.535,2.535,0,0,1-.179-.417,1.405,1.405,0,0,1-.079-.4,1.9,1.9,0,0,1,.2-.277c.087-.1.177-.207.271-.3a1.257,1.257,0,0,1,.259-.214c.026,0,.115-.013.259-.026l.514-.046c.2-.018.4-.034.606-.05s.39-.03.552-.045.273-.026.334-.034a.9.9,0,0,0,.155-.055c.08-.034.164-.067.247-.1a.862.862,0,0,1,.167-.056.75.75,0,0,1,.209.151.324.324,0,0,1,.109.232l-.594,1.33q-.333.758-.56,1.306c-.15.364-.271.678-.36.939a4.962,4.962,0,0,0-.188.688,2.914,2.914,0,0,0-.054.557,1.122,1.122,0,0,0,.013.187,1.55,1.55,0,0,0,.046.19,2.164,2.164,0,0,1-.188.224.789.789,0,0,1-.246.191" transform="translate(-89.195 -120.132)" fill="#fff"/>
      <path id="Path_5104" data-name="Path 5104" d="M153.916,178.076q-.209,0-.595.011c-.257.008-.537.018-.838.029l-.879.037-.728.034-.377.014a.837.837,0,0,1,.025-.2.8.8,0,0,1,.041-.135l.243-.056a.371.371,0,0,0,.205-.139.75.75,0,0,0,.121-.283,1.737,1.737,0,0,0,.042-.42v-3.284a1.939,1.939,0,0,1,.034-.411.52.52,0,0,1,.071-.181c.026-.031.034-.046.029-.046l-.72.091a.6.6,0,0,1-.054-.14,1.112,1.112,0,0,1-.037-.184.656.656,0,0,1,.142-.127,2.271,2.271,0,0,1,.205-.131c.069-.039.121-.067.155-.083q1.645-.209,3.292-.4a.842.842,0,0,1,.218.042c.118.032.252.069.4.114s.288.089.411.134a1.721,1.721,0,0,1,.243.1,3.078,3.078,0,0,1,.444,1.024,5.2,5.2,0,0,1,.126,1.159,7.121,7.121,0,0,1-.071,1.013,7.8,7.8,0,0,1-.176.886,3.1,3.1,0,0,1-.214.6,2.2,2.2,0,0,1-.415.331c-.172.109-.345.208-.524.3a4.472,4.472,0,0,1-.49.215,1.249,1.249,0,0,1-.331.084m-1.407-.536q.838-.1,1.676-.2a2.328,2.328,0,0,0,.218-.494,4.453,4.453,0,0,0,.146-.616q.054-.329.079-.667c.017-.226.026-.441.025-.648a4.986,4.986,0,0,0-.038-.607,4.764,4.764,0,0,0-.113-.624,2.464,2.464,0,0,0-.188-.523.678.678,0,0,0-.264-.3c-.106-.016-.2-.026-.285-.03a1.858,1.858,0,0,0-.264.006c-.092.008-.2.02-.323.034a.627.627,0,0,0-.427.177.806.806,0,0,0-.109.482V177a1.151,1.151,0,0,1-.046.337.758.758,0,0,1-.088.208" transform="translate(-101.513 -116.067)" fill="#fff"/>
      <path id="Path_5105" data-name="Path 5105" d="M174.947,175.828c-.089.008-.245.019-.466.033s-.481.029-.777.042l-.932.042q-.485.021-.952.039t-.831.021c-.242,0-.432,0-.566-.008a.817.817,0,0,1,.025-.2.712.712,0,0,1,.042-.134l.243-.05a.353.353,0,0,0,.205-.134.756.756,0,0,0,.122-.28,1.87,1.87,0,0,0,.042-.42v-3.284a1.726,1.726,0,0,1,.034-.41.528.528,0,0,1,.071-.179c.024-.031.034-.046.029-.045l-.722.075a.722.722,0,0,1-.054-.129.807.807,0,0,1-.038-.2.847.847,0,0,1,.151-.125,1.4,1.4,0,0,1,.205-.117.593.593,0,0,1,.147-.053q2.013-.208,4.029-.385a1.706,1.706,0,0,1,.332.168,1.027,1.027,0,0,1,.282.248,9.581,9.581,0,0,1-.126,1.025c-.056.3-.107.534-.151.7a2.156,2.156,0,0,1-.382,0,2.285,2.285,0,0,1-.348-.057q-.117-.622-.235-1.244a.5.5,0,0,0-.2-.057,3.114,3.114,0,0,0-.411-.016c-.173,0-.39.016-.646.04a.61.61,0,0,0-.311.1.4.4,0,0,0-.147.215,1.181,1.181,0,0,0-.038.3q0,.691,0,1.382c.218-.034.41-.059.575-.08s.326-.047.487-.075.334-.063.525-.1l.126.148c-.012.135-.023.244-.038.326a1.343,1.343,0,0,1-.063.236q-.806.073-1.612.151,0,.754,0,1.508a1.174,1.174,0,0,1-.046.335.69.69,0,0,1-.088.205q.877-.085,1.754-.165l.663-1.635a2,2,0,0,1,.474.013,1.541,1.541,0,0,1,.315.069c0,.212-.009.428-.025.647s-.038.426-.063.621-.053.36-.08.5a.632.632,0,0,1-.147.155,2.535,2.535,0,0,1-.222.166.439.439,0,0,1-.16.077" transform="translate(-114.952 -114.619)" fill="#fff"/>
      <path id="Path_5106" data-name="Path 5106" d="M191.733,174.439a2.339,2.339,0,0,1-.786-.071,3.36,3.36,0,0,1-.672-.258,4.424,4.424,0,0,1-.5-.3c-.131-.092-.217-.154-.256-.185a2.161,2.161,0,0,1-.256-.729,5.17,5.17,0,0,1-.1-1.018,8.852,8.852,0,0,1,.05-.942q.05-.465.126-.831a3.3,3.3,0,0,1,.143-.531,2.923,2.923,0,0,1,.6-.425,8.134,8.134,0,0,1,.782-.379,7.121,7.121,0,0,1,.778-.28,3.043,3.043,0,0,1,.575-.121,2.992,2.992,0,0,1,.66.033,3.69,3.69,0,0,1,.69.175,1.739,1.739,0,0,1,.542.3,4.68,4.68,0,0,1-.059.938c-.049.3-.1.552-.143.751-.223,0-.406,0-.546-.01a2.9,2.9,0,0,1-.336-.04l-.294-1.186a.886.886,0,0,0-.223-.085,2.428,2.428,0,0,0-.257-.049,1.127,1.127,0,0,0-.21-.01,3.438,3.438,0,0,0-.37.052c-.145.027-.285.056-.416.086s-.23.055-.3.076a3.208,3.208,0,0,0-.113.5c-.037.226-.065.466-.088.719s-.033.477-.034.673c0,.217.01.451.034.7s.052.481.088.693a2.734,2.734,0,0,0,.122.5.5.5,0,0,0,.139.09,2.345,2.345,0,0,0,.286.121,3.164,3.164,0,0,0,.349.1,1.073,1.073,0,0,0,.328.031,1.319,1.319,0,0,0,.147-.032c.081-.019.167-.044.256-.073a.435.435,0,0,0,.168-.079l.605-1.424a1.955,1.955,0,0,1,.475.023,3.063,3.063,0,0,1,.357.081c0,.174-.016.358-.034.555s-.034.384-.055.561-.041.322-.063.435a2,2,0,0,1-.454.319,4.737,4.737,0,0,1-.782.342,3.714,3.714,0,0,1-.959.194" transform="translate(-127.598 -113.564)" fill="#fff"/>
      <path id="Path_5107" data-name="Path 5107" d="M211.883,167.134a.319.319,0,0,1-.2-.09,1.362,1.362,0,0,1-.228-.239,1.653,1.653,0,0,1-.181-.3.612.612,0,0,1-.072-.26,1.128,1.128,0,0,1,.088-.344,5.273,5.273,0,0,1,.231-.524c.094-.192.2-.377.307-.553a3.262,3.262,0,0,1,.32-.44.451.451,0,0,1,.265-.182.428.428,0,0,1,.231.064.95.95,0,0,1,.214.165.261.261,0,0,1,.092.171,2.666,2.666,0,0,0-.278.282c-.094.111-.182.223-.261.336a2.074,2.074,0,0,0-.185.316.8.8,0,0,1,.3.236,1.926,1.926,0,0,1,.227.344.652.652,0,0,1,.088.276.345.345,0,0,1-.114.207,1.975,1.975,0,0,1-.278.244,2.111,2.111,0,0,1-.32.2.671.671,0,0,1-.248.085" transform="translate(-142.457 -110.759)" fill="#fff"/>
      <path id="Path_5108" data-name="Path 5108" d="M218.916,175.693c-.04,0-.1-.041-.194-.129a1.62,1.62,0,0,1-.248-.315.643.643,0,0,1-.113-.326,3.614,3.614,0,0,0,.471-.345c.195-.162.408-.355.635-.577a9.387,9.387,0,0,0,.644-.7,5.186,5.186,0,0,0,.5-.7,1.235,1.235,0,0,0,.194-.6c-.1-.047-.178-.084-.248-.112a1.221,1.221,0,0,0-.261-.065,3.753,3.753,0,0,0-.467-.027l-.236,1.167a1.057,1.057,0,0,1-.248.061,3.789,3.789,0,0,1-.467.046.607.607,0,0,1-.231-.3,2.514,2.514,0,0,1-.156-.52c-.04-.2-.074-.383-.1-.561a2.407,2.407,0,0,1,.648-.412,4.661,4.661,0,0,1,.812-.274,4.071,4.071,0,0,1,.787-.116,1.634,1.634,0,0,1,.379.04,4.33,4.33,0,0,1,.48.128c.169.056.324.115.471.18a2.2,2.2,0,0,1,.358.193c.091.064.14.121.139.171a1.5,1.5,0,0,1-.147.621,3.481,3.481,0,0,1-.391.65,6.544,6.544,0,0,1-.531.618c-.191.2-.379.377-.564.537s-.351.294-.5.4l1.162.114.387-.668a1.6,1.6,0,0,1,.421.032,1.109,1.109,0,0,1,.228.072,5.348,5.348,0,0,1-.042.684q-.041.34-.076.484a1.491,1.491,0,0,1-.257.181,2.742,2.742,0,0,1-.358.18.938.938,0,0,1-.312.082,1.8,1.8,0,0,1-.265-.024q-.2-.026-.454-.066l-.518-.08c-.174-.026-.33-.046-.467-.06a1.362,1.362,0,0,0-.29-.008,1.973,1.973,0,0,0-.168.112c-.078.057-.157.109-.231.157a.414.414,0,0,1-.173.075" transform="translate(-147.287 -115.264)" fill="#fff"/>
      <path id="Path_5109" data-name="Path 5109" d="M233.368,176.115a1.04,1.04,0,0,1-.341-.07,3,3,0,0,1-.412-.176,1.069,1.069,0,0,1-.274-.184,1.349,1.349,0,0,1,.076-.35.453.453,0,0,1,.092-.183,3.213,3.213,0,0,0,.375.039c.136.007.279.009.425,0a3.347,3.347,0,0,0,.455-.046,2.93,2.93,0,0,0,.463-.112.611.611,0,0,0,.122-.171,1.722,1.722,0,0,0,.11-.258.774.774,0,0,0,.046-.248.444.444,0,0,0-.206-.384,1.546,1.546,0,0,0-.526-.217c-.215-.05-.433-.092-.665-.124a2.367,2.367,0,0,1,.021-.248,3.025,3.025,0,0,1,.059-.324,1.343,1.343,0,0,1,.08-.245,1.127,1.127,0,0,0,.261.01.607.607,0,0,0,.194-.056,1.436,1.436,0,0,0,.387-.286,1,1,0,0,0,.223-.412,2.2,2.2,0,0,0,.071-.6.85.85,0,0,0-.219-.053c-.079-.009-.169-.018-.269-.027s-.216-.017-.345-.025q-.181.411-.362.823a.338.338,0,0,1-.164.059,2.884,2.884,0,0,1-.408.033,1.18,1.18,0,0,1-.206-.4,2.976,2.976,0,0,1-.156-.644,1.905,1.905,0,0,1,.522-.393,3.238,3.238,0,0,1,.67-.262,2.773,2.773,0,0,1,.644-.1,1.526,1.526,0,0,1,.345.047,4.664,4.664,0,0,1,.476.136c.171.057.332.12.484.187a2.343,2.343,0,0,1,.37.2c.095.065.144.123.143.173a1.905,1.905,0,0,1-.16.744,2.712,2.712,0,0,1-.412.691,1.675,1.675,0,0,1-.531.447v.034a2.562,2.562,0,0,1,.56.21,1.169,1.169,0,0,1,.408.335.825.825,0,0,1,.152.5,1.977,1.977,0,0,1-.042.357c-.029.143-.066.288-.109.434a3.284,3.284,0,0,1-.143.388.741.741,0,0,1-.152.238,1.491,1.491,0,0,1-.513.249,5.59,5.59,0,0,1-.783.182,6.329,6.329,0,0,1-.833.08" transform="translate(-156.67 -114.992)" fill="#fff"/>
      <path id="Path_5110" data-name="Path 5110" d="M244.349,183.005a.442.442,0,0,1-.231-.072.9.9,0,0,1-.211-.172.332.332,0,0,1-.1-.174c.083-.068.188-.155.311-.261s.242-.218.358-.337a1.974,1.974,0,0,0,.257-.313,1.077,1.077,0,0,1-.311-.251,1.642,1.642,0,0,1-.244-.352.681.681,0,0,1-.093-.275.323.323,0,0,1,.114-.207,1.88,1.88,0,0,1,.278-.227,2.4,2.4,0,0,1,.32-.185.636.636,0,0,1,.248-.075.336.336,0,0,1,.2.1,1.478,1.478,0,0,1,.227.244,1.685,1.685,0,0,1,.181.3.634.634,0,0,1,.071.263.95.95,0,0,1-.105.34,5.333,5.333,0,0,1-.274.514,6.241,6.241,0,0,1-.358.541,3.506,3.506,0,0,1-.362.428.485.485,0,0,1-.282.172" transform="translate(-164.452 -121.483)" fill="#fff"/>
      <path id="Path_5111" data-name="Path 5111" d="M260.455,172.57c-.073-.006-.22-.015-.442-.025s-.486-.025-.792-.044-.626-.04-.956-.063-.649-.049-.952-.077-.562-.055-.775-.083a.737.737,0,0,1,.025-.2.679.679,0,0,1,.042-.13l.244-.026a.309.309,0,0,0,.206-.114.655.655,0,0,0,.122-.268,1.814,1.814,0,0,0,.042-.415v-3.284a1.916,1.916,0,0,1,.034-.377.521.521,0,0,1,.1-.243h-.725a.731.731,0,0,1-.059-.134.533.533,0,0,1-.034-.2.506.506,0,0,1,.143-.105,1.957,1.957,0,0,1,.206-.1.474.474,0,0,1,.156-.042q1.533,0,3.066.014a1.661,1.661,0,0,1,.476.127,4.546,4.546,0,0,1,.5.241,1.833,1.833,0,0,1,.358.244,1.516,1.516,0,0,1,.072.312,2.961,2.961,0,0,1,.021.335,3.281,3.281,0,0,1-.05.581,2.692,2.692,0,0,1-.131.488.692.692,0,0,1-.181.291,1.337,1.337,0,0,1-.261.135,1.941,1.941,0,0,1-.37.108l-.009.025a2.75,2.75,0,0,1,.7.168,1.566,1.566,0,0,1,.413.216,1.3,1.3,0,0,1,.122.379,2.583,2.583,0,0,1,.038.445,3.856,3.856,0,0,1-.025.431c-.018.159-.042.312-.072.46a2.143,2.143,0,0,1-.114.379,1.871,1.871,0,0,1-.333.247,2.914,2.914,0,0,1-.438.22.879.879,0,0,1-.375.079m-1.9-.7q.725,0,1.448.01a.954.954,0,0,0,.169-.3,1.965,1.965,0,0,0,.1-.393,2.924,2.924,0,0,0,.034-.423,2.446,2.446,0,0,0-.034-.41.938.938,0,0,0-.1-.311.755.755,0,0,0-.328-.15,3.746,3.746,0,0,0-.443-.083,3,3,0,0,0-.3-.027l-.413,0q0,.779,0,1.558a1.112,1.112,0,0,1-.046.33.643.643,0,0,1-.089.2m.135-2.663.3,0c.138,0,.285-.007.447-.014s.3-.019.417-.034a1.351,1.351,0,0,0,.215-.45,2.053,2.053,0,0,0,.072-.56,1.419,1.419,0,0,0-.055-.416.862.862,0,0,0-.2-.325,1.891,1.891,0,0,0-.32-.078c-.111-.018-.213-.029-.3-.036s-.147-.009-.181-.009q-.288,0-.341.132a1.21,1.21,0,0,0-.055.41q0,.691,0,1.382" transform="translate(-173.038 -112.405)" fill="#fff"/>
      <path id="Path_5112" data-name="Path 5112" d="M279.757,172.846c-.088,0-.244-.012-.467-.024s-.481-.032-.779-.055l-.935-.074-.956-.079q-.467-.041-.834-.082c-.244-.027-.432-.054-.568-.079a.778.778,0,0,1,.025-.2.94.94,0,0,1,.042-.129l.244-.02a.3.3,0,0,0,.206-.109.66.66,0,0,0,.122-.265,1.76,1.76,0,0,0,.042-.414v-3.284a1.774,1.774,0,0,1,.034-.406.427.427,0,0,1,.072-.17c.026-.028.034-.041.029-.041l-.724-.015a.722.722,0,0,1-.055-.135.921.921,0,0,1-.038-.2.755.755,0,0,1,.152-.106,1.158,1.158,0,0,1,.206-.092.489.489,0,0,1,.147-.035q2.021.042,4.041.115a1.956,1.956,0,0,1,.333.209,1.306,1.306,0,0,1,.282.283,8.981,8.981,0,0,1-.126,1.009c-.056.294-.108.521-.151.681a2.2,2.2,0,0,1-.383-.051,2.354,2.354,0,0,1-.35-.1l-.236-1.273a.532.532,0,0,0-.2-.082,3.04,3.04,0,0,0-.412-.067c-.173-.02-.392-.033-.648-.041a.565.565,0,0,0-.312.063.342.342,0,0,0-.147.2,1.06,1.06,0,0,0-.038.3v1.382c.219-.006.413-.008.577-.009s.328-.006.488-.015.336-.021.526-.038l.126.163c-.011.133-.025.241-.038.322a1.219,1.219,0,0,1-.063.228q-.809-.026-1.616-.049v1.508a1.066,1.066,0,0,1-.047.33.622.622,0,0,1-.089.195q.88.023,1.76.052.333-.777.665-1.553a2.061,2.061,0,0,1,.476.072,1.753,1.753,0,0,1,.316.108c0,.212-.008.427-.025.644s-.038.422-.063.613-.053.354-.08.487a.524.524,0,0,1-.147.137,2.378,2.378,0,0,1-.223.138.37.37,0,0,1-.16.057" transform="translate(-185.638 -112.531)" fill="#fff"/>
      <path id="Path_5113" data-name="Path 5113" d="M295.235,173.368a2.747,2.747,0,0,1-.273-.038c-.132-.022-.281-.05-.446-.082s-.327-.068-.484-.1a3.951,3.951,0,0,1-.4-.113.78.78,0,0,1,.021-.179.45.45,0,0,1,.046-.136l.228-.024a.242.242,0,0,0,.181-.135,1.075,1.075,0,0,0,.109-.335,2.9,2.9,0,0,0,.038-.48V168.6a1.324,1.324,0,0,1,.05-.412.528.528,0,0,1,.084-.176l-.665-.028a.411.411,0,0,1-.059-.136,1.062,1.062,0,0,1-.034-.2.461.461,0,0,1,.147-.1,2.249,2.249,0,0,1,.211-.088.473.473,0,0,1,.147-.035q.951.041,1.9.088,1.258,2.211,2.515,4.434c-.022-.118-.037-.246-.05-.384s-.017-.346-.017-.626v-2.111a1.481,1.481,0,0,1,.047-.433.347.347,0,0,1,.1-.187l-.841-.048a1.04,1.04,0,0,1-.059-.137.62.62,0,0,1-.034-.2.321.321,0,0,1,.135-.093,1.324,1.324,0,0,1,.21-.072.582.582,0,0,1,.16-.024q.782.045,1.564.094a.488.488,0,0,1,.076.177.954.954,0,0,1,.034.266l-.269.066a.91.91,0,0,0-.223.083.305.305,0,0,0-.13.2,1.864,1.864,0,0,0-.042.467q0,1.592,0,3.183a6.816,6.816,0,0,0,.034.752,1.571,1.571,0,0,0,.068.36,1.124,1.124,0,0,1-.437.162,4.079,4.079,0,0,1-.585.066q-.3.012-.5,0-1.164-2.068-2.331-4.126a6.3,6.3,0,0,1-.311-.614,1.036,1.036,0,0,1-.092-.3l-.042,0c-.006.049-.013.125-.021.221s-.013.233-.013.406v3a1.468,1.468,0,0,1-.038.325.871.871,0,0,1-.088.247l1.1.17c0,.017.019.056.038.115a.672.672,0,0,1,.03.2.92.92,0,0,1-.232.119,1.851,1.851,0,0,1-.3.086,1.117,1.117,0,0,1-.257.025" transform="translate(-198.06 -112.928)" fill="#fff"/>
      <path id="Path_5114" data-name="Path 5114" d="M318.081,174.79a2.584,2.584,0,0,1-.786-.185,3.953,3.953,0,0,1-.677-.35,5.714,5.714,0,0,1-.5-.362q-.2-.164-.261-.219a2.614,2.614,0,0,1-.256-.78,5.466,5.466,0,0,1-.1-1.045,8.783,8.783,0,0,1,.177-1.747,2.843,2.843,0,0,1,.143-.51,2.291,2.291,0,0,1,.6-.336,7.106,7.106,0,0,1,1.576-.425,2.789,2.789,0,0,1,.576-.035,3.572,3.572,0,0,1,.672.129,4.419,4.419,0,0,1,.731.278,2.115,2.115,0,0,1,.571.391,4.375,4.375,0,0,1-.059.938c-.051.284-.1.523-.143.721-.191-.027-.369-.057-.533-.09a2.483,2.483,0,0,1-.357-.092l-.353-1.235a1,1,0,0,0-.193-.116,1.862,1.862,0,0,0-.21-.084.781.781,0,0,0-.185-.039,3.959,3.959,0,0,0-.412-.007c-.163,0-.318.013-.466.023a2.851,2.851,0,0,0-.34.042,1.578,1.578,0,0,0-.092.332c-.028.145-.053.31-.076.489s-.039.359-.05.537-.017.34-.017.485c0,.217.01.454.034.706s.051.489.088.706a3.258,3.258,0,0,0,.122.516.57.57,0,0,0,.13.1,3.32,3.32,0,0,0,.29.168,2.956,2.956,0,0,0,.366.162,1.389,1.389,0,0,0,.357.082,2.483,2.483,0,0,0,.286,0c.125,0,.244-.013.366-.026s.207-.025.265-.037q0-.444,0-.888a1.514,1.514,0,0,1,.029-.3,1.606,1.606,0,0,1,.047-.185l-1.084-.086a1.554,1.554,0,0,1,.042-.332c.027-.127.053-.225.075-.3.241.019.5.034.786.045s.556.021.819.025.476.007.639,0l.118.145a1.348,1.348,0,0,0-.118.375,3.837,3.837,0,0,0-.059.741v1.34a2.323,2.323,0,0,1-.445.138c-.2.045-.419.085-.668.121s-.5.061-.756.074a5.366,5.366,0,0,1-.7,0" transform="translate(-212.809 -113.852)" fill="#fff"/>
      <path id="Path_5115" data-name="Path 5115" d="M336.462,176.5c-.027,0-.1-.017-.222-.042s-.269-.058-.441-.1-.353-.081-.533-.125-.351-.088-.508-.131-.278-.078-.361-.108a.712.712,0,0,1,.025-.2.184.184,0,0,1,.059-.1l.159-.044a.725.725,0,0,1,.18-.03.362.362,0,0,0,.214-.106,1.228,1.228,0,0,0,.256-.4,6.609,6.609,0,0,0,.315-.9l.873-3.05a1.077,1.077,0,0,1,.244-.164q.175-.1.4-.191a3.873,3.873,0,0,1,.424-.155.858.858,0,0,1,.31-.048,1.684,1.684,0,0,1,.373.105,4.274,4.274,0,0,1,.512.233,2.155,2.155,0,0,1,.44.3q.516,2.372,1.031,4.745a.235.235,0,0,0,.092.148.58.58,0,0,0,.168.073l.528.152.054.1a.7.7,0,0,1,.029.209.579.579,0,0,1-.218.122,1.928,1.928,0,0,1-.31.082.946.946,0,0,1-.26.017c-.029,0-.116-.021-.264-.055l-.536-.121c-.209-.049-.422-.1-.637-.148s-.405-.1-.57-.143a2.088,2.088,0,0,1-.331-.11.419.419,0,0,1,.046-.209.633.633,0,0,0,.046-.091l.269,0a.572.572,0,0,0,.18-.035.3.3,0,0,0,.168-.163.671.671,0,0,0,0-.419q-.125-.533-.252-1.065-.939-.1-1.879-.189l-.319,1.075a.951.951,0,0,1-.109.233,1.239,1.239,0,0,1-.155.2.236.236,0,0,1-.13.084q.663.113,1.326.229c.011.018.031.056.059.115a.4.4,0,0,1,.042.188.584.584,0,0,1-.21.117,1.852,1.852,0,0,1-.31.087,1,1,0,0,1-.26.021m.227-2.96c.3.013.556.026.764.038s.376.02.507.022.229,0,.29,0q-.193-.925-.386-1.849a2.1,2.1,0,0,0-.3-.194,1.387,1.387,0,0,0-.314-.12q-.282,1.053-.562,2.106" transform="translate(-225.554 -115.076)" fill="#fff"/>
      <path id="Path_5116" data-name="Path 5116" d="M360.569,178.795c-.118-.016-.309-.044-.573-.087s-.568-.093-.908-.153-.685-.121-1.03-.186-.664-.128-.955-.19-.513-.116-.67-.162a.765.765,0,0,1,.025-.194.622.622,0,0,1,.042-.125l.243,0a.27.27,0,0,0,.205-.089.584.584,0,0,0,.121-.254,1.612,1.612,0,0,0,.042-.41v-3.284a1.718,1.718,0,0,1,.034-.4.416.416,0,0,1,.072-.163c.025-.025.034-.037.029-.038l-.72-.085a.669.669,0,0,1-.055-.153,1.06,1.06,0,0,1-.038-.193.407.407,0,0,1,.147-.088,1.931,1.931,0,0,1,.209-.072.452.452,0,0,1,.147-.025q1.127.133,2.253.274a.638.638,0,0,1,.076.185,1.25,1.25,0,0,1,.042.265l-.36.063a.535.535,0,0,0-.176.058.341.341,0,0,0-.138.18,1.26,1.26,0,0,0-.054.437v3.427a1.135,1.135,0,0,1-.046.325.572.572,0,0,1-.088.186q.687.084,1.373.172.331-.8.661-1.607a2.157,2.157,0,0,1,.46.111,2.374,2.374,0,0,1,.318.134c0,.212-.008.432-.025.658s-.036.445-.062.654-.049.39-.071.544a.6.6,0,0,1-.15.122,1.619,1.619,0,0,1-.218.118.347.347,0,0,1-.159.042" transform="translate(-240.417 -116.316)" fill="#fff"/>
      <path id="Path_5117" data-name="Path 5117" d="M375.852,180.79a2.847,2.847,0,0,1-.752-.231,5.216,5.216,0,0,1-.744-.412,3.741,3.741,0,0,1-.585-.472.826.826,0,0,1-.259-.417v-3.5a1.524,1.524,0,0,1,.042-.384.441.441,0,0,1,.1-.216l-.719-.1c-.013-.03-.028-.076-.05-.141a.823.823,0,0,1-.042-.207.4.4,0,0,1,.146-.085,2.074,2.074,0,0,1,.209-.068.45.45,0,0,1,.146-.022q1.125.155,2.248.318a.739.739,0,0,1,.071.182.864.864,0,0,1,.038.27l-.359.056a.507.507,0,0,0-.192.073.332.332,0,0,0-.126.191,1.489,1.489,0,0,0-.042.4v3.443c.073.06.157.126.255.2a3.2,3.2,0,0,0,.305.2,3.245,3.245,0,0,0,.3.153,1.045,1.045,0,0,0,.242.077,2.245,2.245,0,0,0,.564.021,1.607,1.607,0,0,0,.447-.109,1.68,1.68,0,0,0,.359-.2v-3.468a2.072,2.072,0,0,1,.034-.389.466.466,0,0,1,.083-.222l-.7-.106a.437.437,0,0,1-.059-.143,1.088,1.088,0,0,1-.033-.206.6.6,0,0,1,.15-.086,1.1,1.1,0,0,1,.2-.066.42.42,0,0,1,.151-.015q.718.109,1.435.222a.758.758,0,0,1,.075.175,1.14,1.14,0,0,1,.042.279l-.267.042a.675.675,0,0,0-.246.079.3.3,0,0,0-.125.194,1.863,1.863,0,0,0-.037.434v3.745a1.27,1.27,0,0,1-.4.261,3.088,3.088,0,0,1-.58.188,4.111,4.111,0,0,1-.664.093,3.222,3.222,0,0,1-.66-.026" transform="translate(-251.486 -117.725)" fill="#fff"/>
      <path id="Path_5118" data-name="Path 5118" d="M395.115,183.713c-.04-.007-.128-.029-.267-.065l-.491-.132c-.189-.051-.378-.1-.572-.16s-.361-.107-.5-.153a2.367,2.367,0,0,1-.292-.106.86.86,0,0,1,.021-.177.421.421,0,0,1,.046-.131l.242.006a.255.255,0,0,0,.2-.08.547.547,0,0,0,.121-.248,1.643,1.643,0,0,0,.042-.409v-3.284a1.69,1.69,0,0,1,.033-.4.377.377,0,0,1,.071-.16c.026-.025.035-.036.029-.037l-.717-.116a.729.729,0,0,1-.054-.156,1.309,1.309,0,0,1-.037-.194.385.385,0,0,1,.146-.081,1.852,1.852,0,0,1,.209-.062.417.417,0,0,1,.146-.018q1.626.263,3.25.546a2.17,2.17,0,0,1,.354.175c.141.084.276.169.408.256a2.226,2.226,0,0,1,.279.213,1.7,1.7,0,0,1,.174.526,3.6,3.6,0,0,1,.05.6,2.1,2.1,0,0,1-.042.478.812.812,0,0,1-.1.243c-.035.055-.075.112-.112.173a1.19,1.19,0,0,1-.246.2,2.559,2.559,0,0,1-.321.174,2.639,2.639,0,0,1-.308.118v.042a1.374,1.374,0,0,1,.35.3,1.949,1.949,0,0,1,.274.543l.275.786a1.406,1.406,0,0,0,.22.437.347.347,0,0,0,.2.127c.061.007.116.016.166.026l.3.054a.582.582,0,0,1,.1.173.753.753,0,0,1,.054.29,2.481,2.481,0,0,1-.391.1,3.2,3.2,0,0,1-.416.042,1.634,1.634,0,0,1-.333-.018,1.655,1.655,0,0,1-.833-.365,1.583,1.583,0,0,1-.441-.738l-.466-1.53a.433.433,0,0,0-.121-.205.5.5,0,0,0-.262-.112l-.425-.072v1.349a1.051,1.051,0,0,1-.046.336.41.41,0,0,1-.1.177l.833.258c.012.03.026.071.042.124a.92.92,0,0,1,.033.2.975.975,0,0,1-.375.125,1.257,1.257,0,0,1-.4.012m.008-3.19c.178.024.344.049.5.076s.3.048.442.063.271.026.4.032a1.511,1.511,0,0,0,.133-.3,2.116,2.116,0,0,0,.075-.662,2.5,2.5,0,0,0-.054-.529,1.179,1.179,0,0,0-.179-.442,2.694,2.694,0,0,0-.354-.111l-.383-.095c-.114-.029-.175-.042-.187-.045q-.291-.049-.342.089a1.217,1.217,0,0,0-.05.39Z" transform="translate(-265.075 -119.757)" fill="#fff"/>
      <path id="Path_5119" data-name="Path 5119" d="M415.175,187.252a2.932,2.932,0,0,1-.748-.266,5.5,5.5,0,0,1-.74-.447,3.978,3.978,0,0,1-.582-.5.874.874,0,0,1-.258-.429v-3.5a1.626,1.626,0,0,1,.042-.382.4.4,0,0,1,.1-.212l-.715-.132c-.01-.03-.026-.078-.05-.143a.912.912,0,0,1-.042-.209.369.369,0,0,1,.146-.078,1.732,1.732,0,0,1,.208-.058.441.441,0,0,1,.146-.015q1.119.207,2.235.424a.855.855,0,0,1,.071.186.882.882,0,0,1,.037.271l-.357.04a.46.46,0,0,0-.191.063.324.324,0,0,0-.125.186,1.443,1.443,0,0,0-.042.4q0,1.722,0,3.443.109.1.254.208c.1.075.2.144.3.21s.2.121.3.167a1,1,0,0,0,.241.089,2.273,2.273,0,0,0,.56.048,1.528,1.528,0,0,0,.444-.088,1.51,1.51,0,0,0,.357-.184v-3.468a2,2,0,0,1,.033-.387.471.471,0,0,1,.083-.218l-.7-.14a.454.454,0,0,1-.058-.146,1.29,1.29,0,0,1-.033-.207.568.568,0,0,1,.149-.08,1.02,1.02,0,0,1,.2-.056.441.441,0,0,1,.149-.007q.714.143,1.427.29a.749.749,0,0,1,.075.179,1.265,1.265,0,0,1,.041.281l-.265.029a.65.65,0,0,0-.245.067.3.3,0,0,0-.124.188,1.791,1.791,0,0,0-.037.432v3.745a1.178,1.178,0,0,1-.4.242,3.034,3.034,0,0,1-.577.16,4.021,4.021,0,0,1-.66.062,3.256,3.256,0,0,1-.656-.058" transform="translate(-278.022 -122.004)" fill="#fff"/>
    </g>
  </g>
</svg>
