<svg xmlns="http://www.w3.org/2000/svg" xmlns:xlink="http://www.w3.org/1999/xlink" width="1466.543" height="493.307" viewBox="0 0 1466.543 493.307">
  <defs>
    <clipPath id="clip-path">
      <rect id="Rectangle_20" data-name="Rectangle 20" width="1466.543" height="493.307" fill="#f0bf5d" stroke="#000" stroke-width="3"/>
    </clipPath>
    <clipPath id="clip-path-2">
      <path id="Path_5055" data-name="Path 5055" d="M1457.349,190.306c-3.554.315-5.693-2.139-8.65-2.768-6.542-1.353-13.116-2.548-19.69-3.712-22.71-4.026-43.5,1.573-63.255,12.236-7.769,4.215-13.054,11.009-17.269,18.59-1.069,1.95-2.359,4.592-1.321,6.322,1.2,1.95,3.837.5,5.913.22,5.033-.629,10.034-2.045,15.224-.346,10.695,3.523,16.482,11.67,19.124,21.829a86.6,86.6,0,0,1,2.642,29.284c-1.982,22.616-9.122,43.785-18.652,64.293-3.806,8.273-9.625,12.016-18.527,11.67-13.148-.472-26.264,1.1-39.412.818-20.005-.409-39.916.912-59.826,2.705-2.988.252-5.976.5-8.965.786a6.4,6.4,0,0,0-6.008,4.655c-.849,2.768.315,4.278,2.957,5.882,7.36,4.5,13.746,10.128,16.891,18.653a55.857,55.857,0,0,1,3.24,14.029c2.265,20.508-2.737,38.878-15.853,54.92a3.208,3.208,0,0,1-2.453,1.353c-9.216.786-18.432,1.7-27.68,2.422-1.793.126-3.838.66-5.725-.944,6.228-4.4,9.122-10.789,11.827-17.206,4.246-10.034,1.73-28.97-7.014-35.764-10.757-8.335-22.176-15.664-35.544-18.715a353.909,353.909,0,0,0-57.5-7.769c-18.4-1.069-36.833-1.29-55.266-.881-22.27.5-44.382,1.982-66.054,7.643-17.489,4.561-34.757,9.5-50.862,17.992-17.709,9.342-31.958,22.553-45.169,37.462-13.9,15.727-19.6,34.128-22.144,53.661a70.419,70.419,0,0,1-1.7-12.016,120.24,120.24,0,0,0-16.985-56.524c-11.67-19.69-29.221-30.7-52.435-33.027-13.683-1.353-27.111.126-40.513,1.478s-24.849-2.422-35.921-8.964h-1.7c-6.8,3.775-13.592,7.455-21.455,8.65-11.89,1.824-23.56-.944-35.355-1.478-16.262-.724-32.241.063-46.773,8.43-27.051,15.6-35.858,42.149-41.174,70.364-1.667,8.807-1.7,17.96-3.9,26.768-.035-.252-.035-.472-.066-.723-1.636-18.81-6.794-35.858-17.961-51.019-2.513-3.46-5.5-6.574-8.238-9.877a135.269,135.269,0,0,0-54.954-39.57c-32.332-12.928-66.086-18.936-100.84-19.25-31.549-.283-63.038.157-94.4,4.844-17.426,2.579-33.719,7.077-48.692,16.639-11.166,7.109-16.7,16.7-16.608,29.756.126,11.764,5.253,21.263,13.56,29.284-.947,1.258-2.359.881-3.526.786-8.678-.66-17.328-1.573-25.978-2.139a9.87,9.87,0,0,1-8.024-4.215c-9.342-11.89-13.683-25.478-14.4-40.262-.947-19.219,3.708-35.921,22.3-45.672a2.5,2.5,0,0,0,1.478-2.265,6.412,6.412,0,0,0-6.008-7.36c-1.982-.22-3.992-.157-5.973-.315-15.762-1.384-31.489-3.523-47.37-3.114-18.31.472-36.55-1.132-54.857-.944-7.772.094-14.123-1.919-17.838-9.94-13.113-28.529-23.308-57.5-18.115-89.708,1.286-7.958,4.215-15.1,9.719-20.917,6.822-7.172,15.444-8.493,24.846-6.354,2.265.5,5.473,2.233,6.763.094,1.353-2.233-.472-5.284-1.887-7.738a49.467,49.467,0,0,0-24.251-21.389c-18.873-8.115-38.28-11.921-58.726-7.738-6.414,1.29-13.054,1.793-19.09,4.341-4.375,1.856-9.625,2.453-12.3.031-3.369-3.051-3.523-6.889-2.268-11.009,3.086-10.065,8.559-18.873,14.123-27.617a63.034,63.034,0,0,0,8.273-18.621c3.966-15.79,4.5-31.832,4.25-48-.129-7.423.126-14.941,2.359-22.018,9.436-29.536,30.35-47.056,59.764-54.636C99.49,4.1,110.122,4.5,120.5,3.906c18.621-1.1,37.214-2.894,55.832-2.988C325.714.163,475.088.289,624.466.069c218.986-.283,438,.377,656.99.723,9.5,0,18.967.189,28.529,1.069,12.865,1.164,25.918,1.069,38.878,2.107,8.65.692,17.395.912,25.982,2.139,12.645,1.793,23.685,7.8,33.782,15.318,15.224,11.355,25.887,26.013,29.347,45.074,1.982,10.726,1.1,21.641,1.29,32.492a151.335,151.335,0,0,0,4.53,33.782c2.39,9.594,8.335,17.363,13.211,25.7,3.712,6.385,7.36,12.833,9.09,20.131,1.73,7.14-1.6,11.1-8.744,11.7" transform="translate(0 -31)" fill="#f0bf5d" stroke="#000" stroke-width="3"/>
    </clipPath>
    <clipPath id="clip-path-3">
      <rect id="Rectangle_14" data-name="Rectangle 14" width="1581.651" height="790.575" fill="none"/>
    </clipPath>
  </defs>
  <g id="Footer_Base" data-name="Footer Base" transform="translate(0 31)">
    <g id="Footer_Base-2" data-name="Footer Base" transform="translate(0 -31)" clip-path="url(#clip-path)">
      <path id="Path_5038" data-name="Path 5038" d="M1457.349,190.306c-3.554.315-5.693-2.139-8.65-2.768-6.542-1.353-13.116-2.548-19.69-3.712-22.71-4.026-43.5,1.573-63.255,12.236-7.769,4.215-13.054,11.009-17.269,18.59-1.069,1.95-2.359,4.592-1.321,6.322,1.2,1.95,3.837.5,5.913.22,5.033-.629,10.034-2.045,15.224-.346,10.695,3.523,16.482,11.67,19.124,21.829a86.6,86.6,0,0,1,2.642,29.284c-1.982,22.616-9.122,43.785-18.652,64.293-3.806,8.273-9.625,12.016-18.527,11.67-13.148-.472-26.264,1.1-39.412.818-20.005-.409-39.916.912-59.826,2.705-2.988.252-5.976.5-8.965.786a6.4,6.4,0,0,0-6.008,4.655c-.849,2.768.315,4.278,2.957,5.882,7.36,4.5,13.746,10.128,16.891,18.653a55.857,55.857,0,0,1,3.24,14.029c2.265,20.508-23.1,40.683-36.214,56.725a3.208,3.208,0,0,1-2.453,1.353c-9.216.786,1.928-.107-7.319.617-1.793.126-3.838.66-5.725-.944,6.228-4.4,9.122-10.789,11.827-17.206,4.246-10.034,1.73-28.97-7.014-35.764-10.757-8.335-22.176-15.664-35.544-18.715a353.909,353.909,0,0,0-57.5-7.769c-18.4-1.069-36.833-1.29-55.266-.881-22.27.5-44.382,1.982-66.054,7.643-17.489,4.561-34.757,9.5-50.862,17.992-17.709,9.342-31.958,22.553-45.169,37.462-13.9,15.727-19.6,34.128-22.144,53.661a70.419,70.419,0,0,1-1.7-12.016,120.24,120.24,0,0,0-16.985-56.524c-11.67-19.69-29.221-30.7-52.435-33.027-13.683-1.353-27.111.126-40.513,1.478s-24.849-2.422-35.921-8.964h-1.7c-6.8,3.775-13.592,7.455-21.455,8.65-11.89,1.824-23.56-.944-35.355-1.478-16.262-.724-32.241.063-46.773,8.43-27.051,15.6-35.858,42.149-41.174,70.364-1.667,8.807-1.7,17.96-3.9,26.768-.035-.252-.035-.472-.066-.723-1.636-18.81-6.794-35.858-17.961-51.019-2.513-3.46-5.5-6.574-8.238-9.877a135.269,135.269,0,0,0-54.954-39.57c-32.332-12.928-66.086-18.936-100.84-19.25-31.549-.283-63.038.157-94.4,4.844-17.426,2.579-33.719,7.077-48.692,16.639-11.166,7.109-16.7,16.7-16.608,29.756.126,11.764,5.253,21.263,13.56,29.284-.947,1.258-2.359.881-3.526.786-8.678-.66,1.793-.067-6.857-.633,0,0-5.73-1.293-8.024-4.215-9.342-11.89-32.8-26.984-33.525-41.768-.947-19.219,3.708-35.921,22.3-45.672a2.5,2.5,0,0,0,1.478-2.265,6.412,6.412,0,0,0-6.008-7.36c-1.982-.22-3.992-.157-5.973-.315-15.762-1.384-31.489-3.523-47.37-3.114-18.31.472-36.55-1.132-54.857-.944-7.772.094-14.123-1.919-17.838-9.94-13.113-28.529-23.308-57.5-18.115-89.708,1.286-7.958,4.215-15.1,9.719-20.917,6.822-7.172,15.444-8.493,24.846-6.354,2.265.5,5.473,2.233,6.763.094,1.353-2.233-.472-5.284-1.887-7.738a49.467,49.467,0,0,0-24.251-21.389c-18.873-8.115-38.28-11.921-58.726-7.738-6.414,1.29-13.054,1.793-19.09,4.341-4.375,1.856-9.625,2.453-12.3.031-3.369-3.051-3.523-6.889-2.268-11.009,3.086-10.065,8.559-18.873,14.123-27.617a63.034,63.034,0,0,0,8.273-18.621c3.966-15.79,4.5-31.832,4.25-48-.129-7.423.126-14.941,2.359-22.018,9.436-29.536,30.35-47.056,59.764-54.636C99.49,4.1,110.122,4.5,120.5,3.906c18.621-1.1,37.214-2.894,55.832-2.988C325.714.163,475.088.289,624.466.069c218.986-.283,438,.377,656.99.723,9.5,0,18.967.189,28.529,1.069,12.865,1.164,25.918,1.069,38.878,2.107,8.65.692,17.395.912,25.982,2.139,12.645,1.793,23.685,7.8,33.782,15.318,15.224,11.355,25.887,26.013,29.347,45.074,1.982,10.726,1.1,21.641,1.29,32.492a151.335,151.335,0,0,0,4.53,33.782c2.39,9.594,8.335,17.363,13.211,25.7,3.712,6.385,7.36,12.833,9.09,20.131,1.73,7.14-1.6,11.1-8.744,11.7" transform="translate(0 0)" fill="#f0bf5d" stroke="#000" stroke-width="3"/>
    </g>
    <g id="Mask_Group_3" data-name="Mask Group 3" clip-path="url(#clip-path-2)">
      <g id="Pattern" transform="translate(1835.809 -4873.959)">
        <g id="Group_15" data-name="Group 15" transform="translate(-1856.916 4492.784)" clip-path="url(#clip-path-3)">
          <g id="Group_14" data-name="Group 14">
            <g id="Group_13" data-name="Group 13" clip-path="url(#clip-path-3)">
              <g id="Group_12" data-name="Group 12" opacity="0.45" style="mix-blend-mode: overlay;isolation: isolate">
                <g id="Group_11" data-name="Group 11">
                  <g id="Group_10" data-name="Group 10" clip-path="url(#clip-path-3)">
                    <line id="Line_1" data-name="Line 1" x1="3.052" y2="4.205" transform="translate(1575.59 780.424)" fill="none" stroke="#7b1aa7" stroke-width="0.051"/>
                    <path id="Path_5" data-name="Path 5" d="M15.46,0C15.479.039-.114,21.37,0,21.4-.032,21.325,15.684.065,15.46,0" transform="translate(1563.158 763.332)" fill="#7b1aa7"/>
                    <path id="Path_6" data-name="Path 6" d="M27.858,0,0,38.457C-.043,38.528,28.182.046,27.858,0" transform="translate(1550.748 746.256)" fill="#7b1aa7"/>
                    <path id="Path_7" data-name="Path 7" d="M40.2,0,0,55.571C-.113,55.527,40.885.155,40.2,0" transform="translate(1538.365 729.147)" fill="#7b1aa7"/>
                    <path id="Path_8" data-name="Path 8" d="M52.535,0C52.558.035-.119,72.666,0,72.7-.136,72.394,53.437.256,52.535,0" transform="translate(1526.01 712.055)" fill="#7b1aa7"/>
                    <path id="Path_9" data-name="Path 9" d="M64.891,0C64.913.035-.118,89.759,0,89.791-.126,89.385,65.981.325,64.891,0" transform="translate(1513.63 694.962)" fill="#7b1aa7"/>
                    <path id="Path_10" data-name="Path 10" d="M77.258,0,0,106.867C-.179,106.519,78.685.4,77.258,0" transform="translate(1501.226 677.853)" fill="#7b1aa7"/>
                    <path id="Path_11" data-name="Path 11" d="M89.6,0C67.294,30.937,22.353,93.12,0,123.978l.025.034C22.422,93.2,67.546,31.268,89.989.535L89.6,0" transform="translate(1488.846 660.744)" fill="#7b1aa7"/>
                    <path id="Path_12" data-name="Path 12" d="M101.944,0C76.567,35.209,25.435,105.975,0,141.088l.025.034C25.51,106.062,76.862,35.6,102.406.635L101.944,0" transform="translate(1476.466 643.634)" fill="#7b1aa7"/>
                    <path id="Path_13" data-name="Path 13" d="M114.287,0C85.831,39.47,28.508,118.816,0,158.2l.025.034c28.584-39.3,86.163-118.29,114.8-157.495L114.287,0" transform="translate(1464.088 626.525)" fill="#7b1aa7"/>
                    <path id="Path_14" data-name="Path 14" d="M126.618,0C95.1,43.754,31.591,131.691,0,175.324l.024.034C31.694,131.811,95.506,44.294,127.249.869L126.618,0" transform="translate(1451.708 609.399)" fill="#7b1aa7"/>
                    <path id="Path_15" data-name="Path 15" d="M138.949,0C104.365,48.034,34.673,144.561,0,192.449l.025.034C34.784,144.689,104.829,48.649,139.677,1l-.728-1" transform="translate(1439.329 592.274)" fill="#7b1aa7"/>
                    <path id="Path_16" data-name="Path 16" d="M151.279,0C113.626,52.307,37.749,157.424,0,209.576l.025.034C37.878,157.577,114.157,53.014,152.1,1.137L151.279,0" transform="translate(1426.95 575.148)" fill="#7b1aa7"/>
                    <path id="Path_17" data-name="Path 17" d="M163.609,0C122.894,56.592,40.833,170.3,0,226.7l.025.033C40.964,170.451,123.476,57.366,164.532,1.271L163.609,0" transform="translate(1414.571 558.022)" fill="#7b1aa7"/>
                    <path id="Path_18" data-name="Path 18" d="M175.941,0C132.152,60.861,43.905,183.157,0,243.828l.025.034C44.062,183.343,132.807,61.734,176.96,1.4L175.941,0" transform="translate(1402.191 540.896)" fill="#7b1aa7"/>
                    <path id="Path_19" data-name="Path 19" d="M188.259,0C141.415,65.153,46.99,196.048,0,260.971L.025,261C47.149,196.234,142.133,66.111,189.4,1.571L188.259,0" transform="translate(1389.812 523.753)" fill="#7b1aa7"/>
                    <path id="Path_20" data-name="Path 20" d="M200.577,0C143.743,78.979,56.39,200.338,0,278.113l.024.035C56.222,200.768,144.792,79.7,201.839,1.739L200.577,0" transform="translate(1377.433 506.611)" fill="#7b1aa7"/>
                    <path id="Path_21" data-name="Path 21" d="M212.908,0C152.575,83.838,59.847,212.662,0,295.24l.024.034C59.692,213.15,153.711,84.63,214.268,1.873L212.908,0" transform="translate(1365.054 489.485)" fill="#7b1aa7"/>
                    <path id="Path_22" data-name="Path 22" d="M225.213,0C161.413,88.737,63.313,225.032,0,312.4l.024.034C63.152,225.554,162.623,89.587,226.719,2.074L225.213,0" transform="translate(1352.676 472.325)" fill="#7b1aa7"/>
                    <path id="Path_23" data-name="Path 23" d="M237.532,0C170.24,93.6,66.791,237.4,0,329.542l.024.034C66.6,237.924,171.549,94.544,239.159,2.241L237.532,0" transform="translate(1340.297 455.182)" fill="#7b1aa7"/>
                    <path id="Path_24" data-name="Path 24" d="M249.85,0C179.069,98.473,70.253,249.749,0,346.686l.024.034C70.067,250.315,180.471,99.5,251.6,2.408L249.85,0" transform="translate(1327.917 438.04)" fill="#7b1aa7"/>
                    <path id="Path_25" data-name="Path 25" d="M262.169,0C187.895,103.337,73.723,262.108,0,363.828l.024.033C73.523,262.7,189.4,104.457,264.038,2.575L262.169,0" transform="translate(1315.538 420.898)" fill="#7b1aa7"/>
                    <path id="Path_26" data-name="Path 26" d="M274.475,0C196.731,108.234,77.2,274.484,0,380.987l.024.034C76.981,275.093,198.313,109.417,276.49,2.776L274.475,0" transform="translate(1303.159 403.738)" fill="#7b1aa7"/>
                    <path id="Path_27" data-name="Path 27" d="M286.781,0C205.558,113.118,80.657,286.848,0,398.147l.024.034C80.445,287.5,207.236,114.389,288.942,2.977L286.781,0" transform="translate(1290.78 386.578)" fill="#7b1aa7"/>
                    <path id="Path_28" data-name="Path 28" d="M299.087,0C214.372,117.983,84.121,299.214,0,415.307l.024.033C83.908,299.907,216.173,119.381,301.394,3.177L299.087,0" transform="translate(1278.401 369.419)" fill="#7b1aa7"/>
                    <path id="Path_29" data-name="Path 29" d="M311.394,0C223.191,122.856,87.6,311.6,0,432.465l.024.034C87.355,312.291,225.106,124.364,313.846,3.378L311.394,0" transform="translate(1266.022 352.26)" fill="#7b1aa7"/>
                    <path id="Path_30" data-name="Path 30" d="M323.688,0C222.5,141.2,101.7,309.157,0,449.642l.024.034C101.973,309.523,223.854,143.047,326.309,3.613L323.688,0" transform="translate(1253.643 335.084)" fill="#7b1aa7"/>
                    <path id="Path_31" data-name="Path 31" d="M336.006,0C240.84,132.615,94.539,336.348,0,466.785l.024.034C94.272,337.09,242.961,134.319,338.75,3.779L336.006,0" transform="translate(1241.264 317.941)" fill="#7b1aa7"/>
                    <path id="Path_32" data-name="Path 32" d="M348.3,0C249.664,137.511,97.993,348.718,0,483.961l.024.034C97.745,349.527,251.888,139.314,351.214,4.013L348.3,0" transform="translate(1228.885 300.765)" fill="#7b1aa7"/>
                    <path id="Path_33" data-name="Path 33" d="M360.606,0C247.855,157.33,113.311,344.572,0,501.12l.024.034C113.63,345,249.5,159.585,363.665,4.215L360.606,0" transform="translate(1216.506 283.606)" fill="#7b1aa7"/>
                    <path id="Path_34" data-name="Path 34" d="M372.9,0C256.323,162.745,117.184,356.4,0,518.3l.025.034C117.516,356.836,258.039,165.093,376.13,4.449L372.9,0" transform="translate(1204.126 266.43)" fill="#7b1aa7"/>
                    <path id="Path_35" data-name="Path 35" d="M385.194,0C264.775,168.141,121.058,368.221,0,535.473l.024.034C121.4,368.671,266.587,170.621,388.592,4.683L385.194,0" transform="translate(1191.748 249.254)" fill="#7b1aa7"/>
                    <path id="Path_36" data-name="Path 36" d="M397.488,0C271.64,175.733,126.284,378.232,0,552.649l.024.034C91.465,426.914,208.361,267.3,300.611,141.6L401.056,4.917Z" transform="translate(1179.369 232.078)" fill="#7b1aa7"/>
                    <path id="Path_37" data-name="Path 37" d="M409.795,0C280.039,181.175,130.207,389.993,0,569.808l.024.034c94.275-129.67,214.8-294.225,309.925-423.8L413.508,5.118Z" transform="translate(1166.99 214.918)" fill="#7b1aa7"/>
                    <path id="Path_38" data-name="Path 38" d="M422.077,0C287.89,187.4,134.582,401.153,0,587l.024.034C134.772,401.728,290.116,190.14,425.985,5.386L422.077,0" transform="translate(1154.611 197.726)" fill="#7b1aa7"/>
                    <path id="Path_39" data-name="Path 39" d="M434.371,0C296.274,192.881,138.523,412.92,0,604.178l.024.034C138.694,413.477,298.607,195.758,438.449,5.619L434.371,0" transform="translate(1142.231 180.549)" fill="#7b1aa7"/>
                    <path id="Path_40" data-name="Path 40" d="M446.653,0C307.071,195.181,140.413,427.341,0,621.37l.024.034C140.829,427.9,309.3,198.231,450.925,5.887L446.653,0" transform="translate(1129.852 163.357)" fill="#7b1aa7"/>
                    <path id="Path_41" data-name="Path 41" d="M458.947,0C313.041,203.857,146.368,436.42,0,638.547l.024.034C146.576,437.045,315.588,207.013,463.389,6.121L458.947,0" transform="translate(1117.474 146.18)" fill="#7b1aa7"/>
                    <path id="Path_42" data-name="Path 42" d="M471.228,0C321.449,209.388,150.3,448.185,0,655.739l.024.034C150.509,448.828,324.054,212.615,475.864,6.388L471.228,0" transform="translate(1105.095 128.988)" fill="#7b1aa7"/>
                    <path id="Path_43" data-name="Path 43" d="M483.51,0C329.822,214.872,154.226,459.954,0,672.932l.024.034C154.442,460.609,332.553,218.263,488.34,6.656Z" transform="translate(1092.716 111.795)" fill="#7b1aa7"/>
                    <path id="Path_44" data-name="Path 44" d="M495.8,0C338.235,220.392,158.141,471.686,0,690.109l.024.033C158.39,472.394,341.016,223.84,500.8,6.891L495.8,0" transform="translate(1080.337 94.619)" fill="#7b1aa7"/>
                    <path id="Path_45" data-name="Path 45" d="M508.086,0C346.621,225.892,162.063,483.442,0,707.3l.024.034C162.331,484.188,349.5,229.474,513.281,7.158L508.086,0" transform="translate(1067.958 77.426)" fill="#7b1aa7"/>
                    <path id="Path_46" data-name="Path 46" d="M520.368,0C355,231.388,165.985,495.2,0,724.494l.024.033C166.273,495.981,358,235.109,525.757,7.426L520.368,0" transform="translate(1055.579 60.233)" fill="#7b1aa7"/>
                    <path id="Path_47" data-name="Path 47" d="M532.65,0C363.375,236.869,169.921,506.977,0,741.687l.024.034C170.2,507.753,366.5,240.76,538.233,7.693L532.65,0" transform="translate(1043.2 43.04)" fill="#7b1aa7"/>
                    <path id="Path_48" data-name="Path 48" d="M544.932,0C372.454,241.381,173.256,519.547,0,758.879l.024.034c125.471-172.551,286-391.347,412.716-563.625L550.708,7.961Z" transform="translate(1030.821 25.848)" fill="#7b1aa7"/>
                    <path id="Path_49" data-name="Path 49" d="M557.189,0C380.139,247.894,177.772,530.533,0,776.105l.024.034C178.074,531.362,383.48,252.066,563.208,8.3L557.189,0" transform="translate(1018.443 8.622)" fill="#7b1aa7"/>
                    <path id="Path_50" data-name="Path 50" d="M563.343,0C381.12,255.019,182.766,532.273,0,784.685l.024.034C182.989,533.127,384.587,259.226,569.435,8.4L563.343,0" transform="translate(1006.045 0.066)" fill="#7b1aa7"/>
                    <path id="Path_51" data-name="Path 51" d="M563.343,0C384.306,250.591,179.744,536.41,0,784.685l.024.034C180.034,537.226,387.751,254.9,569.435,8.4L563.343,0" transform="translate(993.666 0.066)" fill="#7b1aa7"/>
                    <path id="Path_52" data-name="Path 52" d="M563.342,0C384.306,250.591,179.744,536.41,0,784.685l.024.034C180.034,537.226,387.751,254.9,569.434,8.4L563.342,0" transform="translate(981.288 0.066)" fill="#7b1aa7"/>
                    <path id="Path_53" data-name="Path 53" d="M565.424,0C386.465,250.506,179.8,539.22,0,787.554l.024.034C130.2,608.5,296.843,381.533,428.325,202.754L571.517,8.4,565.424,0" transform="translate(966.827 0.066)" fill="#7b1aa7"/>
                    <path id="Path_54" data-name="Path 54" d="M565.424,0C386.465,250.506,179.8,539.22,0,787.554l.024.034C130.2,608.5,296.843,381.533,428.325,202.754L571.517,8.4Z" transform="translate(954.447 0.066)" fill="#7b1aa7"/>
                    <path id="Path_55" data-name="Path 55" d="M565.425,0C386.465,250.506,179.8,539.22,0,787.554l.024.034C130.2,608.5,296.843,381.533,428.325,202.754L571.517,8.4,565.425,0" transform="translate(942.068 0.066)" fill="#7b1aa7"/>
                    <path id="Path_56" data-name="Path 56" d="M565.425,0C385.732,251.515,180.418,538.384,0,787.554l.024.034C180.683,539.168,389.164,255.807,571.517,8.4L565.425,0" transform="translate(929.689 0.066)" fill="#7b1aa7"/>
                    <path id="Path_57" data-name="Path 57" d="M565.425,0C385.732,251.514,180.418,538.384,0,787.554l.024.034C180.683,539.168,389.164,255.807,571.517,8.4L565.425,0" transform="translate(917.311 0.066)" fill="#7b1aa7"/>
                    <path id="Path_58" data-name="Path 58" d="M565.425,0C385.732,251.515,180.418,538.384,0,787.554l.024.034C180.683,539.168,389.164,255.807,571.517,8.4L565.425,0" transform="translate(904.932 0.066)" fill="#7b1aa7"/>
                    <path id="Path_59" data-name="Path 59" d="M565.425,0C386.476,250.521,179.779,539.189,0,787.554l.024.034c130.2-179.054,296.809-406.068,428.3-584.834L571.517,8.4Z" transform="translate(892.553 0.066)" fill="#7b1aa7"/>
                    <path id="Path_60" data-name="Path 60" d="M565.425,0C384.063,253.875,182.07,536.05,0,787.554l.024.034C134.5,602.652,292.506,387.414,428.325,202.754L571.517,8.4Z" transform="translate(880.173 0.066)" fill="#7b1aa7"/>
                    <path id="Path_61" data-name="Path 61" d="M565.425,0C384.063,253.875,182.07,536.05,0,787.554l.024.034C134.5,602.652,292.506,387.414,428.325,202.754L571.517,8.4Z" transform="translate(867.795 0.066)" fill="#7b1aa7"/>
                    <path id="Path_62" data-name="Path 62" d="M565.425,0C384.063,253.875,182.07,536.05,0,787.554l.024.034C134.5,602.652,292.506,387.414,428.325,202.754L571.517,8.4Z" transform="translate(855.416 0.066)" fill="#7b1aa7"/>
                    <path id="Path_63" data-name="Path 63" d="M565.425,0C386.474,250.519,179.77,539.178,0,787.554l.024.034c130.2-179.051,296.821-406.051,428.3-584.834L571.517,8.4Z" transform="translate(843.037 0.066)" fill="#7b1aa7"/>
                    <path id="Path_64" data-name="Path 64" d="M565.425,0C386.474,250.519,179.77,539.178,0,787.554l.024.034c130.2-179.051,296.821-406.052,428.3-584.834L571.517,8.4Z" transform="translate(830.658 0.066)" fill="#7b1aa7"/>
                    <path id="Path_65" data-name="Path 65" d="M565.425,0C386.474,250.519,179.77,539.178,0,787.554l.024.034c130.2-179.051,296.821-406.051,428.3-584.834L571.517,8.4Z" transform="translate(818.279 0.066)" fill="#7b1aa7"/>
                    <path id="Path_66" data-name="Path 66" d="M565.425,0C386.474,250.519,179.77,539.178,0,787.554l.024.034c130.2-179.051,296.821-406.051,428.3-584.834L571.517,8.4Z" transform="translate(805.9 0.066)" fill="#7b1aa7"/>
                    <path id="Path_67" data-name="Path 67" d="M565.425,0C386.474,250.519,179.77,539.178,0,787.554l.024.034c130.2-179.051,296.821-406.051,428.3-584.834L571.517,8.4Z" transform="translate(793.521 0.066)" fill="#7b1aa7"/>
                    <path id="Path_68" data-name="Path 68" d="M565.425,0C386.474,250.519,179.77,539.178,0,787.554l.024.034c130.2-179.051,296.821-406.051,428.3-584.834L571.517,8.4Z" transform="translate(781.142 0.066)" fill="#7b1aa7"/>
                    <path id="Path_69" data-name="Path 69" d="M565.424,0C386.472,250.516,179.767,539.173,0,787.554l.024.034c130.2-179.055,296.831-406.037,428.3-584.834L571.517,8.4Z" transform="translate(768.763 0.066)" fill="#7b1aa7"/>
                    <path id="Path_70" data-name="Path 70" d="M565.424,0C386.474,250.519,179.77,539.178,0,787.554l.024.034c130.2-179.051,296.821-406.051,428.3-584.834L571.517,8.4Z" transform="translate(756.384 0.066)" fill="#7b1aa7"/>
                    <path id="Path_71" data-name="Path 71" d="M565.425,0C385.734,251.516,180.4,538.359,0,787.554l.024.034C180.7,539.194,389.163,255.8,571.517,8.4L565.425,0" transform="translate(744.005 0.066)" fill="#7b1aa7"/>
                    <path id="Path_72" data-name="Path 72" d="M565.425,0C382.536,255.963,183.439,534.217,0,787.554l.024.034C183.659,535.07,385.986,260.143,571.517,8.4L565.425,0" transform="translate(731.626 0.066)" fill="#7b1aa7"/>
                    <path id="Path_73" data-name="Path 73" d="M565.425,0C382.536,255.963,183.439,534.217,0,787.554l.024.034C183.659,535.07,385.986,260.143,571.517,8.4L565.425,0" transform="translate(719.247 0.066)" fill="#7b1aa7"/>
                    <path id="Path_74" data-name="Path 74" d="M565.425,0C385.734,251.516,180.4,538.359,0,787.554l.024.034C180.7,539.194,389.163,255.8,571.517,8.4L565.425,0" transform="translate(706.868 0.066)" fill="#7b1aa7"/>
                    <path id="Path_75" data-name="Path 75" d="M565.425,0C385.726,251.505,180.4,538.364,0,787.554l.024.034C180.7,539.189,389.171,255.815,571.517,8.4L565.425,0" transform="translate(694.49 0.066)" fill="#7b1aa7"/>
                    <path id="Path_76" data-name="Path 76" d="M565.424,0C385.676,251.44,180.424,538.393,0,787.554l.024.034C180.675,539.158,389.218,255.882,571.516,8.4L565.424,0" transform="translate(682.111 0.066)" fill="#7b1aa7"/>
                    <path id="Path_77" data-name="Path 77" d="M565.412,0C385.722,251.517,180.407,538.386,0,787.571l.024.034c180.67-248.4,389.151-531.767,571.5-779.176L565.412,0" transform="translate(669.731 0.05)" fill="#7b1aa7"/>
                    <path id="Path_78" data-name="Path 78" d="M565.412,0C385.722,251.517,180.407,538.386,0,787.571l.024.034c180.67-248.4,389.151-531.767,571.5-779.176L565.412,0" transform="translate(657.352 0.05)" fill="#7b1aa7"/>
                    <path id="Path_79" data-name="Path 79" d="M565.412,0C385.722,251.517,180.407,538.386,0,787.571l.024.034c180.67-248.4,389.151-531.767,571.5-779.176L565.412,0" transform="translate(644.974 0.05)" fill="#7b1aa7"/>
                    <path id="Path_80" data-name="Path 80" d="M567.531,0C387.906,251.443,180.471,541.231,0,790.491l.024.034c130.666-179.75,297.917-407.578,429.9-587.012L573.648,8.429Z" transform="translate(630.476 0.05)" fill="#7b1aa7"/>
                    <path id="Path_81" data-name="Path 81" d="M567.531,0C387.906,251.443,180.471,541.231,0,790.491l.024.034c130.666-179.75,297.917-407.578,429.9-587.012L573.648,8.429Z" transform="translate(618.097 0.05)" fill="#7b1aa7"/>
                    <path id="Path_82" data-name="Path 82" d="M567.531,0C387.907,251.443,180.471,541.231,0,790.491l.024.034c130.665-179.75,297.917-407.578,429.9-587.012L573.648,8.429Z" transform="translate(605.718 0.05)" fill="#7b1aa7"/>
                    <path id="Path_83" data-name="Path 83" d="M567.531,0C387.915,251.454,180.458,541.213,0,790.491l.024.034c130.682-179.727,297.908-407.59,429.9-587.012L573.648,8.429Z" transform="translate(593.339 0.05)" fill="#7b1aa7"/>
                    <path id="Path_84" data-name="Path 84" d="M567.531,0C387.915,251.454,180.458,541.213,0,790.491l.024.034c130.682-179.727,297.908-407.59,429.9-587.012L573.648,8.429Z" transform="translate(580.96 0.05)" fill="#7b1aa7"/>
                    <path id="Path_85" data-name="Path 85" d="M567.531,0C387.917,251.457,180.453,541.206,0,790.491l.024.034C130.711,610.8,297.932,382.933,429.922,203.513L573.648,8.429Z" transform="translate(568.581 0.05)" fill="#7b1aa7"/>
                    <path id="Path_86" data-name="Path 86" d="M567.531,0C387.917,251.457,180.453,541.206,0,790.491l.024.034C130.711,610.8,297.932,382.933,429.922,203.513L573.648,8.429Z" transform="translate(556.202 0.05)" fill="#7b1aa7"/>
                    <path id="Path_87" data-name="Path 87" d="M567.531,0C387.917,251.457,180.453,541.206,0,790.491l.024.034C130.712,610.8,297.933,382.933,429.923,203.513L573.648,8.429Z" transform="translate(543.824 0.05)" fill="#7b1aa7"/>
                    <path id="Path_88" data-name="Path 88" d="M567.531,0C387.917,251.457,180.453,541.206,0,790.491l.024.034C130.712,610.8,297.932,382.933,429.922,203.513L573.648,8.429Z" transform="translate(531.444 0.05)" fill="#7b1aa7"/>
                    <path id="Path_89" data-name="Path 89" d="M567.531,0C387.917,251.457,180.453,541.206,0,790.491l.024.034C130.712,610.8,297.932,382.933,429.922,203.513L573.648,8.429Z" transform="translate(519.065 0.05)" fill="#7b1aa7"/>
                    <path id="Path_90" data-name="Path 90" d="M567.531,0C387.917,251.457,180.453,541.206,0,790.491l.024.034C130.711,610.8,297.932,382.933,429.922,203.513L573.648,8.429Z" transform="translate(506.686 0.05)" fill="#7b1aa7"/>
                    <path id="Path_91" data-name="Path 91" d="M567.531,0C387.917,251.457,180.453,541.206,0,790.491l.024.034C130.711,610.8,297.932,382.933,429.922,203.513L573.648,8.429Z" transform="translate(494.308 0.05)" fill="#7b1aa7"/>
                    <path id="Path_92" data-name="Path 92" d="M567.531,0C387.917,251.457,180.453,541.206,0,790.491l.024.034C130.712,610.8,297.932,382.933,429.922,203.513L573.648,8.429Z" transform="translate(481.929 0.05)" fill="#7b1aa7"/>
                    <path id="Path_93" data-name="Path 93" d="M567.531,0C387.917,251.457,180.453,541.206,0,790.491l.024.034C130.711,610.8,297.932,382.933,429.922,203.513L573.648,8.429Z" transform="translate(469.55 0.05)" fill="#7b1aa7"/>
                    <path id="Path_94" data-name="Path 94" d="M567.531,0C387.917,251.457,180.452,541.206,0,790.491l.024.034C130.711,610.8,297.931,382.933,429.921,203.513L573.647,8.429Z" transform="translate(457.171 0.05)" fill="#7b1aa7"/>
                    <path id="Path_95" data-name="Path 95" d="M567.531,0C387.917,251.457,180.453,541.206,0,790.491l.024.034c130.687-179.721,297.908-407.59,429.9-587.012L573.648,8.429Z" transform="translate(444.792 0.05)" fill="#7b1aa7"/>
                    <path id="Path_96" data-name="Path 96" d="M567.531,0C387.917,251.457,180.453,541.206,0,790.491l.024.034c130.687-179.721,297.908-407.59,429.9-587.012L573.648,8.429Z" transform="translate(432.413 0.05)" fill="#7b1aa7"/>
                    <path id="Path_97" data-name="Path 97" d="M567.531,0C387.917,251.457,180.453,541.206,0,790.491l.024.034C130.712,610.8,297.932,382.933,429.922,203.513L573.648,8.429Z" transform="translate(420.034 0.05)" fill="#7b1aa7"/>
                    <path id="Path_98" data-name="Path 98" d="M567.531,0C387.173,252.459,181.083,540.383,0,790.491l.024.034C181.363,541.188,390.611,256.756,573.648,8.429L567.531,0" transform="translate(407.655 0.05)" fill="#7b1aa7"/>
                    <path id="Path_99" data-name="Path 99" d="M567.531,0C387.173,252.459,181.083,540.383,0,790.491l.024.034C181.363,541.188,390.611,256.756,573.648,8.429Z" transform="translate(395.276 0.05)" fill="#7b1aa7"/>
                    <path id="Path_100" data-name="Path 100" d="M567.531,0C387.173,252.459,181.083,540.383,0,790.491l.024.034C181.363,541.188,390.611,256.756,573.648,8.429L567.531,0" transform="translate(382.897 0.05)" fill="#7b1aa7"/>
                    <path id="Path_101" data-name="Path 101" d="M567.531,0C387.165,252.447,181.076,540.373,0,790.491l.024.034C181.371,541.2,390.618,256.767,573.648,8.429L567.531,0" transform="translate(370.518 0.05)" fill="#7b1aa7"/>
                    <path id="Path_102" data-name="Path 102" d="M567.531,0C387.157,252.436,181.079,540.378,0,790.491l.024.034C181.367,541.194,390.627,256.778,573.648,8.429L567.531,0" transform="translate(358.139 0.05)" fill="#7b1aa7"/>
                    <path id="Path_103" data-name="Path 103" d="M567.531,0C387.109,252.371,181.1,540.406,0,790.491l.024.034C181.346,541.165,390.674,256.845,573.648,8.429L567.531,0" transform="translate(345.76 0.05)" fill="#7b1aa7"/>
                    <path id="Path_104" data-name="Path 104" d="M567.519,0C387.153,252.446,181.083,540.4,0,790.508l.024.034C181.364,541.206,390.631,256.8,573.66,8.462Z" transform="translate(333.381 0.034)" fill="#7b1aa7"/>
                    <path id="Path_105" data-name="Path 105" d="M567.519,0C387.153,252.446,181.083,540.4,0,790.508l.024.034C181.364,541.206,390.631,256.8,573.659,8.462L567.519,0" transform="translate(321.003 0.034)" fill="#7b1aa7"/>
                    <path id="Path_106" data-name="Path 106" d="M567.519,0C387.152,252.446,181.083,540.4,0,790.508l.024.034C181.364,541.206,390.631,256.8,573.66,8.462L567.519,0" transform="translate(308.623 0.034)" fill="#7b1aa7"/>
                    <path id="Path_107" data-name="Path 107" d="M567.519,0C384.186,256.629,184.216,536.026,0,790.508l.024.034C184.591,536.814,387.543,260.961,573.66,8.462L567.519,0" transform="translate(296.244 0.034)" fill="#7b1aa7"/>
                    <path id="Path_108" data-name="Path 108" d="M567.519,0C387.152,252.446,181.083,540.4,0,790.508l.024.034C181.364,541.206,390.631,256.8,573.66,8.462L567.519,0" transform="translate(283.866 0.034)" fill="#7b1aa7"/>
                    <path id="Path_109" data-name="Path 109" d="M567.519,0C387.152,252.446,181.083,540.4,0,790.508l.024.034C181.364,541.206,390.631,256.8,573.66,8.462L567.519,0" transform="translate(271.487 0.034)" fill="#7b1aa7"/>
                    <path id="Path_110" data-name="Path 110" d="M567.519,0C387.152,252.446,181.083,540.4,0,790.508l.024.034C181.364,541.206,390.631,256.8,573.66,8.462L567.519,0" transform="translate(259.108 0.034)" fill="#7b1aa7"/>
                    <path id="Path_111" data-name="Path 111" d="M567.519,0C387.152,252.446,181.083,540.4,0,790.508l.024.034C181.364,541.206,390.631,256.8,573.66,8.462Z" transform="translate(246.729 0.034)" fill="#7b1aa7"/>
                    <path id="Path_112" data-name="Path 112" d="M567.519,0C387.152,252.446,181.083,540.4,0,790.508l.024.034C181.364,541.206,390.631,256.8,573.66,8.462L567.519,0" transform="translate(234.349 0.034)" fill="#7b1aa7"/>
                    <path id="Path_113" data-name="Path 113" d="M567.519,0C384.74,255.81,183.373,537.263,0,790.508l.024.034C183.6,538.1,388.23,260.071,573.66,8.462L567.519,0" transform="translate(221.971 0.034)" fill="#7b1aa7"/>
                    <path id="Path_114" data-name="Path 114" d="M567.519,0C387.155,252.449,181.076,540.39,0,790.508l.024.034C181.371,541.215,390.629,256.8,573.66,8.462L567.519,0" transform="translate(209.592 0.034)" fill="#7b1aa7"/>
                    <path id="Path_115" data-name="Path 115" d="M567.519,0C387.155,252.449,181.076,540.39,0,790.508l.024.034C181.371,541.215,390.629,256.8,573.66,8.462L567.519,0" transform="translate(197.213 0.034)" fill="#7b1aa7"/>
                    <path id="Path_116" data-name="Path 116" d="M567.519,0C387.155,252.449,181.076,540.39,0,790.508l.024.034C181.371,541.215,390.629,256.8,573.659,8.462L567.519,0" transform="translate(184.834 0.034)" fill="#7b1aa7"/>
                    <path id="Path_117" data-name="Path 117" d="M567.519,0C387.155,252.449,181.076,540.39,0,790.508l.024.034C181.371,541.215,390.629,256.8,573.66,8.462L567.519,0" transform="translate(172.455 0.034)" fill="#7b1aa7"/>
                    <path id="Path_118" data-name="Path 118" d="M567.519,0C387.155,252.449,181.076,540.39,0,790.508l.024.034C181.371,541.215,390.629,256.8,573.66,8.462L567.519,0" transform="translate(160.076 0.034)" fill="#7b1aa7"/>
                    <path id="Path_119" data-name="Path 119" d="M567.519,0C387.155,252.449,181.076,540.39,0,790.508l.024.034C181.371,541.215,390.629,256.8,573.66,8.462L567.519,0" transform="translate(147.697 0.034)" fill="#7b1aa7"/>
                    <path id="Path_120" data-name="Path 120" d="M567.519,0C387.155,252.449,181.076,540.39,0,790.508l.024.034C181.371,541.215,390.629,256.8,573.66,8.462L567.519,0" transform="translate(135.318 0.034)" fill="#7b1aa7"/>
                    <path id="Path_121" data-name="Path 121" d="M567.519,0C387.155,252.449,181.076,540.39,0,790.508l.024.034C181.371,541.215,390.629,256.8,573.66,8.462L567.519,0" transform="translate(122.939 0.034)" fill="#7b1aa7"/>
                    <path id="Path_122" data-name="Path 122" d="M567.519,0C387.155,252.449,181.076,540.39,0,790.508l.024.034C181.371,541.215,390.629,256.8,573.66,8.462L567.519,0" transform="translate(110.561 0.034)" fill="#7b1aa7"/>
                    <path id="Path_123" data-name="Path 123" d="M567.519,0C387.155,252.449,181.076,540.39,0,790.508l.024.034C181.371,541.215,390.629,256.8,573.66,8.462L567.519,0" transform="translate(98.181 0.034)" fill="#7b1aa7"/>
                    <path id="Path_124" data-name="Path 124" d="M567.519,0C387.155,252.449,181.076,540.389,0,790.508l.024.034C181.371,541.216,390.63,256.8,573.66,8.462L567.519,0" transform="translate(85.802 0.034)" fill="#7b1aa7"/>
                    <path id="Path_125" data-name="Path 125" d="M567.519,0C387.155,252.449,181.076,540.389,0,790.508l.024.034C181.371,541.216,390.63,256.8,573.66,8.462L567.519,0" transform="translate(73.423 0.034)" fill="#7b1aa7"/>
                    <path id="Path_126" data-name="Path 126" d="M567.519,0C387.154,252.449,181.076,540.389,0,790.508l.024.034C181.371,541.216,390.63,256.8,573.66,8.462L567.519,0" transform="translate(61.045 0.034)" fill="#7b1aa7"/>
                    <path id="Path_127" data-name="Path 127" d="M567.519,0C387.155,252.449,181.076,540.389,0,790.508l.024.034C181.371,541.216,390.63,256.8,573.66,8.462L567.519,0" transform="translate(48.666 0.034)" fill="#7b1aa7"/>
                    <path id="Path_128" data-name="Path 128" d="M567.519,0C387.155,252.449,181.075,540.389,0,790.508l.024.034C181.371,541.216,390.63,256.8,573.659,8.462L567.519,0" transform="translate(36.287 0.034)" fill="#7b1aa7"/>
                    <path id="Path_129" data-name="Path 129" d="M567.519,0C387.15,252.443,181.071,540.383,0,790.508l.024.034C181.375,541.222,390.634,256.805,573.66,8.462L567.519,0" transform="translate(23.907 0.034)" fill="#7b1aa7"/>
                    <path id="Path_130" data-name="Path 130" d="M567.519,0C387.152,252.446,181.074,540.386,0,790.508l.024.034C181.373,541.219,390.631,256.8,573.66,8.462L567.519,0" transform="translate(11.529 0.034)" fill="#7b1aa7"/>
                    <path id="Path_131" data-name="Path 131" d="M563.622,0C384.5,250.733,179.8,536.676,0,785.138l.024.034C180.169,537.6,387.977,255.095,569.764,8.462L563.622,0" transform="translate(3.046 0.034)" fill="#7b1aa7"/>
                    <path id="Path_132" data-name="Path 132" d="M551.243,0C379,241.29,173.319,528.273,0,768.079l.049.066C174.073,529.289,382.325,245.854,557.409,8.5L551.243,0" transform="translate(3.034 0.017)" fill="#7b1aa7"/>
                    <path id="Path_133" data-name="Path 133" d="M538.888,0C367.614,239.815,171.848,513.244,0,750.987l.1.133C172.47,514.5,371.183,244.317,545.053,8.5L538.888,0" transform="translate(3.01 0.017)" fill="#7b1aa7"/>
                    <path id="Path_134" data-name="Path 134" d="M526.534,0C361.983,230.516,165.5,504.689,0,733.894l.146.2C166.478,506.017,365.432,235.247,532.7,8.5L526.534,0" transform="translate(2.985 0.017)" fill="#7b1aa7"/>
                    <path id="Path_135" data-name="Path 135" d="M514.192,0C351.409,227.943,163.373,490.578,0,716.785l.219.3C118.8,554.366,270.436,347.922,390.068,185.292L520.357,8.5Z" transform="translate(2.949 0.017)" fill="#7b1aa7"/>
                    <path id="Path_136" data-name="Path 136" d="M501.837,0C344.973,219.732,157.7,481.12,0,699.692l.267.368C158.883,482.73,348.561,224.654,508,8.5L501.837,0" transform="translate(2.925 0.017)" fill="#7b1aa7"/>
                    <path id="Path_137" data-name="Path 137" d="M489.494,0C336.473,214.337,153.81,469.341,0,682.583l.34.468C155.088,471.081,340.133,219.359,495.66,8.5L489.494,0" transform="translate(2.888 0.017)" fill="#7b1aa7"/>
                    <path id="Path_138" data-name="Path 138" d="M477.151,0C323.532,215.193,154.959,450.539,0,665.474l.413.569C156.551,452.265,326.99,220.425,483.316,8.5L477.151,0" transform="translate(2.852 0.017)" fill="#7b1aa7"/>
                    <path id="Path_139" data-name="Path 139" d="M464.809,0C319.478,203.556,146.018,445.764,0,648.365l.486.669C147.511,447.8,323.27,208.762,470.974,8.5L464.809,0" transform="translate(2.816 0.017)" fill="#7b1aa7"/>
                    <path id="Path_140" data-name="Path 140" d="M452.48,0C310.991,198.162,142.144,433.987,0,631.239l.583.8C143.727,436.149,314.855,203.467,458.645,8.5L452.48,0" transform="translate(2.766 0.017)" fill="#7b1aa7"/>
                    <path id="Path_141" data-name="Path 141" d="M440.148,0C302.5,192.768,138.268,422.211,0,614.113l.68.937C139.941,424.5,306.438,198.172,446.313,8.5Z" transform="translate(2.718 0.017)" fill="#7b1aa7"/>
                    <path id="Path_142" data-name="Path 142" d="M427.806,0C306.635,169.6,120.284,430.06,0,597l.753,1.037C121.38,432.984,311.467,174.706,433.972,8.495L427.806,0" transform="translate(2.682 0.017)" fill="#7b1aa7"/>
                    <path id="Path_143" data-name="Path 143" d="M415.475,0C297.8,164.741,116.789,417.687,0,579.878l.85,1.17C118.043,420.787,302.649,169.912,421.642,8.495L415.475,0" transform="translate(2.634 0.017)" fill="#7b1aa7"/>
                    <path id="Path_144" data-name="Path 144" d="M403.145,0C288.96,159.873,113.307,405.327,0,562.752l.947,1.3C114.7,408.575,293.835,165.124,409.312,8.495Z" transform="translate(2.585 0.017)" fill="#7b1aa7"/>
                    <path id="Path_145" data-name="Path 145" d="M390.827,0C280.128,155,109.842,392.977,0,545.609l1.068,1.471C111.355,396.353,285.036,160.342,396.993,8.495L390.827,0" transform="translate(2.525 0.017)" fill="#7b1aa7"/>
                    <path id="Path_146" data-name="Path 146" d="M378.5,0C271.28,150.122,106.358,380.617,0,528.483l1.165,1.606C108.007,384.142,276.229,155.565,384.662,8.495L378.5,0" transform="translate(2.476 0.017)" fill="#7b1aa7"/>
                    <path id="Path_147" data-name="Path 147" d="M366.179,0C275.069,127.666,91.4,384.136,0,511.341l1.287,1.772C93.616,387.121,279.728,134.023,372.345,8.5L366.179,0" transform="translate(2.414 0.017)" fill="#7b1aa7"/>
                    <path id="Path_148" data-name="Path 148" d="M353.86,0C265.808,123.376,88.322,371.248,0,494.2l1.409,1.94C90.649,374.393,270.521,129.81,360.026,8.5L353.86,0" transform="translate(2.354 0.017)" fill="#7b1aa7"/>
                    <path id="Path_149" data-name="Path 149" d="M341.542,0C256.547,119.086,85.24,358.361,0,477.056l1.529,2.106C87.681,361.666,261.315,125.6,347.708,8.5L341.542,0" transform="translate(2.294 0.017)" fill="#7b1aa7"/>
                    <path id="Path_150" data-name="Path 150" d="M329.224,0C247.288,114.8,82.158,345.473,0,459.913l1.651,2.274C84.715,348.939,252.109,121.384,335.39,8.5Z" transform="translate(2.233 0.017)" fill="#7b1aa7"/>
                    <path id="Path_151" data-name="Path 151" d="M316.906,0C238.027,110.507,79.076,332.585,0,442.771l1.772,2.442c79.975-109,241.13-328.041,321.3-436.716Z" transform="translate(2.172 0.017)" fill="#7b1aa7"/>
                    <path id="Path_152" data-name="Path 152" d="M304.6,0C228.781,106.221,76,319.692,0,425.611l1.918,2.642C78.8,323.489,233.705,112.953,310.765,8.5L304.6,0" transform="translate(2.099 0.017)" fill="#7b1aa7"/>
                    <path id="Path_153" data-name="Path 153" d="M292.293,0C219.536,101.936,72.929,306.8,0,408.452l2.063,2.842c73.78-100.529,222.444-302.558,296.4-402.8Z" transform="translate(2.027 0.017)" fill="#7b1aa7"/>
                    <path id="Path_154" data-name="Path 154" d="M279.987,0C210.291,97.65,69.857,293.908,0,391.293l2.209,3.043C72.893,298.043,215.311,104.52,286.153,8.5L279.987,0" transform="translate(1.953 0.017)" fill="#7b1aa7"/>
                    <path id="Path_155" data-name="Path 155" d="M267.681,0C201.045,93.364,66.784,281.015,0,374.133l2.355,3.245C69.941,285.32,206.114,100.3,273.847,8.5Z" transform="translate(1.881 0.017)" fill="#7b1aa7"/>
                    <path id="Path_156" data-name="Path 156" d="M255.362,0C191.782,89.072,63.7,268.124,0,356.99L2.476,360.4C66.976,272.6,196.91,96.094,261.528,8.5L255.362,0" transform="translate(1.821 0.017)" fill="#7b1aa7"/>
                    <path id="Path_157" data-name="Path 157" d="M243.057,0C182.533,84.78,60.622,255.226,0,339.831l2.622,3.612C64.03,259.88,187.718,91.882,249.222,8.5L243.057,0" transform="translate(1.747 0.017)" fill="#7b1aa7"/>
                    <path id="Path_158" data-name="Path 158" d="M230.762,0,0,322.655,2.791,326.5,236.927,8.5Z" transform="translate(1.663 0.017)" fill="#7b1aa7"/>
                    <path id="Path_159" data-name="Path 159" d="M218.444,0,0,305.512l2.937,4.048,221.7-301.03Z" transform="translate(1.59 0)" fill="#7b1aa7"/>
                    <path id="Path_160" data-name="Path 160" d="M206.15,0,0,288.336l3.107,4.281L212.339,8.529Z" transform="translate(1.505 0)" fill="#7b1aa7"/>
                    <path id="Path_161" data-name="Path 161" d="M193.856,0,0,271.16l3.277,4.515L200.045,8.529Z" transform="translate(1.42 0)" fill="#7b1aa7"/>
                    <path id="Path_162" data-name="Path 162" d="M181.549,0,0,254l3.422,4.717L187.739,8.529Z" transform="translate(1.347 0)" fill="#7b1aa7"/>
                    <path id="Path_163" data-name="Path 163" d="M169.256,0,0,236.825l3.592,4.951L175.445,8.529Z" transform="translate(1.262 0)" fill="#7b1aa7"/>
                    <path id="Path_164" data-name="Path 164" d="M156.974,0,0,219.631l3.787,5.218L163.163,8.529Z" transform="translate(1.165 0)" fill="#7b1aa7"/>
                    <path id="Path_165" data-name="Path 165" d="M144.68,0,0,202.456l3.956,5.452L150.869,8.529Z" transform="translate(1.08 0)" fill="#7b1aa7"/>
                    <path id="Path_166" data-name="Path 166" d="M132.386,0,0,185.279l4.126,5.686L138.575,8.529Z" transform="translate(0.995 0)" fill="#7b1aa7"/>
                    <path id="Path_167" data-name="Path 167" d="M120.1,0,0,168.087l4.32,5.953L126.293,8.529Z" transform="translate(0.898 0)" fill="#7b1aa7"/>
                    <path id="Path_168" data-name="Path 168" d="M107.822,0,0,150.894l4.515,6.222L114.011,8.529Z" transform="translate(0.801 0)" fill="#7b1aa7"/>
                    <path id="Path_169" data-name="Path 169" d="M95.516,0,0,133.735l4.66,6.422L101.706,8.529Z" transform="translate(0.728 0)" fill="#7b1aa7"/>
                    <path id="Path_170" data-name="Path 170" d="M83.246,0,0,116.525l4.879,6.724L89.436,8.529Z" transform="translate(0.619 0)" fill="#7b1aa7"/>
                    <path id="Path_171" data-name="Path 171" d="M70.952,0,0,99.349l5.048,6.957L77.142,8.529Z" transform="translate(0.534 0)" fill="#7b1aa7"/>
                    <path id="Path_172" data-name="Path 172" d="M58.683,0,0,82.139,5.267,89.4l59.6-80.868Z" transform="translate(0.425 0)" fill="#7b1aa7"/>
                    <path id="Path_173" data-name="Path 173" d="M46.4,0,0,64.947l5.461,7.526L52.59,8.529Z" transform="translate(0.328 0)" fill="#7b1aa7"/>
                    <path id="Path_174" data-name="Path 174" d="M34.119,0,0,47.754l5.656,7.794L40.308,8.529Z" transform="translate(0.231 0)" fill="#7b1aa7"/>
                    <path id="Path_175" data-name="Path 175" d="M21.825,0,0,30.578l5.825,8.027L28.014,8.529Z" transform="translate(0.146 0)" fill="#7b1aa7"/>
                    <path id="Path_176" data-name="Path 176" d="M9.567,0,0,13.351l6.068,8.362L15.756,8.529Z" transform="translate(0.025 0)" fill="#7b1aa7"/>
                    <path id="Path_177" data-name="Path 177" d="M0,8.4,9.7,21.564l5.947-8.2L6.093,0Z" transform="translate(1565.967 0.066)" fill="#7b1aa7"/>
                    <path id="Path_178" data-name="Path 178" d="M0,8.4,22.189,38.472l5.728-7.894L6.093,0Z" transform="translate(1553.588 0.066)" fill="#7b1aa7"/>
                    <path id="Path_179" data-name="Path 179" d="M0,8.4,26,43.648l8.655,11.766,5.558-7.659L31.673,35.827C26.254,28.235,11.694,7.847,6.093,0L0,8.4" transform="translate(1541.209 0.066)" fill="#7b1aa7"/>
                    <path id="Path_180" data-name="Path 180" d="M0,8.4,47.141,72.322l5.34-7.359L6.093,0Z" transform="translate(1528.83 0.066)" fill="#7b1aa7"/>
                    <path id="Path_181" data-name="Path 181" d="M0,8.4,59.617,89.248l5.146-7.091L6.093,0Z" transform="translate(1516.451 0.066)" fill="#7b1aa7"/>
                    <path id="Path_182" data-name="Path 182" d="M0,8.4l72.106,97.76,4.927-6.79L6.093,0Z" transform="translate(1504.073 0.066)" fill="#7b1aa7"/>
                    <path id="Path_183" data-name="Path 183" d="M0,8.4,84.557,123.115l4.782-6.589L6.093,0Z" transform="translate(1491.694 0.066)" fill="#7b1aa7"/>
                    <path id="Path_184" data-name="Path 184" d="M0,8.4,97.033,140.04l4.587-6.322L6.093,0Z" transform="translate(1479.315 0.066)" fill="#7b1aa7"/>
                    <path id="Path_185" data-name="Path 185" d="M0,8.4,109.509,156.965l4.393-6.054L6.093,0Z" transform="translate(1466.936 0.066)" fill="#7b1aa7"/>
                    <path id="Path_186" data-name="Path 186" d="M0,8.4,121.985,173.89l4.2-5.786L6.093,0Z" transform="translate(1454.557 0.066)" fill="#7b1aa7"/>
                    <path id="Path_187" data-name="Path 187" d="M0,8.4,134.449,190.832l4.029-5.553L6.093,0Z" transform="translate(1442.178 0.066)" fill="#7b1aa7"/>
                    <path id="Path_188" data-name="Path 188" d="M0,8.4,146.925,207.757l3.835-5.285L6.093,0Z" transform="translate(1429.799 0.067)" fill="#7b1aa7"/>
                    <path id="Path_189" data-name="Path 189" d="M0,8.4,159.389,224.7l3.666-5.051L6.093,0Z" transform="translate(1417.42 0.066)" fill="#7b1aa7"/>
                    <path id="Path_190" data-name="Path 190" d="M0,8.4,171.841,241.658l3.519-4.851L6.093,0Z" transform="translate(1405.041 0.066)" fill="#7b1aa7"/>
                    <path id="Path_191" data-name="Path 191" d="M0,8.4,184.3,258.6l3.35-4.615L6.093,0Z" transform="translate(1392.662 0.066)" fill="#7b1aa7"/>
                    <path id="Path_192" data-name="Path 192" d="M0,8.4,196.768,275.542l3.18-4.382L6.092,0Z" transform="translate(1380.283 0.066)" fill="#7b1aa7"/>
                    <path id="Path_193" data-name="Path 193" d="M0,8.4,209.233,292.484l3.01-4.148L6.093,0Z" transform="translate(1367.904 0.066)" fill="#7b1aa7"/>
                    <path id="Path_194" data-name="Path 194" d="M0,8.4l221.7,301.03,2.84-3.914L6.093,0Z" transform="translate(1355.525 0.066)" fill="#7b1aa7"/>
                    <path id="Path_195" data-name="Path 195" d="M0,8.4C58.407,87.589,175.846,247.084,234.148,326.385l2.695-3.713C179.282,242.31,63.546,80.466,6.092,0L0,8.4" transform="translate(1343.146 0.066)" fill="#7b1aa7"/>
                    <path id="Path_196" data-name="Path 196" d="M0,8.4C61.521,91.8,185.206,259.8,246.6,343.344l2.548-3.513C188.51,255.207,66.6,84.756,6.092,0L0,8.4" transform="translate(1330.767 0.066)" fill="#7b1aa7"/>
                    <path id="Path_197" data-name="Path 197" d="M0,8.4C64.606,96.054,194.536,272.561,259.052,360.3l2.4-3.312C197.769,268.064,69.688,89.007,6.092,0L0,8.4" transform="translate(1318.388 0.066)" fill="#7b1aa7"/>
                    <path id="Path_198" data-name="Path 198" d="M0,8.4C77.037,113,195.494,273.672,271.5,377.261l2.257-3.11C198.91,269.85,81.652,105.67,6.092,0L0,8.4" transform="translate(1306.009 0.065)" fill="#7b1aa7"/>
                    <path id="Path_199" data-name="Path 199" d="M0,8.4C80.581,117.8,204.458,285.869,283.956,394.22l2.111-2.91C207.776,282.224,85.115,110.531,6.092,0L0,8.4" transform="translate(1293.63 0.065)" fill="#7b1aa7"/>
                    <path id="Path_200" data-name="Path 200" d="M0,8.4c84.125,114.2,213.422,289.672,296.407,402.782l1.966-2.71C216.642,294.6,88.577,115.394,6.092,0L0,8.4" transform="translate(1281.252 0.065)" fill="#7b1aa7"/>
                    <path id="Path_201" data-name="Path 201" d="M0,8.4C87.67,127.385,222.386,310.266,308.846,428.154l1.846-2.543C225.508,306.971,92.038,120.257,6.092,0L0,8.4" transform="translate(1268.873 0.065)" fill="#7b1aa7"/>
                    <path id="Path_202" data-name="Path 202" d="M0,8.4c91.21,123.79,231.366,314.046,321.287,436.732l1.723-2.374C234.359,319.366,95.507,125.111,6.092,0L0,8.4" transform="translate(1256.493 0.065)" fill="#7b1aa7"/>
                    <path id="Path_203" data-name="Path 203" d="M0,8.4C94.751,136.983,240.338,334.631,333.726,462.1l1.6-2.208C243.218,331.751,98.972,129.97,6.092,0L0,8.4" transform="translate(1244.114 0.065)" fill="#7b1aa7"/>
                    <path id="Path_204" data-name="Path 204" d="M0,8.43C98.3,141.8,249.317,346.841,346.19,479.081l1.456-2.007C252.094,344.145,102.452,134.841,6.116,0L0,8.43" transform="translate(1231.723 0.049)" fill="#7b1aa7"/>
                    <path id="Path_205" data-name="Path 205" d="M0,8.43c101.846,138.164,258.285,350.6,358.63,487.625l1.335-1.839C260.956,356.524,105.914,139.7,6.116,0L0,8.43" transform="translate(1219.345 0.049)" fill="#7b1aa7"/>
                    <path id="Path_206" data-name="Path 206" d="M0,8.43c92.639,125.559,278.753,378.654,371.07,504.6l1.213-1.673C280.865,384.111,97.209,127.629,6.116,0L0,8.43" transform="translate(1206.966 0.049)" fill="#7b1aa7"/>
                    <path id="Path_207" data-name="Path 207" d="M0,8.43c108.928,147.762,276.215,375,383.5,521.592l1.116-1.539C278.687,381.274,112.845,149.417,6.116,0L0,8.43" transform="translate(1194.587 0.049)" fill="#7b1aa7"/>
                    <path id="Path_208" data-name="Path 208" d="M0,8.43C112.471,160.989,285.177,395.631,395.936,547l1-1.372C287.557,393.644,116.31,154.275,6.116,0L0,8.43" transform="translate(1182.207 0.049)" fill="#7b1aa7"/>
                    <path id="Path_209" data-name="Path 209" d="M0,8.43C116.007,165.794,294.144,407.824,408.364,563.991l.9-1.238C296.419,406.022,119.781,159.126,6.116,0L0,8.43" transform="translate(1169.828 0.049)" fill="#7b1aa7"/>
                    <path id="Path_210" data-name="Path 210" d="M0,8.43C119.541,170.6,303.113,420.016,420.791,580.983l.8-1.1C305.281,418.4,123.253,163.975,6.116,0L0,8.43" transform="translate(1157.45 0.049)" fill="#7b1aa7"/>
                    <path id="Path_211" data-name="Path 211" d="M0,8.43C123.069,175.417,312.1,432.189,433.218,597.975l.7-.97C314.129,430.8,126.732,168.814,6.116,0L0,8.43" transform="translate(1145.071 0.049)" fill="#7b1aa7"/>
                    <path id="Path_212" data-name="Path 212" d="M0,8.43C126.61,180.217,321.05,444.4,445.645,614.967l.607-.837C323,443.161,130.2,173.671,6.116,0L0,8.43" transform="translate(1132.692 0.048)" fill="#7b1aa7"/>
                    <path id="Path_213" data-name="Path 213" d="M0,8.43c130.14,176.6,330.026,448.151,458.074,623.529l.509-.7C331.858,455.552,133.674,178.514,6.116,0L0,8.43" transform="translate(1120.313 0.049)" fill="#7b1aa7"/>
                    <path id="Path_214" data-name="Path 214" d="M0,8.429c152.135,206.23,318.5,432.555,470.489,640.537l.437-.6C319.839,438.689,155.932,209.881,6.117,0L0,8.429" transform="translate(1107.934 0.05)" fill="#7b1aa7"/>
                    <path id="Path_215" data-name="Path 215" d="M0,8.429C151.632,213.993,332.024,459.386,482.9,665.976l.364-.5C333.348,457.541,155.277,208.947,6.117,0L0,8.429" transform="translate(1095.555 0.049)" fill="#7b1aa7"/>
                    <path id="Path_216" data-name="Path 216" d="M0,8.429C155.529,219.311,340.584,471.019,495.32,682.984l.291-.4C341.789,469.336,159.137,214.318,6.116,0L0,8.429" transform="translate(1083.176 0.05)" fill="#7b1aa7"/>
                    <path id="Path_217" data-name="Path 217" d="M0,8.43C159.446,224.6,349.125,482.677,507.735,699.994l.218-.3C350.249,481.106,162.976,219.715,6.116,0L0,8.43" transform="translate(1070.797 0.049)" fill="#7b1aa7"/>
                    <path id="Path_218" data-name="Path 218" d="M0,8.43C163.354,229.907,357.689,494.3,520.139,717.019l.17-.234C358.685,492.909,166.825,225.1,6.116,0L0,8.43" transform="translate(1058.418 0.049)" fill="#7b1aa7"/>
                    <path id="Path_219" data-name="Path 219" d="M0,8.43C173.051,243.173,361.136,498.772,532.542,734.044l.121-.167C362.121,497.927,176.267,238.207,6.117,0L0,8.43" transform="translate(1046.039 0.049)" fill="#7b1aa7"/>
                    <path id="Path_220" data-name="Path 220" d="M0,8.429c173.516,235.262,372.6,506.1,544.945,742.641l.072-.1C373.4,513.511,176.788,239.049,6.117,0L0,8.429" transform="translate(1033.66 0.049)" fill="#7b1aa7"/>
                    <path id="Path_221" data-name="Path 221" d="M0,8.429C179.649,252.119,379.332,523.517,557.336,768.112l.048-.067C426.548,587.315,274.3,374.927,143.627,192.433L6.117,0Z" transform="translate(1021.281 0.05)" fill="#7b1aa7"/>
                    <path id="Path_222" data-name="Path 222" d="M0,8.43C184.263,258.417,386.972,533.866,569.38,784.677l.025-.034C387.588,533.531,187.325,253.653,6.117,0L0,8.43" transform="translate(1008.902 0.049)" fill="#7b1aa7"/>
                    <path id="Path_223" data-name="Path 223" d="M0,8.429C184.277,258.435,387,533.905,569.423,784.735l.025-.034C387.617,533.571,187.338,253.672,6.116,0L0,8.429" transform="translate(996.524 0.049)" fill="#7b1aa7"/>
                    <path id="Path_224" data-name="Path 224" d="M0,8.429C186.494,261.516,384.668,530.665,569.422,784.735l.025-.034C430.684,593.041,284.776,389.686,146.652,196.585L6.117,0Z" transform="translate(984.145 0.049)" fill="#7b1aa7"/>
                    <path id="Path_225" data-name="Path 225" d="M0,8.429C186.494,261.516,384.668,530.665,569.423,784.735l.025-.034c-138.763-191.661-284.672-395.016-422.8-588.117L6.117,0Z" transform="translate(971.765 0.049)" fill="#7b1aa7"/>
                    <path id="Path_226" data-name="Path 226" d="M0,8.429C186.494,261.516,384.668,530.665,569.423,784.735l.025-.034c-138.763-191.661-284.672-395.016-422.8-588.117L6.117,0Z" transform="translate(959.386 0.049)" fill="#7b1aa7"/>
                    <path id="Path_227" data-name="Path 227" d="M0,8.429C186.5,261.515,384.665,530.669,569.423,784.735l.024-.034C430.688,593.036,284.773,389.688,146.652,196.585L6.117,0Z" transform="translate(947.008 0.049)" fill="#7b1aa7"/>
                    <path id="Path_228" data-name="Path 228" d="M0,8.429C186.5,261.514,384.664,530.67,569.423,784.735l.024-.034C430.689,593.035,284.773,389.688,146.652,196.585L6.117,0Z" transform="translate(934.629 0.049)" fill="#7b1aa7"/>
                    <path id="Path_229" data-name="Path 229" d="M0,8.429C184.086,258.218,386.918,533.794,569.423,784.735l.024-.034C434.85,598.775,280.624,383.908,146.652,196.585L6.117,0Z" transform="translate(922.25 0.049)" fill="#7b1aa7"/>
                    <path id="Path_230" data-name="Path 230" d="M0,8.429C184.086,258.217,386.919,533.792,569.422,784.735l.024-.034c-134.6-185.927-288.824-400.791-422.795-588.117L6.116,0,0,8.429" transform="translate(909.871 0.049)" fill="#7b1aa7"/>
                    <path id="Path_231" data-name="Path 231" d="M0,8.462C184.1,258.229,386.931,533.808,569.435,784.751l.024-.034C434.864,598.788,280.631,383.931,146.668,196.6L6.141,0Z" transform="translate(897.479 0.034)" fill="#7b1aa7"/>
                    <path id="Path_232" data-name="Path 232" d="M0,8.462C184.1,258.228,386.931,533.808,569.434,784.751l.024-.034C434.864,598.788,280.631,383.931,146.668,196.6L6.141,0Z" transform="translate(885.101 0.034)" fill="#7b1aa7"/>
                    <path id="Path_233" data-name="Path 233" d="M0,8.463c181.862,246.7,389.277,528.584,569.435,776.289l.024-.034C389.861,536.659,185,250.4,6.141,0L0,8.463" transform="translate(872.722 0.033)" fill="#7b1aa7"/>
                    <path id="Path_234" data-name="Path 234" d="M0,8.463c181.862,246.7,389.277,528.584,569.435,776.289l.024-.034C389.861,536.659,185,250.4,6.141,0L0,8.463" transform="translate(860.343 0.033)" fill="#7b1aa7"/>
                    <path id="Path_235" data-name="Path 235" d="M0,8.463c181.86,246.7,389.275,528.587,569.435,776.289l.024-.034C389.863,536.656,185,250.4,6.141,0L0,8.463" transform="translate(847.964 0.033)" fill="#7b1aa7"/>
                    <path id="Path_236" data-name="Path 236" d="M0,8.463c181.86,246.7,389.275,528.587,569.434,776.289l.024-.034C389.863,536.656,185,250.4,6.141,0Z" transform="translate(835.585 0.033)" fill="#7b1aa7"/>
                    <path id="Path_237" data-name="Path 237" d="M0,8.463c181.86,246.7,389.275,528.587,569.435,776.289l.024-.034C389.863,536.656,185,250.4,6.141,0L0,8.463" transform="translate(823.206 0.033)" fill="#7b1aa7"/>
                    <path id="Path_238" data-name="Path 238" d="M0,8.463c181.86,246.7,389.275,528.587,569.435,776.289l.024-.034C389.863,536.656,185,250.4,6.141,0L0,8.463" transform="translate(810.827 0.033)" fill="#7b1aa7"/>
                    <path id="Path_239" data-name="Path 239" d="M0,8.463c181.86,246.7,389.275,528.587,569.435,776.289l.024-.034C389.863,536.656,185,250.4,6.141,0Z" transform="translate(798.448 0.033)" fill="#7b1aa7"/>
                    <path id="Path_240" data-name="Path 240" d="M0,8.463c181.857,246.7,389.272,528.591,569.435,776.289l.024-.034C389.866,536.652,185.006,250.391,6.141,0L0,8.463" transform="translate(786.069 0.033)" fill="#7b1aa7"/>
                    <path id="Path_241" data-name="Path 241" d="M0,8.463c181.86,246.7,389.275,528.587,569.435,776.289l.024-.034C389.863,536.656,185,250.4,6.141,0L0,8.463" transform="translate(773.69 0.033)" fill="#7b1aa7"/>
                    <path id="Path_242" data-name="Path 242" d="M0,8.463c181.859,246.7,389.274,528.587,569.434,776.289l.025-.034C389.863,536.656,185,250.4,6.141,0L0,8.463" transform="translate(761.312 0.033)" fill="#7b1aa7"/>
                    <path id="Path_243" data-name="Path 243" d="M0,8.463c181.86,246.7,389.275,528.587,569.435,776.289l.024-.034C389.863,536.656,185,250.4,6.141,0L0,8.463" transform="translate(748.932 0.033)" fill="#7b1aa7"/>
                    <path id="Path_244" data-name="Path 244" d="M0,8.463c184.281,250,387.021,525.447,569.435,776.289l.024-.034C387.62,533.6,187.359,253.677,6.141,0L0,8.463" transform="translate(736.553 0.033)" fill="#7b1aa7"/>
                    <path id="Path_245" data-name="Path 245" d="M0,8.463c184.281,250,387.021,525.447,569.435,776.289l.024-.034C387.62,533.6,187.359,253.677,6.141,0L0,8.463" transform="translate(724.174 0.033)" fill="#7b1aa7"/>
                    <path id="Path_246" data-name="Path 246" d="M0,8.463c184.281,250,387.021,525.447,569.435,776.289l.024-.034C387.62,533.6,187.359,253.677,6.141,0L0,8.463" transform="translate(711.796 0.033)" fill="#7b1aa7"/>
                    <path id="Path_247" data-name="Path 247" d="M0,8.463c181.86,246.7,389.275,528.587,569.435,776.289l.024-.034C389.863,536.656,185,250.4,6.141,0L0,8.463" transform="translate(699.417 0.033)" fill="#7b1aa7"/>
                    <path id="Path_248" data-name="Path 248" d="M0,8.463c181.86,246.7,389.275,528.587,569.435,776.289l.024-.034C389.863,536.656,185,250.4,6.141,0L0,8.463" transform="translate(687.037 0.033)" fill="#7b1aa7"/>
                    <path id="Path_249" data-name="Path 249" d="M0,8.463c181.86,246.7,389.275,528.587,569.435,776.289l.024-.034C389.863,536.656,185,250.4,6.141,0Z" transform="translate(674.658 0.033)" fill="#7b1aa7"/>
                    <path id="Path_250" data-name="Path 250" d="M0,8.463c181.86,246.7,389.275,528.587,569.435,776.289l.024-.034C389.863,536.656,185,250.4,6.141,0L0,8.463" transform="translate(662.28 0.033)" fill="#7b1aa7"/>
                    <path id="Path_251" data-name="Path 251" d="M0,8.463c184.839,250.8,386.148,524.27,569.435,776.289l.024-.034C386.677,532.272,188.032,254.573,6.141,0L0,8.463" transform="translate(649.901 0.033)" fill="#7b1aa7"/>
                    <path id="Path_252" data-name="Path 252" d="M0,8.463c184.839,250.8,386.148,524.27,569.435,776.289l.024-.034C386.677,532.272,188.032,254.573,6.141,0L0,8.463" transform="translate(637.522 0.033)" fill="#7b1aa7"/>
                    <path id="Path_253" data-name="Path 253" d="M0,8.463c184.839,250.8,386.148,524.27,569.434,776.289l.024-.034C386.676,532.272,188.032,254.573,6.141,0L0,8.463" transform="translate(625.143 0.033)" fill="#7b1aa7"/>
                    <path id="Path_254" data-name="Path 254" d="M0,8.463c184.839,250.8,386.148,524.27,569.435,776.289l.024-.034C386.677,532.272,188.032,254.573,6.141,0L0,8.463" transform="translate(612.764 0.033)" fill="#7b1aa7"/>
                    <path id="Path_255" data-name="Path 255" d="M0,8.463c184.842,250.8,386.14,524.282,569.435,776.289l.024-.034C386.686,532.26,188.029,254.578,6.141,0L0,8.463" transform="translate(600.385 0.033)" fill="#7b1aa7"/>
                    <path id="Path_256" data-name="Path 256" d="M0,8.463c184.842,250.8,386.139,524.282,569.435,776.289l.024-.034C386.686,532.26,188.029,254.578,6.141,0L0,8.463" transform="translate(588.006 0.033)" fill="#7b1aa7"/>
                    <path id="Path_257" data-name="Path 257" d="M0,8.463c184.842,250.8,386.139,524.282,569.435,776.289l.024-.034C386.686,532.26,188.03,254.578,6.141,0L0,8.463" transform="translate(575.627 0.033)" fill="#7b1aa7"/>
                    <path id="Path_258" data-name="Path 258" d="M0,8.463c184.842,250.8,386.139,524.282,569.434,776.289l.025-.034C386.686,532.26,188.03,254.578,6.141,0L0,8.463" transform="translate(563.248 0.033)" fill="#7b1aa7"/>
                    <path id="Path_259" data-name="Path 259" d="M0,8.5C184.858,259.273,386.151,532.761,569.447,784.768l.024-.034C386.7,532.276,188.038,254.6,6.165,0L0,8.5" transform="translate(550.857 0.017)" fill="#7b1aa7"/>
                    <path id="Path_260" data-name="Path 260" d="M0,8.5C184.858,259.273,386.151,532.761,569.447,784.768l.024-.034C386.7,532.276,188.038,254.6,6.165,0L0,8.5" transform="translate(538.478 0.017)" fill="#7b1aa7"/>
                    <path id="Path_261" data-name="Path 261" d="M0,8.5c181.858,246.7,389.287,528.57,569.447,776.272l.024-.034C389.875,536.672,185.029,250.392,6.165,0L0,8.5" transform="translate(526.099 0.017)" fill="#7b1aa7"/>
                    <path id="Path_262" data-name="Path 262" d="M0,8.5c181.858,246.7,389.287,528.57,569.447,776.272l.024-.034C389.876,536.672,185.029,250.392,6.165,0L0,8.5" transform="translate(513.72 0.017)" fill="#7b1aa7"/>
                    <path id="Path_263" data-name="Path 263" d="M0,8.5c185.074,251.089,386.291,524.4,569.447,776.272l.024-.034C386.9,532.608,188.164,254.756,6.165,0L0,8.5" transform="translate(501.341 0.017)" fill="#7b1aa7"/>
                    <path id="Path_264" data-name="Path 264" d="M0,8.5C181.859,255.2,389.285,537.069,569.447,784.768l.024-.034C389.877,536.669,185.027,250.394,6.165,0L0,8.5" transform="translate(488.962 0.017)" fill="#7b1aa7"/>
                    <path id="Path_265" data-name="Path 265" d="M0,8.5C181.858,255.2,389.284,537.069,569.447,784.768l.024-.034C389.876,536.669,185.027,250.394,6.165,0L0,8.5" transform="translate(476.584 0.017)" fill="#7b1aa7"/>
                    <path id="Path_266" data-name="Path 266" d="M0,8.5C181.859,255.2,389.285,537.069,569.447,784.768l.024-.034C389.877,536.669,185.027,250.394,6.165,0L0,8.5" transform="translate(464.204 0.017)" fill="#7b1aa7"/>
                    <path id="Path_267" data-name="Path 267" d="M0,8.5C181.859,255.2,389.285,537.069,569.447,784.768l.024-.034C389.877,536.669,185.027,250.394,6.165,0L0,8.5" transform="translate(451.825 0.017)" fill="#7b1aa7"/>
                    <path id="Path_268" data-name="Path 268" d="M0,8.5C181.859,255.2,389.285,537.069,569.447,784.768l.024-.034C389.877,536.669,185.027,250.394,6.165,0L0,8.5" transform="translate(439.446 0.017)" fill="#7b1aa7"/>
                    <path id="Path_269" data-name="Path 269" d="M0,8.5C181.859,255.2,389.285,537.069,569.447,784.768l.024-.034C389.877,536.669,185.027,250.394,6.165,0L0,8.5" transform="translate(427.068 0.017)" fill="#7b1aa7"/>
                    <path id="Path_270" data-name="Path 270" d="M0,8.5C181.859,255.2,389.285,537.069,569.447,784.768l.024-.034C389.877,536.669,185.027,250.394,6.165,0L0,8.5" transform="translate(414.689 0.017)" fill="#7b1aa7"/>
                    <path id="Path_271" data-name="Path 271" d="M0,8.5C181.859,255.2,389.279,537.077,569.447,784.768l.024-.034C389.884,536.661,185.027,250.394,6.165,0L0,8.5" transform="translate(402.309 0.017)" fill="#7b1aa7"/>
                    <path id="Path_272" data-name="Path 272" d="M0,8.5c181.806,246.584,391.3,531.4,571.529,779.142l.024-.034C441.621,608.18,276.905,378.559,147.19,197.345L6.165,0Z" transform="translate(389.93 0.017)" fill="#7b1aa7"/>
                    <path id="Path_273" data-name="Path 273" d="M0,8.5C182.53,256.1,390.707,539.026,571.529,787.638l.024-.034C391.3,538.63,185.683,251.318,6.165,0L0,8.5" transform="translate(377.552 0.016)" fill="#7b1aa7"/>
                    <path id="Path_274" data-name="Path 274" d="M0,8.5C184.794,259.158,388.335,535.8,571.529,787.637l.024-.034C436.448,601.013,281.711,385.279,147.192,197.343L6.165,0Z" transform="translate(365.173 0.017)" fill="#7b1aa7"/>
                    <path id="Path_275" data-name="Path 275" d="M0,8.5C182.53,256.1,390.707,539.026,571.529,787.638l.024-.034C391.3,538.63,185.683,251.318,6.165,0L0,8.5" transform="translate(352.794 0.016)" fill="#7b1aa7"/>
                    <path id="Path_276" data-name="Path 276" d="M0,8.5C182.53,256.1,390.707,539.026,571.529,787.638l.024-.034C391.3,538.63,185.683,251.318,6.165,0L0,8.5" transform="translate(340.415 0.016)" fill="#7b1aa7"/>
                    <path id="Path_277" data-name="Path 277" d="M0,8.5C182.53,256.1,390.707,539.026,571.529,787.638l.024-.034C391.3,538.63,185.683,251.318,6.165,0L0,8.5" transform="translate(328.036 0.016)" fill="#7b1aa7"/>
                    <path id="Path_278" data-name="Path 278" d="M0,8.5C182.53,256.1,390.707,539.026,571.529,787.638l.024-.034C391.3,538.63,185.683,251.318,6.165,0L0,8.5" transform="translate(315.657 0.016)" fill="#7b1aa7"/>
                    <path id="Path_279" data-name="Path 279" d="M0,8.5C182.53,256.1,390.707,539.025,571.529,787.637l.024-.034C391.3,538.629,185.683,251.317,6.165,0L0,8.5" transform="translate(303.278 0.017)" fill="#7b1aa7"/>
                    <path id="Path_280" data-name="Path 280" d="M0,8.5C182.53,256.1,390.707,539.025,571.529,787.637l.024-.034C391.3,538.629,185.683,251.317,6.165,0L0,8.5" transform="translate(290.899 0.017)" fill="#7b1aa7"/>
                    <path id="Path_281" data-name="Path 281" d="M0,8.5C182.526,256.1,390.7,539.029,571.529,787.637l.024-.034C391.3,538.625,185.687,251.312,6.165,0L0,8.5" transform="translate(278.52 0.017)" fill="#7b1aa7"/>
                    <path id="Path_282" data-name="Path 282" d="M0,8.5C182.526,256.1,390.7,539.029,571.529,787.637l.024-.034C391.3,538.625,185.687,251.312,6.165,0L0,8.5" transform="translate(266.141 0.017)" fill="#7b1aa7"/>
                    <path id="Path_283" data-name="Path 283" d="M0,8.5C182.526,256.1,390.7,539.029,571.529,787.637l.024-.034C391.3,538.625,185.687,251.312,6.165,0L0,8.5" transform="translate(253.762 0.017)" fill="#7b1aa7"/>
                    <path id="Path_284" data-name="Path 284" d="M0,8.5C182.526,256.1,390.7,539.029,571.529,787.637l.024-.034C391.3,538.625,185.687,251.312,6.165,0L0,8.5" transform="translate(241.383 0.017)" fill="#7b1aa7"/>
                    <path id="Path_285" data-name="Path 285" d="M0,8.5C182.526,256.1,390.7,539.029,571.529,787.637l.024-.034C391.3,538.625,185.687,251.313,6.165,0L0,8.5" transform="translate(229.004 0.017)" fill="#7b1aa7"/>
                    <path id="Path_286" data-name="Path 286" d="M0,8.529C182.547,256.11,390.713,539.05,571.542,787.654l.024-.034C391.315,538.638,185.69,251.341,6.189,0L0,8.529" transform="translate(216.613 0)" fill="#7b1aa7"/>
                    <path id="Path_287" data-name="Path 287" d="M0,8.529C182.547,256.11,390.713,539.05,571.542,787.654l.024-.034C391.315,538.638,185.69,251.341,6.189,0L0,8.529" transform="translate(204.234 0)" fill="#7b1aa7"/>
                    <path id="Path_288" data-name="Path 288" d="M0,8.529C182.547,256.11,390.713,539.05,571.542,787.654l.024-.034C391.315,538.638,185.69,251.341,6.189,0L0,8.529" transform="translate(191.856 0)" fill="#7b1aa7"/>
                    <path id="Path_289" data-name="Path 289" d="M0,8.529C182.547,256.11,390.713,539.05,571.542,787.654l.024-.034C391.315,538.638,185.69,251.341,6.189,0L0,8.529" transform="translate(179.476 0)" fill="#7b1aa7"/>
                    <path id="Path_290" data-name="Path 290" d="M0,8.529c182.547,247.58,390.712,530.521,571.542,779.125l.024-.034C391.316,538.637,185.69,251.341,6.189,0L0,8.529" transform="translate(167.097 0)" fill="#7b1aa7"/>
                    <path id="Path_291" data-name="Path 291" d="M0,8.529c182.547,247.58,390.712,530.521,571.542,779.125l.024-.034C391.316,538.637,185.69,251.341,6.189,0L0,8.529" transform="translate(154.718 0)" fill="#7b1aa7"/>
                    <path id="Path_292" data-name="Path 292" d="M0,8.529c182.547,247.58,390.712,530.521,571.541,779.125l.024-.034C391.316,538.637,185.69,251.341,6.189,0L0,8.529" transform="translate(142.34 0)" fill="#7b1aa7"/>
                    <path id="Path_293" data-name="Path 293" d="M0,8.529c182.547,247.58,390.712,530.521,571.542,779.125l.024-.034C391.316,538.637,185.69,251.341,6.189,0L0,8.529" transform="translate(129.961 0)" fill="#7b1aa7"/>
                    <path id="Path_294" data-name="Path 294" d="M0,8.529c182.546,247.58,390.712,530.521,571.541,779.125l.024-.034C391.316,538.637,185.689,251.341,6.189,0L0,8.529" transform="translate(117.582 0)" fill="#7b1aa7"/>
                    <path id="Path_295" data-name="Path 295" d="M0,8.529c182.547,247.58,390.712,530.521,571.542,779.125l.024-.034C391.316,538.637,185.69,251.341,6.189,0L0,8.529" transform="translate(105.202 0)" fill="#7b1aa7"/>
                    <path id="Path_296" data-name="Path 296" d="M0,8.529c182.547,247.58,390.712,530.521,571.542,779.125l.024-.034C391.316,538.637,185.69,251.341,6.189,0L0,8.529" transform="translate(92.824 0)" fill="#7b1aa7"/>
                    <path id="Path_297" data-name="Path 297" d="M0,8.529c182.547,247.58,390.712,530.521,571.542,779.125l.024-.034C391.316,538.637,185.69,251.341,6.189,0L0,8.529" transform="translate(80.445 0)" fill="#7b1aa7"/>
                    <path id="Path_298" data-name="Path 298" d="M0,8.529C184.972,259.43,388.447,535.9,571.542,787.654l.024-.034C389.068,535.564,188.06,254.628,6.189,0Z" transform="translate(68.066 0)" fill="#7b1aa7"/>
                    <path id="Path_299" data-name="Path 299" d="M0,8.529C183.224,257.037,392.16,541.041,573.66,790.574l.024-.033C392.761,540.633,186.362,252.274,6.189,0L0,8.529" transform="translate(55.687 0)" fill="#7b1aa7"/>
                    <path id="Path_300" data-name="Path 300" d="M0,8.529C183.224,257.037,392.16,541.041,573.66,790.574l.024-.033C392.761,540.633,186.362,252.274,6.189,0L0,8.529" transform="translate(43.308 0)" fill="#7b1aa7"/>
                    <path id="Path_301" data-name="Path 301" d="M0,8.529C183.224,257.037,392.16,541.041,573.66,790.574l.024-.033C392.761,540.633,186.362,252.274,6.189,0L0,8.529" transform="translate(30.929 0)" fill="#7b1aa7"/>
                    <path id="Path_302" data-name="Path 302" d="M0,8.529C183.224,257.037,392.16,541.042,573.66,790.574l.024-.033C392.761,540.633,186.362,252.274,6.189,0Z" transform="translate(18.55 0)" fill="#7b1aa7"/>
                    <path id="Path_303" data-name="Path 303" d="M0,8.529C183.224,257.037,392.16,541.042,573.66,790.574l.024-.033C392.761,540.633,186.362,252.274,6.189,0L0,8.529" transform="translate(6.171 0)" fill="#7b1aa7"/>
                    <path id="Path_304" data-name="Path 304" d="M0,8.43c181.243,245.8,387.906,526.733,567.434,773.564l.024-.034C388.493,534.768,184.328,249.546,6.116,0Z" transform="translate(0 8.555)" fill="#7b1aa7"/>
                    <path id="Path_305" data-name="Path 305" d="M0,8.094C177.209,248.587,379.37,523.313,554.933,764.767l.024-.034C379.892,523,180.236,243.991,5.874,0L0,8.094" transform="translate(0.121 25.781)" fill="#7b1aa7"/>
                    <path id="Path_306" data-name="Path 306" d="M0,7.861C172.584,241.94,371.381,512.409,542.469,747.591l.024-.034C419.145,577.239,262.753,359.306,139.585,187.325L5.7,0,0,7.861" transform="translate(0.207 42.957)" fill="#7b1aa7"/>
                    <path id="Path_307" data-name="Path 307" d="M0,7.593C169.263,237.3,362.292,499.79,529.993,730.4l.024-.034C362.816,499.457,172.049,233.051,5.51,0L0,7.593" transform="translate(0.304 60.15)" fill="#7b1aa7"/>
                    <path id="Path_308" data-name="Path 308" d="M0,7.326c165.3,224.3,353.743,480.7,517.517,705.881l.024-.034C354.276,487.672,167.936,227.592,5.315,0L0,7.326" transform="translate(0.4 77.343)" fill="#7b1aa7"/>
                    <path id="Path_309" data-name="Path 309" d="M0,7.058C161.288,226.013,345.219,476.229,505.042,696.013l.024-.033C345.712,475.92,163.868,222.071,5.122,0L0,7.058" transform="translate(0.497 94.536)" fill="#7b1aa7"/>
                    <path id="Path_310" data-name="Path 310" d="M0,6.756C156.647,219.5,337.185,465.175,492.553,678.8l.024-.034C380.531,524.1,238.479,326.18,126.564,170.046L4.9,0Z" transform="translate(0.607 111.745)" fill="#7b1aa7"/>
                    <path id="Path_311" data-name="Path 311" d="M0,6.523c153.292,208.235,328.151,446.136,480.089,655.1l.024-.033C328.6,452.391,155.708,211.062,4.733,0L0,6.523" transform="translate(0.692 128.921)" fill="#7b1aa7"/>
                    <path id="Path_312" data-name="Path 312" d="M0,6.255c149.287,202.886,319.612,434.626,467.614,638.18l.024-.034C320.051,440.617,151.636,205.546,4.539,0L0,6.255" transform="translate(0.789 146.114)" fill="#7b1aa7"/>
                    <path id="Path_313" data-name="Path 313" d="M0,6.022C142.962,200.173,313.035,431.95,455.149,627.26l.024-.034C313.439,431.374,145.249,197,4.369,0L0,6.022" transform="translate(0.874 163.29)" fill="#7b1aa7"/>
                    <path id="Path_314" data-name="Path 314" d="M0,5.754c140.777,191.31,302.991,412.282,442.674,604.313l.024-.034C341.99,470.966,214.215,293.142,113.588,152.809L4.175,0Z" transform="translate(0.971 180.483)" fill="#7b1aa7"/>
                    <path id="Path_315" data-name="Path 315" d="M0,5.519c135.1,183.607,295.863,402.734,430.209,587.37l.024-.034C296.244,407.709,137.234,186.165,4,0L0,5.519" transform="translate(1.056 197.659)" fill="#7b1aa7"/>
                    <path id="Path_316" data-name="Path 316" d="M0,5.251C132.809,185.891,285.92,394.429,417.733,575.7l.024-.034C322.7,444.426,202.093,276.607,107.112,144.171L3.811,0Z" transform="translate(1.153 214.853)" fill="#7b1aa7"/>
                    <path id="Path_317" data-name="Path 317" d="M0,5.05c128.9,175.2,277.376,377.637,405.282,553.487l.024-.034c-92.225-127.337-209.26-290.132-301.438-418.592L3.665,0Z" transform="translate(1.226 232.011)" fill="#7b1aa7"/>
                    <path id="Path_318" data-name="Path 318" d="M0,4.784C111.622,156.721,283.076,390.33,392.805,541.346l.024-.034C283.708,390.744,113.214,153.111,3.471,0L0,4.784" transform="translate(1.323 249.203)" fill="#7b1aa7"/>
                    <path id="Path_319" data-name="Path 319" d="M0,4.583c119.453,162.409,261.547,356.309,380.353,519.6l.024-.034C261.877,360.421,121.173,164.606,3.325,0L0,4.583" transform="translate(1.396 266.363)" fill="#7b1aa7"/>
                    <path id="Path_320" data-name="Path 320" d="M0,4.348c115.509,157.155,252.969,344.7,367.889,502.66l.024-.034C253.286,348.6,117.19,159.171,3.155,0L0,4.348" transform="translate(1.48 283.54)" fill="#7b1aa7"/>
                    <path id="Path_321" data-name="Path 321" d="M0,4.148c111.609,151.84,244.4,333.077,355.438,485.7l.024-.034C244.7,336.8,113.189,153.8,3.01,0L0,4.148" transform="translate(1.554 300.699)" fill="#7b1aa7"/>
                    <path id="Path_322" data-name="Path 322" d="M0,3.914C107.679,150.48,235.818,325.394,342.973,472.673l.024-.034C236.118,324.966,109.191,148.382,2.84,0L0,3.914" transform="translate(1.638 317.874)" fill="#7b1aa7"/>
                    <path id="Path_323" data-name="Path 323" d="M0,3.713c103.789,141.237,227.255,309.852,330.522,451.8l.024-.034C227.535,313.165,105.179,143.022,2.694,0L0,3.713" transform="translate(1.711 335.034)" fill="#7b1aa7"/>
                    <path id="Path_324" data-name="Path 324" d="M0,3.479C99.87,139.427,218.667,301.738,318.057,438.338l.024-.034C218.953,301.331,101.17,137.621,2.525,0L0,3.479" transform="translate(1.796 352.21)" fill="#7b1aa7"/>
                    <path id="Path_325" data-name="Path 325" d="M0,3.312C95.965,133.951,210.116,289.924,305.618,421.194l.024-.034C210.38,289.548,97.2,132.24,2.4,0L0,3.312" transform="translate(1.857 369.352)" fill="#7b1aa7"/>
                    <path id="Path_326" data-name="Path 326" d="M0,3.078C83.276,116.652,211.216,291.239,293.154,404.02l.024-.034C211.685,291.552,84.267,114.23,2.233,0L0,3.078" transform="translate(1.942 386.528)" fill="#7b1aa7"/>
                    <path id="Path_327" data-name="Path 327" d="M0,2.91C88.13,122.967,192.98,266.28,280.714,386.876l.024-.034C193.223,265.934,89.227,121.444,2.112,0Z" transform="translate(2.003 403.672)" fill="#7b1aa7"/>
                    <path id="Path_328" data-name="Path 328" d="M0,2.711C76.218,106.653,193.267,266.5,268.262,369.717l.024-.034C193.706,266.776,77.043,104.549,1.966,0L0,2.711" transform="translate(2.075 420.829)" fill="#7b1aa7"/>
                    <path id="Path_329" data-name="Path 329" d="M0,2.51c72.66,99.166,184.285,251.617,255.809,350.047l.024-.034C184.709,254.378,73.447,99.67,1.82,0Z" transform="translate(2.149 437.989)" fill="#7b1aa7"/>
                    <path id="Path_330" data-name="Path 330" d="M0,2.309C69.125,96.67,175.3,241.753,243.358,335.4l.024-.034C175.716,241.981,69.831,94.82,1.674,0L0,2.309" transform="translate(2.221 455.149)" fill="#7b1aa7"/>
                    <path id="Path_331" data-name="Path 331" d="M0,2.141C65.575,91.715,166.342,229.382,230.918,318.254l.024-.034C166.726,229.609,66.253,89.95,1.553,0L0,2.141" transform="translate(2.282 472.292)" fill="#7b1aa7"/>
                    <path id="Path_332" data-name="Path 332" d="M0,1.974C54.556,76.393,164.137,226.431,218.479,301.112l.024-.035C164.3,226.174,55.422,75.162,1.432,0L0,1.974" transform="translate(2.342 489.434)" fill="#7b1aa7"/>
                    <path id="Path_333" data-name="Path 333" d="M0,1.84c58.52,79.94,148.421,202.835,206.051,282.145l.024-.034C148.767,204.872,59.076,80.272,1.335,0L0,1.84" transform="translate(2.391 506.561)" fill="#7b1aa7"/>
                    <path id="Path_334" data-name="Path 334" d="M0,1.673C48.34,67.65,145.45,200.651,193.611,266.843l.024-.034C145.591,200.423,49.078,66.6,1.213,0L0,1.673" transform="translate(2.451 523.703)" fill="#7b1aa7"/>
                    <path id="Path_335" data-name="Path 335" d="M0,1.505C45.225,63.271,136.095,187.757,181.171,249.7l.024-.035C136.236,187.532,45.9,62.307,1.092,0L0,1.505" transform="translate(2.512 540.846)" fill="#7b1aa7"/>
                    <path id="Path_336" data-name="Path 336" d="M0,1.338C42.116,58.884,126.746,174.856,168.732,232.557l.024-.035C126.875,174.651,42.719,58.024.971,0Z" transform="translate(2.573 557.988)" fill="#7b1aa7"/>
                    <path id="Path_337" data-name="Path 337" d="M0,1.2c39.019,53.311,117.415,160.76,156.3,214.226l.024-.035C117.52,161.793,39.55,53.757.873,0L0,1.2" transform="translate(2.621 575.114)" fill="#7b1aa7"/>
                    <path id="Path_338" data-name="Path 338" d="M0,1.071C35.912,50.159,108.076,149.085,143.876,198.3l.024-.034C108.176,148.924,36.389,49.478.776,0L0,1.071" transform="translate(2.67 592.239)" fill="#7b1aa7"/>
                    <path id="Path_339" data-name="Path 339" d="M0,.937C32.8,45.806,98.734,136.209,131.449,181.178l.024-.034C98.833,136.051,33.231,45.194.68,0L0,.937" transform="translate(2.718 609.366)" fill="#7b1aa7"/>
                    <path id="Path_340" data-name="Path 340" d="M0,.8C29.7,41.441,89.4,123.321,119.02,164.051l.024-.034C89.481,123.189,30.064,40.923.583,0L0,.8" transform="translate(2.767 626.492)" fill="#7b1aa7"/>
                    <path id="Path_341" data-name="Path 341" d="M0,.7C26.6,37.108,80.071,110.458,106.6,146.942l.024-.034C80.147,110.335,26.921,36.651.51,0L0,.7" transform="translate(2.804 643.601)" fill="#7b1aa7"/>
                    <path id="Path_342" data-name="Path 342" d="M0,.035,94.176,129.281C93.783,129.52.383-2.465,0,.035" transform="translate(2.852 661.26)" fill="#7b1aa7"/>
                    <path id="Path_343" data-name="Path 343" d="M0,.029C.026,0,81.762,112.4,81.785,112.232,81.385,112.49.321-2.086,0,.029" transform="translate(2.888 678.276)" fill="#7b1aa7"/>
                    <path id="Path_344" data-name="Path 344" d="M0,.025C.025-.008,69.357,95.364,69.38,95.2,69.038,95.424.274-1.788,0,.025" transform="translate(2.913 695.305)" fill="#7b1aa7"/>
                    <path id="Path_345" data-name="Path 345" d="M0,.017C.026-.015,56.941,78.346,56.964,78.182,56.7,78.341.211-1.337,0,.017" transform="translate(2.949 712.322)" fill="#7b1aa7"/>
                    <path id="Path_346" data-name="Path 346" d="M0,.013c.026-.031,44.535,61.3,44.558,61.137C44.353,61.273.164-1.039,0,.013" transform="translate(2.974 729.351)" fill="#7b1aa7"/>
                    <path id="Path_347" data-name="Path 347" d="M0,.01,32.129,44.152C32.123,44.281.089-.771,0,.01" transform="translate(2.997 746.38)" fill="#7b1aa7"/>
                    <path id="Path_348" data-name="Path 348" d="M0,.006C.027-.022,19.719,27.239,19.743,27.08,19.66,27.15.069-.46,0,.006" transform="translate(3.022 763.41)" fill="#7b1aa7"/>
                    <line id="Line_2" data-name="Line 2" x2="7.292" y2="10.049" transform="translate(3.058 780.425)" fill="none" stroke="#7b1aa7" stroke-width="0.051"/>
                  </g>
                </g>
              </g>
            </g>
          </g>
        </g>
      </g>
    </g>
  </g>
</svg>
