<svg id="Orange_Pattern_for_BG" data-name="Orange Pattern for BG" xmlns="http://www.w3.org/2000/svg" xmlns:xlink="http://www.w3.org/1999/xlink" width="1856.916" height="928.163" viewBox="0 0 1856.916 928.163">
  <defs>
    <clipPath id="clip-path">
      <rect id="Rectangle_14" data-name="Rectangle 14" width="1856.916" height="928.163" fill="none"/>
    </clipPath>
  </defs>
  <g id="Group_15" data-name="Group 15" clip-path="url(#clip-path)">
    <g id="Group_14" data-name="Group 14">
      <g id="Group_13" data-name="Group 13" clip-path="url(#clip-path)">
        <g id="Group_12" data-name="Group 12" opacity="0.45" style="mix-blend-mode: overlay;isolation: isolate">
          <g id="Group_11" data-name="Group 11">
            <g id="Group_10" data-name="Group 10" clip-path="url(#clip-path)">
              <line id="Line_1" data-name="Line 1" x1="3.583" y1="4.937" transform="translate(1849.799 6.98)" fill="none" stroke="#7b1aa7" stroke-width="0.051"/>
              <path id="Path_5" data-name="Path 5" d="M18.15,25.128C18.173,25.082-.134.039,0,0-.037.092,18.414,25.052,18.15,25.128" transform="translate(1835.203 6.856)" fill="#f6732f"/>
              <path id="Path_6" data-name="Path 6" d="M32.706,45.15,0,0C-.05-.083,33.087,45.1,32.706,45.15" transform="translate(1820.633 6.882)" fill="#f6732f"/>
              <path id="Path_7" data-name="Path 7" d="M47.2,65.242,0,0C-.133.052,48,65.06,47.2,65.242" transform="translate(1806.096 6.877)" fill="#f6732f"/>
              <path id="Path_8" data-name="Path 8" d="M61.678,85.35C61.7,85.308-.14.037,0,0-.16.356,62.736,85.049,61.678,85.35" transform="translate(1791.59 6.836)" fill="#f6732f"/>
              <path id="Path_9" data-name="Path 9" d="M76.184,105.418C76.21,105.376-.139.037,0,0-.148.477,77.464,105.036,76.184,105.418" transform="translate(1777.056 6.835)" fill="#f6732f"/>
              <path id="Path_10" data-name="Path 10" d="M90.7,125.466,0,0C-.21.409,92.379,125,90.7,125.466" transform="translate(1762.493 6.873)" fill="#f6732f"/>
              <path id="Path_11" data-name="Path 11" d="M105.2,145.594C79.006,109.273,26.243,36.268,0,.039L.029,0C26.324,36.175,79.3,108.884,105.651,144.966l-.456.628" transform="translate(1747.959 6.833)" fill="#f6732f"/>
              <path id="Path_12" data-name="Path 12" d="M119.686,165.682C89.892,124.345,29.861,41.263,0,.039L.029,0c29.921,41.161,90.21,123.888,120.2,164.936l-.542.745" transform="translate(1733.425 6.832)" fill="#f6732f"/>
              <path id="Path_13" data-name="Path 13" d="M134.177,185.769C100.768,139.43,33.469,46.274,0,.039L.029,0C33.587,46.134,101.187,138.876,134.8,184.9l-.627.864" transform="translate(1718.891 6.832)" fill="#f6732f"/>
              <path id="Path_14" data-name="Path 14" d="M148.654,205.876C111.65,154.507,37.089,51.266,0,.039L.028,0C37.21,51.125,112.127,153.873,149.4,204.856l-.741,1.021" transform="translate(1704.357 6.83)" fill="#f6732f"/>
              <path id="Path_15" data-name="Path 15" d="M163.131,225.982C122.528,169.589,40.707,56.262,0,.039L.029,0C40.837,56.111,123.073,168.866,163.986,224.8l-.855,1.177" transform="translate(1689.823 6.83)" fill="#f6732f"/>
              <path id="Path_16" data-name="Path 16" d="M177.607,246.089C133.4,184.679,44.318,61.268,0,.039L.029,0c44.441,61.088,134,183.849,178.548,244.754l-.969,1.335" transform="translate(1675.29 6.829)" fill="#f6732f"/>
              <path id="Path_17" data-name="Path 17" d="M192.083,266.2C144.282,199.754,47.939,66.259,0,.038L.029,0C48.093,66.079,144.965,198.845,193.167,264.7l-1.083,1.492" transform="translate(1660.757 6.83)" fill="#f6732f"/>
              <path id="Path_18" data-name="Path 18" d="M206.561,286.3C155.151,214.85,51.546,71.27,0,.039L.03,0c51.7,71.052,155.89,213.825,207.728,284.654l-1.2,1.649" transform="translate(1646.223 6.829)" fill="#f6732f"/>
              <path id="Path_19" data-name="Path 19" d="M221.023,306.429C166.026,229.937,55.168,76.262,0,.039L.03,0c55.325,76.043,166.84,228.812,222.333,304.584l-1.34,1.845" transform="translate(1631.689 6.829)" fill="#f6732f"/>
              <path id="Path_20" data-name="Path 20" d="M235.485,326.555C168.759,233.832,66.2,91.351,0,.041L.029,0C66.006,90.847,169.992,232.987,236.966,324.514l-1.482,2.041" transform="translate(1617.156 6.828)" fill="#f6732f"/>
              <path id="Path_21" data-name="Path 21" d="M249.962,346.662C179.129,248.234,70.263,96.989,0,.039L.029,0C70.081,96.416,180.462,247.3,251.558,344.463l-1.6,2.2" transform="translate(1602.623 6.828)" fill="#f6732f"/>
              <path id="Path_22" data-name="Path 22" d="M264.408,366.807C189.5,262.627,74.332,102.611,0,.039L.029,0c74.115,102,190.9,261.628,266.147,364.372l-1.768,2.435" transform="translate(1588.09 6.829)" fill="#f6732f"/>
              <path id="Path_23" data-name="Path 23" d="M278.871,386.933C199.867,277.04,78.415,108.215,0,.039L.029,0C78.193,107.6,201.4,275.935,280.781,384.3l-1.91,2.631" transform="translate(1573.556 6.829)" fill="#f6732f"/>
              <path id="Path_24" data-name="Path 24" d="M293.333,407.061C210.233,291.451,82.48,113.846,0,.039L.029,0C82.261,113.182,211.88,290.246,295.386,404.234l-2.052,2.827" transform="translate(1559.022 6.827)" fill="#f6732f"/>
              <path id="Path_25" data-name="Path 25" d="M307.8,427.186C220.595,305.865,86.553,119.462,0,.038L.029,0c86.29,118.772,222.33,304.55,309.961,424.163l-2.194,3.023" transform="translate(1544.489 6.828)" fill="#f6732f"/>
              <path id="Path_26" data-name="Path 26" d="M322.244,447.332C230.97,320.262,90.63,125.078,0,.039L.029,0c90.349,124.363,232.8,318.872,324.581,444.073l-2.366,3.259" transform="translate(1529.955 6.828)" fill="#f6732f"/>
              <path id="Path_27" data-name="Path 27" d="M336.691,467.478C241.333,334.674,94.694,130.708,0,.039L.029,0C94.445,129.942,243.3,333.181,339.228,463.984l-2.537,3.495" transform="translate(1515.422 6.828)" fill="#f6732f"/>
              <path id="Path_28" data-name="Path 28" d="M351.139,487.623C251.68,349.107,98.76,136.335,0,.038L.029,0C98.511,135.522,253.8,347.466,353.847,483.893l-2.708,3.73" transform="translate(1500.889 6.828)" fill="#f6732f"/>
              <path id="Path_29" data-name="Path 29" d="M365.587,507.769C262.034,363.532,102.847,141.937,0,.039L.029,0c102.53,141.129,264.254,361.761,368.438,503.8l-2.879,3.966" transform="translate(1486.356 6.828)" fill="#f6732f"/>
              <path id="Path_30" data-name="Path 30" d="M380.021,527.935C261.224,362.166,119.4,164.974,0,.039L.029,0C119.72,164.544,262.813,359.993,383.1,523.694l-3.078,4.241" transform="translate(1471.822 6.827)" fill="#f6732f"/>
              <path id="Path_31" data-name="Path 31" d="M394.484,548.061C282.755,392.366,110.992,153.176,0,.039L.029,0C110.679,152.306,285.244,390.366,397.7,543.625l-3.221,4.436" transform="translate(1457.288 6.827)" fill="#f6732f"/>
              <path id="Path_32" data-name="Path 32" d="M408.917,568.227C293.114,406.785,115.047,158.819,0,.039L.029,0c114.728,157.87,295.7,404.668,412.309,563.516l-3.42,4.711" transform="translate(1442.755 6.827)" fill="#f6732f"/>
              <path id="Path_33" data-name="Path 33" d="M423.365,588.372C290.991,403.661,133.031,183.833,0,.039L.029,0c133.377,183.334,292.9,401.014,426.927,583.424l-3.591,4.948" transform="translate(1428.222 6.827)" fill="#f6732f"/>
              <path id="Path_34" data-name="Path 34" d="M437.8,608.538C300.933,417.469,137.578,190.117,0,.039L.03,0C137.968,189.6,302.947,414.712,441.59,603.315l-3.791,5.223" transform="translate(1413.687 6.827)" fill="#f6732f"/>
              <path id="Path_35" data-name="Path 35" d="M452.232,628.7C310.855,431.3,142.127,196.4,0,.039L.028,0c142.5,195.871,312.954,428.389,456.193,623.206l-3.99,5.5" transform="translate(1399.155 6.826)" fill="#f6732f"/>
              <path id="Path_36" data-name="Path 36" d="M466.666,648.87C318.915,442.553,148.262,204.812,0,.039L.029,0c107.355,147.657,244.594,335.049,352.9,482.627L470.854,643.1Z" transform="translate(1384.622 6.826)" fill="#f6732f"/>
              <path id="Path_37" data-name="Path 37" d="M481.114,669.015C328.776,456.309,152.868,211.149,0,.039L.029,0C110.711,152.237,252.21,345.431,363.892,497.559L485.474,663.006Z" transform="translate(1370.088 6.827)" fill="#f6732f"/>
              <path id="Path_38" data-name="Path 38" d="M495.533,689.2C337.993,469.186,158,218.232,0,.039L.029,0c158.2,217.557,340.578,465.969,500.093,682.877l-4.588,6.323" transform="translate(1355.555 6.826)" fill="#f6732f"/>
              <path id="Path_39" data-name="Path 39" d="M509.967,709.366C347.836,482.917,162.631,224.583,0,.039L.029,0c162.8,223.929,350.547,479.539,514.726,702.769l-4.788,6.6" transform="translate(1341.021 6.826)" fill="#f6732f"/>
              <path id="Path_40" data-name="Path 40" d="M524.386,729.55C360.512,500.4,164.849,227.837,0,.039L.029,0c165.31,227.184,363.1,496.82,529.373,722.639l-5.016,6.912" transform="translate(1326.487 6.826)" fill="#f6732f"/>
              <path id="Path_41" data-name="Path 41" d="M538.82,749.716C367.521,510.38,171.841,237.344,0,.039L.029,0C172.085,236.61,370.512,506.675,544.035,742.529l-5.215,7.187" transform="translate(1311.954 6.826)" fill="#f6732f"/>
              <path id="Path_42" data-name="Path 42" d="M553.239,769.9C377.392,524.072,176.453,243.715,0,.039L.028,0C176.7,242.961,380.451,520.284,558.682,762.4l-5.443,7.5" transform="translate(1297.422 6.826)" fill="#f6732f"/>
              <path id="Path_43" data-name="Path 43" d="M567.658,790.086C387.223,537.818,181.067,250.084,0,.039L.028,0c181.292,249.315,390.4,533.838,573.3,782.271Z" transform="translate(1282.888 6.826)" fill="#f6732f"/>
              <path id="Path_44" data-name="Path 44" d="M582.092,810.251C397.1,551.5,185.664,256.475,0,.038L.029,0C185.956,255.643,400.365,547.454,587.963,802.161l-5.871,8.09" transform="translate(1268.355 6.826)" fill="#f6732f"/>
              <path id="Path_45" data-name="Path 45" d="M596.511,830.436C406.945,565.231,190.268,262.858,0,.039L.029,0c190.554,261.982,410.3,561.026,602.582,822.033l-6.1,8.4" transform="translate(1253.821 6.826)" fill="#f6732f"/>
              <path id="Path_46" data-name="Path 46" d="M610.931,850.621C416.787,578.964,194.872,269.24,0,.038L.029,0C195.211,268.322,420.3,574.594,617.257,841.9l-6.326,8.718" transform="translate(1239.287 6.826)" fill="#f6732f"/>
              <path id="Path_47" data-name="Path 47" d="M625.351,870.806C426.616,592.713,199.494,275.6,0,.039L.028,0C199.82,274.686,430.282,588.145,631.905,861.775l-6.555,9.032" transform="translate(1224.754 6.826)" fill="#f6732f"/>
              <path id="Path_48" data-name="Path 48" d="M639.77,890.991C437.275,607.6,203.408,281.023,0,.039L.029,0c147.307,202.581,335.78,459.455,484.543,661.716L646.551,881.645Z" transform="translate(1210.221 6.826)" fill="#f6732f"/>
              <path id="Path_49" data-name="Path 49" d="M654.16,911.215C446.3,620.179,208.711,288.35,0,.039L.029,0c209.037,287.377,450.191,615.28,661.2,901.476l-7.066,9.739" transform="translate(1195.689 6.826)" fill="#f6732f"/>
              <path id="Path_50" data-name="Path 50" d="M661.384,921.288C447.449,621.886,214.573,296.38,0,.039L.029,0C214.835,295.377,451.519,616.947,668.537,911.431l-7.153,9.857" transform="translate(1181.133 6.798)" fill="#f6732f"/>
              <path id="Path_51" data-name="Path 51" d="M661.384,921.288C451.189,627.085,211.026,291.523,0,.039L.029,0C211.367,290.565,455.234,622.023,668.537,911.431l-7.153,9.857" transform="translate(1166.6 6.798)" fill="#f6732f"/>
              <path id="Path_52" data-name="Path 52" d="M661.383,921.288C451.189,627.085,211.026,291.523,0,.039L.028,0C211.366,290.565,455.233,622.023,668.536,911.431l-7.153,9.857" transform="translate(1152.068 6.798)" fill="#f6732f"/>
              <path id="Path_53" data-name="Path 53" d="M663.829,924.656C453.724,630.553,211.092,291.593,0,.039L.029,0C152.862,210.254,348.5,476.723,502.869,686.616L670.981,914.8l-7.153,9.857" transform="translate(1135.089 3.429)" fill="#f6732f"/>
              <path id="Path_54" data-name="Path 54" d="M663.829,924.656C453.724,630.553,211.092,291.593,0,.039L.029,0C152.862,210.256,348.5,476.723,502.869,686.616L670.981,914.8Z" transform="translate(1120.555 3.429)" fill="#f6732f"/>
              <path id="Path_55" data-name="Path 55" d="M663.829,924.656C453.724,630.553,211.092,291.593,0,.039L.029,0C152.862,210.256,348.5,476.723,502.869,686.616L670.982,914.8l-7.153,9.857" transform="translate(1106.022 3.429)" fill="#f6732f"/>
              <path id="Path_56" data-name="Path 56" d="M663.829,924.656C452.863,629.369,211.817,292.574,0,.039L.029,0c212.1,291.653,456.864,624.33,670.953,914.8l-7.153,9.857" transform="translate(1091.489 3.429)" fill="#f6732f"/>
              <path id="Path_57" data-name="Path 57" d="M663.829,924.656C452.863,629.37,211.817,292.574,0,.039L.029,0c212.1,291.653,456.864,624.33,670.953,914.8l-7.153,9.857" transform="translate(1076.956 3.429)" fill="#f6732f"/>
              <path id="Path_58" data-name="Path 58" d="M663.829,924.656C452.863,629.369,211.817,292.574,0,.039L.029,0c212.1,291.653,456.864,624.33,670.953,914.8l-7.153,9.857" transform="translate(1062.422 3.429)" fill="#f6732f"/>
              <path id="Path_59" data-name="Path 59" d="M663.829,924.656C453.737,630.536,211.067,291.629,0,.039L.029,0C152.89,210.216,348.493,476.738,502.869,686.616L670.982,914.8Z" transform="translate(1047.889 3.429)" fill="#f6732f"/>
              <path id="Path_60" data-name="Path 60" d="M663.829,924.656C450.9,626.6,213.757,295.315,0,.039L.029,0c157.88,217.121,343.384,469.819,502.841,686.616L670.982,914.8Z" transform="translate(1033.355 3.429)" fill="#f6732f"/>
              <path id="Path_61" data-name="Path 61" d="M663.829,924.656C450.9,626.6,213.756,295.315,0,.039L.029,0C157.907,217.121,343.412,469.819,502.869,686.616L670.982,914.8Z" transform="translate(1018.822 3.429)" fill="#f6732f"/>
              <path id="Path_62" data-name="Path 62" d="M663.829,924.656C450.9,626.6,213.756,295.315,0,.039L.029,0c157.879,217.121,343.383,469.819,502.84,686.616L670.982,914.8Z" transform="translate(1004.289 3.429)" fill="#f6732f"/>
              <path id="Path_63" data-name="Path 63" d="M663.829,924.656C453.735,630.538,211.057,291.642,0,.039L.029,0c152.863,210.213,348.478,476.718,502.84,686.616L670.982,914.8Z" transform="translate(989.756 3.429)" fill="#f6732f"/>
              <path id="Path_64" data-name="Path 64" d="M663.829,924.656C453.735,630.538,211.057,291.642,0,.039L.029,0c152.863,210.213,348.478,476.719,502.84,686.616L670.982,914.8Z" transform="translate(975.222 3.429)" fill="#f6732f"/>
              <path id="Path_65" data-name="Path 65" d="M663.829,924.656C453.735,630.538,211.057,291.642,0,.039L.029,0c152.863,210.213,348.478,476.718,502.84,686.616L670.982,914.8Z" transform="translate(960.688 3.429)" fill="#f6732f"/>
              <path id="Path_66" data-name="Path 66" d="M663.829,924.656C453.735,630.538,211.057,291.642,0,.039L.029,0c152.863,210.213,348.478,476.718,502.84,686.616L670.982,914.8Z" transform="translate(946.155 3.429)" fill="#f6732f"/>
              <path id="Path_67" data-name="Path 67" d="M663.829,924.656C453.735,630.538,211.057,291.642,0,.039L.029,0c152.863,210.213,348.478,476.718,502.84,686.616L670.982,914.8Z" transform="translate(931.622 3.429)" fill="#f6732f"/>
              <path id="Path_68" data-name="Path 68" d="M663.829,924.656C453.735,630.538,211.057,291.642,0,.039L.029,0c152.863,210.213,348.478,476.718,502.84,686.616L670.982,914.8Z" transform="translate(917.089 3.429)" fill="#f6732f"/>
              <path id="Path_69" data-name="Path 69" d="M663.829,924.656C453.731,630.542,211.053,291.648,0,.039L.029,0c152.86,210.217,348.49,476.7,502.84,686.616L670.982,914.8Z" transform="translate(902.556 3.429)" fill="#f6732f"/>
              <path id="Path_70" data-name="Path 70" d="M663.829,924.656C453.735,630.538,211.057,291.642,0,.039L.029,0c152.863,210.213,348.478,476.718,502.84,686.616L670.982,914.8Z" transform="translate(888.023 3.429)" fill="#f6732f"/>
              <path id="Path_71" data-name="Path 71" d="M663.829,924.656C452.865,629.367,211.8,292.6,0,.039L.029,0C212.15,291.624,456.891,624.333,670.982,914.8l-7.153,9.857" transform="translate(873.489 3.429)" fill="#f6732f"/>
              <path id="Path_72" data-name="Path 72" d="M663.829,924.656C449.111,624.147,215.364,297.466,0,.039L.029,0C215.623,296.465,453.162,619.239,670.982,914.8l-7.153,9.857" transform="translate(858.955 3.429)" fill="#f6732f"/>
              <path id="Path_73" data-name="Path 73" d="M663.829,924.656C449.111,624.147,215.364,297.466,0,.039L.029,0C215.623,296.465,453.161,619.239,670.982,914.8l-7.153,9.857" transform="translate(844.422 3.429)" fill="#f6732f"/>
              <path id="Path_74" data-name="Path 74" d="M663.829,924.656C452.865,629.367,211.8,292.6,0,.039L.029,0C212.15,291.624,456.891,624.333,670.982,914.8l-7.153,9.857" transform="translate(829.889 3.429)" fill="#f6732f"/>
              <path id="Path_75" data-name="Path 75" d="M663.829,924.656C452.856,629.38,211.8,292.6,0,.039L.029,0C212.146,291.629,456.9,624.32,670.982,914.8l-7.153,9.857" transform="translate(815.356 3.429)" fill="#f6732f"/>
              <path id="Path_76" data-name="Path 76" d="M663.828,924.656C452.8,629.457,211.824,292.563,0,.039L.028,0C212.119,291.665,456.956,624.241,670.981,914.8l-7.153,9.857" transform="translate(800.823 3.429)" fill="#f6732f"/>
              <path id="Path_77" data-name="Path 77" d="M663.814,924.676C452.851,629.387,211.8,292.592,0,.039L.029,0C212.142,291.636,456.905,624.313,671,914.781l-7.182,9.9" transform="translate(786.289 3.428)" fill="#f6732f"/>
              <path id="Path_78" data-name="Path 78" d="M663.814,924.676C452.851,629.387,211.8,292.592,0,.039L.029,0C212.142,291.636,456.905,624.313,671,914.781l-7.182,9.9" transform="translate(771.755 3.428)" fill="#f6732f"/>
              <path id="Path_79" data-name="Path 79" d="M663.814,924.676C452.851,629.387,211.8,292.592,0,.039L.029,0C212.142,291.636,456.905,624.313,671,914.781l-7.182,9.9" transform="translate(757.222 3.428)" fill="#f6732f"/>
              <path id="Path_80" data-name="Path 80" d="M666.3,928.1C455.416,632.9,211.88,292.679,0,.039L.029,0C153.435,211.033,349.794,478.512,504.744,689.173L673.483,918.207Z" transform="translate(740.202)" fill="#f6732f"/>
              <path id="Path_81" data-name="Path 81" d="M666.3,928.1C455.416,632.9,211.88,292.679,0,.039L.029,0C153.435,211.033,349.794,478.512,504.744,689.173L673.483,918.207Z" transform="translate(725.668)" fill="#f6732f"/>
              <path id="Path_82" data-name="Path 82" d="M666.3,928.1C455.416,632.9,211.88,292.679,0,.039L.029,0C153.435,211.033,349.794,478.512,504.744,689.173L673.483,918.207Z" transform="translate(711.135)" fill="#f6732f"/>
              <path id="Path_83" data-name="Path 83" d="M666.3,928.1C455.426,632.888,211.864,292.7,0,.039L.029,0C153.454,211.007,349.784,478.526,504.744,689.173L673.483,918.207Z" transform="translate(696.601)" fill="#f6732f"/>
              <path id="Path_84" data-name="Path 84" d="M666.3,928.1C455.426,632.888,211.864,292.7,0,.039L.029,0C153.454,211.007,349.784,478.526,504.744,689.173L673.483,918.207Z" transform="translate(682.068)" fill="#f6732f"/>
              <path id="Path_85" data-name="Path 85" d="M666.3,928.1C455.428,632.885,211.858,292.709,0,.039L.029,0C153.46,211,349.783,478.527,504.744,689.173L673.483,918.207Z" transform="translate(667.535)" fill="#f6732f"/>
              <path id="Path_86" data-name="Path 86" d="M666.3,928.1C455.428,632.885,211.858,292.709,0,.039L.029,0C153.46,211,349.783,478.527,504.744,689.173L673.483,918.207Z" transform="translate(653.002)" fill="#f6732f"/>
              <path id="Path_87" data-name="Path 87" d="M666.3,928.1C455.428,632.885,211.858,292.709,0,.039L.029,0C153.46,211,349.784,478.527,504.745,689.173L673.483,918.207Z" transform="translate(638.468)" fill="#f6732f"/>
              <path id="Path_88" data-name="Path 88" d="M666.3,928.1C455.428,632.885,211.858,292.709,0,.039L.029,0C153.46,211,349.783,478.527,504.744,689.173L673.483,918.207Z" transform="translate(623.934)" fill="#f6732f"/>
              <path id="Path_89" data-name="Path 89" d="M666.3,928.1C455.428,632.885,211.858,292.709,0,.039L.029,0C153.46,211,349.783,478.527,504.744,689.173L673.483,918.207Z" transform="translate(609.401)" fill="#f6732f"/>
              <path id="Path_90" data-name="Path 90" d="M666.3,928.1C455.428,632.885,211.858,292.709,0,.039L.029,0C153.46,211,349.783,478.527,504.744,689.173L673.483,918.207Z" transform="translate(594.868)" fill="#f6732f"/>
              <path id="Path_91" data-name="Path 91" d="M666.3,928.1C455.428,632.885,211.858,292.709,0,.039L.029,0C153.46,211,349.783,478.527,504.744,689.173L673.483,918.207Z" transform="translate(580.335)" fill="#f6732f"/>
              <path id="Path_92" data-name="Path 92" d="M666.3,928.1C455.428,632.885,211.858,292.709,0,.039L.029,0C153.46,211,349.783,478.527,504.744,689.173L673.483,918.207Z" transform="translate(565.802)" fill="#f6732f"/>
              <path id="Path_93" data-name="Path 93" d="M666.3,928.1C455.428,632.885,211.858,292.709,0,.039L.029,0C153.46,211,349.783,478.527,504.744,689.173L673.483,918.207Z" transform="translate(551.269)" fill="#f6732f"/>
              <path id="Path_94" data-name="Path 94" d="M666.3,928.1C455.428,632.885,211.858,292.709,0,.039L.029,0C153.459,211,349.782,478.527,504.743,689.173L673.483,918.207Z" transform="translate(536.735)" fill="#f6732f"/>
              <path id="Path_95" data-name="Path 95" d="M666.3,928.1C455.428,632.885,211.858,292.709,0,.039L.029,0C153.46,211,349.784,478.526,504.744,689.173L673.483,918.207Z" transform="translate(522.201)" fill="#f6732f"/>
              <path id="Path_96" data-name="Path 96" d="M666.3,928.1C455.428,632.885,211.858,292.709,0,.039L.029,0C153.46,211,349.783,478.526,504.744,689.173L673.483,918.207Z" transform="translate(507.668)" fill="#f6732f"/>
              <path id="Path_97" data-name="Path 97" d="M666.3,928.1C455.428,632.885,211.858,292.709,0,.039L.029,0C153.46,211,349.783,478.527,504.744,689.173L673.483,918.207Z" transform="translate(493.135)" fill="#f6732f"/>
              <path id="Path_98" data-name="Path 98" d="M666.3,928.1C454.556,631.708,212.6,293.675,0,.039L.029,0c212.9,292.73,458.562,626.664,673.455,918.207l-7.181,9.9" transform="translate(478.602)" fill="#f6732f"/>
              <path id="Path_99" data-name="Path 99" d="M666.3,928.1C454.556,631.708,212.6,293.675,0,.039L.029,0c212.9,292.73,458.562,626.663,673.455,918.207Z" transform="translate(464.069)" fill="#f6732f"/>
              <path id="Path_100" data-name="Path 100" d="M666.3,928.1C454.556,631.708,212.6,293.675,0,.039L.029,0c212.9,292.73,458.562,626.664,673.455,918.207l-7.181,9.9" transform="translate(449.535)" fill="#f6732f"/>
              <path id="Path_101" data-name="Path 101" d="M666.3,928.1C454.546,631.722,212.589,293.687,0,.039L.029,0C212.936,292.717,458.6,626.651,673.483,918.207l-7.181,9.9" transform="translate(435.001)" fill="#f6732f"/>
              <path id="Path_102" data-name="Path 102" d="M666.3,928.1C454.536,631.735,212.593,293.681,0,.039L.029,0c212.9,292.723,458.581,626.637,673.455,918.207l-7.181,9.9" transform="translate(420.468)" fill="#f6732f"/>
              <path id="Path_103" data-name="Path 103" d="M666.3,928.1C454.48,631.812,212.619,293.647,0,.039L.029,0C212.907,292.757,458.666,626.559,673.483,918.207l-7.182,9.9" transform="translate(405.935)" fill="#f6732f"/>
              <path id="Path_104" data-name="Path 104" d="M666.288,928.124C454.531,631.742,212.6,293.677,0,.039L.029,0C212.928,292.729,458.615,626.63,673.5,918.189Z" transform="translate(391.402)" fill="#f6732f"/>
              <path id="Path_105" data-name="Path 105" d="M666.287,928.124C454.531,631.742,212.6,293.677,0,.039L.028,0C212.928,292.729,458.615,626.63,673.5,918.189l-7.209,9.935" transform="translate(376.869)" fill="#f6732f"/>
              <path id="Path_106" data-name="Path 106" d="M666.287,928.124C454.531,631.742,212.6,293.677,0,.039L.029,0C212.928,292.729,458.615,626.63,673.5,918.189l-7.21,9.935" transform="translate(362.335)" fill="#f6732f"/>
              <path id="Path_107" data-name="Path 107" d="M666.288,928.124C451.048,626.833,216.276,298.809,0,.039L.029,0C216.716,297.885,454.99,621.746,673.5,918.189l-7.21,9.935" transform="translate(347.801)" fill="#f6732f"/>
              <path id="Path_108" data-name="Path 108" d="M666.288,928.124C454.531,631.742,212.6,293.677,0,.039L.029,0C212.928,292.729,458.615,626.63,673.5,918.189l-7.21,9.935" transform="translate(333.268)" fill="#f6732f"/>
              <path id="Path_109" data-name="Path 109" d="M666.288,928.124C454.531,631.742,212.6,293.677,0,.039L.028,0C212.927,292.729,458.615,626.63,673.5,918.189l-7.209,9.935" transform="translate(318.735)" fill="#f6732f"/>
              <path id="Path_110" data-name="Path 110" d="M666.288,928.124C454.531,631.742,212.6,293.677,0,.039L.029,0C212.927,292.729,458.615,626.63,673.5,918.189l-7.21,9.935" transform="translate(304.202)" fill="#f6732f"/>
              <path id="Path_111" data-name="Path 111" d="M666.288,928.124C454.53,631.742,212.6,293.677,0,.039L.029,0C212.928,292.729,458.615,626.63,673.5,918.189Z" transform="translate(289.669)" fill="#f6732f"/>
              <path id="Path_112" data-name="Path 112" d="M666.288,928.124C454.531,631.742,212.6,293.677,0,.039L.028,0C212.928,292.729,458.615,626.63,673.5,918.189l-7.209,9.935" transform="translate(275.135)" fill="#f6732f"/>
              <path id="Path_113" data-name="Path 113" d="M666.288,928.124C451.7,627.794,215.286,297.358,0,.039L.029,0C215.557,296.376,455.8,622.791,673.5,918.189l-7.21,9.935" transform="translate(260.602)" fill="#f6732f"/>
              <path id="Path_114" data-name="Path 114" d="M666.288,928.124C454.533,631.739,212.589,293.687,0,.039L.029,0C212.935,292.718,458.612,626.633,673.5,918.189l-7.21,9.935" transform="translate(246.068)" fill="#f6732f"/>
              <path id="Path_115" data-name="Path 115" d="M666.288,928.124C454.533,631.739,212.589,293.687,0,.039L.029,0C212.936,292.718,458.612,626.633,673.5,918.189l-7.21,9.935" transform="translate(231.535)" fill="#f6732f"/>
              <path id="Path_116" data-name="Path 116" d="M666.287,928.124C454.533,631.739,212.589,293.687,0,.039L.028,0C212.936,292.718,458.613,626.633,673.5,918.189l-7.209,9.935" transform="translate(217.002)" fill="#f6732f"/>
              <path id="Path_117" data-name="Path 117" d="M666.287,928.124C454.533,631.739,212.59,293.687,0,.039L.029,0C212.936,292.718,458.612,626.633,673.5,918.189l-7.21,9.935" transform="translate(202.468)" fill="#f6732f"/>
              <path id="Path_118" data-name="Path 118" d="M666.288,928.124C454.533,631.739,212.589,293.687,0,.039L.029,0C212.936,292.718,458.612,626.633,673.5,918.189l-7.21,9.935" transform="translate(187.935)" fill="#f6732f"/>
              <path id="Path_119" data-name="Path 119" d="M666.288,928.124C454.533,631.739,212.589,293.687,0,.039L.028,0C212.936,292.718,458.612,626.633,673.5,918.189l-7.209,9.935" transform="translate(173.402)" fill="#f6732f"/>
              <path id="Path_120" data-name="Path 120" d="M666.288,928.124C454.533,631.739,212.589,293.687,0,.039L.029,0C212.936,292.718,458.613,626.633,673.5,918.189l-7.21,9.935" transform="translate(158.868)" fill="#f6732f"/>
              <path id="Path_121" data-name="Path 121" d="M666.288,928.124C454.533,631.739,212.589,293.687,0,.039L.029,0C212.936,292.718,458.612,626.633,673.5,918.189l-7.21,9.935" transform="translate(144.335)" fill="#f6732f"/>
              <path id="Path_122" data-name="Path 122" d="M666.288,928.124C454.533,631.739,212.589,293.687,0,.039L.029,0C212.936,292.718,458.612,626.633,673.5,918.189l-7.21,9.935" transform="translate(129.802)" fill="#f6732f"/>
              <path id="Path_123" data-name="Path 123" d="M666.288,928.124C454.533,631.739,212.59,293.687,0,.039L.029,0C212.936,292.718,458.612,626.633,673.5,918.189l-7.21,9.935" transform="translate(115.268)" fill="#f6732f"/>
              <path id="Path_124" data-name="Path 124" d="M666.288,928.124C454.533,631.739,212.589,293.688,0,.039L.029,0C212.936,292.717,458.613,626.633,673.5,918.189l-7.21,9.935" transform="translate(100.735)" fill="#f6732f"/>
              <path id="Path_125" data-name="Path 125" d="M666.288,928.124C454.533,631.739,212.589,293.688,0,.039L.029,0C212.936,292.717,458.613,626.633,673.5,918.189l-7.21,9.935" transform="translate(86.202)" fill="#f6732f"/>
              <path id="Path_126" data-name="Path 126" d="M666.288,928.124C454.533,631.739,212.589,293.688,0,.039L.029,0C212.936,292.717,458.613,626.633,673.5,918.189l-7.21,9.935" transform="translate(71.668)" fill="#f6732f"/>
              <path id="Path_127" data-name="Path 127" d="M666.288,928.124C454.533,631.739,212.59,293.688,0,.039L.029,0C212.936,292.717,458.613,626.633,673.5,918.189l-7.21,9.935" transform="translate(57.135)" fill="#f6732f"/>
              <path id="Path_128" data-name="Path 128" d="M666.287,928.124C454.533,631.739,212.589,293.688,0,.039L.029,0C212.936,292.717,458.613,626.633,673.5,918.189l-7.209,9.935" transform="translate(42.602)" fill="#f6732f"/>
              <path id="Path_129" data-name="Path 129" d="M666.288,928.124C454.528,631.747,212.584,293.694,0,.039L.028,0C212.941,292.71,458.618,626.625,673.5,918.189l-7.21,9.935" transform="translate(28.068)" fill="#f6732f"/>
              <path id="Path_130" data-name="Path 130" d="M666.288,928.124C454.531,631.742,212.587,293.691,0,.039L.029,0C212.938,292.713,458.615,626.63,673.5,918.189l-7.21,9.935" transform="translate(13.535)" fill="#f6732f"/>
              <path id="Path_131" data-name="Path 131" d="M661.713,921.82C451.412,627.45,211.094,291.742,0,.039L.029,0c211.5,290.659,455.47,622.329,668.894,911.885l-7.21,9.935" transform="translate(3.576 6.304)" fill="#f6732f"/>
              <path id="Path_132" data-name="Path 132" d="M647.18,901.83C444.954,618.547,203.482,281.619,0,.078L.057,0C204.368,280.426,448.863,613.189,654.418,891.856l-7.239,9.974" transform="translate(3.562 26.313)" fill="#f6732f"/>
              <path id="Path_133" data-name="Path 133" d="M632.674,881.842C431.592,600.29,201.755,279.275,0,.157L.114,0c202.373,277.8,435.669,595.005,639.8,871.868l-7.238,9.974" transform="translate(3.534 46.302)" fill="#f6732f"/>
              <path id="Path_134" data-name="Path 134" d="M618.17,861.854C424.981,591.219,194.3,269.33,0,.236L.171,0c195.28,267.771,428.86,585.666,625.237,851.879l-7.239,9.974" transform="translate(3.505 66.29)" fill="#f6732f"/>
              <path id="Path_135" data-name="Path 135" d="M603.68,841.884C412.567,574.271,191.806,265.928,0,.353L.257,0c139.22,191.038,317.244,433.411,457.7,624.344L610.917,831.91Z" transform="translate(3.462 86.259)" fill="#f6732f"/>
              <path id="Path_136" data-name="Path 136" d="M589.174,821.9C405.011,563.922,185.143,257.044,0,.432L.313,0c186.221,255.154,408.909,558.144,596.1,811.922l-7.238,9.974" transform="translate(3.434 106.248)" fill="#f6732f"/>
              <path id="Path_137" data-name="Path 137" d="M574.684,801.926C395.032,550.287,180.578,250.9,0,.549L.4,0C182.079,248.861,399.328,544.391,581.923,791.952l-7.239,9.974" transform="translate(3.391 126.217)" fill="#f6732f"/>
              <path id="Path_138" data-name="Path 138" d="M560.193,781.958C379.838,529.313,181.927,253.009,0,.668L.484,0C183.8,250.982,383.9,523.171,567.431,771.983l-7.238,9.974" transform="translate(3.349 146.186)" fill="#f6732f"/>
              <path id="Path_139" data-name="Path 139" d="M545.7,761.989C375.079,523.008,171.43,238.646,0,.786L.57,0c172.612,236.255,378.961,516.9,552.37,752.015l-7.238,9.974" transform="translate(3.306 166.154)" fill="#f6732f"/>
              <path id="Path_140" data-name="Path 140" d="M531.227,742.039C365.115,509.391,166.882,232.523,0,.943L.685,0C168.74,229.985,369.651,503.162,538.465,732.065l-7.238,9.974" transform="translate(3.248 186.104)" fill="#f6732f"/>
              <path id="Path_141" data-name="Path 141" d="M516.75,722.09C355.149,495.773,162.331,226.4,0,1.1L.8,0c163.5,223.715,358.971,489.429,523.19,712.115Z" transform="translate(3.191 206.054)" fill="#f6732f"/>
              <path id="Path_142" data-name="Path 142" d="M502.26,702.121C360,503,141.218,197.215,0,1.218L.884,0C142.5,193.782,365.674,497.01,509.5,692.148l-7.24,9.973" transform="translate(3.148 226.022)" fill="#f6732f"/>
              <path id="Path_143" data-name="Path 143" d="M487.783,682.171C349.627,488.759,137.115,191.792,0,1.374L1,0C138.587,188.152,355.32,482.688,495.023,672.2l-7.24,9.973" transform="translate(3.092 245.972)" fill="#f6732f"/>
              <path id="Path_144" data-name="Path 144" d="M473.307,662.222C339.249,474.526,133.026,186.354,0,1.531L1.112,0C134.658,182.54,344.973,468.361,480.547,652.249Z" transform="translate(3.035 265.921)" fill="#f6732f"/>
              <path id="Path_145" data-name="Path 145" d="M458.845,642.292C328.88,460.317,128.959,180.923,0,1.728L1.254,0c129.481,176.959,333.389,454.045,464.83,632.319l-7.239,9.973" transform="translate(2.964 285.851)" fill="#f6732f"/>
              <path id="Path_146" data-name="Path 146" d="M444.368,622.344C318.492,446.1,124.868,175.486,0,1.885L1.367,0C126.8,171.347,324.3,439.7,451.607,612.37l-7.239,9.973" transform="translate(2.907 305.8)" fill="#f6732f"/>
              <path id="Path_147" data-name="Path 147" d="M429.907,602.414C322.941,452.529,107.312,151.424,0,2.081L1.511,0c108.4,147.92,326.9,445.066,435.635,592.439l-7.239,9.974" transform="translate(2.834 325.73)" fill="#f6732f"/>
              <path id="Path_148" data-name="Path 148" d="M415.445,582.485C312.068,437.636,103.693,146.626,0,2.278L1.654,0C106.425,142.933,317.6,430.083,422.684,572.51l-7.239,9.974" transform="translate(2.763 345.659)" fill="#f6732f"/>
              <path id="Path_149" data-name="Path 149" d="M400.982,562.554C301.2,422.743,100.075,141.826,0,2.473L1.8,0c101.145,137.945,305,415.1,406.426,552.58l-7.239,9.974" transform="translate(2.693 365.589)" fill="#f6732f"/>
              <path id="Path_150" data-name="Path 150" d="M386.521,542.624C290.325,407.849,96.457,137.027,0,2.669L1.939,0C99.458,132.958,295.985,400.115,393.76,532.65Z" transform="translate(2.621 385.519)" fill="#f6732f"/>
              <path id="Path_151" data-name="Path 151" d="M372.058,522.7C279.453,392.956,92.838,132.229,0,2.867L2.081,0C95.974,127.971,285.176,385.132,379.3,512.721Z" transform="translate(2.55 405.448)" fill="#f6732f"/>
              <path id="Path_152" data-name="Path 152" d="M357.61,502.785C268.6,378.077,89.23,127.455,0,3.1L2.252,0c90.257,123,272.126,370.173,362.6,492.81l-7.239,9.974" transform="translate(2.464 425.359)" fill="#f6732f"/>
              <path id="Path_153" data-name="Path 153" d="M343.162,482.874C257.743,363.2,85.622,122.68,0,3.337L2.422,0C89.043,118.024,263.58,355.213,350.4,472.9Z" transform="translate(2.379 445.269)" fill="#f6732f"/>
              <path id="Path_154" data-name="Path 154" d="M328.715,462.964C246.889,348.32,82.014,117.906,0,3.573L2.594,0c82.985,113.051,250.189,340.254,333.36,452.99l-7.239,9.974" transform="translate(2.293 465.179)" fill="#f6732f"/>
              <path id="Path_155" data-name="Path 155" d="M314.267,443.055C236.034,333.442,78.407,113.133,0,3.809L2.765,0c79.349,108.078,239.22,325.295,318.741,433.08Z" transform="translate(2.208 485.089)" fill="#f6732f"/>
              <path id="Path_156" data-name="Path 156" d="M299.8,423.125C225.159,318.551,74.785,108.337,0,4.006L2.907,0C78.633,103.087,231.18,310.307,307.043,413.15l-7.239,9.974" transform="translate(2.137 505.019)" fill="#f6732f"/>
              <path id="Path_157" data-name="Path 157" d="M285.357,403.214C214.3,303.68,71.173,103.57,0,4.24L3.078,0C75.174,98.106,220.387,295.341,292.6,393.24l-7.239,9.974" transform="translate(2.051 524.929)" fill="#f6732f"/>
              <path id="Path_158" data-name="Path 158" d="M270.923,383.325,0,4.516,3.277,0,278.161,373.35Z" transform="translate(1.952 544.819)" fill="#f6732f"/>
              <path id="Path_159" data-name="Path 159" d="M256.461,363.434,0,4.752,3.448,0,263.728,353.42Z" transform="translate(1.866 564.729)" fill="#f6732f"/>
              <path id="Path_160" data-name="Path 160" d="M242.027,343.543,0,5.026,3.648,0,249.294,333.53Z" transform="translate(1.767 584.62)" fill="#f6732f"/>
              <path id="Path_161" data-name="Path 161" d="M227.594,323.653,0,5.3,3.847,0,234.86,313.639Z" transform="translate(1.667 604.51)" fill="#f6732f"/>
              <path id="Path_162" data-name="Path 162" d="M213.146,303.743,0,5.538,4.018,0,220.412,293.73Z" transform="translate(1.582 624.42)" fill="#f6732f"/>
              <path id="Path_163" data-name="Path 163" d="M198.713,283.853,0,5.812,4.218,0,205.979,273.839Z" transform="translate(1.482 644.31)" fill="#f6732f"/>
              <path id="Path_164" data-name="Path 164" d="M184.293,263.982,0,6.127,4.446,0,191.56,253.968Z" transform="translate(1.368 664.181)" fill="#f6732f"/>
              <path id="Path_165" data-name="Path 165" d="M169.859,244.091,0,6.4,4.645,0,177.126,234.077Z" transform="translate(1.268 684.072)" fill="#f6732f"/>
              <path id="Path_166" data-name="Path 166" d="M155.426,224.2,0,6.676,4.844,0,162.692,214.187Z" transform="translate(1.169 703.963)" fill="#f6732f"/>
              <path id="Path_167" data-name="Path 167" d="M141.006,204.33,0,6.989,5.072,0l143.2,194.316Z" transform="translate(1.055 723.834)" fill="#f6732f"/>
              <path id="Path_168" data-name="Path 168" d="M126.587,184.46,0,7.3,5.3,0,133.853,174.446Z" transform="translate(0.941 743.703)" fill="#f6732f"/>
              <path id="Path_169" data-name="Path 169" d="M112.139,164.549,0,7.54,5.471,0,119.406,154.535Z" transform="translate(0.855 763.614)" fill="#f6732f"/>
              <path id="Path_170" data-name="Path 170" d="M97.734,144.7,0,7.894,5.728,0,105,134.684Z" transform="translate(0.727 783.465)" fill="#f6732f"/>
              <path id="Path_171" data-name="Path 171" d="M83.3,124.807,0,8.168,5.927,0l84.64,114.794Z" transform="translate(0.627 803.356)" fill="#f6732f"/>
              <path id="Path_172" data-name="Path 172" d="M68.9,104.956,0,8.522,6.184,0,76.162,94.942Z" transform="translate(0.499 823.207)" fill="#f6732f"/>
              <path id="Path_173" data-name="Path 173" d="M54.476,85.085,0,8.835,6.411,0,61.743,75.072Z" transform="translate(0.385 843.078)" fill="#f6732f"/>
              <path id="Path_174" data-name="Path 174" d="M40.057,65.214,0,9.15,6.64,0,47.323,55.2Z" transform="translate(0.271 862.949)" fill="#f6732f"/>
              <path id="Path_175" data-name="Path 175" d="M25.623,45.324,0,9.424,6.839,0,32.889,35.31Z" transform="translate(0.171 882.839)" fill="#f6732f"/>
              <path id="Path_176" data-name="Path 176" d="M11.232,25.492,0,9.818,7.124,0,18.5,15.478Z" transform="translate(0.029 902.671)" fill="#f6732f"/>
              <path id="Path_177" data-name="Path 177" d="M0,15.46,11.389,0l6.982,9.621L7.153,25.317Z" transform="translate(1838.502 902.768)" fill="#f6732f"/>
              <path id="Path_178" data-name="Path 178" d="M0,35.311,26.051,0l6.725,9.268L7.153,45.168Z" transform="translate(1823.969 882.917)" fill="#f6732f"/>
              <path id="Path_179" data-name="Path 179" d="M0,55.2,30.523,13.813,40.684,0,47.21,8.992,37.186,23C30.823,31.908,13.73,55.845,7.153,65.058L0,55.2" transform="translate(1809.435 863.028)" fill="#f6732f"/>
              <path id="Path_180" data-name="Path 180" d="M0,75.052,55.345,0l6.269,8.639L7.153,84.909Z" transform="translate(1794.902 843.176)" fill="#f6732f"/>
              <path id="Path_181" data-name="Path 181" d="M0,94.923,69.992,0l6.042,8.326L7.153,104.78Z" transform="translate(1780.368 823.305)" fill="#f6732f"/>
              <path id="Path_182" data-name="Path 182" d="M0,114.774,84.655,0l5.784,7.972L7.153,124.631Z" transform="translate(1765.835 803.454)" fill="#f6732f"/>
              <path id="Path_183" data-name="Path 183" d="M0,134.684,99.273,0l5.614,7.736L7.153,144.541Z" transform="translate(1751.302 783.544)" fill="#f6732f"/>
              <path id="Path_184" data-name="Path 184" d="M0,154.555,113.92,0l5.385,7.422L7.153,164.412Z" transform="translate(1736.768 763.673)" fill="#f6732f"/>
              <path id="Path_185" data-name="Path 185" d="M0,174.425,128.567,0l5.158,7.108L7.153,184.282Z" transform="translate(1722.235 743.803)" fill="#f6732f"/>
              <path id="Path_186" data-name="Path 186" d="M0,194.3,143.215,0l4.929,6.793L7.153,204.153Z" transform="translate(1707.702 723.932)" fill="#f6732f"/>
              <path id="Path_187" data-name="Path 187" d="M0,214.187,157.848,0l4.731,6.519L7.153,224.044Z" transform="translate(1693.168 704.041)" fill="#f6732f"/>
              <path id="Path_188" data-name="Path 188" d="M0,234.058,172.5,0,177,6.2,7.153,243.915Z" transform="translate(1678.635 684.17)" fill="#f6732f"/>
              <path id="Path_189" data-name="Path 189" d="M0,253.948,187.128,0l4.3,5.93L7.153,263.805Z" transform="translate(1664.102 664.28)" fill="#f6732f"/>
              <path id="Path_190" data-name="Path 190" d="M0,273.858,201.747,0l4.132,5.695L7.153,283.716Z" transform="translate(1649.568 644.37)" fill="#f6732f"/>
              <path id="Path_191" data-name="Path 191" d="M0,293.748,216.38,0l3.933,5.419L7.153,303.605Z" transform="translate(1635.035 624.48)" fill="#f6732f"/>
              <path id="Path_192" data-name="Path 192" d="M0,313.639,231.013,0l3.733,5.145L7.153,323.5Z" transform="translate(1620.502 604.589)" fill="#f6732f"/>
              <path id="Path_193" data-name="Path 193" d="M0,333.529,245.647,0l3.533,4.869L7.153,343.387Z" transform="translate(1605.969 584.699)" fill="#f6732f"/>
              <path id="Path_194" data-name="Path 194" d="M0,353.42,260.279,0l3.334,4.6L7.153,363.277Z" transform="translate(1591.435 564.808)" fill="#f6732f"/>
              <path id="Path_195" data-name="Path 195" d="M0,373.331C68.572,280.355,206.45,93.1,274.9,0l3.164,4.36C210.484,98.707,74.605,288.718,7.152,383.188L0,373.331" transform="translate(1576.902 544.898)" fill="#f6732f"/>
              <path id="Path_196" data-name="Path 196" d="M0,393.241C72.228,295.32,217.439,98.081,289.518,0l2.992,4.124C221.318,103.475,78.194,303.591,7.152,403.1L0,393.241" transform="translate(1562.368 524.987)" fill="#f6732f"/>
              <path id="Path_197" data-name="Path 197" d="M0,413.15C75.849,310.236,228.392,103.011,304.137,0l2.821,3.888C232.188,108.291,81.816,318.51,7.152,423.007L0,413.15" transform="translate(1547.835 505.078)" fill="#f6732f"/>
              <path id="Path_198" data-name="Path 198" d="M0,433.06C90.445,310.246,229.517,121.618,318.755,0l2.65,3.651C233.527,126.1,95.863,318.857,7.152,442.918L0,433.06" transform="translate(1533.302 485.169)" fill="#f6732f"/>
              <path id="Path_199" data-name="Path 199" d="M0,452.97C94.6,324.527,240.041,127.207,333.374,0l2.479,3.417C243.936,131.487,99.928,333.06,7.152,462.828L0,452.97" transform="translate(1518.769 465.258)" fill="#f6732f"/>
              <path id="Path_200" data-name="Path 200" d="M0,472.88C98.766,338.81,250.565,132.8,347.992,0L350.3,3.181C254.345,136.871,103.993,347.262,7.152,482.738L0,472.88" transform="translate(1504.235 445.348)" fill="#f6732f"/>
              <path id="Path_201" data-name="Path 201" d="M0,492.81C102.928,353.114,261.089,138.4,362.6,0l2.167,2.985C264.755,142.273,108.056,361.483,7.152,502.669L0,492.81" transform="translate(1489.702 425.418)" fill="#f6732f"/>
              <path id="Path_202" data-name="Path 202" d="M0,512.74C107.083,367.405,271.632,144.038,377.2,0l2.023,2.788C275.146,147.65,112.128,375.713,7.152,522.6L0,512.74" transform="translate(1475.168 405.489)" fill="#f6732f"/>
              <path id="Path_203" data-name="Path 203" d="M0,532.67C111.241,381.7,282.166,149.66,391.806,0l1.881,2.593C285.547,153.04,116.2,389.938,7.152,542.528L0,532.67" transform="translate(1460.635 385.559)" fill="#f6732f"/>
              <path id="Path_204" data-name="Path 204" d="M0,552.56C115.411,395.978,292.707,155.253,406.439,0l1.709,2.357C295.967,158.419,120.282,404.149,7.181,562.458L0,552.56" transform="translate(1446.088 365.648)" fill="#f6732f"/>
              <path id="Path_205" data-name="Path 205" d="M0,572.489C119.571,410.279,303.236,160.868,421.044,0l1.567,2.16C306.371,163.815,124.347,418.371,7.181,582.387L0,572.489" transform="translate(1431.554 345.719)" fill="#f6732f"/>
              <path id="Path_206" data-name="Path 206" d="M0,592.42C108.761,445.009,327.266,147.867,435.649,0l1.425,1.964C329.745,151.356,114.126,452.477,7.181,602.317L0,592.42" transform="translate(1417.021 325.788)" fill="#f6732f"/>
              <path id="Path_207" data-name="Path 207" d="M0,612.368C127.885,438.89,324.286,172.107,450.239,0l1.31,1.807C327.189,174.637,132.484,446.845,7.18,622.266L0,612.368" transform="translate(1402.488 305.84)" fill="#f6732f"/>
              <path id="Path_208" data-name="Path 208" d="M0,632.3C132.044,453.189,334.807,177.71,464.843,0l1.169,1.61C337.6,180.044,136.552,461.071,7.181,642.2L0,632.3" transform="translate(1387.954 285.91)" fill="#f6732f"/>
              <path id="Path_209" data-name="Path 209" d="M0,652.248C136.2,467.5,345.336,183.346,479.434,0l1.054,1.454C348.007,185.462,140.627,475.326,7.181,662.146L0,652.248" transform="translate(1373.421 265.96)" fill="#f6732f"/>
              <path id="Path_210" data-name="Path 210" d="M0,672.2C140.346,481.8,355.865,188.98,494.023,0l.941,1.3C358.411,190.877,144.7,489.582,7.181,682.094L0,672.2" transform="translate(1358.887 246.012)" fill="#f6732f"/>
              <path id="Path_211" data-name="Path 211" d="M0,692.147C144.488,496.1,366.411,194.639,508.614,0l.827,1.139C368.8,196.269,148.788,503.85,7.181,702.044L0,692.147" transform="translate(1344.354 226.062)" fill="#f6732f"/>
              <path id="Path_212" data-name="Path 212" d="M0,712.1C148.644,510.412,376.924,200.252,523.2,0l.713.982C379.219,201.706,152.858,518.1,7.181,721.993L0,712.1" transform="translate(1329.821 206.113)" fill="#f6732f"/>
              <path id="Path_213" data-name="Path 213" d="M0,732.045C152.789,524.712,387.463,205.9,537.795,0l.6.825C389.614,207.108,156.938,532.362,7.181,741.943L0,732.045" transform="translate(1315.288 186.163)" fill="#f6732f"/>
              <path id="Path_214" data-name="Path 214" d="M0,752.014C178.612,509.893,373.933,244.179,552.371,0l.513.707C375.5,246.873,183.07,515.5,7.182,761.91L0,752.014" transform="translate(1300.754 166.195)" fill="#f6732f"/>
              <path id="Path_215" data-name="Path 215" d="M0,771.984C178.021,530.645,389.809,242.544,566.947,0l.427.59C391.362,244.71,182.3,536.569,7.181,781.88L0,771.984" transform="translate(1286.221 146.225)" fill="#f6732f"/>
              <path id="Path_216" data-name="Path 216" d="M0,791.952C182.6,544.369,399.858,248.855,581.523,0l.342.471C401.273,250.831,186.832,550.231,7.181,801.848L0,791.952" transform="translate(1271.688 126.257)" fill="#f6732f"/>
              <path id="Path_217" data-name="Path 217" d="M0,811.922C187.195,558.127,409.885,255.138,596.1,0l.256.354C411.205,256.982,191.34,563.864,7.181,821.818L0,811.922" transform="translate(1257.154 106.287)" fill="#f6732f"/>
              <path id="Path_218" data-name="Path 218" d="M0,831.91C191.783,571.887,419.94,261.477,610.661,0l.2.275c-189.753,262.838-415,577.254-603.68,841.531L0,831.91" transform="translate(1242.621 86.299)" fill="#f6732f"/>
              <path id="Path_219" data-name="Path 219" d="M0,851.9C203.168,576.3,423.987,276.218,625.223,0l.143.2C425.143,277.211,206.944,582.13,7.182,861.794L0,851.9" transform="translate(1228.087 66.311)" fill="#f6732f"/>
              <path id="Path_220" data-name="Path 220" d="M0,871.887C203.714,595.682,437.447,277.7,639.785,0l.085.118C438.39,278.9,207.555,601.132,7.182,881.784L0,871.887" transform="translate(1213.554 46.321)" fill="#f6732f"/>
              <path id="Path_221" data-name="Path 221" d="M0,891.9C210.914,605.8,445.35,287.164,654.332,0l.056.079C500.783,212.263,322.037,461.613,168.623,675.868L7.182,901.792Z" transform="translate(1199.021 26.313)" fill="#f6732f"/>
              <path id="Path_222" data-name="Path 222" d="M0,911.342C216.331,617.848,454.318,294.461,668.473,0l.029.039c-213.459,294.815-448.575,623.4-661.32,921.2L0,911.342" transform="translate(1184.488 6.867)" fill="#f6732f"/>
              <path id="Path_223" data-name="Path 223" d="M0,911.411C216.347,617.9,454.352,294.484,668.523,0l.029.039C455.076,294.876,219.942,623.488,7.181,921.307L0,911.411" transform="translate(1169.954 6.798)" fill="#f6732f"/>
              <path id="Path_224" data-name="Path 224" d="M0,911.411C218.951,614.278,451.614,298.288,668.522,0l.029.039C505.639,225.057,334.337,463.8,172.175,690.51L7.182,921.307Z" transform="translate(1155.421 6.798)" fill="#f6732f"/>
              <path id="Path_225" data-name="Path 225" d="M0,911.411C218.951,614.278,451.614,298.288,668.523,0l.029.039C505.639,225.057,334.337,463.8,172.175,690.51L7.181,921.307Z" transform="translate(1140.887 6.798)" fill="#f6732f"/>
              <path id="Path_226" data-name="Path 226" d="M0,911.411C218.951,614.278,451.614,298.288,668.523,0l.029.039C505.639,225.057,334.337,463.8,172.175,690.51L7.182,921.307Z" transform="translate(1126.354 6.798)" fill="#f6732f"/>
              <path id="Path_227" data-name="Path 227" d="M0,911.411C218.953,614.28,451.611,298.283,668.523,0l.029.039C505.643,225.062,334.334,463.8,172.175,690.51L7.181,921.307Z" transform="translate(1111.821 6.798)" fill="#f6732f"/>
              <path id="Path_228" data-name="Path 228" d="M0,911.411C218.953,614.281,451.61,298.282,668.523,0l.029.039C505.644,225.063,334.333,463.8,172.175,690.51L7.181,921.307Z" transform="translate(1097.288 6.798)" fill="#f6732f"/>
              <path id="Path_229" data-name="Path 229" d="M0,911.411C216.124,618.151,454.256,294.614,668.523,0l.028.039C510.529,218.324,329.463,470.586,172.175,690.51L7.181,921.307Z" transform="translate(1082.755 6.798)" fill="#f6732f"/>
              <path id="Path_230" data-name="Path 230" d="M0,911.411C216.124,618.152,454.256,294.616,668.522,0l.029.039C510.529,218.325,329.46,470.583,172.174,690.51L7.181,921.307,0,911.411" transform="translate(1068.221 6.798)" fill="#f6732f"/>
              <path id="Path_231" data-name="Path 231" d="M0,911.391C216.142,618.156,454.271,294.616,668.537,0l.029.039C510.545,218.327,329.471,470.577,172.193,690.516L7.209,921.326Z" transform="translate(1053.673 6.798)" fill="#f6732f"/>
              <path id="Path_232" data-name="Path 232" d="M0,911.391C216.142,618.157,454.271,294.616,668.536,0l.029.039C510.545,218.327,329.471,470.577,172.193,690.516L7.209,921.326Z" transform="translate(1039.14 6.798)" fill="#f6732f"/>
              <path id="Path_233" data-name="Path 233" d="M0,911.391C213.513,621.762,457.025,290.815,668.537,0l.029.039C457.71,291.271,217.2,627.35,7.209,921.327L0,911.391" transform="translate(1024.607 6.798)" fill="#f6732f"/>
              <path id="Path_234" data-name="Path 234" d="M0,911.391C213.513,621.762,457.026,290.815,668.537,0l.029.039C457.71,291.271,217.2,627.35,7.209,921.327L0,911.391" transform="translate(1010.073 6.798)" fill="#f6732f"/>
              <path id="Path_235" data-name="Path 235" d="M0,911.391C213.51,621.757,457.022,290.811,668.537,0l.028.039C457.714,291.274,217.2,627.354,7.209,921.327L0,911.391" transform="translate(995.54 6.798)" fill="#f6732f"/>
              <path id="Path_236" data-name="Path 236" d="M0,911.391C213.51,621.757,457.022,290.811,668.536,0l.029.039C457.714,291.274,217.2,627.354,7.209,921.327Z" transform="translate(981.007 6.798)" fill="#f6732f"/>
              <path id="Path_237" data-name="Path 237" d="M0,911.391C213.51,621.757,457.022,290.811,668.537,0l.029.039C457.714,291.274,217.2,627.354,7.209,921.327L0,911.391" transform="translate(966.473 6.798)" fill="#f6732f"/>
              <path id="Path_238" data-name="Path 238" d="M0,911.391C213.51,621.757,457.022,290.811,668.537,0l.029.039C457.714,291.274,217.2,627.354,7.209,921.327L0,911.391" transform="translate(951.94 6.798)" fill="#f6732f"/>
              <path id="Path_239" data-name="Path 239" d="M0,911.391C213.51,621.757,457.022,290.811,668.537,0l.028.039C457.714,291.274,217.2,627.354,7.209,921.327Z" transform="translate(937.407 6.798)" fill="#f6732f"/>
              <path id="Path_240" data-name="Path 240" d="M0,911.391C213.507,621.753,457.019,290.806,668.537,0l.028.039C457.717,291.278,217.2,627.359,7.209,921.327L0,911.391" transform="translate(922.874 6.798)" fill="#f6732f"/>
              <path id="Path_241" data-name="Path 241" d="M0,911.391C213.51,621.757,457.022,290.811,668.537,0l.029.039C457.714,291.274,217.2,627.354,7.209,921.327L0,911.391" transform="translate(908.34 6.798)" fill="#f6732f"/>
              <path id="Path_242" data-name="Path 242" d="M0,911.391C213.509,621.757,457.022,290.811,668.536,0l.029.039C457.713,291.274,217.2,627.353,7.209,921.327L0,911.391" transform="translate(893.807 6.798)" fill="#f6732f"/>
              <path id="Path_243" data-name="Path 243" d="M0,911.391C213.51,621.757,457.022,290.811,668.537,0l.028.039C457.714,291.274,217.2,627.353,7.209,921.327L0,911.391" transform="translate(879.273 6.798)" fill="#f6732f"/>
              <path id="Path_244" data-name="Path 244" d="M0,911.391C216.352,617.881,454.377,294.5,668.537,0l.029.039C455.08,294.863,219.967,623.5,7.209,921.327L0,911.391" transform="translate(864.74 6.798)" fill="#f6732f"/>
              <path id="Path_245" data-name="Path 245" d="M0,911.391C216.352,617.881,454.377,294.5,668.537,0l.029.039C455.08,294.862,219.967,623.5,7.209,921.327L0,911.391" transform="translate(850.207 6.798)" fill="#f6732f"/>
              <path id="Path_246" data-name="Path 246" d="M0,911.391C216.352,617.881,454.377,294.5,668.537,0l.028.039C455.08,294.863,219.967,623.5,7.209,921.327L0,911.391" transform="translate(835.674 6.798)" fill="#f6732f"/>
              <path id="Path_247" data-name="Path 247" d="M0,911.391C213.51,621.757,457.022,290.811,668.537,0l.029.039C457.714,291.274,217.2,627.353,7.209,921.327L0,911.391" transform="translate(821.14 6.798)" fill="#f6732f"/>
              <path id="Path_248" data-name="Path 248" d="M0,911.391C213.51,621.757,457.022,290.811,668.537,0l.029.039C457.714,291.274,217.2,627.354,7.209,921.327L0,911.391" transform="translate(806.606 6.798)" fill="#f6732f"/>
              <path id="Path_249" data-name="Path 249" d="M0,911.391C213.51,621.757,457.022,290.811,668.537,0l.029.039C457.714,291.274,217.2,627.353,7.209,921.327Z" transform="translate(792.073 6.798)" fill="#f6732f"/>
              <path id="Path_250" data-name="Path 250" d="M0,911.391C213.51,621.757,457.022,290.811,668.537,0l.028.039C457.714,291.274,217.2,627.353,7.209,921.327L0,911.391" transform="translate(777.54 6.798)" fill="#f6732f"/>
              <path id="Path_251" data-name="Path 251" d="M0,911.391C217.008,616.939,453.352,295.879,668.537,0l.028.039C453.973,296.421,220.757,622.449,7.209,921.327L0,911.391" transform="translate(763.007 6.798)" fill="#f6732f"/>
              <path id="Path_252" data-name="Path 252" d="M0,911.391C217.008,616.939,453.352,295.879,668.537,0l.029.039C453.973,296.421,220.757,622.449,7.209,921.327L0,911.391" transform="translate(748.474 6.798)" fill="#f6732f"/>
              <path id="Path_253" data-name="Path 253" d="M0,911.391C217.008,616.939,453.352,295.879,668.536,0l.028.039C453.972,296.421,220.757,622.449,7.209,921.327L0,911.391" transform="translate(733.94 6.798)" fill="#f6732f"/>
              <path id="Path_254" data-name="Path 254" d="M0,911.391C217.008,616.939,453.352,295.879,668.537,0l.028.039C453.973,296.421,220.757,622.449,7.209,921.327L0,911.391" transform="translate(719.406 6.798)" fill="#f6732f"/>
              <path id="Path_255" data-name="Path 255" d="M0,911.391C217.012,616.945,453.342,295.865,668.537,0l.029.039c-214.583,296.4-447.812,622.4-661.357,921.288L0,911.391" transform="translate(704.873 6.798)" fill="#f6732f"/>
              <path id="Path_256" data-name="Path 256" d="M0,911.391C217.012,616.945,453.341,295.865,668.537,0l.029.039c-214.583,296.4-447.812,622.4-661.357,921.288L0,911.391" transform="translate(690.34 6.798)" fill="#f6732f"/>
              <path id="Path_257" data-name="Path 257" d="M0,911.391C217.011,616.945,453.341,295.865,668.537,0l.028.039c-214.582,296.4-447.812,622.4-661.356,921.288L0,911.391" transform="translate(675.807 6.798)" fill="#f6732f"/>
              <path id="Path_258" data-name="Path 258" d="M0,911.391C217.012,616.945,453.341,295.865,668.536,0l.029.039c-214.583,296.4-447.812,622.4-661.356,921.288L0,911.391" transform="translate(661.274 6.798)" fill="#f6732f"/>
              <path id="Path_259" data-name="Path 259" d="M0,911.372C217.03,616.95,453.355,295.865,668.551,0l.029.039C454,296.435,220.763,622.438,7.238,921.346L0,911.372" transform="translate(646.725 6.798)" fill="#f6732f"/>
              <path id="Path_260" data-name="Path 260" d="M0,911.372C217.03,616.95,453.355,295.865,668.551,0l.028.039C454,296.435,220.763,622.438,7.238,921.346L0,911.372" transform="translate(632.192 6.798)" fill="#f6732f"/>
              <path id="Path_261" data-name="Path 261" d="M0,911.372C213.508,621.735,457.037,290.811,668.551,0l.028.039C457.728,291.274,217.23,627.376,7.238,921.346L0,911.372" transform="translate(617.659 6.798)" fill="#f6732f"/>
              <path id="Path_262" data-name="Path 262" d="M0,911.372C213.508,621.735,457.037,290.811,668.552,0l.028.039C457.728,291.274,217.23,627.376,7.238,921.346L0,911.372" transform="translate(603.126 6.798)" fill="#f6732f"/>
              <path id="Path_263" data-name="Path 263" d="M0,911.372C217.284,616.584,453.519,295.708,668.552,0l.028.039C454.229,296.045,220.911,622.253,7.238,921.346L0,911.372" transform="translate(588.593 6.798)" fill="#f6732f"/>
              <path id="Path_264" data-name="Path 264" d="M0,911.372C213.509,621.736,457.034,290.808,668.551,0l.028.039C457.729,291.277,217.229,627.374,7.238,921.346L0,911.372" transform="translate(574.059 6.798)" fill="#f6732f"/>
              <path id="Path_265" data-name="Path 265" d="M0,911.372C213.508,621.736,457.033,290.808,668.551,0l.028.039C457.729,291.277,217.229,627.374,7.238,921.346L0,911.372" transform="translate(559.526 6.798)" fill="#f6732f"/>
              <path id="Path_266" data-name="Path 266" d="M0,911.372C213.509,621.736,457.034,290.808,668.551,0l.028.039C457.729,291.277,217.229,627.374,7.238,921.346L0,911.372" transform="translate(544.992 6.798)" fill="#f6732f"/>
              <path id="Path_267" data-name="Path 267" d="M0,911.372C213.509,621.736,457.034,290.808,668.551,0l.028.039C457.729,291.277,217.229,627.374,7.238,921.346L0,911.372" transform="translate(530.459 6.798)" fill="#f6732f"/>
              <path id="Path_268" data-name="Path 268" d="M0,911.372C213.509,621.736,457.034,290.808,668.551,0l.028.039C457.729,291.277,217.229,627.374,7.238,921.346L0,911.372" transform="translate(515.926 6.798)" fill="#f6732f"/>
              <path id="Path_269" data-name="Path 269" d="M0,911.372C213.509,621.736,457.034,290.808,668.551,0l.028.039C457.729,291.277,217.229,627.374,7.238,921.346L0,911.372" transform="translate(501.393 6.798)" fill="#f6732f"/>
              <path id="Path_270" data-name="Path 270" d="M0,911.372C213.509,621.736,457.034,290.808,668.552,0l.028.039C457.729,291.277,217.229,627.374,7.238,921.346L0,911.372" transform="translate(486.859 6.798)" fill="#f6732f"/>
              <path id="Path_271" data-name="Path 271" d="M0,911.372C213.509,621.737,457.027,290.8,668.552,0l.028.039C457.737,291.287,217.229,627.374,7.238,921.346L0,911.372" transform="translate(472.326 6.798)" fill="#f6732f"/>
              <path id="Path_272" data-name="Path 272" d="M0,914.74C213.447,625.242,459.4,290.862,671,0l.029.039C518.479,210.69,325.1,480.273,172.807,693.025L7.238,924.715Z" transform="translate(457.792 3.429)" fill="#f6732f"/>
              <path id="Path_273" data-name="Path 273" d="M0,914.74C214.3,624.044,458.7,291.88,671,0l.029.039C459.4,292.345,218,629.66,7.238,924.716L0,914.74" transform="translate(443.259 3.429)" fill="#f6732f"/>
              <path id="Path_274" data-name="Path 274" d="M0,914.74C216.955,620.454,455.919,295.665,671,0l.029.039C512.406,219.1,330.739,472.383,172.808,693.027L7.238,924.715Z" transform="translate(428.726 3.429)" fill="#f6732f"/>
              <path id="Path_275" data-name="Path 275" d="M0,914.74C214.3,624.044,458.7,291.88,671,0l.029.039C459.4,292.345,218,629.66,7.238,924.716L0,914.74" transform="translate(414.193 3.429)" fill="#f6732f"/>
              <path id="Path_276" data-name="Path 276" d="M0,914.74C214.3,624.044,458.7,291.88,671,0l.029.039C459.4,292.345,218,629.66,7.238,924.716L0,914.74" transform="translate(399.66 3.429)" fill="#f6732f"/>
              <path id="Path_277" data-name="Path 277" d="M0,914.74C214.3,624.044,458.7,291.88,671,0l.029.039C459.4,292.345,218,629.66,7.238,924.716L0,914.74" transform="translate(385.126 3.429)" fill="#f6732f"/>
              <path id="Path_278" data-name="Path 278" d="M0,914.74C214.3,624.044,458.7,291.88,671,0l.029.039C459.4,292.345,218,629.66,7.238,924.716L0,914.74" transform="translate(370.592 3.429)" fill="#f6732f"/>
              <path id="Path_279" data-name="Path 279" d="M0,914.74C214.3,624.044,458.7,291.88,671,0l.029.039C459.4,292.345,218,629.66,7.238,924.715L0,914.74" transform="translate(356.059 3.429)" fill="#f6732f"/>
              <path id="Path_280" data-name="Path 280" d="M0,914.74C214.3,624.044,458.7,291.88,671,0l.029.039C459.4,292.345,218,629.66,7.238,924.715L0,914.74" transform="translate(341.526 3.429)" fill="#f6732f"/>
              <path id="Path_281" data-name="Path 281" d="M0,914.74C214.293,624.038,458.7,291.875,671,0l.029.039C459.4,292.349,218,629.665,7.238,924.715L0,914.74" transform="translate(326.993 3.429)" fill="#f6732f"/>
              <path id="Path_282" data-name="Path 282" d="M0,914.74C214.293,624.038,458.7,291.875,671,0l.029.039C459.4,292.349,218,629.665,7.238,924.715L0,914.74" transform="translate(312.459 3.429)" fill="#f6732f"/>
              <path id="Path_283" data-name="Path 283" d="M0,914.74C214.293,624.038,458.7,291.875,671,0l.029.039C459.4,292.349,218,629.665,7.238,924.715L0,914.74" transform="translate(297.926 3.429)" fill="#f6732f"/>
              <path id="Path_284" data-name="Path 284" d="M0,914.74C214.293,624.038,458.7,291.875,671,0l.029.039C459.4,292.349,218,629.665,7.238,924.715L0,914.74" transform="translate(283.392 3.429)" fill="#f6732f"/>
              <path id="Path_285" data-name="Path 285" d="M0,914.74C214.293,624.038,458.7,291.875,671,0l.029.039C459.4,292.349,218,629.664,7.238,924.715L0,914.74" transform="translate(268.859 3.429)" fill="#f6732f"/>
              <path id="Path_286" data-name="Path 286" d="M0,914.72C214.316,624.052,458.711,291.87,671.01,0l.029.039C459.418,292.354,218.007,629.651,7.267,924.734L0,914.72" transform="translate(254.312 3.429)" fill="#f6732f"/>
              <path id="Path_287" data-name="Path 287" d="M0,914.72C214.316,624.052,458.711,291.87,671.01,0l.029.039C459.418,292.354,218.007,629.651,7.267,924.734L0,914.72" transform="translate(239.779 3.429)" fill="#f6732f"/>
              <path id="Path_288" data-name="Path 288" d="M0,914.72C214.316,624.052,458.711,291.87,671.01,0l.029.039C459.418,292.354,218.007,629.651,7.267,924.734L0,914.72" transform="translate(225.245 3.429)" fill="#f6732f"/>
              <path id="Path_289" data-name="Path 289" d="M0,914.72C214.316,624.052,458.711,291.87,671.01,0l.029.039C459.418,292.354,218.007,629.651,7.267,924.734L0,914.72" transform="translate(210.711 3.429)" fill="#f6732f"/>
              <path id="Path_290" data-name="Path 290" d="M0,914.72C214.316,624.053,458.71,291.869,671.01,0l.029.039C459.419,292.355,218.007,629.651,7.267,924.734L0,914.72" transform="translate(196.178 3.429)" fill="#f6732f"/>
              <path id="Path_291" data-name="Path 291" d="M0,914.72C214.316,624.053,458.71,291.869,671.01,0l.029.039C459.419,292.355,218.007,629.651,7.267,924.734L0,914.72" transform="translate(181.645 3.429)" fill="#f6732f"/>
              <path id="Path_292" data-name="Path 292" d="M0,914.72C214.316,624.053,458.71,291.869,671.01,0l.029.039C459.419,292.355,218.007,629.651,7.267,924.734L0,914.72" transform="translate(167.112 3.429)" fill="#f6732f"/>
              <path id="Path_293" data-name="Path 293" d="M0,914.72C214.316,624.053,458.71,291.869,671.01,0l.029.039C459.419,292.355,218.007,629.651,7.267,924.734L0,914.72" transform="translate(152.579 3.429)" fill="#f6732f"/>
              <path id="Path_294" data-name="Path 294" d="M0,914.72C214.316,624.053,458.71,291.869,671.009,0l.029.039C459.419,292.355,218.006,629.651,7.266,924.734L0,914.72" transform="translate(138.045 3.429)" fill="#f6732f"/>
              <path id="Path_295" data-name="Path 295" d="M0,914.72C214.316,624.053,458.71,291.869,671.01,0l.029.039C459.419,292.355,218.007,629.651,7.267,924.734L0,914.72" transform="translate(123.511 3.429)" fill="#f6732f"/>
              <path id="Path_296" data-name="Path 296" d="M0,914.72C214.316,624.053,458.71,291.869,671.01,0l.029.039C459.419,292.355,218.007,629.651,7.267,924.734L0,914.72" transform="translate(108.978 3.429)" fill="#f6732f"/>
              <path id="Path_297" data-name="Path 297" d="M0,914.72C214.316,624.053,458.71,291.869,671.01,0l.029.039C459.419,292.355,218.007,629.651,7.267,924.734L0,914.72" transform="translate(94.445 3.429)" fill="#f6732f"/>
              <path id="Path_298" data-name="Path 298" d="M0,914.72C217.163,620.154,456.051,295.563,671.01,0l.029.039C456.78,295.962,220.789,625.792,7.267,924.734Z" transform="translate(79.912 3.429)" fill="#f6732f"/>
              <path id="Path_299" data-name="Path 299" d="M0,918.148C215.112,626.392,460.409,292.961,673.5,0l.029.038C461.116,293.44,218.8,631.984,7.267,928.162L0,918.148" transform="translate(65.379 0.001)" fill="#f6732f"/>
              <path id="Path_300" data-name="Path 300" d="M0,918.148C215.112,626.392,460.409,292.961,673.5,0l.029.038C461.116,293.44,218.8,631.984,7.267,928.162L0,918.148" transform="translate(50.845 0.001)" fill="#f6732f"/>
              <path id="Path_301" data-name="Path 301" d="M0,918.148C215.112,626.392,460.409,292.961,673.5,0l.029.038C461.116,293.44,218.8,631.984,7.267,928.162L0,918.148" transform="translate(36.312 0.001)" fill="#f6732f"/>
              <path id="Path_302" data-name="Path 302" d="M0,918.148C215.112,626.392,460.409,292.96,673.5,0l.029.038C461.116,293.44,218.8,631.984,7.267,928.162Z" transform="translate(21.778 0.001)" fill="#f6732f"/>
              <path id="Path_303" data-name="Path 303" d="M0,918.148C215.112,626.392,460.409,292.96,673.5,0l.029.038C461.116,293.44,218.8,631.984,7.267,928.162L0,918.148" transform="translate(7.245 0.001)" fill="#f6732f"/>
              <path id="Path_304" data-name="Path 304" d="M0,908.193C212.786,619.612,455.415,289.789,666.187,0l.029.039C456.105,290.252,216.408,625.113,7.181,918.089Z" transform="translate(0 0.031)" fill="#f6732f"/>
              <path id="Path_305" data-name="Path 305" d="M0,888.361C208.05,606.013,445.393,283.476,651.512,0l.028.039C446.007,283.844,211.6,611.41,6.9,897.864l-6.9-9.5" transform="translate(0.142 0.031)" fill="#f6732f"/>
              <path id="Path_306" data-name="Path 306" d="M0,868.47C202.62,593.653,436.015,276.112,636.878,0l.029.039C492.091,200,308.482,455.862,163.877,657.773L6.7,877.7,0,868.47" transform="translate(0.243 0.031)" fill="#f6732f"/>
              <path id="Path_307" data-name="Path 307" d="M0,848.6C198.721,578.918,425.344,270.742,622.231,0l.028.039C425.959,271.133,201.992,583.9,6.469,857.514L0,848.6" transform="translate(0.356 0.031)" fill="#f6732f"/>
              <path id="Path_308" data-name="Path 308" d="M0,828.73C194.065,565.395,415.306,264.368,607.584,0l.029.039C415.933,264.786,197.163,570.129,6.24,837.33L0,828.73" transform="translate(0.47 0.03)" fill="#f6732f"/>
              <path id="Path_309" data-name="Path 309" d="M0,808.859C189.358,551.8,405.3,258.035,592.938,0l.029.038C405.878,258.4,192.387,556.425,6.013,817.145L0,808.859" transform="translate(0.584 0.03)" fill="#f6732f"/>
              <path id="Path_310" data-name="Path 310" d="M0,789.007C183.91,539.241,395.867,250.808,578.275,0l.028.039C446.757,181.623,279.983,413.992,148.591,597.3L5.756,796.94Z" transform="translate(0.713 0.031)" fill="#f6732f"/>
              <path id="Path_311" data-name="Path 311" d="M0,769.116C179.971,524.64,385.261,245.336,563.642,0l.028.038C385.789,245.651,182.806,528.98,5.557,776.774L0,769.116" transform="translate(0.812 0.032)" fill="#f6732f"/>
              <path id="Path_312" data-name="Path 312" d="M0,749.246C175.268,511.05,375.236,238.98,549,0l.028.039c-173.271,239.249-371,515.231-543.694,756.55L0,749.246" transform="translate(0.926 0.031)" fill="#f6732f"/>
              <path id="Path_313" data-name="Path 313" d="M0,729.356C167.842,501.416,367.514,229.3,534.362,0l.029.039c-166.4,229.938-363.863,505.1-529.261,736.386L0,729.356" transform="translate(1.026 0.03)" fill="#f6732f"/>
              <path id="Path_314" data-name="Path 314" d="M0,709.485C165.277,484.88,355.722,225.451,519.715,0l.029.039C401.509,163.309,251.5,372.081,133.356,536.837L4.9,716.24Z" transform="translate(1.14 0.03)" fill="#f6732f"/>
              <path id="Path_315" data-name="Path 315" d="M0,689.594C158.611,474.032,347.354,216.769,505.08,0l.029.039C347.8,217.408,161.118,477.508,4.7,696.073L0,689.594" transform="translate(1.239 0.031)" fill="#f6732f"/>
              <path id="Path_316" data-name="Path 316" d="M0,669.723C155.923,457.645,335.68,212.814,490.434,0l.029.039c-111.6,154.076-253.2,351.1-364.709,506.586L4.474,675.888Z" transform="translate(1.354 0.031)" fill="#f6732f"/>
              <path id="Path_317" data-name="Path 317" d="M0,649.813C151.337,444.127,325.649,206.454,475.815,0l.029.039c-108.276,149.5-245.679,340.625-353.9,491.442L4.3,655.743Z" transform="translate(1.439 0.031)" fill="#f6732f"/>
              <path id="Path_318" data-name="Path 318" d="M0,629.943C131.048,451.563,332.342,177.3,461.168,0l.029.039C333.084,176.813,132.918,455.8,4.075,635.56L0,629.943" transform="translate(1.553 0.031)" fill="#f6732f"/>
              <path id="Path_319" data-name="Path 319" d="M0,610.031C140.243,419.357,307.066,191.711,446.548,0l.028.039C307.453,192.264,142.261,422.158,3.9,615.411L0,610.031" transform="translate(1.639 0.032)" fill="#f6732f"/>
              <path id="Path_320" data-name="Path 320" d="M0,590.141C135.612,405.636,296.994,185.447,431.915,0l.029.039C297.366,185.979,137.586,408.374,3.7,595.246l-3.7-5.1" transform="translate(1.738 0.031)" fill="#f6732f"/>
              <path id="Path_321" data-name="Path 321" d="M0,570.231C131.033,391.965,286.939,179.187,417.3,0l.029.039C287.29,179.688,132.888,394.538,3.533,575.1L0,570.231" transform="translate(1.824 0.032)" fill="#f6732f"/>
              <path id="Path_322" data-name="Path 322" d="M0,550.34C126.419,378.267,276.858,172.911,402.662,0l.029.039c-125.48,173.375-274.5,380.69-399.357,554.9L0,550.34" transform="translate(1.923 0.032)" fill="#f6732f"/>
              <path id="Path_323" data-name="Path 323" d="M0,530.43C121.852,364.612,266.805,166.653,388.044,0l.029.039C267.134,167.122,123.484,366.877,3.163,534.79L0,530.43" transform="translate(2.009 0.032)" fill="#f6732f"/>
              <path id="Path_324" data-name="Path 324" d="M0,510.54C117.251,350.933,256.723,160.374,373.411,0l.029.039C257.058,160.852,118.778,353.053,2.964,514.625L0,510.54" transform="translate(2.109 0.031)" fill="#f6732f"/>
              <path id="Path_325" data-name="Path 325" d="M0,490.609C112.667,337.235,246.684,154.117,358.806,0l.028.039C246.993,154.557,114.113,339.243,2.822,494.5L0,490.609" transform="translate(2.18 0.033)" fill="#f6732f"/>
              <path id="Path_326" data-name="Path 326" d="M0,470.72C97.769,337.38,247.975,132.409,344.173,0l.029.039c-95.676,132-245.27,340.185-341.581,474.294L0,470.72" transform="translate(2.28 0.032)" fill="#f6732f"/>
              <path id="Path_327" data-name="Path 327" d="M0,450.79C103.468,309.838,226.566,141.584,329.568,0l.029.039C226.851,141.99,104.756,311.627,2.479,454.206Z" transform="translate(2.351 0.032)" fill="#f6732f"/>
              <path id="Path_328" data-name="Path 328" d="M0,430.879C89.482,308.847,226.9,121.178,314.949,0l.029.039C227.418,120.857,90.452,311.317,2.308,434.061L0,430.879" transform="translate(2.437 0.033)" fill="#f6732f"/>
              <path id="Path_329" data-name="Path 329" d="M0,410.968C85.305,294.543,216.357,115.56,300.329,0l.029.039C216.856,115.265,86.229,296.9,2.137,413.914Z" transform="translate(2.522 0.034)" fill="#f6732f"/>
              <path id="Path_330" data-name="Path 330" d="M0,391.058C81.155,280.276,205.813,109.943,285.711,0l.029.039C206.3,109.675,81.984,282.447,1.966,393.769L0,391.058" transform="translate(2.608 0.033)" fill="#f6732f"/>
              <path id="Path_331" data-name="Path 331" d="M0,371.128C76.988,265.965,195.291,104.339,271.106,0l.029.039c-75.393,104.033-193.352,268-269.312,373.6L0,371.128" transform="translate(2.679 0.034)" fill="#f6732f"/>
              <path id="Path_332" data-name="Path 332" d="M0,351.2C64.05,263.828,192.7,87.678,256.5,0l.029.041C192.891,87.98,65.067,265.273,1.681,353.517L0,351.2" transform="translate(2.75 0.033)" fill="#f6732f"/>
              <path id="Path_333" data-name="Path 333" d="M0,331.248C68.7,237.4,174.251,93.113,241.911,0l.029.039C174.658,92.882,69.357,239.167,1.567,333.409L0,331.248" transform="translate(2.807 0.034)" fill="#f6732f"/>
              <path id="Path_334" data-name="Path 334" d="M0,311.319C56.753,233.86,170.763,77.712,227.306,0l.029.039C170.929,77.98,57.62,235.092,1.425,313.284L0,311.319" transform="translate(2.878 0.034)" fill="#f6732f"/>
              <path id="Path_335" data-name="Path 335" d="M0,291.389C53.1,218.874,159.78,72.722,212.7,0l.028.041C159.945,72.987,53.891,220.005,1.282,293.156L0,291.389" transform="translate(2.95 0.034)" fill="#f6732f"/>
              <path id="Path_336" data-name="Path 336" d="M0,271.459C49.445,203.9,148.8,67.742,198.1,0l.028.041C148.955,67.983,50.154,204.907,1.14,273.03Z" transform="translate(3.02 0.035)" fill="#f6732f"/>
              <path id="Path_337" data-name="Path 337" d="M0,251.509C45.809,188.92,137.85,62.771,183.506,0l.029.041C137.973,62.973,46.433,189.81,1.025,252.923L0,251.509" transform="translate(3.078 0.035)" fill="#f6732f"/>
              <path id="Path_338" data-name="Path 338" d="M0,231.559C42.162,173.928,126.885,57.785,168.916,0l.029.039C127,57.974,42.722,174.728.912,232.817L0,231.559" transform="translate(3.135 0.036)" fill="#f6732f"/>
              <path id="Path_339" data-name="Path 339" d="M0,211.611C38.513,158.932,115.917,52.8,154.325,0l.029.039C116.033,52.982,39.014,159.65.8,212.71l-.8-1.1" transform="translate(3.191 0.035)" fill="#f6732f"/>
              <path id="Path_340" data-name="Path 340" d="M0,191.658C34.873,143.949,104.958,47.819,139.734,0l.029.039C105.053,47.974,35.3,144.558.684,192.6L0,191.658" transform="translate(3.249 0.037)" fill="#f6732f"/>
              <path id="Path_341" data-name="Path 341" d="M0,171.69C31.232,128.949,94.007,42.834,125.157,0l.029.039C94.1,42.978,31.606,129.486.6,172.515L0,171.69" transform="translate(3.292 0.037)" fill="#f6732f"/>
              <path id="Path_342" data-name="Path 342" d="M0,151.739,110.566,0C110.1-.28.45,154.675,0,151.739" transform="translate(3.348 0.039)" fill="#f6732f"/>
              <path id="Path_343" data-name="Path 343" d="M0,131.73C.03,131.768,95.991-.191,96.019,0,95.548-.3.377,134.213,0,131.73" transform="translate(3.391 0.078)" fill="#f6732f"/>
              <path id="Path_344" data-name="Path 344" d="M0,111.74C.029,111.778,81.428-.191,81.454,0,81.053-.262.322,113.869,0,111.74" transform="translate(3.42 0.081)" fill="#f6732f"/>
              <path id="Path_345" data-name="Path 345" d="M0,91.769C.03,91.806,66.85-.192,66.877,0,66.568-.186.247,93.359,0,91.769" transform="translate(3.463 0.082)" fill="#f6732f"/>
              <path id="Path_346" data-name="Path 346" d="M0,71.778C.03,71.814,52.286-.19,52.313,0,52.072-.143.193,73.013,0,71.778" transform="translate(3.491 0.085)" fill="#f6732f"/>
              <path id="Path_347" data-name="Path 347" d="M0,51.825,37.72,0C37.714-.151.105,52.741,0,51.825" transform="translate(3.519 0.05)" fill="#f6732f"/>
              <path id="Path_348" data-name="Path 348" d="M0,31.786C.032,31.819,23.151-.187,23.179,0,23.082-.081.081,32.333,0,31.786" transform="translate(3.548 0.099)" fill="#f6732f"/>
              <line id="Line_2" data-name="Line 2" y1="11.798" x2="8.562" transform="translate(3.591 0.118)" fill="none" stroke="#7b1aa7" stroke-width="0.051"/>
            </g>
          </g>
        </g>
      </g>
    </g>
  </g>
</svg>
