<svg xmlns="http://www.w3.org/2000/svg" xmlns:xlink="http://www.w3.org/1999/xlink" width="1856.915" height="928.163" viewBox="0 0 1856.915 928.163">
  <defs>
    <clipPath id="clip-path">
      <rect id="Rectangle_14" data-name="Rectangle 14" width="1856.915" height="928.163" fill="none"/>
    </clipPath>
  </defs>
  <g id="Orange_Pattern_for_BG" data-name="Orange Pattern for BG" transform="translate(0)">
    <g id="Group_15" data-name="Group 15" transform="translate(0)" clip-path="url(#clip-path)">
      <g id="Group_14" data-name="Group 14">
        <g id="Group_13" data-name="Group 13" clip-path="url(#clip-path)">
          <g id="Group_12" data-name="Group 12" opacity="0.45" style="mix-blend-mode: overlay;isolation: isolate">
            <g id="Group_11" data-name="Group 11">
              <g id="Group_10" data-name="Group 10" clip-path="url(#clip-path)">
                <line id="Line_1" data-name="Line 1" x1="3.583" y2="4.937" transform="translate(1849.798 916.246)" fill="none" stroke="#7b1aa7" stroke-width="0.051"/>
                <path id="Path_5" data-name="Path 5" d="M18.15,0C18.173.046-.134,25.089,0,25.128-.037,25.036,18.414.077,18.15,0" transform="translate(1835.203 896.179)" fill="#f6732f"/>
                <path id="Path_6" data-name="Path 6" d="M32.706,0,0,45.149C-.05,45.233,33.087.054,32.706,0" transform="translate(1820.633 876.132)" fill="#f6732f"/>
                <path id="Path_7" data-name="Path 7" d="M47.2,0,0,65.242C-.133,65.19,48,.182,47.2,0" transform="translate(1806.095 856.045)" fill="#f6732f"/>
                <path id="Path_8" data-name="Path 8" d="M61.678,0C61.7.042-.14,85.312,0,85.35-.16,84.993,62.736.3,61.678,0" transform="translate(1791.59 835.978)" fill="#f6732f"/>
                <path id="Path_9" data-name="Path 9" d="M76.184,0C76.21.042-.139,105.38,0,105.418-.148,104.941,77.464.381,76.184,0" transform="translate(1777.055 815.911)" fill="#f6732f"/>
                <path id="Path_10" data-name="Path 10" d="M90.7,0,0,125.466C-.21,125.057,92.379.465,90.7,0" transform="translate(1762.492 795.824)" fill="#f6732f"/>
                <path id="Path_11" data-name="Path 11" d="M105.2,0C79.006,36.321,26.243,109.326,0,145.554l.029.039C26.324,109.419,79.3,36.71,105.651.628L105.2,0" transform="translate(1747.958 775.737)" fill="#f6732f"/>
                <path id="Path_12" data-name="Path 12" d="M119.686,0C89.892,41.337,29.861,124.418,0,165.642l.029.039C29.95,124.52,90.239,41.794,120.228.745L119.686,0" transform="translate(1733.424 755.65)" fill="#f6732f"/>
                <path id="Path_13" data-name="Path 13" d="M134.177,0C100.768,46.339,33.469,139.494,0,185.729l.029.039C33.587,139.635,101.187,46.892,134.8.864L134.177,0" transform="translate(1718.891 735.563)" fill="#f6732f"/>
                <path id="Path_14" data-name="Path 14" d="M148.654,0C111.65,51.369,37.089,154.61,0,205.837l.028.039C37.21,154.751,112.127,52,149.4,1.021L148.654,0" transform="translate(1704.357 715.456)" fill="#f6732f"/>
                <path id="Path_15" data-name="Path 15" d="M163.131,0C122.528,56.393,40.707,169.72,0,225.942l.029.039C40.837,169.87,123.072,57.116,163.986,1.177L163.131,0" transform="translate(1689.823 695.351)" fill="#f6732f"/>
                <path id="Path_16" data-name="Path 16" d="M177.607,0C133.4,61.411,44.318,184.821,0,246.05l.029.039C44.47,185,134.024,62.24,178.576,1.335L177.607,0" transform="translate(1675.29 675.244)" fill="#f6732f"/>
                <path id="Path_17" data-name="Path 17" d="M192.083,0C144.282,66.441,47.939,199.936,0,266.157l.029.038C48.093,200.116,144.965,67.35,193.166,1.492L192.083,0" transform="translate(1660.757 655.138)" fill="#f6732f"/>
                <path id="Path_18" data-name="Path 18" d="M206.561,0C155.151,71.453,51.546,215.033,0,286.263l.03.039C51.73,215.251,155.92,72.478,207.757,1.649L206.561,0" transform="translate(1646.223 635.031)" fill="#f6732f"/>
                <path id="Path_19" data-name="Path 19" d="M221.023,0C166.026,76.492,55.168,230.167,0,306.39l.03.039C55.354,230.386,166.869,77.617,222.363,1.845L221.023,0" transform="translate(1631.689 614.905)" fill="#f6732f"/>
                <path id="Path_20" data-name="Path 20" d="M235.485,0C168.759,92.724,66.2,235.2,0,326.515l.029.041C66.006,235.708,169.992,93.569,236.966,2.041L235.485,0" transform="translate(1617.156 594.779)" fill="#f6732f"/>
                <path id="Path_21" data-name="Path 21" d="M249.961,0C179.129,98.428,70.263,249.673,0,346.623l.029.039C70.081,250.246,180.462,99.359,251.558,2.2l-1.6-2.2" transform="translate(1602.622 574.673)" fill="#f6732f"/>
                <path id="Path_22" data-name="Path 22" d="M264.408,0C189.5,104.18,74.332,264.2,0,366.768l.029.039c74.114-102,190.9-261.628,266.147-364.372L264.408,0" transform="translate(1588.089 554.527)" fill="#f6732f"/>
                <path id="Path_23" data-name="Path 23" d="M278.871,0C199.867,109.894,78.415,278.718,0,386.894l.029.039C78.193,279.331,201.4,111,280.781,2.631L278.871,0" transform="translate(1573.556 534.4)" fill="#f6732f"/>
                <path id="Path_24" data-name="Path 24" d="M293.333,0C210.233,115.61,82.48,293.214,0,407.021l.029.039C82.261,293.879,211.88,116.815,295.386,2.827L293.333,0" transform="translate(1559.022 514.275)" fill="#f6732f"/>
                <path id="Path_25" data-name="Path 25" d="M307.8,0C220.595,121.322,86.553,307.724,0,427.148l.029.038c86.29-118.772,222.33-304.55,309.961-424.163L307.8,0" transform="translate(1544.489 494.149)" fill="#f6732f"/>
                <path id="Path_26" data-name="Path 26" d="M322.244,0C230.97,127.07,90.63,322.254,0,447.293l.029.039C90.378,322.969,232.826,128.46,324.61,3.259L322.244,0" transform="translate(1529.955 474.003)" fill="#f6732f"/>
                <path id="Path_27" data-name="Path 27" d="M336.691,0C241.333,132.8,94.694,336.77,0,467.439l.029.039C94.445,337.536,243.3,134.3,339.228,3.495L336.691,0" transform="translate(1515.422 453.857)" fill="#f6732f"/>
                <path id="Path_28" data-name="Path 28" d="M351.139,0C251.68,138.517,98.76,351.288,0,487.585l.029.038C98.511,352.1,253.8,140.158,353.847,3.73L351.139,0" transform="translate(1500.889 433.712)" fill="#f6732f"/>
                <path id="Path_29" data-name="Path 29" d="M365.587,0C262.034,144.238,102.847,365.832,0,507.73l.029.039C102.558,366.64,264.282,146.008,368.466,3.966L365.587,0" transform="translate(1486.355 413.566)" fill="#f6732f"/>
                <path id="Path_30" data-name="Path 30" d="M380.021,0C261.224,165.769,119.4,362.961,0,527.9l.029.039C119.72,363.391,262.813,167.942,383.1,4.241L380.021,0" transform="translate(1471.821 393.401)" fill="#f6732f"/>
                <path id="Path_31" data-name="Path 31" d="M394.484,0C282.755,155.7,110.992,394.885,0,548.022l.029.039C110.679,395.756,285.244,157.7,397.7,4.436L394.484,0" transform="translate(1457.288 373.275)" fill="#f6732f"/>
                <path id="Path_32" data-name="Path 32" d="M408.917,0C293.114,161.443,115.047,409.408,0,568.188l.029.039c114.728-157.87,295.7-404.668,412.309-563.516L408.917,0" transform="translate(1442.754 353.109)" fill="#f6732f"/>
                <path id="Path_33" data-name="Path 33" d="M423.364,0C290.991,184.711,133.031,404.54,0,588.333l.029.039C133.405,405.038,292.925,187.358,426.955,4.948L423.364,0" transform="translate(1428.222 332.964)" fill="#f6732f"/>
                <path id="Path_34" data-name="Path 34" d="M437.8,0C300.933,191.069,137.578,418.421,0,608.5l.03.039C137.967,418.938,302.947,193.826,441.59,5.223L437.8,0" transform="translate(1413.687 312.798)" fill="#f6732f"/>
                <path id="Path_35" data-name="Path 35" d="M452.232,0C310.855,197.4,142.127,432.305,0,628.664l.028.039C142.524,432.833,312.982,200.315,456.221,5.5L452.232,0" transform="translate(1399.155 292.633)" fill="#f6732f"/>
                <path id="Path_36" data-name="Path 36" d="M466.665,0C318.915,206.317,148.262,444.058,0,648.83l.029.039c107.355-147.657,244.594-335.049,352.9-482.627L470.854,5.773Z" transform="translate(1384.621 272.467)" fill="#f6732f"/>
                <path id="Path_37" data-name="Path 37" d="M481.114,0C328.776,212.706,152.868,457.866,0,668.975l.029.039C110.711,516.778,252.21,323.584,363.892,171.455L485.474,6.008Z" transform="translate(1370.087 252.321)" fill="#f6732f"/>
                <path id="Path_38" data-name="Path 38" d="M495.533,0C337.993,220.014,158,470.969,0,689.161l.029.039C158.227,471.643,340.607,223.231,500.122,6.323L495.533,0" transform="translate(1355.554 232.137)" fill="#f6732f"/>
                <path id="Path_39" data-name="Path 39" d="M509.967,0C347.836,226.449,162.631,484.783,0,709.326l.029.039C162.831,485.437,350.575,229.827,514.755,6.6L509.967,0" transform="translate(1341.02 211.971)" fill="#f6732f"/>
                <path id="Path_40" data-name="Path 40" d="M524.386,0C360.512,229.15,164.849,501.714,0,729.511l.029.039C165.339,502.366,363.127,232.73,529.4,6.912L524.386,0" transform="translate(1326.487 191.787)" fill="#f6732f"/>
                <path id="Path_41" data-name="Path 41" d="M538.82,0C367.521,239.336,171.841,512.372,0,749.677l.029.039C172.085,513.107,370.512,243.041,544.035,7.187L538.82,0" transform="translate(1311.954 171.621)" fill="#f6732f"/>
                <path id="Path_42" data-name="Path 42" d="M553.239,0C377.392,245.829,176.453,526.186,0,769.861l.028.039C176.7,526.94,380.451,249.617,558.682,7.5L553.239,0" transform="translate(1297.421 151.436)" fill="#f6732f"/>
                <path id="Path_43" data-name="Path 43" d="M567.658,0C387.223,252.268,181.067,540,0,790.047l.028.039C181.32,540.772,390.43,256.248,573.329,7.815Z" transform="translate(1282.887 131.251)" fill="#f6732f"/>
                <path id="Path_44" data-name="Path 44" d="M582.092,0C397.1,258.748,185.664,553.776,0,810.212l.029.038C185.956,554.608,400.365,262.8,587.963,8.09L582.092,0" transform="translate(1268.354 111.086)" fill="#f6732f"/>
                <path id="Path_45" data-name="Path 45" d="M596.511,0C406.945,265.205,190.268,567.578,0,830.4l.029.039C190.583,568.454,410.331,269.41,602.61,8.4l-6.1-8.4" transform="translate(1253.82 90.901)" fill="#f6732f"/>
                <path id="Path_46" data-name="Path 46" d="M610.931,0C416.787,271.657,194.872,581.381,0,850.582l.029.038C195.211,582.3,420.3,276.027,617.257,8.718L610.931,0" transform="translate(1239.287 70.716)" fill="#f6732f"/>
                <path id="Path_47" data-name="Path 47" d="M625.35,0C426.616,278.093,199.494,595.209,0,870.767l.028.039C199.82,596.12,430.282,282.661,631.905,9.032L625.35,0" transform="translate(1224.754 50.531)" fill="#f6732f"/>
                <path id="Path_48" data-name="Path 48" d="M639.77,0C437.275,283.39,203.408,609.967,0,890.951l.029.039C147.336,688.41,335.808,431.536,484.572,229.275L646.551,9.346Z" transform="translate(1210.221 30.346)" fill="#f6732f"/>
                <path id="Path_49" data-name="Path 49" d="M654.16,0C446.3,291.036,208.711,622.864,0,911.175l.029.039c209.037-287.377,450.191-615.28,661.2-901.476L654.16,0" transform="translate(1195.688 10.122)" fill="#f6732f"/>
                <path id="Path_50" data-name="Path 50" d="M661.384,0C447.449,299.4,214.573,624.908,0,921.248l.029.039C214.835,625.911,451.519,304.341,668.537,9.857L661.384,0" transform="translate(1181.133 0.078)" fill="#f6732f"/>
                <path id="Path_51" data-name="Path 51" d="M661.384,0C451.189,294.2,211.026,629.765,0,921.248l.029.039C211.367,630.723,455.234,299.264,668.537,9.857L661.384,0" transform="translate(1166.6 0.078)" fill="#f6732f"/>
                <path id="Path_52" data-name="Path 52" d="M661.383,0C451.189,294.2,211.025,629.765,0,921.248l.028.039C211.366,630.723,455.233,299.264,668.536,9.857L661.383,0" transform="translate(1152.067 0.078)" fill="#f6732f"/>
                <path id="Path_53" data-name="Path 53" d="M663.828,0C453.724,294.1,211.092,633.063,0,924.617l.029.039C152.862,714.4,348.5,447.934,502.869,238.04L670.981,9.857,663.828,0" transform="translate(1135.089 0.078)" fill="#f6732f"/>
                <path id="Path_54" data-name="Path 54" d="M663.828,0C453.723,294.1,211.092,633.063,0,924.617l.029.039C152.862,714.4,348.5,447.934,502.869,238.04L670.981,9.857Z" transform="translate(1120.555 0.078)" fill="#f6732f"/>
                <path id="Path_55" data-name="Path 55" d="M663.829,0C453.723,294.1,211.092,633.063,0,924.617l.029.039C152.862,714.4,348.5,447.934,502.869,238.04L670.982,9.857,663.829,0" transform="translate(1106.022 0.078)" fill="#f6732f"/>
                <path id="Path_56" data-name="Path 56" d="M663.829,0C452.863,295.287,211.817,632.082,0,924.617l.029.039C212.128,633,456.893,300.326,670.982,9.857L663.829,0" transform="translate(1091.489 0.078)" fill="#f6732f"/>
                <path id="Path_57" data-name="Path 57" d="M663.829,0C452.863,295.286,211.817,632.082,0,924.617l.029.039C212.128,633,456.893,300.326,670.982,9.857L663.829,0" transform="translate(1076.955 0.078)" fill="#f6732f"/>
                <path id="Path_58" data-name="Path 58" d="M663.829,0C452.863,295.287,211.817,632.082,0,924.617l.029.039C212.129,633,456.893,300.326,670.982,9.857L663.829,0" transform="translate(1062.422 0.078)" fill="#f6732f"/>
                <path id="Path_59" data-name="Path 59" d="M663.829,0C453.737,294.121,211.067,633.027,0,924.617l.029.039C152.89,714.44,348.493,447.919,502.869,238.04L670.982,9.857Z" transform="translate(1047.889 0.078)" fill="#f6732f"/>
                <path id="Path_60" data-name="Path 60" d="M663.829,0C450.9,298.058,213.757,629.342,0,924.617l.029.039c157.88-217.121,343.383-469.819,502.84-686.616L670.982,9.857Z" transform="translate(1033.355 0.078)" fill="#f6732f"/>
                <path id="Path_61" data-name="Path 61" d="M663.829,0C450.9,298.058,213.756,629.342,0,924.617l.029.039C157.907,707.535,343.412,454.838,502.869,238.04L670.982,9.857Z" transform="translate(1018.822 0.078)" fill="#f6732f"/>
                <path id="Path_62" data-name="Path 62" d="M663.829,0C450.9,298.058,213.756,629.342,0,924.617l.029.039C157.907,707.535,343.412,454.838,502.869,238.04L670.982,9.857Z" transform="translate(1004.289 0.078)" fill="#f6732f"/>
                <path id="Path_63" data-name="Path 63" d="M663.829,0C453.735,294.119,211.057,633.014,0,924.617l.029.039C152.892,714.444,348.507,447.938,502.869,238.04L670.982,9.857Z" transform="translate(989.755 0.078)" fill="#f6732f"/>
                <path id="Path_64" data-name="Path 64" d="M663.829,0C453.735,294.119,211.057,633.014,0,924.617l.029.039C152.892,714.444,348.507,447.937,502.869,238.04L670.982,9.857Z" transform="translate(975.222 0.078)" fill="#f6732f"/>
                <path id="Path_65" data-name="Path 65" d="M663.829,0C453.735,294.119,211.057,633.014,0,924.617l.029.039C152.892,714.444,348.507,447.938,502.869,238.04L670.981,9.857Z" transform="translate(960.688 0.078)" fill="#f6732f"/>
                <path id="Path_66" data-name="Path 66" d="M663.829,0C453.735,294.119,211.057,633.014,0,924.617l.029.039C152.892,714.444,348.507,447.938,502.869,238.04L670.981,9.857Z" transform="translate(946.155 0.078)" fill="#f6732f"/>
                <path id="Path_67" data-name="Path 67" d="M663.829,0C453.734,294.119,211.057,633.014,0,924.617l.029.039C152.892,714.444,348.507,447.938,502.869,238.04L670.981,9.857Z" transform="translate(931.622 0.078)" fill="#f6732f"/>
                <path id="Path_68" data-name="Path 68" d="M663.829,0C453.734,294.119,211.057,633.014,0,924.617l.029.039C152.892,714.444,348.507,447.938,502.869,238.04L670.982,9.857Z" transform="translate(917.089 0.078)" fill="#f6732f"/>
                <path id="Path_69" data-name="Path 69" d="M663.828,0C453.731,294.114,211.053,633.009,0,924.617l.029.039c152.86-210.217,348.49-476.7,502.84-686.616L670.981,9.857Z" transform="translate(902.555 0.078)" fill="#f6732f"/>
                <path id="Path_70" data-name="Path 70" d="M663.828,0C453.734,294.119,211.057,633.014,0,924.617l.029.039C152.892,714.444,348.507,447.938,502.869,238.04L670.982,9.857Z" transform="translate(888.022 0.078)" fill="#f6732f"/>
                <path id="Path_71" data-name="Path 71" d="M663.829,0C452.865,295.289,211.8,632.053,0,924.617l.029.039C212.15,633.033,456.891,300.323,670.982,9.857L663.829,0" transform="translate(873.488 0.078)" fill="#f6732f"/>
                <path id="Path_72" data-name="Path 72" d="M663.829,0C449.111,300.51,215.364,627.19,0,924.617l.029.039C215.623,628.192,453.162,305.417,670.981,9.857L663.829,0" transform="translate(858.955 0.078)" fill="#f6732f"/>
                <path id="Path_73" data-name="Path 73" d="M663.829,0C449.111,300.51,215.364,627.19,0,924.617l.029.039C215.623,628.192,453.161,305.417,670.981,9.857L663.829,0" transform="translate(844.422 0.078)" fill="#f6732f"/>
                <path id="Path_74" data-name="Path 74" d="M663.829,0C452.865,295.289,211.8,632.053,0,924.617l.029.039C212.15,633.033,456.891,300.323,670.981,9.857L663.829,0" transform="translate(829.889 0.078)" fill="#f6732f"/>
                <path id="Path_75" data-name="Path 75" d="M663.829,0C452.856,295.276,211.8,632.058,0,924.617l.029.039C212.146,633.027,456.9,300.336,670.982,9.857L663.829,0" transform="translate(815.355 0.078)" fill="#f6732f"/>
                <path id="Path_76" data-name="Path 76" d="M663.828,0C452.8,295.2,211.824,632.093,0,924.617l.028.039C212.119,632.991,456.955,300.415,670.981,9.857L663.828,0" transform="translate(800.822 0.078)" fill="#f6732f"/>
                <path id="Path_77" data-name="Path 77" d="M663.814,0C452.851,295.289,211.8,632.084,0,924.637l.029.039C212.142,633.04,456.905,300.363,671,9.9L663.814,0" transform="translate(786.288 0.059)" fill="#f6732f"/>
                <path id="Path_78" data-name="Path 78" d="M663.814,0C452.851,295.289,211.8,632.084,0,924.637l.029.039C212.142,633.04,456.905,300.363,671,9.9L663.814,0" transform="translate(771.755 0.059)" fill="#f6732f"/>
                <path id="Path_79" data-name="Path 79" d="M663.814,0C452.851,295.289,211.8,632.084,0,924.637l.029.039C212.142,633.04,456.905,300.363,671,9.9L663.814,0" transform="translate(757.222 0.059)" fill="#f6732f"/>
                <path id="Path_80" data-name="Path 80" d="M666.3,0C455.416,295.2,211.88,635.425,0,928.064l.029.039C153.435,717.071,349.794,449.592,504.744,238.931L673.483,9.9Z" transform="translate(740.201 0.059)" fill="#f6732f"/>
                <path id="Path_81" data-name="Path 81" d="M666.3,0C455.416,295.2,211.88,635.425,0,928.064l.029.039C153.435,717.071,349.794,449.592,504.744,238.931L673.483,9.9Z" transform="translate(725.668 0.059)" fill="#f6732f"/>
                <path id="Path_82" data-name="Path 82" d="M666.3,0C455.416,295.2,211.88,635.425,0,928.064l.029.039C153.435,717.071,349.794,449.592,504.744,238.931L673.483,9.9Z" transform="translate(711.135 0.059)" fill="#f6732f"/>
                <path id="Path_83" data-name="Path 83" d="M666.3,0C455.426,295.216,211.864,635.4,0,928.064l.029.039C153.454,717.1,349.784,449.578,504.744,238.931L673.483,9.9Z" transform="translate(696.601 0.059)" fill="#f6732f"/>
                <path id="Path_84" data-name="Path 84" d="M666.3,0C455.426,295.216,211.864,635.4,0,928.064l.029.039C153.454,717.1,349.784,449.578,504.744,238.931L673.483,9.9Z" transform="translate(682.068 0.059)" fill="#f6732f"/>
                <path id="Path_85" data-name="Path 85" d="M666.3,0C455.428,295.219,211.858,635.4,0,928.064l.029.039c153.431-211,349.754-478.527,504.715-689.173L673.483,9.9Z" transform="translate(667.535 0.059)" fill="#f6732f"/>
                <path id="Path_86" data-name="Path 86" d="M666.3,0C455.428,295.219,211.858,635.4,0,928.064l.029.039c153.431-211,349.754-478.527,504.715-689.173L673.483,9.9Z" transform="translate(653.001 0.059)" fill="#f6732f"/>
                <path id="Path_87" data-name="Path 87" d="M666.3,0C455.428,295.219,211.858,635.4,0,928.064l.029.039c153.431-211,349.755-478.527,504.716-689.173L673.483,9.9Z" transform="translate(638.468 0.059)" fill="#f6732f"/>
                <path id="Path_88" data-name="Path 88" d="M666.3,0C455.428,295.219,211.858,635.4,0,928.064l.029.039c153.431-211,349.754-478.527,504.715-689.173L673.483,9.9Z" transform="translate(623.934 0.059)" fill="#f6732f"/>
                <path id="Path_89" data-name="Path 89" d="M666.3,0C455.428,295.219,211.858,635.4,0,928.064l.029.039c153.431-211,349.754-478.527,504.715-689.173L673.483,9.9Z" transform="translate(609.401 0.059)" fill="#f6732f"/>
                <path id="Path_90" data-name="Path 90" d="M666.3,0C455.428,295.219,211.858,635.4,0,928.064l.029.039c153.431-211,349.754-478.527,504.715-689.173L673.483,9.9Z" transform="translate(594.868 0.059)" fill="#f6732f"/>
                <path id="Path_91" data-name="Path 91" d="M666.3,0C455.428,295.219,211.858,635.4,0,928.064l.029.039c153.431-211,349.754-478.527,504.715-689.173L673.483,9.9Z" transform="translate(580.335 0.059)" fill="#f6732f"/>
                <path id="Path_92" data-name="Path 92" d="M666.3,0C455.428,295.219,211.858,635.4,0,928.064l.029.039c153.431-211,349.754-478.527,504.715-689.173L673.483,9.9Z" transform="translate(565.802 0.059)" fill="#f6732f"/>
                <path id="Path_93" data-name="Path 93" d="M666.3,0C455.428,295.219,211.858,635.4,0,928.064l.029.039c153.431-211,349.754-478.527,504.715-689.173L673.483,9.9Z" transform="translate(551.268 0.059)" fill="#f6732f"/>
                <path id="Path_94" data-name="Path 94" d="M666.3,0C455.428,295.219,211.857,635.4,0,928.064l.029.039c153.431-211,349.754-478.527,504.714-689.173L673.482,9.9Z" transform="translate(536.735 0.059)" fill="#f6732f"/>
                <path id="Path_95" data-name="Path 95" d="M666.3,0C455.428,295.219,211.858,635.4,0,928.064l.029.039c153.431-211,349.755-478.526,504.715-689.173L673.483,9.9Z" transform="translate(522.201 0.059)" fill="#f6732f"/>
                <path id="Path_96" data-name="Path 96" d="M666.3,0C455.428,295.219,211.858,635.4,0,928.064l.029.039c153.431-211,349.754-478.526,504.715-689.173L673.483,9.9Z" transform="translate(507.668 0.059)" fill="#f6732f"/>
                <path id="Path_97" data-name="Path 97" d="M666.3,0C455.428,295.219,211.858,635.4,0,928.064l.029.039c153.431-211,349.754-478.527,504.715-689.173L673.483,9.9Z" transform="translate(493.135 0.059)" fill="#f6732f"/>
                <path id="Path_98" data-name="Path 98" d="M666.3,0C454.555,296.4,212.6,634.429,0,928.064l.029.039C212.927,635.374,458.591,301.44,673.483,9.9L666.3,0" transform="translate(478.602 0.059)" fill="#f6732f"/>
                <path id="Path_99" data-name="Path 99" d="M666.3,0C454.555,296.4,212.6,634.429,0,928.064l.029.039C212.927,635.374,458.591,301.441,673.483,9.9Z" transform="translate(464.068 0.059)" fill="#f6732f"/>
                <path id="Path_100" data-name="Path 100" d="M666.3,0C454.555,296.4,212.6,634.429,0,928.064l.029.039C212.927,635.374,458.591,301.44,673.483,9.9L666.3,0" transform="translate(449.534 0.059)" fill="#f6732f"/>
                <path id="Path_101" data-name="Path 101" d="M666.3,0C454.546,296.382,212.589,634.417,0,928.064l.029.039C212.936,635.387,458.6,301.453,673.483,9.9L666.3,0" transform="translate(435.001 0.059)" fill="#f6732f"/>
                <path id="Path_102" data-name="Path 102" d="M666.3,0C454.536,296.369,212.593,634.423,0,928.064l.029.039C212.931,635.381,458.61,301.466,673.483,9.9L666.3,0" transform="translate(420.468 0.059)" fill="#f6732f"/>
                <path id="Path_103" data-name="Path 103" d="M666.3,0C454.48,296.292,212.619,634.457,0,928.064l.029.039C212.907,635.347,458.666,301.545,673.483,9.9L666.3,0" transform="translate(405.935 0.059)" fill="#f6732f"/>
                <path id="Path_104" data-name="Path 104" d="M666.287,0C454.531,296.381,212.6,634.447,0,928.084l.029.039C212.928,635.4,458.615,301.494,673.5,9.935Z" transform="translate(391.402 0.039)" fill="#f6732f"/>
                <path id="Path_105" data-name="Path 105" d="M666.287,0C454.531,296.381,212.6,634.447,0,928.084l.028.039C212.928,635.4,458.615,301.494,673.5,9.935L666.287,0" transform="translate(376.869 0.039)" fill="#f6732f"/>
                <path id="Path_106" data-name="Path 106" d="M666.287,0C454.531,296.381,212.6,634.447,0,928.084l.029.039C212.928,635.4,458.615,301.494,673.5,9.935L666.287,0" transform="translate(362.335 0.039)" fill="#f6732f"/>
                <path id="Path_107" data-name="Path 107" d="M666.287,0C451.048,301.291,216.276,629.314,0,928.084l.029.039C216.716,630.239,454.99,306.378,673.5,9.935L666.287,0" transform="translate(347.801 0.039)" fill="#f6732f"/>
                <path id="Path_108" data-name="Path 108" d="M666.287,0C454.531,296.381,212.6,634.447,0,928.084l.029.039C212.928,635.4,458.615,301.494,673.5,9.935L666.287,0" transform="translate(333.268 0.039)" fill="#f6732f"/>
                <path id="Path_109" data-name="Path 109" d="M666.287,0C454.531,296.381,212.6,634.447,0,928.084l.028.039C212.927,635.4,458.615,301.494,673.5,9.935L666.287,0" transform="translate(318.735 0.039)" fill="#f6732f"/>
                <path id="Path_110" data-name="Path 110" d="M666.287,0C454.531,296.381,212.6,634.447,0,928.084l.029.039C212.927,635.4,458.615,301.494,673.5,9.935L666.287,0" transform="translate(304.202 0.039)" fill="#f6732f"/>
                <path id="Path_111" data-name="Path 111" d="M666.287,0C454.53,296.381,212.6,634.447,0,928.084l.029.039C212.928,635.4,458.615,301.494,673.5,9.935Z" transform="translate(289.669 0.039)" fill="#f6732f"/>
                <path id="Path_112" data-name="Path 112" d="M666.287,0C454.531,296.381,212.6,634.447,0,928.084l.028.039C212.928,635.4,458.615,301.494,673.5,9.935L666.287,0" transform="translate(275.135 0.039)" fill="#f6732f"/>
                <path id="Path_113" data-name="Path 113" d="M666.287,0C451.7,300.33,215.286,630.766,0,928.084l.029.039C215.557,631.748,455.8,305.333,673.5,9.935L666.287,0" transform="translate(260.601 0.039)" fill="#f6732f"/>
                <path id="Path_114" data-name="Path 114" d="M666.287,0C454.533,296.385,212.589,634.437,0,928.084l.029.039C212.935,635.406,458.612,301.491,673.5,9.935L666.287,0" transform="translate(246.068 0.039)" fill="#f6732f"/>
                <path id="Path_115" data-name="Path 115" d="M666.287,0C454.533,296.385,212.589,634.437,0,928.084l.029.039C212.936,635.406,458.612,301.491,673.5,9.935L666.287,0" transform="translate(231.535 0.039)" fill="#f6732f"/>
                <path id="Path_116" data-name="Path 116" d="M666.287,0C454.533,296.385,212.589,634.437,0,928.084l.028.039C212.935,635.406,458.612,301.491,673.5,9.935L666.287,0" transform="translate(217.002 0.039)" fill="#f6732f"/>
                <path id="Path_117" data-name="Path 117" d="M666.287,0C454.533,296.385,212.589,634.437,0,928.084l.029.039C212.935,635.406,458.612,301.491,673.5,9.935L666.287,0" transform="translate(202.468 0.039)" fill="#f6732f"/>
                <path id="Path_118" data-name="Path 118" d="M666.287,0C454.533,296.385,212.589,634.437,0,928.084l.029.039C212.935,635.406,458.612,301.491,673.5,9.935L666.287,0" transform="translate(187.935 0.039)" fill="#f6732f"/>
                <path id="Path_119" data-name="Path 119" d="M666.287,0C454.533,296.385,212.589,634.437,0,928.084l.028.039C212.935,635.406,458.612,301.491,673.5,9.935L666.287,0" transform="translate(173.402 0.039)" fill="#f6732f"/>
                <path id="Path_120" data-name="Path 120" d="M666.287,0C454.533,296.385,212.589,634.437,0,928.084l.029.039C212.935,635.406,458.612,301.491,673.5,9.935L666.287,0" transform="translate(158.868 0.039)" fill="#f6732f"/>
                <path id="Path_121" data-name="Path 121" d="M666.287,0C454.533,296.385,212.589,634.437,0,928.084l.029.039C212.935,635.406,458.612,301.491,673.5,9.935L666.287,0" transform="translate(144.335 0.039)" fill="#f6732f"/>
                <path id="Path_122" data-name="Path 122" d="M666.287,0C454.533,296.385,212.589,634.437,0,928.084l.029.039C212.935,635.406,458.612,301.491,673.5,9.935L666.287,0" transform="translate(129.802 0.039)" fill="#f6732f"/>
                <path id="Path_123" data-name="Path 123" d="M666.287,0C454.533,296.385,212.589,634.437,0,928.084l.029.039C212.935,635.406,458.612,301.491,673.5,9.935L666.287,0" transform="translate(115.268 0.039)" fill="#f6732f"/>
                <path id="Path_124" data-name="Path 124" d="M666.287,0C454.533,296.385,212.589,634.436,0,928.084l.029.039C212.936,635.407,458.613,301.491,673.5,9.935L666.287,0" transform="translate(100.735 0.039)" fill="#f6732f"/>
                <path id="Path_125" data-name="Path 125" d="M666.287,0C454.533,296.385,212.589,634.436,0,928.084l.029.039C212.936,635.407,458.613,301.491,673.5,9.935L666.287,0" transform="translate(86.202 0.039)" fill="#f6732f"/>
                <path id="Path_126" data-name="Path 126" d="M666.287,0C454.533,296.385,212.589,634.436,0,928.084l.029.039C212.936,635.407,458.613,301.491,673.5,9.935L666.287,0" transform="translate(71.668 0.039)" fill="#f6732f"/>
                <path id="Path_127" data-name="Path 127" d="M666.287,0C454.533,296.385,212.589,634.436,0,928.084l.029.039C212.936,635.407,458.613,301.491,673.5,9.935L666.287,0" transform="translate(57.135 0.039)" fill="#f6732f"/>
                <path id="Path_128" data-name="Path 128" d="M666.287,0C454.533,296.385,212.589,634.436,0,928.084l.029.039C212.935,635.407,458.613,301.491,673.5,9.935L666.287,0" transform="translate(42.602 0.039)" fill="#f6732f"/>
                <path id="Path_129" data-name="Path 129" d="M666.287,0C454.528,296.377,212.584,634.429,0,928.084l.028.039C212.941,635.414,458.618,301.5,673.5,9.935L666.287,0" transform="translate(28.068 0.039)" fill="#f6732f"/>
                <path id="Path_130" data-name="Path 130" d="M666.287,0C454.531,296.381,212.587,634.433,0,928.084l.029.039C212.938,635.41,458.615,301.494,673.5,9.935L666.287,0" transform="translate(13.535 0.039)" fill="#f6732f"/>
                <path id="Path_131" data-name="Path 131" d="M661.713,0C451.412,294.37,211.094,630.077,0,921.78l.029.039C211.525,631.161,455.5,299.49,668.923,9.935L661.713,0" transform="translate(3.576 0.039)" fill="#f6732f"/>
                <path id="Path_132" data-name="Path 132" d="M647.179,0C444.954,283.283,203.482,620.212,0,901.752l.057.078C204.368,621.4,448.863,288.641,654.418,9.974L647.179,0" transform="translate(3.562 0.02)" fill="#f6732f"/>
                <path id="Path_133" data-name="Path 133" d="M632.674,0C431.592,281.552,201.755,602.567,0,881.685l.114.157c202.372-277.8,435.669-595.005,639.8-871.868L632.674,0" transform="translate(3.534 0.02)" fill="#f6732f"/>
                <path id="Path_134" data-name="Path 134" d="M618.17,0C424.981,270.635,194.3,592.524,0,861.618l.171.236C195.451,594.082,429.031,276.188,625.408,9.974L618.17,0" transform="translate(3.505 0.02)" fill="#f6732f"/>
                <path id="Path_135" data-name="Path 135" d="M603.679,0C412.567,267.614,191.806,575.957,0,841.531l.257.353C139.476,650.846,317.5,408.473,457.954,217.54L610.917,9.974Z" transform="translate(3.462 0.02)" fill="#f6732f"/>
                <path id="Path_136" data-name="Path 136" d="M589.174,0C405.011,257.974,185.143,564.852,0,821.464l.313.432c186.22-255.154,408.909-558.144,596.1-811.922L589.174,0" transform="translate(3.434 0.02)" fill="#f6732f"/>
                <path id="Path_137" data-name="Path 137" d="M574.684,0C395.031,251.64,180.578,551.023,0,801.377l.4.549C182.078,553.066,399.328,257.535,581.923,9.974L574.684,0" transform="translate(3.391 0.02)" fill="#f6732f"/>
                <path id="Path_138" data-name="Path 138" d="M560.193,0C379.838,252.645,181.927,528.949,0,781.29l.484.668C183.8,530.976,383.9,258.787,567.431,9.974L560.193,0" transform="translate(3.349 0.02)" fill="#f6732f"/>
                <path id="Path_139" data-name="Path 139" d="M545.7,0C375.079,238.982,171.43,523.343,0,761.2l.57.786C173.183,525.734,379.531,245.094,552.94,9.974L545.7,0" transform="translate(3.306 0.02)" fill="#f6732f"/>
                <path id="Path_140" data-name="Path 140" d="M531.227,0C365.115,232.649,166.882,509.517,0,741.1l.685.943C168.74,512.054,369.651,238.878,538.465,9.974L531.227,0" transform="translate(3.248 0.02)" fill="#f6732f"/>
                <path id="Path_141" data-name="Path 141" d="M516.75,0C355.149,226.316,162.331,495.691,0,720.99l.8,1.1C164.3,498.375,359.769,232.661,523.988,9.974Z" transform="translate(3.191 0.02)" fill="#f6732f"/>
                <path id="Path_142" data-name="Path 142" d="M502.26,0C360,199.12,141.218,504.906,0,700.9l.884,1.218C142.5,508.339,365.674,205.111,509.5,9.973L502.26,0" transform="translate(3.148 0.02)" fill="#f6732f"/>
                <path id="Path_143" data-name="Path 143" d="M487.783,0C349.627,193.412,137.115,490.379,0,680.8l1,1.374C138.587,494.02,355.32,199.483,495.022,9.973L487.783,0" transform="translate(3.092 0.02)" fill="#f6732f"/>
                <path id="Path_144" data-name="Path 144" d="M473.307,0C339.249,187.7,133.026,475.869,0,660.691l1.112,1.531C134.657,479.682,344.973,193.862,480.547,9.973Z" transform="translate(3.035 0.02)" fill="#f6732f"/>
                <path id="Path_145" data-name="Path 145" d="M458.845,0C328.88,181.976,128.959,461.369,0,640.565l1.254,1.728C130.734,465.333,334.643,188.247,466.083,9.973L458.845,0" transform="translate(2.964 0.02)" fill="#f6732f"/>
                <path id="Path_146" data-name="Path 146" d="M444.368,0C318.492,176.248,124.868,446.858,0,620.458l1.367,1.885C126.8,451,324.3,182.639,451.607,9.973L444.368,0" transform="translate(2.907 0.02)" fill="#f6732f"/>
                <path id="Path_147" data-name="Path 147" d="M429.907,0C322.941,149.884,107.312,450.989,0,600.333l1.511,2.081c108.4-147.92,326.9-445.066,435.635-592.439L429.907,0" transform="translate(2.834 0.02)" fill="#f6732f"/>
                <path id="Path_148" data-name="Path 148" d="M415.445,0C312.068,144.848,103.693,435.858,0,580.207l1.654,2.278C106.425,439.551,317.6,152.4,422.683,9.974L415.445,0" transform="translate(2.763 0.02)" fill="#f6732f"/>
                <path id="Path_149" data-name="Path 149" d="M400.982,0C301.2,139.811,100.075,420.728,0,560.081l1.8,2.473c101.145-137.945,305-415.1,406.426-552.58L400.982,0" transform="translate(2.693 0.02)" fill="#f6732f"/>
                <path id="Path_150" data-name="Path 150" d="M386.521,0C290.325,134.775,96.457,405.6,0,539.955l1.939,2.669C99.458,409.667,295.985,142.509,393.759,9.974Z" transform="translate(2.621 0.02)" fill="#f6732f"/>
                <path id="Path_151" data-name="Path 151" d="M372.058,0C279.452,129.739,92.838,390.466,0,519.829L2.081,522.7C95.974,394.724,285.176,137.563,379.3,9.974Z" transform="translate(2.55 0.02)" fill="#f6732f"/>
                <path id="Path_152" data-name="Path 152" d="M357.61,0C268.6,124.708,89.23,375.33,0,499.683l2.252,3.1c90.257-123,272.126-370.173,362.6-492.81L357.61,0" transform="translate(2.464 0.02)" fill="#f6732f"/>
                <path id="Path_153" data-name="Path 153" d="M343.162,0C257.743,119.676,85.622,360.195,0,479.538l2.422,3.337C89.043,364.85,263.58,127.661,350.4,9.974Z" transform="translate(2.379 0.02)" fill="#f6732f"/>
                <path id="Path_154" data-name="Path 154" d="M328.715,0C246.889,114.645,82.014,345.058,0,459.392l2.594,3.573C85.579,349.913,252.783,122.71,335.954,9.974L328.715,0" transform="translate(2.293 0.02)" fill="#f6732f"/>
                <path id="Path_155" data-name="Path 155" d="M314.267,0C236.034,109.613,78.407,329.922,0,439.245l2.765,3.809C82.114,334.977,241.985,117.76,321.506,9.974Z" transform="translate(2.208 0.02)" fill="#f6732f"/>
                <path id="Path_156" data-name="Path 156" d="M299.8,0C225.159,104.574,74.785,314.788,0,419.119l2.907,4.006C78.633,320.037,231.18,112.817,307.043,9.974L299.8,0" transform="translate(2.137 0.02)" fill="#f6732f"/>
                <path id="Path_157" data-name="Path 157" d="M285.357,0C214.3,99.534,71.173,299.645,0,398.974l3.078,4.24C75.174,305.108,220.387,107.873,292.6,9.974L285.357,0" transform="translate(2.051 0.02)" fill="#f6732f"/>
                <path id="Path_158" data-name="Path 158" d="M270.923,0,0,378.808l3.277,4.516L278.161,9.974Z" transform="translate(1.952 0.02)" fill="#f6732f"/>
                <path id="Path_159" data-name="Path 159" d="M256.461,0,0,358.682l3.448,4.752L263.728,10.014Z" transform="translate(1.866 0)" fill="#f6732f"/>
                <path id="Path_160" data-name="Path 160" d="M242.027,0,0,338.517l3.648,5.026L249.294,10.014Z" transform="translate(1.767 0)" fill="#f6732f"/>
                <path id="Path_161" data-name="Path 161" d="M227.594,0,0,318.351l3.847,5.3L234.86,10.014Z" transform="translate(1.667 0)" fill="#f6732f"/>
                <path id="Path_162" data-name="Path 162" d="M213.145,0,0,298.205l4.018,5.538L220.412,10.014Z" transform="translate(1.582 0)" fill="#f6732f"/>
                <path id="Path_163" data-name="Path 163" d="M198.712,0,0,278.041l4.218,5.812L205.979,10.014Z" transform="translate(1.482 0)" fill="#f6732f"/>
                <path id="Path_164" data-name="Path 164" d="M184.293,0,0,257.855l4.446,6.127L191.56,10.014Z" transform="translate(1.368 0)" fill="#f6732f"/>
                <path id="Path_165" data-name="Path 165" d="M169.859,0,0,237.69l4.645,6.4L177.126,10.014Z" transform="translate(1.268 0)" fill="#f6732f"/>
                <path id="Path_166" data-name="Path 166" d="M155.426,0,0,217.525,4.844,224.2,162.692,10.014Z" transform="translate(1.169 0)" fill="#f6732f"/>
                <path id="Path_167" data-name="Path 167" d="M141.006,0,0,197.34l5.072,6.989,143.2-194.316Z" transform="translate(1.055 0)" fill="#f6732f"/>
                <path id="Path_168" data-name="Path 168" d="M126.587,0,0,177.155l5.3,7.3L133.853,10.014Z" transform="translate(0.941 0)" fill="#f6732f"/>
                <path id="Path_169" data-name="Path 169" d="M112.139,0,0,157.01l5.471,7.54L119.406,10.014Z" transform="translate(0.855 0)" fill="#f6732f"/>
                <path id="Path_170" data-name="Path 170" d="M97.734,0,0,136.8,5.728,144.7,105,10.014Z" transform="translate(0.726 0)" fill="#f6732f"/>
                <path id="Path_171" data-name="Path 171" d="M83.3,0,0,116.64l5.927,8.168L90.567,10.014Z" transform="translate(0.627 0)" fill="#f6732f"/>
                <path id="Path_172" data-name="Path 172" d="M68.9,0,0,96.434l6.184,8.522L76.162,10.014Z" transform="translate(0.499 0)" fill="#f6732f"/>
                <path id="Path_173" data-name="Path 173" d="M54.476,0,0,76.25l6.411,8.835L61.743,10.014Z" transform="translate(0.385 0)" fill="#f6732f"/>
                <path id="Path_174" data-name="Path 174" d="M40.057,0,0,56.064l6.64,9.15,40.683-55.2Z" transform="translate(0.271 0)" fill="#f6732f"/>
                <path id="Path_175" data-name="Path 175" d="M25.623,0,0,35.9l6.839,9.424,26.051-35.31Z" transform="translate(0.171 0)" fill="#f6732f"/>
                <path id="Path_176" data-name="Path 176" d="M11.232,0,0,15.675l7.124,9.818L18.5,10.014Z" transform="translate(0.029 0)" fill="#f6732f"/>
                <path id="Path_177" data-name="Path 177" d="M0,9.857l11.389,15.46L18.371,15.7,7.153,0Z" transform="translate(1838.501 0.078)" fill="#f6732f"/>
                <path id="Path_178" data-name="Path 178" d="M0,9.857,26.051,45.168,32.776,35.9,7.153,0Z" transform="translate(1823.968 0.078)" fill="#f6732f"/>
                <path id="Path_179" data-name="Path 179" d="M0,9.857,30.523,51.244,40.684,65.058l6.525-8.992-10.024-14C30.823,33.149,13.73,9.212,7.153,0L0,9.857" transform="translate(1809.434 0.078)" fill="#f6732f"/>
                <path id="Path_180" data-name="Path 180" d="M0,9.857,55.345,84.909l6.269-8.639L7.153,0Z" transform="translate(1794.901 0.078)" fill="#f6732f"/>
                <path id="Path_181" data-name="Path 181" d="M0,9.857,69.992,104.78l6.042-8.326L7.153,0Z" transform="translate(1780.368 0.078)" fill="#f6732f"/>
                <path id="Path_182" data-name="Path 182" d="M0,9.857,84.655,124.631l5.784-7.972L7.153,0Z" transform="translate(1765.835 0.078)" fill="#f6732f"/>
                <path id="Path_183" data-name="Path 183" d="M0,9.857,99.273,144.541l5.614-7.736L7.153,0Z" transform="translate(1751.301 0.078)" fill="#f6732f"/>
                <path id="Path_184" data-name="Path 184" d="M0,9.857,113.92,164.412l5.385-7.422L7.153,0Z" transform="translate(1736.768 0.078)" fill="#f6732f"/>
                <path id="Path_185" data-name="Path 185" d="M0,9.857,128.567,184.282l5.158-7.108L7.153,0Z" transform="translate(1722.235 0.078)" fill="#f6732f"/>
                <path id="Path_186" data-name="Path 186" d="M0,9.857l143.215,194.3,4.929-6.793L7.153,0Z" transform="translate(1707.701 0.078)" fill="#f6732f"/>
                <path id="Path_187" data-name="Path 187" d="M0,9.857,157.848,224.044l4.731-6.519L7.153,0Z" transform="translate(1693.168 0.078)" fill="#f6732f"/>
                <path id="Path_188" data-name="Path 188" d="M0,9.857,172.5,243.915l4.5-6.2L7.153,0Z" transform="translate(1678.635 0.078)" fill="#f6732f"/>
                <path id="Path_189" data-name="Path 189" d="M0,9.857,187.128,263.805l4.3-5.93L7.153,0Z" transform="translate(1664.101 0.078)" fill="#f6732f"/>
                <path id="Path_190" data-name="Path 190" d="M0,9.857,201.747,283.716l4.132-5.695L7.153,0Z" transform="translate(1649.568 0.078)" fill="#f6732f"/>
                <path id="Path_191" data-name="Path 191" d="M0,9.857,216.38,303.605l3.933-5.419L7.153,0Z" transform="translate(1635.035 0.078)" fill="#f6732f"/>
                <path id="Path_192" data-name="Path 192" d="M0,9.857,231.013,323.5l3.733-5.145L7.153,0Z" transform="translate(1620.501 0.078)" fill="#f6732f"/>
                <path id="Path_193" data-name="Path 193" d="M0,9.857,245.647,343.387l3.533-4.869L7.153,0Z" transform="translate(1605.968 0.078)" fill="#f6732f"/>
                <path id="Path_194" data-name="Path 194" d="M0,9.857l260.279,353.42,3.334-4.6L7.153,0Z" transform="translate(1591.435 0.078)" fill="#f6732f"/>
                <path id="Path_195" data-name="Path 195" d="M0,9.857c68.572,92.976,206.45,280.229,274.9,373.331l3.164-4.36C210.484,284.481,74.605,94.47,7.152,0L0,9.857" transform="translate(1576.902 0.078)" fill="#f6732f"/>
                <path id="Path_196" data-name="Path 196" d="M0,9.857C72.228,107.778,217.439,305.017,289.518,403.1l2.992-4.124C221.317,299.623,78.194,99.507,7.152,0L0,9.857" transform="translate(1562.368 0.078)" fill="#f6732f"/>
                <path id="Path_197" data-name="Path 197" d="M0,9.857C75.849,112.771,228.392,320,304.137,423.007l2.821-3.888C232.188,314.716,81.816,104.5,7.152,0L0,9.857" transform="translate(1547.835 0.078)" fill="#f6732f"/>
                <path id="Path_198" data-name="Path 198" d="M0,9.858C90.445,132.672,229.517,321.3,318.755,442.918l2.65-3.651C233.527,316.814,95.863,124.061,7.152,0L0,9.858" transform="translate(1533.301 0.077)" fill="#f6732f"/>
                <path id="Path_199" data-name="Path 199" d="M0,9.858C94.6,138.3,240.041,335.621,333.374,462.828l2.479-3.417C243.936,331.341,99.928,129.768,7.152,0L0,9.858" transform="translate(1518.768 0.077)" fill="#f6732f"/>
                <path id="Path_200" data-name="Path 200" d="M0,9.858c98.766,134.07,250.565,340.085,347.992,472.88l2.308-3.181C254.345,345.867,103.993,135.477,7.152,0L0,9.858" transform="translate(1504.235 0.077)" fill="#f6732f"/>
                <path id="Path_201" data-name="Path 201" d="M0,9.858c102.928,139.7,261.089,354.406,362.6,492.81l2.167-2.985C264.755,360.4,108.056,141.186,7.152,0L0,9.858" transform="translate(1489.702 0.077)" fill="#f6732f"/>
                <path id="Path_202" data-name="Path 202" d="M0,9.858c107.083,145.334,271.632,368.7,377.2,512.74l2.023-2.788C275.146,374.947,112.128,146.885,7.152,0L0,9.858" transform="translate(1475.168 0.077)" fill="#f6732f"/>
                <path id="Path_203" data-name="Path 203" d="M0,9.858c111.241,150.965,282.166,383.01,391.806,532.67l1.881-2.593C285.547,389.488,116.2,152.59,7.152,0L0,9.858" transform="translate(1460.635 0.077)" fill="#f6732f"/>
                <path id="Path_204" data-name="Path 204" d="M0,9.9C115.411,166.48,292.707,407.2,406.439,562.458l1.709-2.357C295.967,404.038,120.282,158.309,7.181,0L0,9.9" transform="translate(1446.087 0.057)" fill="#f6732f"/>
                <path id="Path_205" data-name="Path 205" d="M0,9.9c119.571,162.21,303.236,411.621,421.044,572.489l1.567-2.16C306.371,418.572,124.347,164.015,7.181,0L0,9.9" transform="translate(1431.554 0.057)" fill="#f6732f"/>
                <path id="Path_206" data-name="Path 206" d="M0,9.9C108.761,157.308,327.266,454.45,435.649,602.317l1.425-1.964C329.745,450.961,114.126,149.84,7.181,0L0,9.9" transform="translate(1417.021 0.058)" fill="#f6732f"/>
                <path id="Path_207" data-name="Path 207" d="M0,9.9C127.885,183.376,324.286,450.159,450.239,622.266l1.31-1.807C327.189,447.629,132.484,175.42,7.18,0L0,9.9" transform="translate(1402.488 0.057)" fill="#f6732f"/>
                <path id="Path_208" data-name="Path 208" d="M0,9.9C132.044,189.007,334.807,464.486,464.843,642.2l1.169-1.61C337.6,462.152,136.552,181.125,7.181,0L0,9.9" transform="translate(1387.954 0.057)" fill="#f6732f"/>
                <path id="Path_209" data-name="Path 209" d="M0,9.9c136.2,184.75,345.336,468.9,479.433,652.248l1.054-1.454C348.007,476.684,140.627,186.82,7.181,0L0,9.9" transform="translate(1373.42 0.057)" fill="#f6732f"/>
                <path id="Path_210" data-name="Path 210" d="M0,9.9c140.346,190.395,355.865,483.216,494.023,672.2l.941-1.3C358.411,491.218,144.7,192.512,7.181,0L0,9.9" transform="translate(1358.887 0.057)" fill="#f6732f"/>
                <path id="Path_211" data-name="Path 211" d="M0,9.9C144.488,205.946,366.411,507.405,508.614,702.044l.827-1.139C368.8,505.775,148.788,198.194,7.181,0L0,9.9" transform="translate(1344.354 0.057)" fill="#f6732f"/>
                <path id="Path_212" data-name="Path 212" d="M0,9.9c148.644,201.683,376.924,511.844,523.2,712.1l.713-.982C379.219,520.287,152.858,203.9,7.181,0L0,9.9" transform="translate(1329.821 0.057)" fill="#f6732f"/>
                <path id="Path_213" data-name="Path 213" d="M0,9.9C152.789,217.231,387.462,536.043,537.795,741.943l.6-.825C389.613,534.835,156.938,209.581,7.181,0L0,9.9" transform="translate(1315.288 0.057)" fill="#f6732f"/>
                <path id="Path_214" data-name="Path 214" d="M0,9.9C178.612,252.018,373.933,517.732,552.371,761.91l.513-.707C375.5,515.037,183.07,246.407,7.182,0L0,9.9" transform="translate(1300.754 0.058)" fill="#f6732f"/>
                <path id="Path_215" data-name="Path 215" d="M0,9.9C178.021,251.235,389.809,539.336,566.947,781.88l.427-.59C391.362,537.169,182.3,245.311,7.181,0L0,9.9" transform="translate(1286.22 0.058)" fill="#f6732f"/>
                <path id="Path_216" data-name="Path 216" d="M0,9.9c182.6,247.583,399.857,543.1,581.523,791.952l.342-.471C401.273,551.018,186.832,251.618,7.181,0L0,9.9" transform="translate(1271.687 0.058)" fill="#f6732f"/>
                <path id="Path_217" data-name="Path 217" d="M0,9.9C187.195,263.691,409.885,566.68,596.1,821.818l.256-.354C411.2,564.836,191.34,257.954,7.181,0L0,9.9" transform="translate(1257.154 0.058)" fill="#f6732f"/>
                <path id="Path_218" data-name="Path 218" d="M0,9.9c191.783,260.022,419.94,570.433,610.661,831.91l.2-.275C421.108,578.693,195.858,264.277,7.181,0L0,9.9" transform="translate(1242.621 0.058)" fill="#f6732f"/>
                <path id="Path_219" data-name="Path 219" d="M0,9.9c203.168,275.6,423.986,575.68,625.223,851.9l.143-.2C425.143,584.584,206.944,279.664,7.182,0L0,9.9" transform="translate(1228.087 0.058)" fill="#f6732f"/>
                <path id="Path_220" data-name="Path 220" d="M0,9.9C203.714,286.1,437.447,604.082,639.785,881.784l.085-.118C438.39,602.88,207.555,280.652,7.182,0L0,9.9" transform="translate(1213.554 0.058)" fill="#f6732f"/>
                <path id="Path_221" data-name="Path 221" d="M0,9.9C210.914,296,445.35,614.627,654.332,901.792l.056-.079C500.783,689.529,322.037,440.178,168.623,225.924L7.182,0Z" transform="translate(1199.021 0.058)" fill="#f6732f"/>
                <path id="Path_222" data-name="Path 222" d="M0,9.9C216.331,303.39,454.318,626.778,668.472,921.238l.029-.039C455.042,626.384,219.926,297.8,7.182,0L0,9.9" transform="translate(1184.487 0.058)" fill="#f6732f"/>
                <path id="Path_223" data-name="Path 223" d="M0,9.9C216.347,303.412,454.352,626.824,668.523,921.307l.029-.039C455.076,626.431,219.942,297.819,7.181,0L0,9.9" transform="translate(1169.954 0.058)" fill="#f6732f"/>
                <path id="Path_224" data-name="Path 224" d="M0,9.9C218.951,307.03,451.614,623.02,668.522,921.307l.029-.039C505.639,696.251,334.337,457.5,172.175,230.8L7.182,0Z" transform="translate(1155.421 0.058)" fill="#f6732f"/>
                <path id="Path_225" data-name="Path 225" d="M0,9.9C218.951,307.03,451.614,623.02,668.523,921.307l.029-.039C505.639,696.251,334.336,457.5,172.175,230.8L7.181,0Z" transform="translate(1140.887 0.058)" fill="#f6732f"/>
                <path id="Path_226" data-name="Path 226" d="M0,9.9C218.951,307.03,451.614,623.02,668.523,921.307l.029-.039C505.639,696.251,334.336,457.5,172.175,230.8L7.182,0Z" transform="translate(1126.354 0.058)" fill="#f6732f"/>
                <path id="Path_227" data-name="Path 227" d="M0,9.9C218.953,307.028,451.611,623.024,668.523,921.307l.029-.039C505.643,696.245,334.334,457.508,172.175,230.8L7.181,0Z" transform="translate(1111.821 0.058)" fill="#f6732f"/>
                <path id="Path_228" data-name="Path 228" d="M0,9.9c218.953,297.13,451.61,613.129,668.523,911.411l.029-.039C505.644,696.244,334.333,457.508,172.175,230.8L7.181,0Z" transform="translate(1097.288 0.058)" fill="#f6732f"/>
                <path id="Path_229" data-name="Path 229" d="M0,9.9c216.124,293.26,454.255,616.8,668.523,911.411l.028-.039C510.529,702.984,329.463,450.722,172.175,230.8L7.181,0Z" transform="translate(1082.754 0.058)" fill="#f6732f"/>
                <path id="Path_230" data-name="Path 230" d="M0,9.9C216.124,303.156,454.256,626.691,668.522,921.307l.029-.039C510.528,702.983,329.46,450.725,172.174,230.8L7.181,0,0,9.9" transform="translate(1068.221 0.058)" fill="#f6732f"/>
                <path id="Path_231" data-name="Path 231" d="M0,9.935C216.142,303.17,454.271,626.71,668.537,921.326l.029-.039C510.545,703,329.471,450.749,172.193,230.811L7.209,0Z" transform="translate(1053.673 0.039)" fill="#f6732f"/>
                <path id="Path_232" data-name="Path 232" d="M0,9.935C216.142,303.169,454.271,626.71,668.536,921.326l.029-.039C510.545,703,329.471,450.749,172.193,230.811L7.209,0Z" transform="translate(1039.14 0.039)" fill="#f6732f"/>
                <path id="Path_233" data-name="Path 233" d="M0,9.936c213.513,289.63,457.025,620.577,668.537,911.391l.029-.039C457.71,630.057,217.2,293.977,7.209,0L0,9.936" transform="translate(1024.606 0.038)" fill="#f6732f"/>
                <path id="Path_234" data-name="Path 234" d="M0,9.936c213.513,289.63,457.025,620.577,668.537,911.391l.029-.039C457.71,630.057,217.2,293.977,7.209,0L0,9.936" transform="translate(1010.073 0.038)" fill="#f6732f"/>
                <path id="Path_235" data-name="Path 235" d="M0,9.936C213.51,299.57,457.022,630.516,668.537,921.327l.028-.039C457.714,630.053,217.2,293.973,7.209,0L0,9.936" transform="translate(995.54 0.038)" fill="#f6732f"/>
                <path id="Path_236" data-name="Path 236" d="M0,9.936C213.51,299.57,457.022,630.516,668.536,921.327l.029-.039C457.714,630.053,217.2,293.973,7.209,0Z" transform="translate(981.007 0.038)" fill="#f6732f"/>
                <path id="Path_237" data-name="Path 237" d="M0,9.936C213.51,299.57,457.022,630.516,668.537,921.327l.029-.039C457.713,630.053,217.2,293.973,7.209,0L0,9.936" transform="translate(966.473 0.038)" fill="#f6732f"/>
                <path id="Path_238" data-name="Path 238" d="M0,9.936C213.51,299.57,457.022,630.516,668.537,921.327l.029-.039C457.714,630.053,217.2,293.973,7.209,0L0,9.936" transform="translate(951.94 0.038)" fill="#f6732f"/>
                <path id="Path_239" data-name="Path 239" d="M0,9.936C213.51,299.57,457.022,630.516,668.537,921.327l.028-.039C457.714,630.053,217.2,293.973,7.209,0Z" transform="translate(937.406 0.038)" fill="#f6732f"/>
                <path id="Path_240" data-name="Path 240" d="M0,9.936C213.507,299.574,457.019,630.521,668.537,921.327l.028-.039C457.717,630.049,217.2,293.969,7.209,0L0,9.936" transform="translate(922.873 0.038)" fill="#f6732f"/>
                <path id="Path_241" data-name="Path 241" d="M0,9.936C213.51,299.57,457.022,630.516,668.537,921.327l.029-.039C457.714,630.053,217.2,293.973,7.209,0L0,9.936" transform="translate(908.34 0.038)" fill="#f6732f"/>
                <path id="Path_242" data-name="Path 242" d="M0,9.936C213.509,299.57,457.021,630.516,668.536,921.327l.029-.039C457.713,630.053,217.2,293.974,7.209,0L0,9.936" transform="translate(893.807 0.038)" fill="#f6732f"/>
                <path id="Path_243" data-name="Path 243" d="M0,9.936C213.51,299.57,457.022,630.516,668.537,921.327l.028-.039C457.713,630.053,217.2,293.974,7.209,0L0,9.936" transform="translate(879.273 0.038)" fill="#f6732f"/>
                <path id="Path_244" data-name="Path 244" d="M0,9.936c216.352,293.51,454.376,616.893,668.537,911.391l.029-.039C455.08,626.464,219.967,297.826,7.209,0L0,9.936" transform="translate(864.74 0.038)" fill="#f6732f"/>
                <path id="Path_245" data-name="Path 245" d="M0,9.936c216.352,293.51,454.376,616.893,668.537,911.391l.029-.039C455.08,626.465,219.967,297.826,7.209,0L0,9.936" transform="translate(850.207 0.038)" fill="#f6732f"/>
                <path id="Path_246" data-name="Path 246" d="M0,9.936c216.352,293.51,454.376,616.893,668.537,911.391l.028-.039C455.08,626.464,219.967,297.826,7.209,0L0,9.936" transform="translate(835.673 0.038)" fill="#f6732f"/>
                <path id="Path_247" data-name="Path 247" d="M0,9.936C213.51,299.57,457.022,630.516,668.537,921.327l.029-.039C457.713,630.053,217.2,293.974,7.209,0L0,9.936" transform="translate(821.14 0.038)" fill="#f6732f"/>
                <path id="Path_248" data-name="Path 248" d="M0,9.936C213.51,299.57,457.022,630.516,668.537,921.327l.029-.039C457.714,630.053,217.2,293.973,7.209,0L0,9.936" transform="translate(806.606 0.038)" fill="#f6732f"/>
                <path id="Path_249" data-name="Path 249" d="M0,9.936C213.51,299.57,457.022,630.516,668.537,921.327l.029-.039C457.714,630.053,217.2,293.974,7.209,0Z" transform="translate(792.073 0.038)" fill="#f6732f"/>
                <path id="Path_250" data-name="Path 250" d="M0,9.936C213.51,299.57,457.022,630.516,668.537,921.327l.028-.039C457.714,630.053,217.2,293.974,7.209,0L0,9.936" transform="translate(777.54 0.038)" fill="#f6732f"/>
                <path id="Path_251" data-name="Path 251" d="M0,9.936C217.008,304.388,453.352,625.448,668.537,921.327l.028-.039C453.972,624.907,220.757,298.878,7.209,0L0,9.936" transform="translate(763.007 0.038)" fill="#f6732f"/>
                <path id="Path_252" data-name="Path 252" d="M0,9.936C217.008,304.388,453.352,625.448,668.537,921.327l.029-.039C453.972,624.907,220.757,298.878,7.209,0L0,9.936" transform="translate(748.473 0.038)" fill="#f6732f"/>
                <path id="Path_253" data-name="Path 253" d="M0,9.936C217.007,304.388,453.352,625.448,668.536,921.327l.028-.039C453.971,624.907,220.756,298.878,7.209,0L0,9.936" transform="translate(733.94 0.038)" fill="#f6732f"/>
                <path id="Path_254" data-name="Path 254" d="M0,9.936C217.007,304.388,453.352,625.448,668.537,921.327l.028-.039C453.972,624.907,220.756,298.878,7.209,0L0,9.936" transform="translate(719.406 0.038)" fill="#f6732f"/>
                <path id="Path_255" data-name="Path 255" d="M0,9.936C217.011,304.382,453.342,625.462,668.537,921.327l.029-.039C453.983,624.892,220.753,298.884,7.209,0L0,9.936" transform="translate(704.873 0.038)" fill="#f6732f"/>
                <path id="Path_256" data-name="Path 256" d="M0,9.936C217.011,304.382,453.341,625.462,668.537,921.327l.029-.039C453.983,624.892,220.753,298.884,7.209,0L0,9.936" transform="translate(690.34 0.038)" fill="#f6732f"/>
                <path id="Path_257" data-name="Path 257" d="M0,9.936C217.011,304.382,453.341,625.462,668.537,921.327l.028-.039C453.983,624.892,220.753,298.884,7.209,0L0,9.936" transform="translate(675.807 0.038)" fill="#f6732f"/>
                <path id="Path_258" data-name="Path 258" d="M0,9.936C217.012,304.382,453.341,625.462,668.536,921.327l.029-.039C453.983,624.892,220.753,298.884,7.209,0L0,9.936" transform="translate(661.273 0.038)" fill="#f6732f"/>
                <path id="Path_259" data-name="Path 259" d="M0,9.974C217.03,304.4,453.355,625.481,668.551,921.346l.029-.039C454,624.911,220.763,298.908,7.238,0L0,9.974" transform="translate(646.725 0.02)" fill="#f6732f"/>
                <path id="Path_260" data-name="Path 260" d="M0,9.974C217.03,304.4,453.355,625.481,668.551,921.346l.028-.039C454,624.911,220.763,298.908,7.238,0L0,9.974" transform="translate(632.192 0.02)" fill="#f6732f"/>
                <path id="Path_261" data-name="Path 261" d="M0,9.974c213.508,289.636,457.036,620.56,668.551,911.372l.028-.039C457.728,630.072,217.23,293.97,7.238,0L0,9.974" transform="translate(617.659 0.02)" fill="#f6732f"/>
                <path id="Path_262" data-name="Path 262" d="M0,9.974c213.508,289.636,457.036,620.56,668.551,911.372l.028-.039C457.728,630.072,217.23,293.97,7.238,0L0,9.974" transform="translate(603.126 0.02)" fill="#f6732f"/>
                <path id="Path_263" data-name="Path 263" d="M0,9.974C217.284,304.762,453.519,625.638,668.551,921.346l.028-.039C454.229,625.3,220.911,299.093,7.238,0L0,9.974" transform="translate(588.592 0.02)" fill="#f6732f"/>
                <path id="Path_264" data-name="Path 264" d="M0,9.974C213.509,299.61,457.034,630.538,668.551,921.346l.028-.039C457.729,630.069,217.229,293.972,7.238,0L0,9.974" transform="translate(574.059 0.02)" fill="#f6732f"/>
                <path id="Path_265" data-name="Path 265" d="M0,9.974C213.508,299.61,457.033,630.538,668.551,921.346l.028-.039C457.729,630.069,217.229,293.972,7.238,0L0,9.974" transform="translate(559.526 0.02)" fill="#f6732f"/>
                <path id="Path_266" data-name="Path 266" d="M0,9.974C213.509,299.61,457.034,630.538,668.551,921.346l.028-.039C457.729,630.069,217.229,293.972,7.238,0L0,9.974" transform="translate(544.992 0.02)" fill="#f6732f"/>
                <path id="Path_267" data-name="Path 267" d="M0,9.974C213.509,299.61,457.034,630.538,668.551,921.346l.028-.039C457.729,630.069,217.229,293.972,7.238,0L0,9.974" transform="translate(530.459 0.02)" fill="#f6732f"/>
                <path id="Path_268" data-name="Path 268" d="M0,9.974C213.509,299.61,457.034,630.538,668.551,921.346l.028-.039C457.729,630.069,217.229,293.972,7.238,0L0,9.974" transform="translate(515.926 0.02)" fill="#f6732f"/>
                <path id="Path_269" data-name="Path 269" d="M0,9.974C213.509,299.61,457.034,630.538,668.551,921.346l.028-.039C457.729,630.069,217.229,293.972,7.238,0L0,9.974" transform="translate(501.393 0.02)" fill="#f6732f"/>
                <path id="Path_270" data-name="Path 270" d="M0,9.974C213.509,299.61,457.034,630.538,668.551,921.346l.028-.039C457.729,630.069,217.229,293.972,7.238,0L0,9.974" transform="translate(486.859 0.02)" fill="#f6732f"/>
                <path id="Path_271" data-name="Path 271" d="M0,9.974C213.509,299.609,457.027,630.548,668.551,921.346l.028-.039C457.737,630.059,217.229,293.972,7.238,0L0,9.974" transform="translate(472.325 0.02)" fill="#f6732f"/>
                <path id="Path_272" data-name="Path 272" d="M0,9.974c213.447,289.5,459.4,623.878,671,914.74l.029-.039C518.478,714.025,325.1,444.441,172.807,231.69L7.238,0Z" transform="translate(457.792 0.02)" fill="#f6732f"/>
                <path id="Path_273" data-name="Path 273" d="M0,9.975c214.3,290.7,458.7,622.86,671,914.74l.029-.039C459.4,632.371,218,295.056,7.238,0L0,9.975" transform="translate(443.259 0.019)" fill="#f6732f"/>
                <path id="Path_274" data-name="Path 274" d="M0,9.974c216.955,294.286,455.919,619.075,671,914.74l.029-.039C512.406,705.61,330.739,452.332,172.808,231.688L7.238,0Z" transform="translate(428.726 0.02)" fill="#f6732f"/>
                <path id="Path_275" data-name="Path 275" d="M0,9.975c214.3,290.7,458.7,622.86,671,914.74l.029-.039C459.4,632.371,218,295.056,7.238,0L0,9.975" transform="translate(414.193 0.019)" fill="#f6732f"/>
                <path id="Path_276" data-name="Path 276" d="M0,9.975c214.3,290.7,458.7,622.86,671,914.74l.029-.039C459.4,632.371,218,295.056,7.238,0L0,9.975" transform="translate(399.659 0.019)" fill="#f6732f"/>
                <path id="Path_277" data-name="Path 277" d="M0,9.975c214.3,290.7,458.7,622.86,671,914.74l.029-.039C459.4,632.371,218,295.056,7.238,0L0,9.975" transform="translate(385.125 0.019)" fill="#f6732f"/>
                <path id="Path_278" data-name="Path 278" d="M0,9.975c214.3,290.7,458.7,622.86,671,914.74l.029-.039C459.4,632.371,218,295.056,7.238,0L0,9.975" transform="translate(370.592 0.019)" fill="#f6732f"/>
                <path id="Path_279" data-name="Path 279" d="M0,9.974c214.3,290.7,458.7,622.86,671,914.74l.029-.039C459.4,632.37,218,295.055,7.238,0L0,9.974" transform="translate(356.059 0.02)" fill="#f6732f"/>
                <path id="Path_280" data-name="Path 280" d="M0,9.974c214.3,290.7,458.7,622.86,671,914.74l.029-.039C459.4,632.37,218,295.055,7.238,0L0,9.974" transform="translate(341.526 0.02)" fill="#f6732f"/>
                <path id="Path_281" data-name="Path 281" d="M0,9.974c214.293,290.7,458.7,622.865,671,914.74l.029-.039C459.4,632.365,218,295.049,7.238,0L0,9.974" transform="translate(326.993 0.02)" fill="#f6732f"/>
                <path id="Path_282" data-name="Path 282" d="M0,9.974c214.292,290.7,458.7,622.865,671,914.74l.029-.039C459.4,632.365,218,295.049,7.238,0L0,9.974" transform="translate(312.459 0.02)" fill="#f6732f"/>
                <path id="Path_283" data-name="Path 283" d="M0,9.974c214.293,290.7,458.7,622.865,671,914.74l.029-.039C459.4,632.365,218,295.049,7.238,0L0,9.974" transform="translate(297.926 0.02)" fill="#f6732f"/>
                <path id="Path_284" data-name="Path 284" d="M0,9.974c214.293,290.7,458.7,622.865,671,914.74l.029-.039C459.4,632.365,218,295.049,7.238,0L0,9.974" transform="translate(283.392 0.02)" fill="#f6732f"/>
                <path id="Path_285" data-name="Path 285" d="M0,9.974c214.292,290.7,458.7,622.865,671,914.74l.029-.039C459.4,632.365,218,295.051,7.238,0L0,9.974" transform="translate(268.859 0.02)" fill="#f6732f"/>
                <path id="Path_286" data-name="Path 286" d="M0,10.014c214.316,290.669,458.711,622.85,671.01,914.72l.029-.039C459.418,632.38,218.007,295.083,7.267,0L0,10.014" transform="translate(254.312 0)" fill="#f6732f"/>
                <path id="Path_287" data-name="Path 287" d="M0,10.014c214.316,290.669,458.711,622.85,671.01,914.72l.029-.039C459.418,632.38,218.007,295.083,7.267,0L0,10.014" transform="translate(239.779 0)" fill="#f6732f"/>
                <path id="Path_288" data-name="Path 288" d="M0,10.014c214.316,290.669,458.711,622.85,671.01,914.72l.029-.039C459.418,632.38,218.007,295.083,7.267,0L0,10.014" transform="translate(225.245 0)" fill="#f6732f"/>
                <path id="Path_289" data-name="Path 289" d="M0,10.014c214.316,290.669,458.711,622.85,671.01,914.72l.029-.039C459.418,632.38,218.007,295.083,7.267,0L0,10.014" transform="translate(210.711 0)" fill="#f6732f"/>
                <path id="Path_290" data-name="Path 290" d="M0,10.014c214.316,290.668,458.71,622.851,671.01,914.72l.029-.039C459.419,632.379,218.007,295.083,7.267,0L0,10.014" transform="translate(196.178 0)" fill="#f6732f"/>
                <path id="Path_291" data-name="Path 291" d="M0,10.014c214.316,290.668,458.71,622.851,671.01,914.72l.029-.039C459.419,632.379,218.007,295.083,7.267,0L0,10.014" transform="translate(181.645 0)" fill="#f6732f"/>
                <path id="Path_292" data-name="Path 292" d="M0,10.014c214.316,290.668,458.71,622.851,671.01,914.72l.029-.039C459.419,632.379,218.007,295.083,7.267,0L0,10.014" transform="translate(167.112 0)" fill="#f6732f"/>
                <path id="Path_293" data-name="Path 293" d="M0,10.014c214.316,290.668,458.71,622.851,671.01,914.72l.029-.039C459.419,632.379,218.007,295.083,7.267,0L0,10.014" transform="translate(152.579 0)" fill="#f6732f"/>
                <path id="Path_294" data-name="Path 294" d="M0,10.014c214.316,290.668,458.71,622.851,671.009,914.72l.029-.039C459.419,632.379,218.006,295.083,7.266,0L0,10.014" transform="translate(138.045 0)" fill="#f6732f"/>
                <path id="Path_295" data-name="Path 295" d="M0,10.014c214.316,290.668,458.71,622.851,671.01,914.72l.029-.039C459.419,632.379,218.007,295.083,7.267,0L0,10.014" transform="translate(123.511 0)" fill="#f6732f"/>
                <path id="Path_296" data-name="Path 296" d="M0,10.014c214.316,290.668,458.71,622.851,671.01,914.72l.029-.039C459.419,632.379,218.007,295.083,7.267,0L0,10.014" transform="translate(108.978 0)" fill="#f6732f"/>
                <path id="Path_297" data-name="Path 297" d="M0,10.014c214.316,290.668,458.71,622.851,671.01,914.72l.029-.039C459.419,632.379,218.007,295.083,7.267,0L0,10.014" transform="translate(94.445 0)" fill="#f6732f"/>
                <path id="Path_298" data-name="Path 298" d="M0,10.014C217.163,304.58,456.051,629.171,671.01,924.734l.029-.039C456.78,628.772,220.789,298.942,7.267,0Z" transform="translate(79.912 0)" fill="#f6732f"/>
                <path id="Path_299" data-name="Path 299" d="M0,10.014C215.112,301.77,460.409,635.2,673.5,928.162l.029-.038C461.116,634.722,218.8,296.178,7.267,0L0,10.014" transform="translate(65.379 0)" fill="#f6732f"/>
                <path id="Path_300" data-name="Path 300" d="M0,10.014C215.112,301.77,460.409,635.2,673.5,928.162l.029-.038C461.116,634.722,218.8,296.178,7.267,0L0,10.014" transform="translate(50.845 0)" fill="#f6732f"/>
                <path id="Path_301" data-name="Path 301" d="M0,10.014C215.112,301.77,460.409,635.2,673.5,928.162l.029-.038C461.116,634.722,218.8,296.178,7.267,0L0,10.014" transform="translate(36.311 0)" fill="#f6732f"/>
                <path id="Path_302" data-name="Path 302" d="M0,10.014C215.112,301.77,460.409,635.2,673.5,928.162l.029-.038C461.116,634.722,218.8,296.178,7.267,0Z" transform="translate(21.778 0)" fill="#f6732f"/>
                <path id="Path_303" data-name="Path 303" d="M0,10.014C215.112,301.77,460.409,635.2,673.5,928.162l.029-.038C461.116,634.722,218.8,296.178,7.267,0L0,10.014" transform="translate(7.245 0)" fill="#f6732f"/>
                <path id="Path_304" data-name="Path 304" d="M0,9.9C212.786,298.477,455.415,628.3,666.187,918.089l.029-.039C456.105,627.837,216.408,292.977,7.181,0Z" transform="translate(0 10.043)" fill="#f6732f"/>
                <path id="Path_305" data-name="Path 305" d="M0,9.5C208.05,291.851,445.393,614.388,651.512,897.864l.028-.039C446.007,614.02,211.6,286.454,6.9,0L0,9.5" transform="translate(0.142 30.268)" fill="#f6732f"/>
                <path id="Path_306" data-name="Path 306" d="M0,9.229C202.62,284.047,436.015,601.587,636.877,877.7l.029-.039C492.091,677.7,308.481,421.838,163.877,219.926L6.7,0,0,9.229" transform="translate(0.243 50.433)" fill="#f6732f"/>
                <path id="Path_307" data-name="Path 307" d="M0,8.914C198.72,278.6,425.344,586.772,622.231,857.514l.028-.039C425.958,586.38,201.992,273.61,6.469,0L0,8.914" transform="translate(0.356 70.619)" fill="#f6732f"/>
                <path id="Path_308" data-name="Path 308" d="M0,8.6C194.065,271.936,415.306,572.963,607.583,837.33l.029-.039C415.933,572.544,197.163,267.2,6.24,0L0,8.6" transform="translate(0.47 90.803)" fill="#f6732f"/>
                <path id="Path_309" data-name="Path 309" d="M0,8.286C189.358,265.348,405.3,559.11,592.937,817.145l.029-.038C405.878,558.747,192.387,260.719,6.013,0L0,8.286" transform="translate(0.584 110.989)" fill="#f6732f"/>
                <path id="Path_310" data-name="Path 310" d="M0,7.932C183.91,257.7,395.867,546.132,578.275,796.94l.028-.039C446.757,615.317,279.983,382.948,148.591,199.64L5.756,0Z" transform="translate(0.713 131.193)" fill="#f6732f"/>
                <path id="Path_311" data-name="Path 311" d="M0,7.658C179.971,252.134,385.261,531.437,563.642,776.774l.028-.038C385.789,531.123,182.806,247.794,5.557,0L0,7.658" transform="translate(0.812 151.357)" fill="#f6732f"/>
                <path id="Path_312" data-name="Path 312" d="M0,7.343c175.268,238.2,375.235,510.266,548.995,749.246l.028-.039C375.752,517.3,178.026,241.319,5.329,0L0,7.343" transform="translate(0.926 171.543)" fill="#f6732f"/>
                <path id="Path_313" data-name="Path 313" d="M0,7.069C167.842,235.01,367.514,507.125,534.362,736.426l.029-.039C367.989,506.448,170.527,231.286,5.129,0L0,7.069" transform="translate(1.026 191.708)" fill="#f6732f"/>
                <path id="Path_314" data-name="Path 314" d="M0,6.755C165.277,231.36,355.722,490.789,519.715,716.24l.029-.039C401.509,552.931,251.5,344.159,133.356,179.4L4.9,0Z" transform="translate(1.14 211.893)" fill="#f6732f"/>
                <path id="Path_315" data-name="Path 315" d="M0,6.48C158.611,222.041,347.354,479.3,505.08,696.073l.029-.039C347.8,478.665,161.118,218.565,4.7,0L0,6.48" transform="translate(1.239 232.059)" fill="#f6732f"/>
                <path id="Path_316" data-name="Path 316" d="M0,6.165C155.923,218.243,335.68,463.074,490.433,675.888l.029-.039c-111.6-154.076-253.2-351.1-364.709-506.586L4.474,0Z" transform="translate(1.354 252.245)" fill="#f6732f"/>
                <path id="Path_317" data-name="Path 317" d="M0,5.929C151.337,211.616,325.649,449.289,475.815,655.743l.029-.039c-108.276-149.5-245.678-340.625-353.9-491.442L4.3,0Z" transform="translate(1.439 272.39)" fill="#f6732f"/>
                <path id="Path_318" data-name="Path 318" d="M0,5.617C131.048,184,332.341,458.261,461.167,635.56l.029-.039C333.084,458.747,132.918,179.758,4.075,0L0,5.617" transform="translate(1.553 292.573)" fill="#f6732f"/>
                <path id="Path_319" data-name="Path 319" d="M0,5.38C140.242,196.054,307.065,423.7,446.548,615.411l.028-.039C307.453,423.148,142.261,193.253,3.9,0L0,5.38" transform="translate(1.639 312.72)" fill="#f6732f"/>
                <path id="Path_320" data-name="Path 320" d="M0,5.1C135.612,189.611,296.994,409.8,431.915,595.246l.029-.039C297.366,409.267,137.586,186.872,3.7,0L0,5.1" transform="translate(1.738 332.886)" fill="#f6732f"/>
                <path id="Path_321" data-name="Path 321" d="M0,4.869C131.033,183.135,286.939,395.913,417.3,575.1l.029-.039C287.29,395.412,132.888,180.563,3.533,0L0,4.869" transform="translate(1.824 353.031)" fill="#f6732f"/>
                <path id="Path_322" data-name="Path 322" d="M0,4.6c126.419,172.074,276.858,377.429,402.662,550.34l.029-.039C277.211,381.521,128.194,174.206,3.334,0L0,4.6" transform="translate(1.923 373.196)" fill="#f6732f"/>
                <path id="Path_323" data-name="Path 323" d="M0,4.36C121.852,170.177,266.805,368.137,388.044,534.79l.029-.039C267.134,367.668,123.484,167.912,3.163,0L0,4.36" transform="translate(2.009 393.342)" fill="#f6732f"/>
                <path id="Path_324" data-name="Path 324" d="M0,4.085c117.251,159.608,256.723,350.167,373.411,510.54l.029-.039C257.058,353.773,118.778,161.572,2.964,0L0,4.085" transform="translate(2.109 413.508)" fill="#f6732f"/>
                <path id="Path_325" data-name="Path 325" d="M0,3.888C112.667,157.263,246.684,340.381,358.806,494.5l.028-.039C246.993,339.94,114.113,155.255,2.822,0L0,3.888" transform="translate(2.18 433.633)" fill="#f6732f"/>
                <path id="Path_326" data-name="Path 326" d="M0,3.614c97.769,133.339,247.975,338.311,344.173,470.72l.029-.039C248.526,342.293,98.932,134.11,2.621,0L0,3.614" transform="translate(2.28 453.797)" fill="#f6732f"/>
                <path id="Path_327" data-name="Path 327" d="M0,3.417c103.468,140.951,226.566,309.206,329.568,450.79l.029-.039C226.851,312.216,104.756,142.579,2.479,0Z" transform="translate(2.351 473.925)" fill="#f6732f"/>
                <path id="Path_328" data-name="Path 328" d="M0,3.182c89.482,122.032,226.9,309.7,314.949,430.879l.029-.039C227.418,313.2,90.452,122.744,2.308,0L0,3.182" transform="translate(2.437 494.069)" fill="#f6732f"/>
                <path id="Path_329" data-name="Path 329" d="M0,2.947C85.305,119.371,216.357,298.354,300.329,413.914l.029-.039C216.856,298.649,86.229,117.016,2.137,0Z" transform="translate(2.522 514.215)" fill="#f6732f"/>
                <path id="Path_330" data-name="Path 330" d="M0,2.711C81.155,113.493,205.813,283.826,285.711,393.769l.029-.039C206.3,284.094,81.984,111.322,1.966,0L0,2.711" transform="translate(2.608 534.361)" fill="#f6732f"/>
                <path id="Path_331" data-name="Path 331" d="M0,2.514C76.988,107.677,195.291,269.3,271.106,373.642l.029-.039C195.742,269.569,77.783,105.6,1.823,0L0,2.514" transform="translate(2.679 554.487)" fill="#f6732f"/>
                <path id="Path_332" data-name="Path 332" d="M0,2.317c64.05,87.371,192.7,263.521,256.5,351.2l.029-.041C192.891,265.536,65.067,88.243,1.681,0L0,2.317" transform="translate(2.75 574.614)" fill="#f6732f"/>
                <path id="Path_333" data-name="Path 333" d="M0,2.161C68.7,96.013,174.251,240.3,241.911,333.409l.029-.039C174.658,240.527,69.357,94.242,1.567,0L0,2.161" transform="translate(2.807 594.72)" fill="#f6732f"/>
                <path id="Path_334" data-name="Path 334" d="M0,1.964C56.753,79.423,170.763,235.571,227.306,313.284l.029-.039C170.929,235.3,57.62,78.191,1.425,0L0,1.964" transform="translate(2.878 614.846)" fill="#f6732f"/>
                <path id="Path_335" data-name="Path 335" d="M0,1.767C53.1,74.282,159.78,220.434,212.7,293.156l.028-.041C159.945,220.17,53.891,73.151,1.282,0L0,1.767" transform="translate(2.95 634.973)" fill="#f6732f"/>
                <path id="Path_336" data-name="Path 336" d="M0,1.571C49.445,69.132,148.8,205.288,198.1,273.03l.028-.041C148.955,205.046,50.154,68.123,1.14,0Z" transform="translate(3.02 655.098)" fill="#f6732f"/>
                <path id="Path_337" data-name="Path 337" d="M0,1.414C45.809,64,137.85,190.152,183.506,252.923l.029-.041C137.973,189.951,46.433,63.113,1.025,0L0,1.414" transform="translate(3.078 675.205)" fill="#f6732f"/>
                <path id="Path_338" data-name="Path 338" d="M0,1.257C42.162,58.888,126.885,175.031,168.916,232.817l.029-.039C127,174.843,42.722,58.089.912,0L0,1.257" transform="translate(3.135 695.31)" fill="#f6732f"/>
                <path id="Path_339" data-name="Path 339" d="M0,1.1C38.513,53.778,115.917,159.915,154.325,212.71l.029-.039C116.033,159.728,39.014,53.06.8,0L0,1.1" transform="translate(3.191 715.418)" fill="#f6732f"/>
                <path id="Path_340" data-name="Path 340" d="M0,.944C34.872,48.653,104.958,144.784,139.734,192.6l.029-.039C105.053,144.628,35.3,48.045.684,0L0,.944" transform="translate(3.249 735.524)" fill="#f6732f"/>
                <path id="Path_341" data-name="Path 341" d="M0,.825c31.232,42.741,94.007,128.856,125.157,171.69l.029-.039C94.1,129.538,31.606,43.029.6,0L0,.825" transform="translate(3.292 755.61)" fill="#f6732f"/>
                <path id="Path_342" data-name="Path 342" d="M0,.041,110.566,151.78C110.1,152.061.45-2.894,0,.041" transform="translate(3.348 776.343)" fill="#f6732f"/>
                <path id="Path_343" data-name="Path 343" d="M0,.034C.03,0,95.991,131.956,96.018,131.764,95.548,132.068.377-2.449,0,.034" transform="translate(3.391 796.32)" fill="#f6732f"/>
                <path id="Path_344" data-name="Path 344" d="M0,.029c.029-.038,81.428,111.931,81.454,111.74C81.053,112.031.322-2.1,0,.029" transform="translate(3.42 816.313)" fill="#f6732f"/>
                <path id="Path_345" data-name="Path 345" d="M0,.02C.03-.017,66.85,91.981,66.877,91.789,66.568,91.975.247-1.57,0,.02" transform="translate(3.463 836.292)" fill="#f6732f"/>
                <path id="Path_346" data-name="Path 346" d="M0,.015C.03-.021,52.286,71.984,52.313,71.793,52.072,71.936.193-1.22,0,.015" transform="translate(3.491 856.285)" fill="#f6732f"/>
                <path id="Path_347" data-name="Path 347" d="M0,.012,37.72,51.836C37.714,51.987.105-.9,0,.012" transform="translate(3.519 876.277)" fill="#f6732f"/>
                <path id="Path_348" data-name="Path 348" d="M0,.007C.032-.026,23.151,31.98,23.179,31.792,23.082,31.875.081-.54,0,.007" transform="translate(3.548 896.271)" fill="#f6732f"/>
                <line id="Line_2" data-name="Line 2" x2="8.562" y2="11.798" transform="translate(3.591 916.247)" fill="none" stroke="#7b1aa7" stroke-width="0.051"/>
              </g>
            </g>
          </g>
        </g>
      </g>
    </g>
  </g>
</svg>
