<svg xmlns="http://www.w3.org/2000/svg" xmlns:xlink="http://www.w3.org/1999/xlink" width="143.629" height="15.08" viewBox="0 0 143.629 15.08">
  <defs>
    <clipPath id="clip-path">
      <rect id="SVGID" width="14.965" height="14.951" fill="#390c06"/>
    </clipPath>
  </defs>
  <g id="Social_Icons" data-name="Social Icons" transform="translate(143.629 15.08) rotate(180)">
    <g id="Group_50" data-name="Group 50" transform="translate(42.346)">
      <path id="Path_1266" data-name="Path 1266" d="M387.652,508.195h1.584v6.511a.233.233,0,0,0,.233.233h2.681a.233.233,0,0,0,.233-.233h0v-6.48H394.2a.233.233,0,0,0,.231-.206l.276-2.4a.233.233,0,0,0-.2-.258l-.027,0h-2.1v-1.5c0-.453.244-.683.725-.683h1.369a.233.233,0,0,0,.233-.233h0v-2.2a.233.233,0,0,0-.231-.234H392.5a3.616,3.616,0,0,0-2.364.891,2.479,2.479,0,0,0-.824,2.2v1.757h-1.66a.233.233,0,0,0-.233.233h0v2.366a.232.232,0,0,0,.232.233Z" transform="translate(-387.419 -500.511)" fill="#390c06"/>
    </g>
    <g id="twitter-black-shape-svgrepo-com" transform="translate(78.644 0.501)">
      <g id="Group_72" data-name="Group 72" transform="translate(0 0)">
        <path id="Path_3269" data-name="Path 3269" d="M590.457,505.2q-.127.037-.254.069c-.519.131-.566-.042-.192-.423a3.463,3.463,0,0,0,.446-.558c.287-.45.038-.647-.454-.436q-.264.113-.535.2a2.238,2.238,0,0,1-1.679-.373,3.715,3.715,0,0,0-4.548.535,3.547,3.547,0,0,0-1.076,2.6,3.887,3.887,0,0,0,.024.424c.026.233-.367.4-.9.327a10.181,10.181,0,0,1-3.267-1.041,10.471,10.471,0,0,1-2.71-1.993c-.374-.383-.881-.35-1.02.167a3.685,3.685,0,0,0-.125.966,3.583,3.583,0,0,0,.445,1.753,3.769,3.769,0,0,0,.52.729c.335.366.282.578-.182.448a5.987,5.987,0,0,1-.8-.311v.023a3.554,3.554,0,0,0,.837,2.34,3.661,3.661,0,0,0,1.2.957c.478.239.7.37.435.4a3.813,3.813,0,0,1-.488.032q-.167,0-.348-.015c-.191-.016-.226.383.065.833a3.686,3.686,0,0,0,.888.942,3.6,3.6,0,0,0,1.185.6c.515.147.618.414.159.689a7.189,7.189,0,0,1-3.77,1.022q-.233,0-.445-.01c-.245-.012-.081.2.393.452a10.214,10.214,0,0,0,4.813,1.163,10.755,10.755,0,0,0,3.679-.622,9.353,9.353,0,0,0,2.938-1.663,11.129,11.129,0,0,0,2.1-2.4,10.69,10.69,0,0,0,1.315-2.83,10.461,10.461,0,0,0,.431-2.956v-.239c0-.132.347-.49.737-.856q.264-.248.5-.521C591.128,505.236,590.971,505.052,590.457,505.2Z" transform="translate(-573.749 -503.143)" fill="#390c06"/>
      </g>
    </g>
    <g id="Group_51" data-name="Group 51" transform="translate(123.275 0.938)">
      <path id="Path_1267" data-name="Path 1267" d="M822.49,506.609c-.735-.836-2.091-1.176-4.682-1.176h-9.4c-2.65,0-4.029.363-4.761,1.252-.714.868-.714,2.146-.714,3.914v3.371c0,3.427.847,5.166,5.475,5.166h9.4c2.248,0,3.492-.3,4.3-1.038.826-.756,1.178-1.991,1.178-4.128V510.6C823.282,508.734,823.228,507.449,822.49,506.609ZM816,512.751l-4.271,2.135a.682.682,0,0,1-.644-.02.622.622,0,0,1-.316-.537v-4.257a.622.622,0,0,1,.316-.537.683.683,0,0,1,.643-.021l4.271,2.122a.616.616,0,0,1,0,1.114Z" transform="translate(-802.928 -505.433)" fill="#390c06"/>
    </g>
    <g id="Group_74" data-name="Group 74" transform="translate(0 0.128)">
      <g id="Group_53" data-name="Group 53" transform="translate(0 0)">
        <g id="Group_52" data-name="Group 52" clip-path="url(#clip-path)">
          <g id="Group_73" data-name="Group 73" transform="translate(0 0)">
            <path id="Path_3270" data-name="Path 3270" d="M196.1,524.072a3.855,3.855,0,0,0-5.248-3.588q-.1.039-.2.084a3.724,3.724,0,0,0-.335.173,3.877,3.877,0,0,0-1.069.914q-.087.107-.166.222c-.023.032-.045.065-.067.1-.034.052-.067.105-.1.159a3.827,3.827,0,0,0-.436,1.119c-.006.025-.011.051-.016.077a3.851,3.851,0,0,0,3.782,4.592c.067,0,.133,0,.2-.005a3.848,3.848,0,0,0,.765-.117q.185-.048.362-.113a3.862,3.862,0,0,0,1.247-.751l.025-.022a3.893,3.893,0,0,0,.44-.478l.1-.127a3.853,3.853,0,0,0,.312-.515q.027-.054.053-.11.055-.119.1-.242a3.812,3.812,0,0,0,.175-.6,3.862,3.862,0,0,0,.076-.769v-.005m-1.629,0h0a2.208,2.208,0,0,1-.026.338,2.147,2.147,0,0,1-.044.217c-.009.035-.019.071-.03.106a2.286,2.286,0,0,1-.28.582q-.06.089-.128.171c-.023.027-.046.054-.07.081q-.072.079-.151.15-.04.036-.081.07-.082.068-.171.128a2.232,2.232,0,0,1-2.009.245q-.1-.037-.2-.084a2.224,2.224,0,0,1-1.041-2.968q.023-.049.049-.1t.054-.093a2.238,2.238,0,0,1,.749-.749l.093-.054a2.229,2.229,0,0,1,3.021.9c.016.029.031.059.045.088a1.749,1.749,0,0,1,.085.2q.037.1.065.209c.009.035.018.071.025.108a2.232,2.232,0,0,1,.042.447Z" transform="translate(-184.758 -516.597)" fill="#390c06"/>
            <path id="Path_3271" data-name="Path 3271" d="M225.638,514.826a.909.909,0,1,0,.912.909.909.909,0,0,0-.912-.909h0" transform="translate(-214.177 -512.227)" fill="#390c06"/>
            <path id="Path_3272" data-name="Path 3272" d="M180.515,501.184H173.1a3.779,3.779,0,0,0-3.775,3.772v7.408a3.779,3.779,0,0,0,3.775,3.772h7.414a3.779,3.779,0,0,0,3.775-3.772v-7.408a3.779,3.779,0,0,0-3.775-3.772m2.147,11.18a2.148,2.148,0,0,1-2.147,2.144H173.1a2.148,2.148,0,0,1-2.149-2.144v-7.408a2.147,2.147,0,0,1,2.148-2.145h7.415a2.148,2.148,0,0,1,2.147,2.144Z" transform="translate(-169.325 -501.184)" fill="#390c06"/>
          </g>
        </g>
      </g>
    </g>
  </g>
</svg>
